<svg width="48" height="48" viewBox="0 0 48 48" fill="none" xmlns="http://www.w3.org/2000/svg">
<path d="M31.2443 38.1047C31.1999 38.1047 31.1173 38.2577 31.0745 38.2577C31.0316 38.2577 30.9857 38.296 30.9429 38.296C30.9001 38.296 30.8557 38.2302 30.8128 38.2287C30.77 38.2271 30.7318 38.1705 30.6905 38.1659C30.6491 38.1613 30.6032 38.1659 30.5619 38.1659L30.438 38.1353C30.3967 38.1231 30.386 38.0267 30.3462 38.0129C30.3064 37.9992 30.2177 38.1093 30.1779 38.0925C30.1381 38.0757 30.129 37.9946 30.0907 37.9747C30.0525 37.9548 29.976 38.0053 29.9377 37.9823C29.8995 37.9594 29.8734 37.9211 29.8367 37.8966C29.8 37.8722 29.7771 37.8324 29.7434 37.8064C29.7097 37.7804 29.6945 37.7299 29.6623 37.7023C29.6302 37.6748 29.5889 37.6564 29.5567 37.6274C29.5246 37.5983 29.4527 37.6121 29.4221 37.583C29.3915 37.5539 29.4665 37.4209 29.4374 37.3887C29.4083 37.3566 29.2921 37.4071 29.263 37.3734C29.2339 37.3398 29.2492 37.2724 29.2217 37.2403C29.1942 37.2082 29.1957 37.15 29.1666 37.1179C29.1376 37.0858 29.1222 37.0445 29.0947 37.0123C29.0672 36.9802 29.009 36.9726 28.98 36.9404C28.9509 36.9083 28.9402 36.8624 28.9126 36.8303C28.8851 36.7981 28.8545 36.7676 28.827 36.7354C28.7994 36.7033 28.804 36.6421 28.7765 36.61C28.7489 36.5778 28.6235 36.6222 28.6021 36.5901C28.5806 36.5579 28.6265 36.4585 28.6021 36.4248C28.5776 36.3912 28.472 36.4248 28.4491 36.3897C28.4261 36.3545 28.4582 36.2703 28.4307 36.2367C28.4032 36.203 28.3787 36.1693 28.3511 36.1357C28.3236 36.102 28.2456 36.1127 28.218 36.0791C28.1905 36.0454 28.1997 35.9842 28.1721 35.9521C28.1446 35.9199 28.1048 35.897 28.0773 35.8633C28.0497 35.8297 27.9794 35.8343 27.9518 35.8006C27.9243 35.767 27.987 35.6599 27.961 35.6277C27.935 35.5956 27.8356 35.6277 27.808 35.588L27.7239 35.4916C27.6963 35.4579 27.7361 35.3692 27.7086 35.3386C27.681 35.308 27.5143 35.3891 27.4867 35.3554C27.4592 35.3217 27.5663 35.1779 27.5387 35.1458C27.5112 35.1137 27.4852 35.0785 27.4577 35.0464C27.4301 35.0142 27.3842 34.9959 27.3567 34.9637C27.3291 34.9316 27.2496 34.9423 27.222 34.9102C27.1945 34.878 27.1042 34.898 27.069 34.8643C27.0338 34.8306 27.1073 34.7205 27.0798 34.6883C27.0522 34.6562 27.0109 34.6363 26.9834 34.6026C26.9558 34.569 26.8824 34.5767 26.8548 34.5445C26.8273 34.5124 26.864 34.4252 26.8365 34.3915C26.8089 34.3579 26.7891 34.3196 26.7615 34.2875C26.734 34.2554 26.6238 34.2875 26.5963 34.2584C26.5687 34.2293 26.529 34.2034 26.5014 34.1712C26.4739 34.1391 26.4708 34.0871 26.4418 34.0534C26.4127 34.0198 26.3974 33.9799 26.3699 33.9478C26.3423 33.9157 26.3056 33.8897 26.2781 33.8576C26.2505 33.8254 26.3194 33.7046 26.2918 33.6786C26.2643 33.6526 26.0883 33.7382 26.0608 33.7061C26.0333 33.674 26.1434 33.5256 26.1159 33.4934C26.0883 33.4613 26.0149 33.4659 25.9874 33.4338C25.9598 33.4016 25.8573 33.4338 25.8344 33.3986C25.8114 33.3634 25.816 33.3037 25.7885 33.2716C25.7609 33.2395 25.6798 33.2502 25.6523 33.2181C25.6248 33.1859 25.6156 33.137 25.588 33.1048C25.5605 33.0727 25.6232 32.9641 25.588 32.9319C25.5529 32.8998 25.4488 32.932 25.4228 32.9029C25.3968 32.8738 25.4718 32.7499 25.4458 32.7224C25.4197 32.6948 25.4167 32.6382 25.3891 32.6061C25.3616 32.574 25.3218 32.5541 25.2958 32.5219C25.2698 32.4898 25.1857 32.5051 25.1597 32.473C25.1336 32.4408 25.175 32.3521 25.149 32.32C25.1229 32.2878 24.9959 32.3414 24.9653 32.3092C24.9347 32.2771 24.9347 32.2266 24.9087 32.1945C24.8827 32.1624 24.8215 32.1578 24.7955 32.1257C24.7695 32.0935 24.7251 32.0752 24.6991 32.043C24.6731 32.0109 24.6991 31.9375 24.6701 31.9053C24.641 31.8732 24.6012 31.8549 24.5737 31.8227C24.5461 31.7906 24.6196 31.6789 24.5936 31.6468C24.5676 31.6147 24.5507 31.5733 24.5247 31.5412C24.4987 31.5091 24.4406 31.5014 24.4146 31.4693C24.3886 31.4372 24.2432 31.503 24.2157 31.4693C24.1881 31.4356 24.2922 31.2995 24.2662 31.2674C24.2402 31.2352 24.156 31.249 24.13 31.2169C24.104 31.1847 24.0091 31.2092 23.977 31.1771C23.9449 31.145 24.052 31.0073 24.026 30.9751C23.9999 30.943 23.8883 30.9751 23.8623 30.9476C23.8362 30.9201 23.7659 30.9185 23.7398 30.8864C23.7138 30.8543 23.8179 30.715 23.7903 30.6829C23.7628 30.6508 23.648 30.6936 23.622 30.6615C23.596 30.6293 23.5777 30.5896 23.5501 30.5574C23.5226 30.5253 23.5195 30.4748 23.4935 30.4427C23.4675 30.4106 23.4017 30.4106 23.3757 30.3785C23.3497 30.3463 23.4155 30.2361 23.3895 30.2055C23.3635 30.175 23.3084 30.1627 23.2824 30.1306C23.2564 30.0985 23.212 30.0816 23.186 30.0495C23.16 30.0174 23.0713 30.0373 23.0453 30.0052C23.0193 29.973 23.033 29.9057 23.007 29.8736C22.981 29.8414 22.9427 29.8185 22.9167 29.7863C22.8907 29.7542 22.88 29.7083 22.854 29.6762C22.828 29.6441 22.7729 29.6349 22.7454 29.6028C22.7178 29.5706 22.6918 29.5385 22.6643 29.5079C22.6368 29.4773 22.626 29.4283 22.5985 29.3977C22.571 29.3671 22.5144 29.3595 22.4853 29.3289C22.4562 29.2983 22.4164 29.2799 22.3874 29.2493C22.3583 29.2187 22.4241 29.0963 22.3874 29.0688C22.3507 29.0413 22.291 29.0428 22.2619 29.0122C22.2329 28.9816 22.1502 29.0122 22.1212 28.974C22.0921 28.9357 22.1518 28.8209 22.1212 28.798C22.0906 28.775 22.0431 28.7552 22.0141 28.7246C21.985 28.694 21.8611 28.749 21.8397 28.7246C21.8182 28.7001 21.8886 28.5609 21.8595 28.5303C21.8305 28.4997 21.8167 28.4568 21.7876 28.4262C21.7586 28.3956 21.6346 28.4599 21.601 28.4262C21.5673 28.3926 21.4923 28.4109 21.4648 28.3803C21.4373 28.3497 21.4648 28.261 21.4403 28.2273C21.4159 28.1937 21.4495 28.1065 21.422 28.0743C21.3944 28.0422 21.3516 28.0254 21.3241 27.9932C21.2965 27.9611 21.2063 27.9856 21.1711 27.955C21.1359 27.9244 21.1206 27.8877 21.093 27.8556C21.0655 27.8234 20.9905 27.8341 20.963 27.802C20.9354 27.7699 20.989 27.6704 20.963 27.6398C20.937 27.6092 20.9155 27.5694 20.888 27.5388C20.8605 27.5082 20.888 27.4364 20.8528 27.4042C20.8176 27.3721 20.7886 27.3491 20.7626 27.317C20.7365 27.2849 20.7396 27.2283 20.7121 27.1961C20.6845 27.164 20.6096 27.1732 20.5835 27.141C20.5575 27.1089 20.4902 27.1105 20.4627 27.0783C20.4352 27.0462 20.4306 26.9957 20.4046 26.9636C20.3785 26.9315 20.2929 26.9483 20.2669 26.9161C20.2408 26.884 20.2409 26.8274 20.2148 26.7953C20.1888 26.7631 20.1353 26.7524 20.1093 26.7203C20.0833 26.6882 20.0312 26.6759 20.0052 26.6438C19.9792 26.6117 19.9532 26.578 19.9272 26.5459C19.9012 26.5138 19.8981 26.4618 19.8706 26.4296C19.8431 26.3975 19.941 26.2644 19.915 26.2323C19.8889 26.2001 19.8155 26.2047 19.7895 26.1726C19.7635 26.1405 19.6365 26.1894 19.6105 26.1573C19.5845 26.1252 19.6793 25.9936 19.6533 25.9599L19.5738 25.8636C19.5478 25.8314 19.4208 25.8834 19.3917 25.8513C19.3627 25.8192 19.3917 25.7412 19.3642 25.709C19.3366 25.6769 19.3642 25.6034 19.3321 25.5713C19.2999 25.5392 19.2326 25.5438 19.2066 25.5101C19.1806 25.4765 19.0842 25.5009 19.0536 25.4688C19.023 25.4367 19.1347 25.2929 19.1072 25.2608C19.0796 25.2286 18.9771 25.2608 18.9542 25.2256C18.9312 25.1904 18.9541 25.123 18.919 25.0894C18.8838 25.0557 18.9098 24.9884 18.8822 24.9563C18.8547 24.9242 18.7614 24.9456 18.7292 24.9135C18.6971 24.8813 18.5916 24.9134 18.5655 24.8828C18.5395 24.8522 18.5028 24.8247 18.4753 24.7926C18.4477 24.7605 18.5441 24.6273 18.5166 24.5952C18.489 24.5631 18.3881 24.5952 18.3636 24.5585C18.3391 24.5218 18.2932 24.5065 18.2672 24.4728C18.2412 24.4391 18.3055 24.3336 18.2794 24.2999C18.2534 24.2663 18.258 24.2081 18.2305 24.176C18.2029 24.1439 18.0377 24.2219 18.0117 24.1898C17.9857 24.1577 18.079 24.0261 18.0515 23.9939C18.0239 23.9618 18.0071 23.9205 17.9811 23.8869C17.9551 23.8532 17.8862 23.8547 17.8602 23.821C17.8342 23.7874 17.744 23.8057 17.7179 23.7736C17.6919 23.7415 17.7348 23.6512 17.7072 23.6206C17.6797 23.59 17.5542 23.6359 17.5282 23.6023C17.5022 23.5686 17.6047 23.4324 17.5787 23.3988C17.5527 23.3651 17.3936 23.4386 17.3676 23.4064C17.3416 23.3743 17.4058 23.2657 17.3798 23.232C17.3538 23.1984 17.2773 23.206 17.2498 23.1739C17.2222 23.1417 17.2177 23.0913 17.1916 23.0576C17.1656 23.0239 17.2177 22.9275 17.1916 22.8954C17.1656 22.8633 17.0264 22.9184 17.0004 22.8847C16.9744 22.8511 16.9163 22.845 16.8887 22.8113C16.8612 22.7776 16.8321 22.7485 16.8061 22.7149C16.7801 22.6812 16.7663 22.6384 16.7388 22.6063C16.7112 22.5741 16.829 22.4242 16.803 22.3921C16.777 22.36 16.6699 22.3921 16.6424 22.3569C16.6148 22.3217 16.5567 22.3171 16.5292 22.285C16.5016 22.2528 16.5735 22.1412 16.5475 22.1075C16.5215 22.0738 16.3945 22.1243 16.3655 22.0907C16.3364 22.057 16.3854 21.9652 16.3655 21.9377C16.3456 21.9101 16.3241 21.8612 16.2981 21.8275C16.2721 21.7938 16.2752 21.7373 16.2492 21.7036C16.2232 21.6699 16.1589 21.6669 16.1329 21.6347C16.1069 21.6026 16.0212 21.6164 15.9937 21.5827C15.9661 21.5491 16.0227 21.4511 15.9937 21.4175C15.9646 21.3838 15.8805 21.3991 15.8545 21.367C15.8285 21.3349 15.8147 21.289 15.7887 21.2568C15.7627 21.2247 15.7994 21.1375 15.7734 21.1038C15.7474 21.0702 15.5729 21.1574 15.5454 21.1237C15.5179 21.0901 15.5638 20.9998 15.5454 20.9708C15.5271 20.9417 15.5622 20.8484 15.5347 20.8178C15.5072 20.7872 15.4368 20.7887 15.4092 20.755C15.3817 20.7213 15.2425 20.781 15.2165 20.755C15.1905 20.729 15.2012 20.6571 15.1752 20.625C15.1491 20.5929 15.2134 20.4842 15.1874 20.4521C15.1614 20.4199 15.0482 20.4521 15.0222 20.4215C14.9961 20.3909 14.9472 20.3725 14.9212 20.3389C14.8952 20.3052 14.8783 20.2654 14.8523 20.2318C14.8263 20.1981 14.7621 20.1951 14.7345 20.1629C14.707 20.1308 14.7605 20.0329 14.7345 20.0007C14.7085 19.9686 14.6917 19.9258 14.6657 19.8937C14.6397 19.8615 14.5938 19.8416 14.5678 19.8095C14.5418 19.7774 14.4913 19.7605 14.4653 19.7269C14.4392 19.6932 14.4224 19.6519 14.3949 19.6198C14.3673 19.5877 14.3949 19.5142 14.3628 19.4806C14.3306 19.4469 14.3245 19.401 14.297 19.3689C14.2694 19.3368 14.1562 19.3689 14.1302 19.3398C14.1042 19.3107 14.1746 19.1868 14.1486 19.1593C14.1225 19.1317 14.0644 19.1164 14.0384 19.0843C14.0124 19.0522 13.9512 19.0445 13.9237 19.0124C13.8961 18.9803 13.8563 18.9558 13.8303 18.9221C13.8043 18.8885 13.8028 18.8349 13.7752 18.8028C13.7477 18.7707 13.7921 18.6789 13.7645 18.6498C13.737 18.6207 13.5733 18.6957 13.5457 18.662C13.5182 18.6284 13.6146 18.4968 13.5871 18.4647C13.5595 18.4325 13.4341 18.4769 13.4096 18.4433C13.3851 18.4096 13.3989 18.3423 13.3713 18.3101C13.3438 18.278 13.304 18.2536 13.278 18.2214C13.252 18.1893 13.1694 18.1985 13.1434 18.1648C13.1174 18.1311 13.1434 18.0531 13.1174 18.021C13.0914 17.9889 13.0531 17.9628 13.0271 17.9292C13.0011 17.8955 12.969 17.8665 12.9414 17.8328C12.9139 17.7992 12.8817 17.7716 12.8542 17.7395C12.8267 17.7073 12.7762 17.6936 12.7486 17.6599C12.7211 17.6262 12.7349 17.562 12.7073 17.5284C12.6798 17.4947 12.5911 17.513 12.5651 17.4794C12.539 17.4457 12.5191 17.4075 12.4916 17.3738C12.4641 17.3402 12.4289 17.3157 12.4013 17.282C12.3738 17.2484 12.3493 17.2132 12.3233 17.181C12.2973 17.1489 12.2866 17.1 12.2591 17.0678C12.2315 17.0357 12.1902 17.0143 12.1627 16.9806C12.1351 16.947 12.2529 16.797 12.2269 16.7634C12.2009 16.7297 12.025 16.8169 11.999 16.7832C11.973 16.7496 12.0862 16.6027 12.0586 16.5706C12.0311 16.5385 11.8735 16.6104 11.846 16.5706C11.8184 16.5308 11.9378 16.3855 11.9118 16.3518C11.8858 16.3182 11.8291 16.3089 11.8016 16.2768C11.7741 16.2447 11.6593 16.2768 11.6318 16.2493C11.6042 16.2218 11.6027 16.1636 11.5752 16.1299C11.5476 16.0963 11.615 15.9877 11.5889 15.954C11.5629 15.9204 11.4359 15.9724 11.4115 15.9402C11.387 15.9081 11.3074 15.9158 11.283 15.8836C11.2585 15.8515 11.3074 15.7628 11.283 15.7307C11.2585 15.6985 11.2019 15.6878 11.1774 15.6557C11.1529 15.6236 11.2126 15.5272 11.1881 15.5027C11.1636 15.4782 11.1697 15.4124 11.1453 15.3803C11.1208 15.3482 10.9601 15.4201 10.9356 15.3803C10.9112 15.3405 11.0014 15.2273 10.9754 15.1936C10.9494 15.16 10.9081 15.1416 10.8821 15.111C10.8561 15.0804 10.7689 15.0988 10.7429 15.0682C10.7169 15.0376 10.7429 14.9458 10.7215 14.9152C10.7 14.8846 10.674 14.8417 10.645 14.8081C10.6159 14.7744 10.5042 14.8172 10.4751 14.7851C10.4461 14.753 10.4124 14.7239 10.3833 14.6918C10.3543 14.6597 10.3481 14.6046 10.3191 14.5725C10.29 14.5403 10.1967 14.5725 10.1661 14.5357C10.1355 14.499 10.1936 14.3904 10.1661 14.3583C10.1385 14.3262 10.1232 14.2787 10.0926 14.2481C10.062 14.2175 10.0406 14.1762 10.0116 14.1441C9.98248 14.1119 9.90445 14.1242 9.87538 14.0921C9.84631 14.0599 9.76828 14.0722 9.73921 14.04C9.71014 14.0079 9.68261 13.9727 9.65355 13.9391C9.62448 13.9054 9.69026 13.7861 9.65355 13.7478C9.61683 13.7096 9.56787 13.7019 9.53727 13.6683C9.50667 13.6346 9.39498 13.6682 9.36438 13.6392C9.33378 13.6101 9.41488 13.4862 9.38887 13.4434C9.36286 13.4005 9.31849 13.3883 9.29401 13.3485C9.26953 13.3087 9.15019 13.3332 9.14101 13.298C9.13183 13.2628 9.2527 13.1573 9.23893 13.1221C9.22516 13.0869 9.08594 13.0854 9.08594 13.0471C9.08594 13.0089 9.17007 12.9614 9.17007 12.9216C9.17007 12.8819 9.21138 12.8666 9.22209 12.8283C9.2328 12.7901 9.2221 12.7595 9.23281 12.7212C9.24352 12.683 9.19608 12.6126 9.22056 12.5774C9.24504 12.5422 9.24045 12.4917 9.26646 12.4581C9.29247 12.4244 9.31083 12.3877 9.33837 12.3571C9.3659 12.3265 9.40722 12.302 9.43628 12.2699C9.46535 12.2377 9.48831 12.2026 9.51738 12.172C9.54645 12.1414 9.69025 12.2209 9.71932 12.1903C9.74839 12.1597 9.77135 12.123 9.80195 12.0924C9.83255 12.0618 9.8555 12.0281 9.8861 11.9991C9.9167 11.97 9.82489 11.8078 9.85549 11.7803C9.88609 11.7528 10.0008 11.8124 10.033 11.7803C10.0651 11.7482 10.1477 11.7803 10.186 11.7558C10.2242 11.7313 10.1416 11.5753 10.1753 11.5477C10.2089 11.5202 10.3282 11.6059 10.368 11.5783C10.4078 11.5508 10.3481 11.4253 10.3818 11.3947C10.4155 11.3641 10.4874 11.3948 10.521 11.3657C10.5547 11.3366 10.5792 11.3014 10.6128 11.2754C10.6465 11.2494 10.6893 11.2356 10.7245 11.2096C10.7597 11.1836 10.8255 11.2096 10.8607 11.1806C10.8959 11.1515 10.9096 11.104 10.9433 11.0796C10.9769 11.0551 11.0167 11.0367 11.0519 11.0123C11.0871 10.9878 11.0733 10.896 11.1085 10.8715C11.1437 10.847 11.208 10.8639 11.2432 10.8409C11.2784 10.818 11.26 10.7139 11.2952 10.6879L11.4023 10.6206C11.439 10.5961 11.566 10.7124 11.6012 10.6895C11.6364 10.6665 11.5599 10.4691 11.6012 10.4462C11.6425 10.4232 11.6976 10.4385 11.7343 10.4156C11.771 10.3926 11.7878 10.3406 11.8245 10.3176C11.8613 10.2947 11.924 10.3177 11.9607 10.2947C11.9974 10.2718 12.103 10.362 12.1397 10.3391C12.1764 10.3161 12.1397 10.1677 12.1688 10.1463C12.1979 10.1249 12.2682 10.1463 12.305 10.1187C12.3417 10.0912 12.3799 10.0759 12.4166 10.0514C12.4534 10.027 12.4549 9.95351 12.4901 9.92903C12.5253 9.90455 12.5834 9.91224 12.6186 9.88776C12.6538 9.86328 12.7639 9.94742 12.7991 9.92294C12.8343 9.89846 12.7991 9.76073 12.8297 9.73626C12.8603 9.71178 12.9521 9.76226 12.9827 9.73626C13.0133 9.71025 13.0393 9.6659 13.0745 9.63989C13.1097 9.61388 13.0898 9.5129 13.125 9.48689L13.2321 9.41499C13.2673 9.38898 13.3224 9.3905 13.3576 9.36449C13.3928 9.33848 13.4494 9.34459 13.4846 9.32011C13.5198 9.29563 13.5886 9.32012 13.6238 9.29258C13.659 9.26504 13.6345 9.15795 13.6697 9.13959C13.7049 9.12123 13.7018 9.03554 13.7385 9.00953C13.7752 8.98352 13.8548 9.02639 13.8915 9.00191C13.9282 8.97743 13.9221 8.89479 13.9573 8.87031C13.9925 8.84583 14.0399 8.83514 14.0751 8.81066C14.1103 8.78618 14.1577 8.77699 14.1929 8.75557C14.2281 8.73415 14.3321 8.82289 14.3689 8.80147C14.4056 8.78005 14.4194 8.7204 14.4561 8.70051C14.4928 8.68062 14.5142 8.62859 14.5509 8.6087C14.5877 8.58881 14.5953 8.51078 14.632 8.49089C14.6687 8.471 14.7238 8.48325 14.7605 8.46336C14.7973 8.44347 14.8477 8.445 14.8845 8.42358C14.9212 8.40216 14.9319 8.33791 14.9686 8.31496C15.0053 8.29201 15.0925 8.35318 15.1216 8.33177C15.1507 8.31035 15.1507 8.21244 15.1874 8.19102C15.2241 8.1696 15.3159 8.23997 15.3526 8.21702C15.3894 8.19407 15.3649 8.07323 15.4016 8.05028C15.4383 8.02733 15.5301 8.09769 15.5668 8.07627C15.6036 8.05486 15.6372 8.02732 15.6739 8.00437C15.7106 7.98142 15.755 7.97529 15.7917 7.95234C15.8285 7.92939 15.8132 7.82382 15.8499 7.79934C15.8866 7.77486 15.9478 7.79936 15.983 7.77335C16.0182 7.74734 16.087 7.77333 16.1237 7.75803C16.1605 7.74273 16.214 7.74273 16.2507 7.71978C16.2874 7.69683 16.2507 7.5668 16.2936 7.54385C16.3364 7.5209 16.3716 7.50711 16.4083 7.48416C16.445 7.46121 16.5108 7.48418 16.5475 7.46735C16.5842 7.45053 16.5582 7.322 16.595 7.30058C16.6317 7.27916 16.7617 7.40768 16.7984 7.38626C16.8352 7.36484 16.8397 7.28987 16.8765 7.26845C16.9132 7.24703 16.8948 7.13688 16.9315 7.11546C16.9683 7.09404 17.0386 7.12769 17.0754 7.10474L17.184 7.0359C17.2192 7.01295 17.2268 6.94563 17.2635 6.92268C17.3003 6.89973 17.3814 6.95022 17.4165 6.92268C17.4517 6.89514 17.4517 6.81863 17.4869 6.79415C17.5221 6.76967 17.5313 6.71001 17.5649 6.684C17.5986 6.65799 17.695 6.7146 17.7302 6.684C17.7654 6.6534 17.8342 6.67635 17.8694 6.65034C17.9046 6.62434 17.8434 6.48051 17.8694 6.45297C17.8954 6.42544 18.0346 6.51876 18.0683 6.49122C18.102 6.46368 18.0683 6.36424 18.1096 6.33823C18.1509 6.31222 18.1846 6.29386 18.2182 6.26786C18.2519 6.24185 18.2733 6.1975 18.307 6.17149C18.3406 6.14548 18.4248 6.17147 18.46 6.15464C18.4952 6.13781 18.489 6.00929 18.5258 6.00164C18.5625 5.99399 18.6329 6.01543 18.6788 6.01696C18.7247 6.01849 18.792 5.98789 18.8318 6.01696C18.8715 6.04603 18.8103 6.16995 18.8455 6.20361C18.8807 6.23727 18.974 6.20361 18.9985 6.24492C19.023 6.28623 18.9985 6.35048 19.023 6.38567C19.0475 6.42085 19.1347 6.40863 19.1607 6.44382C19.1867 6.47901 19.2295 6.49888 19.2556 6.53254C19.2816 6.56619 19.277 6.62128 19.303 6.65647C19.329 6.69166 19.329 6.74215 19.3535 6.77581C19.378 6.80947 19.3321 6.89821 19.3535 6.92881C19.3749 6.95941 19.5478 6.89515 19.5722 6.92881C19.5967 6.96247 19.6273 6.99458 19.6518 7.02977C19.6763 7.06496 19.6992 7.10014 19.7237 7.13533C19.7482 7.17052 19.7666 7.2088 19.791 7.24399C19.8155 7.27918 19.7757 7.35873 19.8002 7.39698C19.8247 7.43523 19.9379 7.39699 19.9624 7.43829C19.9869 7.4796 19.9058 7.59128 19.9303 7.61729C19.9547 7.6433 20.0328 7.64941 20.0573 7.6846C20.0817 7.71979 20.1491 7.72437 20.1735 7.75956C20.198 7.79475 20.0756 7.93246 20.1001 7.96765C20.1246 8.00284 20.1368 8.04568 20.1613 8.07934C20.1858 8.113 20.2944 8.09005 20.3143 8.12524C20.3342 8.16043 20.3648 8.19408 20.3892 8.22774C20.4137 8.2614 20.429 8.30576 20.4535 8.33942C20.478 8.37308 20.4443 8.44957 20.4688 8.48476C20.4933 8.51995 20.5836 8.50773 20.608 8.54292C20.6325 8.57811 20.579 8.66685 20.608 8.69591C20.6371 8.72498 20.6493 8.77088 20.6738 8.80607C20.6983 8.84126 20.7809 8.83512 20.8054 8.87031C20.8299 8.9055 20.8452 8.94681 20.8696 8.98047C20.8941 9.01412 21.0395 8.96672 21.064 9.00037C21.0884 9.03403 21.0762 9.09674 21.1007 9.1304C21.1252 9.16406 21.1802 9.17936 21.2047 9.21302C21.2292 9.24668 21.2047 9.31555 21.2322 9.35074C21.2598 9.38593 21.2032 9.47161 21.2322 9.50374C21.2613 9.53587 21.2996 9.55726 21.3225 9.59092C21.3455 9.62458 21.4572 9.59092 21.4755 9.63223C21.4939 9.67354 21.3807 9.79594 21.4036 9.83113C21.4266 9.86632 21.4648 9.88775 21.4878 9.92294C21.5107 9.95813 21.5413 9.98412 21.5643 10.0193C21.5872 10.0545 21.653 10.0591 21.6744 10.0943C21.6958 10.1295 21.7785 10.1249 21.8014 10.1585C21.8244 10.1922 21.858 10.2197 21.8794 10.2549C21.9009 10.2901 21.8886 10.3467 21.9116 10.3819C21.9345 10.4171 21.9299 10.4706 21.9529 10.5058C21.9758 10.541 21.9391 10.6145 21.962 10.6512C21.985 10.6879 22.0967 10.6649 22.115 10.7001C22.1334 10.7353 22.1043 10.8073 22.1273 10.8424C22.1502 10.8776 22.2267 10.8792 22.2497 10.9144C22.2726 10.9495 22.2237 11.0322 22.2497 11.0673C22.2757 11.1025 22.369 11.0918 22.392 11.127C22.4149 11.1622 22.4623 11.1821 22.4853 11.2173C22.5082 11.2525 22.4991 11.3091 22.5205 11.3442C22.5419 11.3794 22.5021 11.4559 22.5205 11.4972C22.5388 11.5385 22.6398 11.5217 22.6628 11.5569C22.6857 11.5921 22.6918 11.638 22.7148 11.6732C22.7377 11.7084 22.701 11.7834 22.7148 11.8185C22.7286 11.8537 22.8815 11.8185 22.9045 11.8476C22.9274 11.8767 22.8907 11.9578 22.9137 12.0006C22.9366 12.0434 22.9687 12.0649 22.9917 12.1016C23.0146 12.1383 23.1064 12.1276 23.1294 12.1628C23.1523 12.198 23.0131 12.3387 23.0361 12.3739C23.059 12.4091 23.1478 12.4015 23.1707 12.4382C23.1937 12.4749 23.1707 12.5361 23.1983 12.5713C23.2258 12.6065 23.3757 12.5575 23.3987 12.5927C23.4216 12.6279 23.3895 12.6983 23.4124 12.735C23.4354 12.7717 23.5027 12.7763 23.5257 12.8115C23.5486 12.8467 23.5257 12.9109 23.5501 12.9461C23.5746 12.9813 23.5976 13.0165 23.6205 13.0532L23.6878 13.1603C23.7108 13.1955 23.6236 13.3011 23.6465 13.3378C23.6695 13.3745 23.7521 13.3699 23.775 13.4051C23.798 13.4403 23.7613 13.5137 23.7842 13.5489C23.8072 13.5841 23.85 13.6086 23.873 13.6438C23.8959 13.679 23.9081 13.7203 23.9311 13.7555C23.954 13.7906 24.0841 13.7555 24.1132 13.7891C24.1422 13.8228 24.1897 13.8411 24.2126 13.8763C24.2356 13.9115 24.2662 13.9421 24.2891 13.9773C24.3121 14.0125 24.2891 14.0783 24.3121 14.115C24.335 14.1517 24.2463 14.2573 24.2692 14.2925C24.2922 14.3277 24.4513 14.2757 24.4742 14.3108L24.5461 14.4164C24.5691 14.4516 24.5201 14.5327 24.5461 14.5694C24.5721 14.6061 24.5262 14.6841 24.5461 14.7224C24.566 14.7606 24.6502 14.7545 24.6731 14.7897C24.6961 14.8249 24.7267 14.857 24.7496 14.8922C24.7726 14.9274 24.8583 14.9213 24.8812 14.958C24.9042 14.9947 24.8537 15.0758 24.8812 15.111C24.9087 15.1462 24.9271 15.1829 24.9516 15.2181C24.9761 15.2533 25.0526 15.2518 25.077 15.2869C25.1015 15.3221 25.1597 15.3344 25.1841 15.3696C25.2086 15.4048 25.1031 15.5226 25.1275 15.5608C25.152 15.5991 25.2453 15.5853 25.2683 15.622C25.2912 15.6588 25.2484 15.7383 25.2683 15.775C25.2882 15.8117 25.432 15.775 25.4565 15.8041C25.481 15.8332 25.354 15.9754 25.3784 16.0106C25.4029 16.0458 25.5085 16.0275 25.5314 16.0626C25.5544 16.0978 25.6217 16.1055 25.6462 16.1407C25.6707 16.1759 25.5988 16.2753 25.6232 16.3105C25.6477 16.3457 25.6829 16.3748 25.7058 16.4099C25.7288 16.4451 25.7058 16.5124 25.7319 16.5476C25.7579 16.5828 25.8849 16.5477 25.9155 16.5783C25.9461 16.6089 25.9522 16.6563 25.9766 16.6915C26.0011 16.7267 26.0302 16.7588 26.0547 16.794C26.0792 16.8292 26.0914 16.8735 26.1159 16.9087C26.1404 16.9439 26.2337 16.9301 26.2582 16.9668C26.2826 17.0036 26.3041 17.0388 26.3285 17.074C26.353 17.1091 26.2444 17.227 26.2689 17.2698C26.2934 17.3126 26.4341 17.2606 26.4586 17.2958C26.4831 17.331 26.4739 17.3891 26.4984 17.4243C26.5228 17.4595 26.5902 17.4641 26.6146 17.4993C26.6391 17.5345 26.5764 17.6308 26.6009 17.666C26.6254 17.7012 26.6881 17.7089 26.7126 17.7441C26.737 17.7793 26.8135 17.7792 26.838 17.8144C26.8625 17.8496 26.8548 17.9078 26.8793 17.943C26.9038 17.9782 26.8365 18.0746 26.861 18.1097C26.8854 18.1449 26.9772 18.1342 27.0017 18.1694C27.0262 18.2046 27.0874 18.2138 27.1119 18.2505C27.1364 18.2872 27.1119 18.3591 27.1287 18.3943C27.1455 18.4295 27.2633 18.4065 27.2817 18.4417C27.3001 18.4769 27.3001 18.532 27.3245 18.5672C27.349 18.6024 27.2725 18.7064 27.2955 18.7416C27.3184 18.7768 27.4485 18.7416 27.4729 18.7753C27.4974 18.8089 27.4485 18.8931 27.4729 18.9282C27.4974 18.9634 27.6122 18.9359 27.6351 18.9711C27.6581 19.0063 27.6688 19.0506 27.6917 19.0858C27.7147 19.121 27.6168 19.2388 27.6397 19.274C27.6627 19.3092 27.7024 19.3322 27.7269 19.3674C27.7514 19.4026 27.8187 19.4071 27.8417 19.4423C27.8646 19.4775 27.8554 19.5341 27.8799 19.5693C27.9044 19.6045 27.9503 19.6228 27.9748 19.658C27.9993 19.6932 28.0283 19.7238 28.0513 19.7575C28.0742 19.7911 28.1094 19.8202 28.1339 19.8554C28.1584 19.8906 28.2441 19.8814 28.267 19.9166C28.29 19.9518 28.2242 20.0482 28.2471 20.0834C28.2701 20.1186 28.2655 20.1736 28.2899 20.2073C28.3144 20.241 28.4429 20.2073 28.4705 20.2379C28.498 20.2685 28.5148 20.3083 28.5393 20.3435C28.5638 20.3786 28.5087 20.4674 28.5393 20.4965C28.5699 20.5255 28.5531 20.5898 28.576 20.625C28.599 20.6602 28.6082 20.7045 28.6326 20.7397C28.6571 20.7749 28.6954 20.7994 28.7183 20.833C28.7413 20.8667 28.8989 20.8132 28.9233 20.8483C28.9478 20.8835 28.853 21.0013 28.8775 21.0319C28.9019 21.0625 28.9295 21.0977 28.9524 21.1329C28.9754 21.1681 29.1054 21.1329 29.1345 21.162C29.1635 21.1911 29.162 21.2446 29.1865 21.2798C29.211 21.315 29.2202 21.3594 29.2446 21.393C29.2691 21.4267 29.2538 21.4894 29.2783 21.523C29.3028 21.5567 29.3517 21.5751 29.3762 21.6103C29.4007 21.6455 29.4435 21.6654 29.468 21.7005C29.4925 21.7357 29.4206 21.8336 29.4451 21.8688C29.4695 21.904 29.5338 21.9101 29.5567 21.9453C29.5797 21.9805 29.5231 22.0708 29.546 22.0983C29.569 22.1259 29.6225 22.1488 29.647 22.184C29.6715 22.2192 29.7434 22.2207 29.7664 22.2559C29.7893 22.2911 29.7664 22.3538 29.7954 22.389C29.8245 22.4242 29.8061 22.4823 29.8291 22.5175C29.852 22.5527 29.8857 22.5818 29.9086 22.617C29.9316 22.6522 29.9561 22.6858 29.9805 22.721C30.005 22.7562 30.1825 22.6874 30.2054 22.721C30.2284 22.7547 30.1228 22.874 30.1458 22.9123C30.1687 22.9505 30.2009 22.978 30.2238 23.0132C30.2468 23.0484 30.285 23.0729 30.308 23.1081C30.3309 23.1433 30.3967 23.1509 30.4196 23.1861C30.4426 23.2213 30.4349 23.2764 30.4579 23.3116C30.4808 23.3468 30.4579 23.4171 30.4747 23.4523C30.4916 23.4875 30.669 23.4248 30.692 23.4523C30.7149 23.4799 30.5956 23.6176 30.6185 23.6528C30.6415 23.688 30.6797 23.714 30.7027 23.7491C30.7256 23.7843 30.7348 23.8287 30.7578 23.8639C30.7807 23.8991 30.9459 23.841 30.9689 23.8761C30.9918 23.9113 30.9062 24.0184 30.9291 24.0536C30.9521 24.0888 31.0408 24.0812 31.0638 24.1164C31.0867 24.1515 31.0836 24.2035 31.1066 24.2387C31.1295 24.2739 31.0745 24.3611 31.0974 24.3917C31.1204 24.4223 31.2106 24.4193 31.2336 24.4545C31.2565 24.4897 31.1938 24.5799 31.2167 24.6075C31.2397 24.635 31.3621 24.6075 31.3851 24.6503C31.408 24.6931 31.3453 24.7758 31.3682 24.8033C31.3912 24.8308 31.4585 24.8461 31.4799 24.8813C31.5013 24.9165 31.5564 24.9333 31.5793 24.9685C31.6023 25.0037 31.6681 25.0129 31.691 25.0496C31.714 25.0863 31.7018 25.1414 31.7247 25.1781C31.7477 25.2149 31.7874 25.2378 31.8104 25.273C31.8333 25.3082 31.766 25.4 31.7889 25.4367C31.8119 25.4734 31.8517 25.4964 31.8746 25.5316C31.8976 25.5668 31.9205 25.6019 31.9435 25.6387C31.9664 25.6754 31.9986 25.7044 32.02 25.7396C32.0414 25.7748 32.1439 25.7641 32.1653 25.8008C32.1868 25.8375 32.0995 25.9385 32.121 25.9752C32.1424 26.012 32.3107 25.9599 32.3321 25.9966C32.3535 26.0334 32.3673 26.0747 32.3887 26.1099C32.4101 26.145 32.404 26.2001 32.4254 26.2369C32.4468 26.2736 32.4407 26.3256 32.4621 26.3623C32.4836 26.399 32.5004 26.4373 32.5218 26.474C32.5432 26.5107 32.6335 26.5061 32.6549 26.5428C32.6763 26.5796 32.5249 26.7188 32.5463 26.7555C32.5677 26.7922 32.606 26.8167 32.6274 26.8534C32.6488 26.8901 32.7513 26.8794 32.7727 26.9146C32.7941 26.9498 32.8263 26.982 32.8477 27.0187C32.8691 27.0554 32.9349 27.0645 32.9563 27.1013C32.9777 27.138 32.8538 27.2543 32.8752 27.2971C32.8967 27.3399 32.9272 27.3644 32.9487 27.4012C32.9701 27.4379 33.0757 27.4241 33.1017 27.4608C33.1277 27.4975 33.0512 27.5893 33.0726 27.6245C33.094 27.6597 33.1277 27.6903 33.1491 27.727C33.1705 27.7637 33.2317 27.776 33.2531 27.8127C33.2745 27.8494 33.3572 27.8494 33.3786 27.8861C33.4 27.9229 33.4061 27.9672 33.4275 28.004C33.449 28.0407 33.5438 28.033 33.5652 28.0697C33.5867 28.1065 33.4719 28.2227 33.4933 28.261C33.5147 28.2992 33.5943 28.2977 33.6173 28.3344C33.6402 28.3711 33.6555 28.4094 33.6785 28.4461C33.7014 28.4828 33.8131 28.4614 33.8315 28.4981C33.8498 28.5349 33.7213 28.6649 33.7427 28.7001C33.7641 28.7353 33.8314 28.7445 33.8544 28.7812C33.8773 28.8179 34.0074 28.7812 34.0319 28.8194C34.0564 28.8577 33.9829 28.951 34.0043 28.9862C34.0258 29.0214 34.0273 29.0749 34.0502 29.1101C34.0732 29.1453 34.1313 29.1606 34.1543 29.1958C34.1772 29.231 34.269 29.2203 34.2935 29.2555C34.318 29.2906 34.3103 29.3473 34.3348 29.3825C34.3593 29.4176 34.3241 29.4972 34.3501 29.5354C34.3761 29.5737 34.4052 29.6012 34.4312 29.6364C34.4572 29.6716 34.5031 29.6884 34.5291 29.7221C34.5551 29.7558 34.5995 29.7772 34.6255 29.8108C34.6515 29.8445 34.6546 29.8965 34.6806 29.9302C34.7066 29.9638 34.8152 29.9302 34.8336 29.9699C34.8519 30.0097 34.7938 30.1092 34.8198 30.1428C34.8458 30.1765 34.8825 30.2025 34.9085 30.2377C34.9345 30.2729 35.0462 30.2377 35.0722 30.2744C35.0983 30.3111 35.0218 30.4274 35.0462 30.455C35.0707 30.4825 35.1686 30.4718 35.1992 30.5054C35.2298 30.5391 35.1487 30.6477 35.1732 30.6829C35.1977 30.7181 35.1946 30.7701 35.2191 30.8053C35.2436 30.8405 35.3186 30.839 35.3431 30.8742C35.3675 30.9093 35.343 30.9767 35.3645 31.0118C35.3859 31.047 35.545 30.9935 35.568 31.0272C35.5909 31.0608 35.568 31.1342 35.5832 31.1694C35.5985 31.2046 35.6047 31.2566 35.6276 31.2934C35.6506 31.3301 35.6873 31.3545 35.7102 31.3897C35.7332 31.4249 35.7378 31.4724 35.7607 31.5075C35.7837 31.5427 35.8877 31.5259 35.9137 31.5611C35.9397 31.5963 35.8556 31.6988 35.8785 31.7355C35.9015 31.7722 36.0422 31.7355 36.0652 31.7661C36.0881 31.7967 35.9718 31.9191 35.9948 31.9604C36.0177 32.0017 36.1325 31.9742 36.1478 32.0094C36.1631 32.0446 36.2534 32.0446 36.2748 32.0797C36.2962 32.1149 36.2167 32.2159 36.2381 32.2527C36.2595 32.2894 36.3299 32.294 36.3528 32.3307C36.3758 32.3674 36.4462 32.372 36.4691 32.4087C36.492 32.4454 36.4691 32.5051 36.4951 32.5403C36.5211 32.5755 36.4538 32.6642 36.4752 32.7009C36.4966 32.7376 36.6282 32.7086 36.6481 32.7438C36.668 32.779 36.5441 32.8968 36.5655 32.9411C36.5869 32.9855 36.6955 32.9625 36.7185 32.9993C36.7432 33.0305 36.7652 33.0638 36.7843 33.0987C36.798 33.137 36.8516 33.1706 36.8577 33.2089C36.8638 33.2471 36.7139 33.293 36.7047 33.3328C36.6955 33.3726 36.7888 33.4123 36.7812 33.4521C36.7735 33.4919 36.717 33.5087 36.7017 33.5455C36.6864 33.5822 36.6496 33.596 36.6282 33.6311C36.6068 33.6663 36.6282 33.7168 36.6037 33.749C36.5793 33.7811 36.6175 33.8591 36.5945 33.9019C36.5716 33.9448 36.5333 33.9585 36.5135 33.9937C36.4936 34.0289 36.3697 34.0106 36.3513 34.0473C36.3329 34.084 36.4691 34.2003 36.4507 34.237C36.4324 34.2737 36.4201 34.3135 36.4018 34.3502C36.3834 34.3869 36.2977 34.3961 36.2824 34.4298C36.2671 34.4634 36.2824 34.5201 36.2656 34.5552C36.2488 34.5904 36.2044 34.6287 36.2044 34.6639C36.2044 34.6991 36.183 34.774 36.2044 34.8061C36.2258 34.8383 36.3421 34.7434 36.3849 34.7679C36.4278 34.7924 36.3941 34.9209 36.437 34.9331C36.4798 34.9454 36.4966 34.9989 36.5379 35.0158C36.5792 35.0326 36.5945 35.0632 36.6297 35.08C36.6649 35.0968 36.7644 34.9897 36.7965 35.0096C36.8286 35.0295 36.821 35.1106 36.8501 35.1351C36.8791 35.1595 36.9449 35.155 36.9663 35.1856C36.9878 35.2162 36.9954 35.2682 37.0199 35.3049L37.0933 35.4105C37.1178 35.4457 37.1836 35.4533 37.2081 35.4885C37.2325 35.5237 37.2601 35.5573 37.2846 35.5925C37.309 35.6277 37.2234 35.7455 37.2478 35.7731C37.2723 35.8006 37.3381 35.8159 37.3626 35.8511C37.3871 35.8863 37.3886 35.9368 37.4115 35.9735C37.4345 36.0102 37.5385 35.9934 37.5645 36.0286C37.5905 36.0638 37.5293 36.1556 37.5538 36.1908C37.5783 36.2259 37.6104 36.2565 37.6349 36.2917C37.6594 36.3269 37.7619 36.3101 37.7879 36.3468C37.8139 36.3835 37.8614 36.4019 37.8843 36.4371C37.9073 36.4722 37.9256 36.5136 37.9486 36.5503C37.9715 36.587 37.846 36.7201 37.8705 36.7553C37.895 36.7905 38.0419 36.7461 38.0648 36.7828C38.0878 36.8196 38.1428 36.8349 38.1658 36.87C38.1887 36.9052 38.1949 36.9542 38.2178 36.9909C38.2408 37.0276 38.1582 37.1317 38.1811 37.1684C38.2041 37.2051 38.2377 37.2342 38.2607 37.2709C38.2836 37.3076 38.2913 37.3535 38.3142 37.3887C38.3372 37.4239 38.4672 37.3887 38.4963 37.4254C38.5254 37.4622 38.4137 37.5784 38.4366 37.6167C38.4596 37.6549 38.5483 37.6473 38.5713 37.684C38.5942 37.7207 38.5712 37.7865 38.5927 37.8232C38.6141 37.8599 38.7839 37.8049 38.8069 37.8416C38.8298 37.8783 38.7992 37.9471 38.8222 37.9839C38.8451 38.0206 38.8971 38.0527 38.9094 38.0925C38.9216 38.1323 38.8191 38.1965 38.8237 38.2363C38.8216 38.2749 38.8165 38.3132 38.8084 38.351C38.8084 38.3908 38.7656 38.4169 38.7594 38.4551C38.7533 38.4933 38.9216 38.5851 38.9124 38.6203C38.9033 38.6555 38.7074 38.6326 38.6906 38.6723C38.6738 38.7121 38.7334 38.7825 38.7151 38.8253C38.6967 38.8682 38.6233 38.8758 38.6034 38.9156C38.5835 38.9554 38.5881 39.0013 38.5682 39.0395C38.5483 39.0778 38.5881 39.1497 38.5682 39.1925C38.5483 39.2354 38.4152 39.1925 38.3938 39.2354C38.3724 39.2782 38.3739 39.3226 38.3494 39.3578C38.3249 39.3929 38.4305 39.5245 38.4045 39.5597C38.3785 39.5949 38.2974 39.5857 38.2683 39.6194C38.2393 39.653 38.2683 39.7433 38.2438 39.7724C38.2193 39.8014 38.1459 39.8045 38.1153 39.8336C38.0847 39.8627 38.0495 39.8932 38.0159 39.9223C37.9822 39.9514 37.9088 39.93 37.8751 39.9575C37.8415 39.985 37.7711 39.9575 37.739 39.9866C37.7068 40.0157 37.6931 40.0631 37.6609 40.0891C37.6288 40.1151 37.6609 40.2283 37.6288 40.2528C37.5967 40.2773 37.4758 40.1809 37.436 40.2054C37.3963 40.2298 37.3565 40.2375 37.3228 40.262L37.2203 40.3324C37.1866 40.3568 37.2601 40.5312 37.2203 40.5542C37.1805 40.5771 37.0948 40.5205 37.0673 40.545C37.0398 40.5695 36.9862 40.5741 36.9526 40.597C36.9189 40.62 36.8822 40.6414 36.847 40.6643C36.8118 40.6873 36.824 40.7806 36.7889 40.8036L36.6848 40.8724C36.6496 40.8954 36.5548 40.8235 36.5196 40.8449C36.4844 40.8663 36.5196 40.9979 36.4844 41.0269C36.4492 41.056 36.3314 40.9336 36.2962 40.955C36.261 40.9764 36.3176 41.157 36.2809 41.1769C36.2442 41.1968 36.1585 41.1294 36.1279 41.1493C36.0973 41.1692 36.0897 41.2549 36.0529 41.2748C36.0162 41.2947 35.9596 41.2748 35.9229 41.2962C35.8862 41.3176 35.8785 41.3926 35.8403 41.411C35.802 41.4293 35.7714 41.4615 35.7347 41.4798C35.698 41.4982 35.5924 41.3773 35.5542 41.3941C35.5159 41.411 35.5205 41.5196 35.4823 41.5364C35.444 41.5532 35.3813 41.5135 35.3431 41.5364C35.3048 41.5594 35.2773 41.5946 35.239 41.6114C35.2008 41.6282 35.1855 41.7047 35.1472 41.72C35.109 41.7353 35.0049 41.5823 34.9667 41.5976C34.9284 41.6129 34.9407 41.7675 34.9009 41.7812C34.8611 41.795 34.8259 41.8179 34.7861 41.8317C34.7464 41.8455 34.6591 41.7277 34.6194 41.7414C34.5796 41.7552 34.601 41.948 34.5612 41.9617C34.5215 41.9755 34.4541 41.9082 34.4082 41.9204C34.3623 41.9327 34.3333 41.9801 34.292 41.9893C34.2507 41.9985 34.1941 41.925 34.1527 41.9312C34.1114 41.9373 34.0747 41.9969 34.0319 42C33.9864 41.993 33.9415 41.9833 33.8972 41.9709C33.8522 41.9702 33.8073 41.9671 33.7626 41.9617C33.7182 41.951 33.6662 41.9618 33.6264 41.9403C33.5867 41.9189 33.6035 41.7873 33.5698 41.7613C33.5362 41.7353 33.4428 41.7812 33.4352 41.7476C33.4275 41.7139 33.4949 41.6359 33.4796 41.5946C33.4643 41.5533 33.3556 41.5502 33.3373 41.512C33.3189 41.4737 33.2791 41.4477 33.2577 41.4125C33.2363 41.3773 33.299 41.284 33.2761 41.2488C33.2531 41.2136 33.1736 41.2166 33.1476 41.183C33.1215 41.1493 33.0603 41.1432 33.0343 41.1111C33.0083 41.079 33.0343 41.0025 33.0053 40.9703C32.9762 40.9382 32.9793 40.8785 32.9502 40.8464C32.9211 40.8143 32.7834 40.8816 32.7559 40.8464C32.7284 40.8112 32.7299 40.7561 32.7023 40.724C32.6748 40.6919 32.5953 40.6995 32.5692 40.6659C32.5432 40.6322 32.6381 40.5037 32.6136 40.47C32.5891 40.4364 32.5432 40.418 32.5203 40.3828C32.4973 40.3476 32.5034 40.2971 32.482 40.2604C32.4606 40.2237 32.3061 40.2604 32.2847 40.2222C32.2632 40.1839 32.4055 40.057 32.3841 40.0202C32.3627 39.9835 32.2127 40.0202 32.1913 39.9835C32.1699 39.9468 32.121 39.9254 32.0995 39.8887C32.0781 39.8519 32.0766 39.803 32.0552 39.7662C32.0337 39.7295 32.0919 39.6454 32.0689 39.6133C32.046 39.5811 31.9573 39.5811 31.9358 39.5444C31.9144 39.5077 31.8501 39.497 31.8272 39.4603C31.8042 39.4235 31.9603 39.2767 31.9374 39.24C31.9144 39.2032 31.7247 39.2736 31.7018 39.24C31.6788 39.2063 31.7017 39.1375 31.6819 39.1007C31.662 39.064 31.6666 39.0089 31.6436 38.9722C31.6207 38.9355 31.6436 38.8667 31.6283 38.8299C31.613 38.7932 31.4554 38.8391 31.4325 38.8039C31.4095 38.7687 31.3805 38.7351 31.3575 38.6999C31.3346 38.6647 31.3973 38.5714 31.3743 38.5347C31.3514 38.4979 31.3376 38.4582 31.3147 38.4214C31.2917 38.3847 31.3239 38.3159 31.3009 38.2791C31.278 38.2424 31.2657 38.1399 31.2443 38.1047ZM11.1039 14.7331C11.133 14.7637 11.3013 14.7714 11.3273 14.7989C11.3533 14.8264 11.4084 14.8356 11.4344 14.8647C11.4604 14.8937 11.4436 14.9672 11.4696 14.9963C11.4956 15.0253 11.4895 15.0896 11.5155 15.1187C11.5415 15.1477 11.5828 15.1661 11.6088 15.1952L11.6899 15.2839C11.7174 15.3145 11.6792 15.4047 11.7067 15.4369C11.7343 15.469 11.8597 15.4063 11.8919 15.4369C11.924 15.4675 11.8919 15.544 11.924 15.5746C11.9561 15.6052 12.0388 15.5746 12.0678 15.6113C12.0969 15.648 12.1091 15.6847 12.1367 15.7153C12.1642 15.7459 12.178 15.7903 12.2055 15.8209C12.233 15.8515 12.2376 15.9035 12.2652 15.9341C12.2927 15.9647 12.3294 15.9877 12.357 16.0183C12.3845 16.0489 12.458 16.0412 12.484 16.0734C12.51 16.1055 12.4258 16.2264 12.4518 16.2615C12.4779 16.2967 12.5957 16.2508 12.6217 16.2829C12.6477 16.3151 12.6324 16.387 12.6599 16.4207C12.6875 16.4543 12.6813 16.514 12.7089 16.5492C12.7364 16.5843 12.7487 16.6272 12.7747 16.6624C12.8007 16.6976 12.8588 16.7083 12.8848 16.7435C12.9108 16.7787 12.92 16.8276 12.946 16.8628L13.0256 16.9668C13.0516 17.002 13.0424 17.0632 13.0684 17.0984C13.0944 17.1336 13.2214 17.0984 13.2428 17.1351C13.2642 17.1719 13.2122 17.2667 13.2428 17.3019C13.2734 17.3371 13.3729 17.3141 13.3958 17.3493C13.4188 17.3845 13.3836 17.4702 13.4111 17.5023C13.4386 17.5344 13.4631 17.5743 13.4907 17.6079C13.5182 17.6416 13.5947 17.6324 13.6222 17.6645C13.6498 17.6966 13.6391 17.7594 13.6651 17.7915C13.6911 17.8236 13.7324 17.8466 13.7584 17.8802C13.7844 17.9139 13.8563 17.9093 13.8823 17.943C13.9084 17.9766 13.8456 18.0822 13.8716 18.1143C13.8976 18.1464 13.9971 18.1143 14.0246 18.1541L14.1072 18.252C14.1333 18.2841 14.0935 18.3714 14.1195 18.405C14.1455 18.4387 14.3138 18.3545 14.3398 18.3882C14.3658 18.4218 14.2587 18.5641 14.2863 18.5963L14.3643 18.6957C14.3918 18.7278 14.4377 18.7462 14.4637 18.7783C14.4897 18.8104 14.5708 18.7997 14.5984 18.8319C14.6259 18.864 14.7146 18.8456 14.7407 18.8777C14.7667 18.9099 14.6993 19.0216 14.7269 19.0537C14.7544 19.0858 14.7957 19.1073 14.8233 19.1394C14.8508 19.1715 14.9227 19.1669 14.9487 19.1991C14.9747 19.2312 14.938 19.3184 14.9656 19.352C14.9931 19.3857 15.0114 19.4239 15.0375 19.4561C15.0635 19.4882 15.1752 19.4561 15.2012 19.4852C15.2272 19.5142 15.267 19.5402 15.2945 19.5739C15.322 19.6075 15.3236 19.658 15.3511 19.6917C15.3786 19.7254 15.3955 19.7636 15.4215 19.7973C15.4475 19.8309 15.4842 19.8554 15.5118 19.8875C15.5393 19.9197 15.4674 20.0329 15.4949 20.065C15.5224 20.0971 15.6984 20.0069 15.7244 20.0405C15.7504 20.0742 15.6403 20.2196 15.6663 20.2517C15.6923 20.2838 15.7673 20.2792 15.7948 20.3113C15.8223 20.3435 15.9233 20.3113 15.9478 20.3465C15.9723 20.3817 15.9661 20.4429 15.9921 20.475C16.0182 20.5072 16.1008 20.4949 16.1268 20.5286C16.1528 20.5622 16.1635 20.6081 16.1895 20.6418C16.2155 20.6754 16.1543 20.7795 16.1803 20.8132C16.2064 20.8468 16.318 20.8132 16.3456 20.8422C16.3731 20.8713 16.2951 20.9952 16.3226 21.0243C16.3502 21.0533 16.3517 21.1084 16.3792 21.1421C16.4068 21.1757 16.4465 21.1956 16.4741 21.2278C16.5016 21.2599 16.5842 21.2477 16.6103 21.2798C16.6363 21.3119 16.5949 21.4007 16.6225 21.4328C16.65 21.4649 16.7755 21.4129 16.8061 21.445C16.8367 21.4771 16.8382 21.5292 16.8642 21.5613C16.8902 21.5934 16.953 21.5995 16.979 21.6317C17.005 21.6638 17.0494 21.6837 17.0754 21.7158C17.1014 21.748 17.0754 21.8229 17.106 21.8551C17.1366 21.8872 17.1763 21.9071 17.2023 21.9407C17.2284 21.9744 17.158 22.0937 17.184 22.1182C17.21 22.1427 17.2268 22.1917 17.2528 22.2253C17.2788 22.259 17.337 22.2651 17.3645 22.2987C17.3921 22.3324 17.5374 22.2681 17.5634 22.2987C17.5894 22.3293 17.4854 22.4701 17.5129 22.5022C17.5405 22.5344 17.6231 22.5221 17.6506 22.5542C17.6782 22.5864 17.7715 22.5665 17.8036 22.5986C17.8358 22.6307 17.7256 22.7684 17.7516 22.8006C17.7776 22.8327 17.8893 22.8006 17.9153 22.8327C17.9413 22.8648 18.0117 22.8648 18.0377 22.8969C18.0637 22.9291 17.9566 23.0683 17.9811 23.1004C18.0056 23.1326 18.1249 23.1004 18.1509 23.1295C18.1769 23.1586 18.1938 23.203 18.2198 23.2366C18.2458 23.2703 18.2473 23.3207 18.2733 23.3529C18.2993 23.385 18.3636 23.3896 18.3896 23.4233C18.4156 23.4569 18.3437 23.564 18.3682 23.5977C18.3927 23.6313 18.4477 23.6436 18.4722 23.6772C18.4967 23.7109 18.5411 23.7323 18.5655 23.766C18.59 23.7996 18.6803 23.7843 18.7048 23.818C18.7293 23.8516 18.7048 23.919 18.7369 23.9526C18.769 23.9863 18.7981 24.0123 18.8226 24.0459C18.847 24.0796 18.8547 24.127 18.8807 24.1607C18.9067 24.1943 18.9572 24.2066 18.9832 24.2403L19.0567 24.3428C19.0827 24.3764 19.0873 24.4254 19.1133 24.4591C19.1393 24.4927 19.1928 24.5034 19.2173 24.5371C19.2418 24.5708 19.2831 24.5937 19.3091 24.6273C19.3351 24.661 19.2555 24.7727 19.2816 24.8063C19.3076 24.84 19.3734 24.8431 19.3978 24.8767C19.4223 24.9104 19.5095 24.8966 19.534 24.9303C19.5585 24.9639 19.4881 25.0726 19.5126 25.1062C19.5371 25.1399 19.586 25.1567 19.6105 25.1903C19.635 25.224 19.7635 25.1904 19.7834 25.2164C19.8033 25.2424 19.7176 25.3694 19.7436 25.4076C19.7696 25.4459 19.7803 25.4857 19.8063 25.5193C19.8323 25.553 19.9593 25.4994 19.993 25.5331C20.0266 25.5667 20.0986 25.556 20.1246 25.5897C20.1506 25.6233 20.1108 25.7075 20.1368 25.7427C20.1628 25.7779 20.1215 25.8635 20.1475 25.8957C20.1735 25.9278 20.2164 25.9492 20.2424 25.9814C20.2684 26.0135 20.3617 25.9921 20.3877 26.0257C20.4137 26.0594 20.4367 26.093 20.4642 26.1252C20.4918 26.1573 20.5667 26.1481 20.5943 26.1818C20.6218 26.2155 20.5683 26.3133 20.5943 26.3455C20.6203 26.3776 20.6417 26.4143 20.6692 26.4465C20.6968 26.4786 20.6799 26.549 20.7075 26.5811C20.735 26.6132 20.7733 26.6346 20.8008 26.6668C20.8283 26.6989 20.8268 26.7571 20.8559 26.7877C20.885 26.8182 20.9599 26.8075 20.9875 26.8396C21.015 26.8718 21.0839 26.8657 21.1114 26.8978C21.1389 26.9299 21.1481 26.9774 21.1772 27.008C21.2062 27.0386 21.2889 27.0187 21.3179 27.0493C21.347 27.0799 21.3501 27.1349 21.3791 27.1655C21.4082 27.1961 21.4602 27.2023 21.4908 27.2329C21.5214 27.2635 21.5719 27.2696 21.601 27.3002L21.6882 27.3904C21.7173 27.4195 21.7264 27.47 21.7555 27.5006C21.7846 27.5312 21.705 27.672 21.7356 27.7026C21.7662 27.7332 21.8381 27.7179 21.8672 27.7469C21.8963 27.776 22.0202 27.7117 22.0477 27.7393C22.0753 27.7668 22.0033 27.9122 22.0339 27.9412L22.1242 28.0269C22.1548 28.056 22.2772 27.9887 22.3078 28.0177C22.3384 28.0468 22.3185 28.1279 22.3476 28.157C22.3767 28.186 22.3614 28.2594 22.3904 28.29C22.4195 28.3206 22.4914 28.3099 22.5205 28.3421C22.5495 28.3742 22.6429 28.3421 22.6735 28.3757C22.7041 28.4094 22.6016 28.5532 22.6291 28.5838C22.6566 28.6144 22.7591 28.5838 22.7821 28.6129C22.805 28.6419 22.7928 28.7138 22.8203 28.746C22.8479 28.7781 22.8311 28.8454 22.8586 28.8776C22.8861 28.9097 22.9795 28.8867 23.0116 28.9189C23.0437 28.951 23.1493 28.9189 23.1768 28.9479C23.2044 28.977 23.2396 29.0046 23.2656 29.0382C23.2916 29.0719 23.1952 29.2019 23.2227 29.234C23.2503 29.2662 23.3512 29.234 23.3757 29.2723C23.4002 29.3105 23.4461 29.3243 23.4721 29.3565C23.4981 29.3886 23.4308 29.4972 23.4568 29.5293C23.4828 29.5614 23.4767 29.6211 23.5027 29.6548C23.5287 29.6884 23.6955 29.6089 23.7215 29.6425C23.7475 29.6762 23.6526 29.8032 23.6786 29.8368C23.7047 29.8705 23.7215 29.9103 23.7475 29.9439C23.7735 29.9776 23.8408 29.9761 23.8684 30.0097C23.8959 30.0434 23.9831 30.0235 24.0091 30.0571C24.0351 30.0908 23.9938 30.178 24.0198 30.2101C24.0459 30.2423 24.1728 30.1949 24.1988 30.227C24.2248 30.2591 24.1223 30.3968 24.1484 30.4304C24.1744 30.4641 24.3319 30.3876 24.3595 30.4198C24.387 30.4519 24.3197 30.559 24.3457 30.5926C24.3717 30.6263 24.4482 30.6171 24.4758 30.6493C24.5033 30.6814 24.5079 30.7303 24.5339 30.764C24.5599 30.7977 24.5079 30.8925 24.5339 30.9247C24.5599 30.9568 24.6976 30.9002 24.7236 30.9247C24.7496 30.9491 24.8078 30.9644 24.8338 30.9966C24.8598 31.0287 24.8904 31.0593 24.9164 31.0914C24.9424 31.1235 24.9562 31.1664 24.9837 31.2C25.0112 31.2337 24.8934 31.3806 24.9195 31.4127C24.9455 31.4448 25.0526 31.4127 25.0725 31.4448C25.0923 31.477 25.1581 31.4831 25.1857 31.5152C25.2132 31.5473 25.1413 31.659 25.1673 31.6911C25.1933 31.7233 25.3203 31.6743 25.3478 31.7064C25.3754 31.7386 25.3279 31.8304 25.3478 31.8594C25.3677 31.8885 25.3876 31.9359 25.4136 31.9681C25.4396 32.0002 25.4366 32.0583 25.4626 32.0905C25.4886 32.1226 25.5513 32.1256 25.5773 32.1578C25.6033 32.1899 25.689 32.1761 25.7166 32.2083C25.7441 32.2404 25.6875 32.3399 25.7166 32.372C25.7456 32.4041 25.8283 32.3888 25.8543 32.4209C25.8803 32.4531 25.894 32.4975 25.92 32.5296C25.946 32.5617 25.9078 32.6474 25.9338 32.6826C25.9598 32.7178 26.1342 32.629 26.1603 32.6611C26.1863 32.6933 26.1419 32.7835 26.1603 32.8141C26.1786 32.8447 26.1434 32.9365 26.171 32.9671C26.1985 32.9977 26.2689 32.9962 26.2949 33.0283C26.3209 33.0605 26.4617 33.0008 26.4877 33.0283C26.5137 33.0559 26.5014 33.1247 26.5274 33.1568C26.5535 33.189 26.4892 33.2961 26.5152 33.3297C26.5412 33.3634 26.6529 33.3297 26.6789 33.3573C26.7049 33.3848 26.7539 33.4062 26.7799 33.4384C26.8059 33.4705 26.8227 33.5118 26.8487 33.5439C26.8747 33.5761 26.9375 33.5791 26.9635 33.6112C26.9895 33.6434 26.939 33.7398 26.9635 33.7719C26.988 33.804 27.0063 33.8453 27.0323 33.879C27.0583 33.9126 27.1042 33.9279 27.1302 33.9601C27.1562 33.9922 27.2052 34.0075 27.2312 34.0396C27.2572 34.0718 27.2741 34.1146 27.3001 34.1467C27.3261 34.1788 27.3001 34.2508 27.3322 34.2829C27.3643 34.315 27.3689 34.3609 27.3949 34.3931C27.4209 34.4252 27.5357 34.393 27.5617 34.4191C27.5877 34.4451 27.5158 34.5644 27.5418 34.5966C27.5678 34.6287 27.6244 34.6379 27.6504 34.67C27.6764 34.7021 27.7376 34.7067 27.7636 34.7404C27.7897 34.774 27.8294 34.7939 27.8554 34.826C27.8814 34.8582 27.883 34.9117 27.9105 34.9438C27.9381 34.9759 27.8922 35.0677 27.9197 35.0968C27.9472 35.1259 28.1094 35.0479 28.1369 35.08C28.1645 35.1121 28.0681 35.2452 28.0957 35.2774C28.1232 35.3095 28.2486 35.2621 28.27 35.2942C28.2915 35.3263 28.2823 35.3937 28.3083 35.4258C28.3343 35.4579 28.3741 35.4778 28.4016 35.5084C28.4292 35.539 28.5072 35.5267 28.5347 35.5589C28.5623 35.591 28.5347 35.6675 28.5623 35.6996C28.5898 35.7318 28.6265 35.7532 28.6541 35.7838C28.6816 35.8144 28.7122 35.8434 28.7398 35.874C28.7673 35.9046 28.8009 35.9307 28.8285 35.9613C28.856 35.9919 28.9081 36.001 28.9356 36.0316C28.9631 36.0622 28.9524 36.128 28.98 36.1586C29.0075 36.1892 29.0962 36.1663 29.1238 36.1969C29.1513 36.2275 29.1712 36.2657 29.2003 36.2963C29.2293 36.3269 29.2645 36.3483 29.2921 36.3789C29.3196 36.4095 29.3456 36.4416 29.3747 36.4722C29.4038 36.5028 29.4145 36.5488 29.442 36.5794C29.4695 36.61 29.5124 36.6268 29.5415 36.6574C29.5705 36.688 29.4604 36.844 29.4879 36.8746C29.5154 36.9052 29.6837 36.8089 29.7113 36.8395C29.7388 36.8701 29.6333 37.023 29.6608 37.0536C29.6883 37.0842 29.8429 37.0016 29.8704 37.0322C29.8979 37.0628 29.7862 37.2189 29.8138 37.251C29.8413 37.2831 29.8964 37.2862 29.9239 37.3183C29.9515 37.3504 30.0662 37.303 30.0984 37.3321C30.1305 37.3612 30.1397 37.4116 30.1733 37.4377C30.207 37.4637 30.1733 37.5907 30.2162 37.6136C30.259 37.6366 30.3569 37.5448 30.3967 37.5616C30.4365 37.5784 30.4931 37.5294 30.5344 37.5432C30.5757 37.557 30.591 37.6549 30.6338 37.661C30.6767 37.6671 30.721 37.635 30.7639 37.6366C30.8067 37.6381 30.8526 37.7421 30.897 37.7391C30.9414 37.736 30.9949 37.7712 31.0393 37.7636C31.0837 37.7559 31.0928 37.58 31.1341 37.5708C31.1755 37.5616 31.2519 37.6962 31.2871 37.6855C31.3223 37.6748 31.3667 37.6442 31.4095 37.6335C31.4524 37.6228 31.4723 37.5341 31.5136 37.5233C31.5549 37.5126 31.6176 37.5861 31.6666 37.5754C31.7155 37.5647 31.7507 37.5754 31.792 37.5616C31.8333 37.5478 31.8578 37.4377 31.9007 37.4315C31.9435 37.4254 31.9863 37.4147 32.0307 37.4101C32.0751 37.4055 32.1179 37.4377 32.1623 37.4392C32.2066 37.4407 32.2571 37.3566 32.3 37.3612C32.3428 37.3657 32.3688 37.4912 32.4117 37.5004C32.4545 37.5096 32.4851 37.5402 32.5264 37.5539C32.5765 37.5674 32.6293 37.5674 32.6794 37.5539C32.7131 37.5417 32.7253 37.4637 32.7605 37.4438C32.7957 37.4239 32.7941 37.3474 32.8247 37.329C32.8553 37.3107 32.8997 37.2893 32.9364 37.2663C32.9731 37.2434 33.0787 37.3367 33.1154 37.3137C33.1521 37.2908 33.1736 37.2449 33.2103 37.2219C33.247 37.199 33.2256 37.0843 33.2623 37.069C33.299 37.0537 33.4153 37.1439 33.4459 37.1225C33.4765 37.1011 33.5056 37.0567 33.5423 37.0338C33.579 37.0108 33.5545 36.8915 33.5912 36.87C33.628 36.8486 33.7442 36.9634 33.7856 36.9404C33.8269 36.9175 33.7856 36.7874 33.8284 36.7645C33.8712 36.7415 33.9523 36.8012 33.9814 36.7798C34.0105 36.7583 34.0747 36.766 34.1114 36.7446C34.1482 36.7232 34.1696 36.6758 34.2048 36.6528C34.2399 36.6299 34.2338 36.535 34.2706 36.5136C34.3073 36.4921 34.3256 36.4401 34.3623 36.4172C34.3991 36.3942 34.4281 36.3621 34.4648 36.3407C34.5016 36.3193 34.5429 36.307 34.5765 36.2825C34.6102 36.2581 34.6393 36.2275 34.6729 36.2015C34.7066 36.1755 34.8427 36.2673 34.8733 36.2382C34.9039 36.2091 34.933 36.1678 34.9621 36.1372C34.9911 36.1066 35.0187 36.0653 35.0462 36.0332C35.0738 36.001 34.9606 35.8526 34.9866 35.819C35.0126 35.7853 35.1396 35.819 35.1594 35.7884C35.1793 35.7578 35.2757 35.7578 35.2971 35.7211C35.3186 35.6843 35.1977 35.5681 35.2191 35.5267C35.2405 35.4854 35.3905 35.5191 35.4088 35.4808C35.4272 35.4426 35.3247 35.3462 35.3415 35.308C35.3584 35.2697 35.4333 35.2544 35.4501 35.2146C35.467 35.1748 35.467 35.129 35.4807 35.0892C35.4945 35.0494 35.5236 35.0127 35.5373 34.9729C35.5511 34.9331 35.6184 34.9071 35.6307 34.8658C35.6429 34.8245 35.6307 34.7801 35.6307 34.7419C35.6307 34.7036 35.6643 34.6685 35.6796 34.6302C35.6949 34.592 35.6322 34.5246 35.6475 34.4864C35.6628 34.4481 35.724 34.4298 35.7393 34.3931C35.7546 34.3563 35.6842 34.2798 35.6995 34.2401C35.7148 34.2003 35.7347 34.1651 35.75 34.1284C35.7653 34.0917 35.9367 34.1177 35.952 34.0794C35.9673 34.0412 35.799 33.9264 35.8081 33.8882C35.8173 33.8499 35.8801 33.83 35.8938 33.7918C35.9076 33.7535 35.8938 33.7061 35.9045 33.6679C35.9152 33.6296 35.9841 33.6036 35.9994 33.5608C36.0147 33.5179 36.1524 33.5195 36.1692 33.4766C36.186 33.4338 36.0529 33.3511 36.0621 33.3083C36.0713 33.2655 36.1264 33.2303 36.1279 33.189C36.1308 33.145 36.1256 33.101 36.1126 33.0589C36.0988 33.0192 36.0269 33.0038 36.0101 32.9641C35.9933 32.9243 36.0101 32.8723 35.9933 32.834C35.9765 32.7958 36.0713 32.6979 36.0514 32.6611C36.0315 32.6244 35.8908 32.6504 35.8694 32.6122C35.8479 32.5739 35.9045 32.4928 35.8831 32.4592C35.8617 32.4255 35.8158 32.3995 35.7929 32.3628C35.7699 32.3261 35.6674 32.3444 35.6399 32.3092C35.6123 32.2741 35.5955 32.2358 35.5725 32.2006C35.5496 32.1654 35.5511 32.1134 35.5266 32.0782C35.5022 32.043 35.5037 31.9849 35.4731 31.9513C35.4425 31.9176 35.4532 31.8426 35.4211 31.8105C35.3889 31.7783 35.2849 31.8227 35.2528 31.7906C35.2206 31.7585 35.1396 31.7738 35.109 31.7432C35.0784 31.7126 35.109 31.6192 35.0753 31.5902C35.0417 31.5611 34.9575 31.555 34.9345 31.5167C34.9116 31.4785 34.904 31.4356 34.8825 31.3989C34.8611 31.3622 34.8519 31.3178 34.829 31.2811C34.806 31.2444 34.8948 31.1404 34.8733 31.1052C34.8519 31.07 34.7892 31.0562 34.7678 31.021C34.7464 30.9858 34.6928 30.9659 34.6699 30.9307C34.6469 30.8956 34.5689 30.8925 34.5475 30.8558C34.526 30.8191 34.5352 30.764 34.5138 30.7273C34.4924 30.6906 34.4924 30.6401 34.4694 30.6034C34.4465 30.5666 34.3838 30.5574 34.3623 30.5207C34.3409 30.484 34.3991 30.3983 34.3776 30.3677C34.3562 30.3371 34.2583 30.3402 34.2369 30.305C34.2155 30.2698 34.2843 30.175 34.2629 30.1398C34.2415 30.1046 34.1099 30.1275 34.0961 30.0908C34.0824 30.0541 34.142 29.9638 34.1206 29.9271C34.0992 29.8904 34.0716 29.8567 34.0487 29.8215C34.0257 29.7863 34.0196 29.7404 33.9967 29.7037C33.9737 29.667 33.8682 29.6823 33.8437 29.6456C33.8192 29.6089 33.8437 29.5492 33.8177 29.5125C33.7917 29.4758 33.8253 29.41 33.8024 29.3733C33.7794 29.3365 33.7871 29.283 33.7657 29.2463C33.7442 29.2095 33.6127 29.2463 33.5897 29.2035C33.5668 29.1606 33.553 29.1269 33.5316 29.0902C33.5102 29.0535 33.5316 28.9877 33.5147 28.951C33.4979 28.9143 33.3694 28.9387 33.348 28.9036C33.3266 28.8684 33.4581 28.7368 33.4352 28.7016C33.4122 28.6664 33.3403 28.6588 33.3189 28.6221C33.2975 28.5853 33.1873 28.6022 33.1659 28.5654C33.1445 28.5287 33.1797 28.4584 33.1567 28.4216L33.0909 28.313C33.068 28.2763 33.0007 28.2686 32.9793 28.2319C32.9578 28.1952 33.0099 28.1141 32.9869 28.0789C32.964 28.0437 32.8859 28.0407 32.863 28.0055C32.84 27.9703 32.7804 27.955 32.759 27.9183C32.7375 27.8816 32.8018 27.7928 32.7804 27.7653C32.759 27.7377 32.7804 27.6613 32.7651 27.6245C32.7498 27.5878 32.5952 27.6245 32.5738 27.5924C32.5524 27.5603 32.6626 27.4394 32.6396 27.4027C32.6167 27.366 32.5157 27.3767 32.4866 27.3399C32.4575 27.3032 32.4545 27.2589 32.4331 27.2221C32.4117 27.1854 32.3734 27.1579 32.352 27.1196C32.3306 27.0814 32.3734 27.008 32.352 26.9666C32.3306 26.9253 32.2158 26.9467 32.199 26.91C32.1822 26.8733 32.199 26.8121 32.176 26.7739C32.1531 26.7356 32.0888 26.7264 32.0674 26.6882C32.046 26.6499 32.1378 26.549 32.1164 26.5123C32.0949 26.4755 31.9894 26.4863 31.9634 26.4495C31.9374 26.4128 31.9726 26.3439 31.9511 26.3072C31.9297 26.2705 31.841 26.272 31.8196 26.2353C31.7981 26.1986 31.7538 26.1757 31.7308 26.139C31.7079 26.1022 31.714 26.0487 31.691 26.0135C31.6681 25.9783 31.6696 25.9263 31.6467 25.8895C31.6237 25.8528 31.6727 25.7687 31.6467 25.7366C31.6207 25.7044 31.4508 25.7656 31.4279 25.7366C31.4049 25.7075 31.3743 25.6708 31.3514 25.6356C31.3284 25.6004 31.307 25.5637 31.2825 25.5285C31.2581 25.4933 31.2428 25.4535 31.2183 25.4183C31.1938 25.3831 31.2382 25.3036 31.2183 25.2653C31.1984 25.2271 31.0821 25.2562 31.0576 25.221C31.0332 25.1858 31.1188 25.0771 31.0959 25.0419C31.0729 25.0068 30.9934 25.0083 30.9704 24.9731C30.9475 24.9379 30.8802 24.9318 30.8572 24.8981C30.8343 24.8645 30.9582 24.7268 30.9352 24.6916C30.9123 24.6564 30.9 24.6136 30.8756 24.5784C30.8511 24.5432 30.7425 24.5662 30.7226 24.531L30.6491 24.4269C30.6262 24.3917 30.6124 24.3489 30.5895 24.3137C30.5665 24.2785 30.5987 24.2051 30.5757 24.1699C30.5528 24.1347 30.461 24.1454 30.438 24.1102C30.4151 24.075 30.4701 23.9863 30.438 23.9572C30.4059 23.9282 30.3982 23.8823 30.3737 23.8471C30.3493 23.8119 30.2682 23.8165 30.2452 23.7813C30.2223 23.7461 30.207 23.7048 30.1825 23.6696C30.158 23.6344 30.0142 23.6834 29.9897 23.6482C29.9652 23.613 29.979 23.5533 29.9545 23.5181C29.9301 23.4829 29.8765 23.4692 29.852 23.434C29.8276 23.3988 29.852 23.3315 29.8276 23.2978C29.8031 23.2642 29.8566 23.1754 29.8276 23.1448C29.7985 23.1142 29.7602 23.0882 29.7373 23.053C29.7143 23.0178 29.5996 23.0438 29.5843 23.0086C29.569 22.9734 29.6776 22.8419 29.6547 22.8067C29.6317 22.7715 29.5919 22.747 29.5675 22.7118C29.543 22.6766 29.5124 22.6476 29.4879 22.6124C29.4634 22.5772 29.3992 22.5711 29.3762 22.5359C29.3533 22.5007 29.2706 22.5053 29.2477 22.4701C29.2247 22.4349 29.188 22.4074 29.1636 22.3722C29.1391 22.337 29.1529 22.2788 29.1284 22.2437C29.1039 22.2085 29.1069 22.1549 29.084 22.1198C29.061 22.0846 29.0947 22.0111 29.0702 21.9759C29.0458 21.9407 28.9356 21.9652 28.9172 21.93C28.8989 21.8949 28.9249 21.8229 28.9004 21.7877C28.8759 21.7525 28.801 21.7541 28.7765 21.7189C28.752 21.6837 28.7994 21.6011 28.7765 21.5659C28.7535 21.5307 28.6571 21.546 28.6342 21.5108C28.6112 21.4756 28.5623 21.4573 28.5378 21.4221C28.5133 21.3869 28.521 21.3303 28.498 21.2951C28.4751 21.2599 28.5133 21.1834 28.4888 21.1421C28.4644 21.1008 28.371 21.1207 28.3465 21.0855C28.3221 21.0503 28.3144 21.0044 28.2899 20.9692C28.2655 20.934 28.3022 20.8591 28.2792 20.8254C28.2563 20.7918 28.1125 20.8346 28.088 20.7994C28.0635 20.7642 28.1002 20.6908 28.0758 20.6556C28.0513 20.6204 28.0191 20.5913 27.9947 20.5561C27.9702 20.521 27.8784 20.5332 27.8554 20.498C27.8325 20.4628 27.9686 20.3205 27.9442 20.2853C27.9197 20.2501 27.831 20.2593 27.8065 20.2241C27.782 20.1889 27.8065 20.1277 27.7789 20.0926C27.7514 20.0574 27.6015 20.1109 27.5785 20.0772C27.5556 20.0436 27.5785 19.9717 27.5617 19.9365C27.5448 19.9013 27.4714 19.8983 27.4485 19.8631C27.4255 19.8279 27.4485 19.7651 27.4209 19.7299L27.3505 19.6274L27.2817 19.5234C27.2588 19.4882 27.346 19.3811 27.323 19.3459C27.3001 19.3107 27.2175 19.3169 27.1945 19.2817C27.1716 19.2465 27.2067 19.1731 27.1838 19.1394C27.1608 19.1057 27.118 19.0828 27.0951 19.0476C27.0721 19.0124 27.0583 18.9726 27.0354 18.9374C27.0124 18.9022 26.8824 18.9374 26.8548 18.9068C26.8273 18.8762 26.7784 18.8579 26.7554 18.8227C26.7325 18.7875 26.7019 18.7584 26.6789 18.7233C26.656 18.6881 26.6789 18.6238 26.656 18.5886C26.633 18.5534 26.7217 18.4463 26.6988 18.4111C26.6758 18.376 26.5167 18.431 26.4938 18.3958C26.4708 18.3606 26.4463 18.3285 26.4234 18.2933C26.4004 18.2581 26.4494 18.1771 26.4234 18.1403C26.3974 18.1036 26.4433 18.0271 26.4234 17.9873C26.4035 17.9476 26.3194 17.9552 26.2964 17.92C26.2735 17.8848 26.2459 17.8542 26.223 17.8206C26.2 17.7869 26.1143 17.7915 26.0914 17.7563C26.0684 17.7211 26.1189 17.6385 26.0914 17.6033C26.0639 17.5681 26.047 17.5345 26.0241 17.4993C26.0011 17.4641 25.9216 17.4656 25.9001 17.4304C25.8787 17.3952 25.8175 17.3845 25.7946 17.3509C25.7716 17.3172 25.8772 17.1979 25.8543 17.1627C25.8313 17.1275 25.738 17.1382 25.715 17.1046C25.6921 17.0709 25.738 16.9898 25.715 16.9516C25.6921 16.9133 25.5529 16.9516 25.5299 16.9225C25.507 16.8934 25.6355 16.7557 25.6125 16.7205C25.5896 16.6853 25.484 16.7037 25.4595 16.67C25.435 16.6364 25.3708 16.6272 25.3478 16.592C25.3249 16.5568 25.3983 16.4589 25.3754 16.4237C25.3524 16.3885 25.3188 16.361 25.2974 16.3258C25.2759 16.2906 25.2974 16.2248 25.2759 16.1912C25.2545 16.1575 25.1229 16.1912 25.0954 16.159C25.0678 16.1269 25.0617 16.081 25.0388 16.0458C25.0158 16.0106 24.9883 15.9785 24.9653 15.9448C24.9424 15.9112 24.9317 15.8668 24.9087 15.8316C24.8858 15.7964 24.7925 15.8072 24.7695 15.772C24.7466 15.7368 24.7267 15.7 24.7037 15.6648C24.6808 15.6296 24.794 15.5119 24.771 15.4721C24.7481 15.4323 24.6058 15.4721 24.5829 15.4445C24.5599 15.417 24.5722 15.3528 24.5492 15.3176C24.5263 15.2824 24.4605 15.2763 24.4375 15.2411C24.4146 15.2059 24.4819 15.1125 24.4589 15.0774C24.436 15.0422 24.3732 15.033 24.3503 14.9978C24.3274 14.9626 24.2509 14.9626 24.2294 14.9274C24.208 14.8922 24.2172 14.8356 24.1943 14.8004C24.1713 14.7652 24.2401 14.6719 24.2172 14.6367C24.1942 14.6015 24.104 14.6107 24.081 14.5755C24.0581 14.5403 23.9969 14.5296 23.9739 14.4944C23.951 14.4592 23.9862 14.3873 23.9632 14.3522C23.9403 14.317 23.8301 14.3399 23.8102 14.3047C23.7904 14.2695 23.7949 14.2144 23.772 14.1793C23.749 14.1441 23.8286 14.0431 23.8072 14.0095C23.7858 13.9758 23.6542 14.0095 23.6312 13.9727C23.6083 13.936 23.6588 13.8549 23.6312 13.8197C23.6037 13.7845 23.4935 13.809 23.4782 13.7738C23.4629 13.7386 23.4476 13.6943 23.4247 13.6591C23.4017 13.6239 23.5042 13.5061 23.4813 13.4724C23.4583 13.4388 23.4216 13.4127 23.3987 13.3776C23.3757 13.3424 23.3084 13.3363 23.2855 13.3011C23.2625 13.2659 23.2732 13.2093 23.2503 13.1741C23.2273 13.1389 23.1814 13.1205 23.1585 13.0854C23.1355 13.0502 23.1065 13.0196 23.0835 12.9844C23.0606 12.9492 23.0269 12.9201 23.0039 12.8849C22.981 12.8497 22.8938 12.8574 22.8708 12.8222C22.8479 12.787 22.9152 12.6906 22.8923 12.6554C22.8693 12.6202 22.8739 12.5651 22.851 12.53C22.828 12.4948 22.698 12.53 22.6704 12.4994C22.6429 12.4688 22.6245 12.4275 22.6016 12.3923C22.5786 12.3571 22.6322 12.2699 22.6016 12.2393C22.571 12.2087 22.5878 12.1459 22.5649 12.1108C22.5419 12.0756 22.5327 12.0312 22.5082 11.996C22.4838 11.9608 22.4455 11.9364 22.421 11.9027C22.3965 11.869 22.242 11.9226 22.2175 11.8874C22.1931 11.8522 22.2879 11.7344 22.2634 11.7038C22.239 11.6732 22.2114 11.6365 22.1869 11.6013C22.1625 11.5661 22.034 11.6013 22.0049 11.5707C21.9758 11.5401 21.9758 11.485 21.9513 11.4498C21.9269 11.4146 21.9177 11.3703 21.8932 11.3336C21.8687 11.2968 21.8825 11.2372 21.8595 11.202C21.8366 11.1668 21.783 11.1484 21.7601 11.1132C21.7371 11.078 21.6912 11.0566 21.6668 11.0199C21.6423 10.9832 21.7127 10.8853 21.6882 10.8501C21.6637 10.8149 21.5994 10.8072 21.575 10.7705C21.5505 10.7338 21.6086 10.6451 21.5841 10.6099C21.5597 10.5747 21.5076 10.5579 21.4832 10.5227C21.4587 10.4875 21.3868 10.4844 21.3623 10.4492C21.3378 10.414 21.3623 10.3482 21.3317 10.3131C21.3011 10.2779 21.321 10.2182 21.2965 10.1815C21.272 10.1448 21.2399 10.1157 21.2154 10.0805C21.1909 10.0453 21.1665 10.0101 21.142 9.97494C21.1175 9.93975 20.94 10.0086 20.9156 9.97494C20.8911 9.94128 20.9966 9.82194 20.9737 9.78063C20.9507 9.73932 20.9171 9.71486 20.8941 9.67967C20.8712 9.64448 20.8314 9.61695 20.8069 9.58177C20.7825 9.54658 20.7182 9.53893 20.6937 9.50374C20.6692 9.46855 20.6769 9.4104 20.6524 9.37521C20.6279 9.34002 20.6524 9.26812 20.634 9.23293C20.6157 9.19774 20.4397 9.26046 20.4153 9.22527C20.3908 9.19008 20.5086 9.05697 20.4856 9.02178C20.4627 8.98659 20.4229 8.9606 20.3984 8.92541C20.3739 8.89022 20.3632 8.84432 20.3388 8.80913C20.3143 8.77394 20.1506 8.8336 20.1276 8.79841C20.1047 8.76322 20.1735 8.64542 20.1414 8.6087C20.1093 8.57198 20.019 8.59492 19.9884 8.56279C19.9578 8.53066 19.944 8.47558 19.9134 8.44345C19.8813 8.47099 19.7941 8.4251 19.7604 8.45264C19.7268 8.48018 19.7467 8.56891 19.7145 8.59645C19.6824 8.62398 19.583 8.5735 19.5493 8.59645C19.5156 8.61939 19.5615 8.74946 19.5294 8.76935C19.4973 8.78924 19.3978 8.7464 19.3657 8.76935C19.3336 8.7923 19.3351 8.86422 19.303 8.89329C19.2708 8.92235 19.2617 8.9759 19.2295 9.00344C19.1974 9.03098 19.1989 9.09826 19.1653 9.1258C19.1316 9.15334 19.0765 9.15183 19.0429 9.1809C19.0092 9.20997 18.9939 9.25279 18.9603 9.28033C18.9266 9.30787 18.8287 9.25738 18.7966 9.28033C18.7644 9.30328 18.7461 9.35226 18.7139 9.3798C18.6818 9.40734 18.6512 9.43948 18.6191 9.46702C18.587 9.49456 18.564 9.53279 18.5319 9.56033C18.4998 9.58786 18.5319 9.68731 18.4952 9.71332C18.4585 9.73933 18.3422 9.672 18.3146 9.69954C18.2871 9.72708 18.3605 9.88468 18.3284 9.91222C18.2963 9.93976 18.258 9.95965 18.2259 9.98719C18.1938 10.0147 18.1387 10.0193 18.1066 10.0468C18.0744 10.0744 18.0209 10.0775 17.9887 10.105C17.9566 10.1325 17.9199 10.1555 17.8878 10.1846C17.8556 10.2136 17.8755 10.2993 17.8419 10.3268C17.8082 10.3544 17.646 10.2289 17.6139 10.2565C17.5818 10.284 17.5619 10.3268 17.5298 10.3544C17.4976 10.3819 17.5298 10.4814 17.493 10.5074C17.4563 10.5334 17.4349 10.5701 17.4028 10.5976C17.3707 10.6252 17.3706 10.6925 17.3385 10.72C17.3064 10.7476 17.1641 10.6435 17.1304 10.6695C17.0968 10.6956 17.0723 10.7323 17.0386 10.7598C17.005 10.7874 17.0387 10.8883 17.0019 10.9128C16.9652 10.9373 16.8673 10.8807 16.8352 10.9128C16.803 10.9449 16.777 10.9771 16.7449 11.0031C16.7128 11.0291 16.7066 11.0918 16.673 11.1178C16.6393 11.1438 16.6516 11.2265 16.6179 11.254C16.5843 11.2815 16.5399 11.2922 16.5062 11.3182C16.4726 11.3443 16.4909 11.436 16.4573 11.4636C16.4236 11.4911 16.292 11.3871 16.2568 11.4131C16.2217 11.4391 16.2308 11.5187 16.1972 11.5447C16.1635 11.5707 16.1268 11.5921 16.0931 11.6166C16.0595 11.6411 16.0931 11.7543 16.0549 11.7803C16.0166 11.8063 15.8789 11.6839 15.8437 11.7099C15.8086 11.7359 15.807 11.8017 15.7718 11.8262C15.7367 11.8507 15.7718 11.9792 15.7458 12.0067C15.7198 12.0343 15.6127 11.9654 15.5775 11.9899C15.5423 12.0144 15.4919 12.0159 15.4582 12.0388C15.4245 12.0618 15.4108 12.12 15.3756 12.1444C15.3404 12.1689 15.3511 12.2576 15.3174 12.2821C15.2838 12.3066 15.2241 12.2959 15.1889 12.3204C15.1537 12.3449 15.0772 12.3035 15.0359 12.3204C14.9946 12.3372 14.9686 12.3709 14.9334 12.3938C14.8982 12.4168 14.8768 12.4627 14.8416 12.4856C14.8064 12.5086 14.7835 12.5499 14.7483 12.5728C14.7131 12.5958 14.6611 12.5942 14.6259 12.6172C14.5907 12.6401 14.6106 12.7488 14.5754 12.7702C14.5402 12.7916 14.4408 12.7166 14.4056 12.7396C14.3704 12.7625 14.3413 12.7947 14.3046 12.8176C14.2679 12.8406 14.2908 12.9553 14.2556 12.9706C14.2205 12.9859 14.1164 12.9063 14.0797 12.9293C14.043 12.9522 14.0552 13.0486 14.0185 13.0716C13.9818 13.0945 13.8824 13.0104 13.8472 13.0318C13.812 13.0532 13.7584 13.0486 13.7217 13.07C13.685 13.0915 13.6834 13.1695 13.6483 13.1909C13.6131 13.2123 13.5442 13.1833 13.509 13.2062C13.4738 13.2292 13.5198 13.3867 13.4846 13.4097C13.4494 13.4326 13.379 13.3959 13.3423 13.4189C13.3056 13.4418 13.2535 13.4357 13.2183 13.4571C13.1831 13.4785 13.1541 13.5137 13.1174 13.5351C13.0807 13.5566 13.0332 13.5596 12.998 13.5811C12.9628 13.6025 12.9751 13.708 12.9384 13.7341C12.9016 13.7601 12.8037 13.6713 12.767 13.6927C12.7303 13.7142 12.767 13.8564 12.7303 13.8779C12.6936 13.8993 12.5773 13.7815 12.5375 13.8029C12.4977 13.8243 12.5207 13.9391 12.4855 13.9559C12.4503 13.9727 12.4488 14.0599 12.4121 14.0814C12.3753 14.1028 12.2774 14.0202 12.2407 14.0416C12.204 14.063 12.1979 14.1334 12.1611 14.1548C12.1244 14.1762 12.1183 14.2481 12.0831 14.2695C12.0479 14.291 11.9852 14.2695 11.95 14.294C11.9148 14.3185 11.8261 14.2542 11.797 14.2757C11.7679 14.2971 11.797 14.4286 11.7542 14.4485C11.7113 14.4684 11.592 14.346 11.5553 14.3674C11.5186 14.3889 11.5354 14.4975 11.4987 14.5204C11.4619 14.5434 11.436 14.5786 11.3992 14.6015C11.3625 14.6245 11.3503 14.6826 11.3135 14.7056C11.2768 14.7285 11.1376 14.7102 11.1039 14.7331ZM35.8051 36.4708C35.8311 36.4417 35.7118 36.3774 35.7362 36.3483C35.7607 36.3193 35.8112 36.2366 35.8372 36.2076C35.877 36.2259 35.9443 36.304 35.9902 36.3178C36.0361 36.3315 36.0591 36.3927 36.0988 36.4111C36.1386 36.4294 36.1845 36.4356 36.2121 36.4692C36.2396 36.5029 36.2625 36.5304 36.2855 36.561C36.3084 36.5916 36.258 36.6742 36.2855 36.7063C36.313 36.7385 36.4385 36.6956 36.463 36.7293C36.4875 36.763 36.4461 36.8318 36.463 36.8655C36.4798 36.8991 36.5716 36.8884 36.593 36.9221C36.6144 36.9557 36.619 36.997 36.6405 37.0307C36.6619 37.0644 36.6665 37.1072 36.6894 37.1393C36.7124 37.1715 36.7108 37.225 36.7353 37.2587C36.7598 37.2923 36.7919 37.3198 36.8164 37.3535C36.8409 37.3872 36.9128 37.3872 36.9373 37.4208C36.9617 37.4545 36.8654 37.5738 36.8883 37.606C36.9113 37.6381 37.0321 37.606 37.0566 37.6412C37.0811 37.6763 37.0566 37.7421 37.0811 37.7758C37.1056 37.8094 37.0964 37.866 37.1209 37.8997C37.1453 37.9334 37.156 37.9762 37.1805 38.0099C37.205 38.0435 37.2601 38.0558 37.2846 38.0894C37.309 38.1231 37.3152 38.169 37.3396 38.2026C37.3641 38.2363 37.3901 38.2684 37.4131 38.3036C37.436 38.3388 37.4253 38.3954 37.4498 38.4291C37.4743 38.4627 37.6028 38.4291 37.6196 38.4627C37.6365 38.4964 37.5829 38.5897 37.6074 38.6234C37.6319 38.657 37.7344 38.6356 37.7604 38.6708C37.7864 38.706 37.7405 38.7856 37.7604 38.8238C37.7803 38.8621 37.8047 38.8942 37.8292 38.9278C37.8537 38.9615 37.9425 38.9645 37.9654 38.9982C37.9991 38.9676 38.074 38.963 38.1016 38.934C38.1291 38.9049 38.152 38.8544 38.1781 38.8238C38.2041 38.7932 38.1903 38.7183 38.2148 38.6846C38.2392 38.6509 38.3678 38.6647 38.3846 38.628C38.4014 38.5912 38.3387 38.504 38.3494 38.4627C38.3599 38.4202 38.365 38.3765 38.3647 38.3327C38.3647 38.2899 38.4458 38.2271 38.4366 38.1797C38.4274 38.1323 38.2423 38.1491 38.2255 38.1078C38.2087 38.0665 38.3509 37.9548 38.331 37.9166C38.3112 37.8783 38.2897 37.837 38.2653 37.7972C38.2408 37.7574 38.1995 37.7375 38.1781 37.7008C38.1566 37.6641 38.074 37.6641 38.0511 37.6274C38.0281 37.5907 37.9379 37.5983 37.9149 37.5631C37.892 37.5279 37.973 37.4254 37.9486 37.3887C37.9241 37.352 37.8873 37.3275 37.8629 37.2908C37.8384 37.2541 37.7665 37.2525 37.7436 37.2158C37.7206 37.1791 37.7665 37.0995 37.7436 37.0628C37.7206 37.0261 37.7053 36.9863 37.6808 36.9511C37.6563 36.916 37.5446 36.9389 37.5278 36.9037C37.511 36.8685 37.4666 36.8425 37.4421 36.8073C37.4177 36.7721 37.4192 36.7186 37.3947 36.6834C37.3702 36.6482 37.358 36.6069 37.3335 36.5717C37.309 36.5365 37.2754 36.5074 37.2509 36.4722C37.2264 36.4371 37.3044 36.33 37.28 36.2948C37.2555 36.2596 37.0719 36.3376 37.0474 36.3024C37.0229 36.2673 37.1423 36.1265 37.1147 36.0913C37.0872 36.0561 37.0138 36.0607 36.9862 36.027C36.9587 35.9934 36.8562 36.027 36.8332 35.9919C36.8103 35.9567 36.8118 35.897 36.7827 35.8649C36.7537 35.8327 36.6741 35.8481 36.645 35.8159C36.616 35.7838 36.6037 35.7364 36.5747 35.7042C36.5456 35.6721 36.6037 35.5619 36.5747 35.5298C36.5456 35.4977 36.4737 35.5604 36.4446 35.5298C36.4048 35.5482 36.3528 35.4411 36.3146 35.461C36.2763 35.4809 36.2212 35.4778 36.1845 35.4992C36.1478 35.5206 36.1172 35.5635 36.0835 35.5864C36.0499 35.6094 36.0545 35.6966 36.0208 35.7226C35.9872 35.7486 35.8954 35.7073 35.8678 35.7348C35.8403 35.7624 35.8923 35.8878 35.8678 35.9215C35.8433 35.9551 35.7883 35.9597 35.7577 35.9888C35.7271 36.0179 35.7317 36.0806 35.7026 36.1112C35.6735 36.1418 35.6613 36.1877 35.6337 36.2198C35.6062 36.2519 35.5297 36.2413 35.5022 36.2734C35.4746 36.3055 35.4655 36.3529 35.4379 36.3851C35.4104 36.4172 35.2849 36.3728 35.2589 36.4065C35.2329 36.4401 35.1962 36.4646 35.1702 36.4983C35.1442 36.5319 35.1487 36.5886 35.1212 36.6222C35.0937 36.6559 35.187 36.7859 35.1594 36.818C35.1319 36.8501 34.9606 36.818 34.933 36.8456C34.9483 36.8854 35.0386 36.9358 35.0554 36.9741C35.0723 37.0123 35.1686 37.0154 35.1855 37.0536C35.2023 37.0919 35.0707 37.2066 35.0891 37.2388C35.1074 37.2709 35.2237 37.2663 35.2421 37.303C35.2604 37.3398 35.3293 37.3505 35.3492 37.3872C35.3691 37.4239 35.2421 37.5402 35.262 37.58C35.2819 37.6197 35.4058 37.5952 35.4257 37.6304C35.4455 37.6656 35.4593 37.7085 35.4807 37.7436C35.5022 37.7788 35.5006 37.8309 35.5236 37.8661C35.5465 37.9012 35.6093 37.9104 35.6322 37.9456C35.6551 37.9808 35.5771 38.0833 35.6001 38.1185C35.623 38.1537 35.6766 38.169 35.6995 38.2026C35.7225 38.2363 35.7653 38.2608 35.7898 38.2944C35.8143 38.3281 35.9015 38.3174 35.926 38.3526C35.9504 38.3878 35.926 38.452 35.955 38.4872C35.9841 38.5224 36.0147 38.5469 36.0392 38.5805C36.0637 38.6142 36.0698 38.6616 36.0942 38.6953C36.1187 38.7289 36.1708 38.7427 36.1952 38.7764C36.2197 38.81 36.2442 38.8452 36.2687 38.8789C36.2931 38.9126 36.2993 38.9615 36.3237 38.9952C36.3482 39.0288 36.4033 39.041 36.4278 39.0747C36.4523 39.1084 36.492 39.1313 36.5181 39.165C36.5441 39.1986 36.463 39.3088 36.4875 39.3424C36.5119 39.3761 36.5793 39.3807 36.6037 39.4144C36.6282 39.448 36.7139 39.4373 36.7384 39.4725C36.7629 39.5077 36.6863 39.6117 36.7108 39.6469C36.7353 39.6821 36.7797 39.7005 36.8042 39.7341C36.8286 39.7678 36.9571 39.7341 36.9755 39.7693C36.9939 39.8045 36.899 39.9223 36.922 39.9575C36.9449 39.9927 37.026 40.083 37.0489 40.1181C37.078 40.0875 37.0872 39.933 37.1147 39.904C37.1423 39.8749 37.1147 39.7984 37.1469 39.7678C37.179 39.7372 37.2631 39.7678 37.2907 39.7357C37.3182 39.7035 37.41 39.7357 37.4437 39.7066C37.4773 39.6775 37.4835 39.6362 37.5095 39.6056C37.5355 39.575 37.5095 39.4909 37.5294 39.4526C37.5492 39.4144 37.5875 39.3975 37.6166 39.3669C37.6456 39.3364 37.5982 39.3241 37.6273 39.2935C37.6013 39.2583 37.6808 39.2216 37.6548 39.1879C37.6288 39.1543 37.6135 39.113 37.589 39.0778C37.5646 39.0426 37.589 38.9737 37.563 38.9386C37.537 38.9034 37.5033 38.8758 37.4788 38.8407C37.4544 38.8055 37.4605 38.7473 37.436 38.7121C37.4116 38.6769 37.3351 38.68 37.309 38.6448C37.283 38.6096 37.2172 38.6035 37.1928 38.5698C37.1683 38.5362 37.1652 38.4842 37.1408 38.449C37.1163 38.4138 37.0306 38.4214 37.0061 38.3862C36.9816 38.351 36.9862 38.296 36.9617 38.2608C36.9373 38.2256 36.8852 38.2103 36.8608 38.1751C36.8363 38.1399 36.7843 38.1231 36.7598 38.0879C36.7353 38.0527 36.7124 38.0175 36.6879 37.9823C36.6634 37.9471 36.6634 37.8951 36.6389 37.8599C36.6144 37.8247 36.72 37.6993 36.694 37.6641C36.668 37.6289 36.5976 37.6289 36.5731 37.5937C36.5486 37.5585 36.4201 37.5937 36.3941 37.5616C36.3681 37.5295 36.4737 37.4086 36.4492 37.3673C36.4247 37.326 36.4003 37.2969 36.3758 37.2617C36.3513 37.2265 36.2228 37.2617 36.1922 37.2342C36.1616 37.2067 36.1922 37.124 36.1753 37.0904C36.1585 37.0567 36.1753 36.9848 36.1539 36.9496C36.1325 36.9144 36.056 36.9144 36.0315 36.8792C36.0071 36.844 35.9107 36.8609 35.8785 36.8257C35.8464 36.7905 35.9703 36.6574 35.9458 36.6222C35.9214 36.587 35.8158 36.61 35.7929 36.5748C35.7699 36.5396 35.8265 36.5059 35.802 36.4708H35.8051ZM14.3016 12.2714C14.3352 12.2469 14.326 12.0771 14.3597 12.0542C14.3934 12.0312 14.4071 11.9776 14.4408 11.9547C14.4744 11.9317 14.5448 11.9547 14.5785 11.9348C14.6121 11.9149 14.6749 11.9348 14.7085 11.9058C14.7422 11.8767 14.7651 11.8446 14.7988 11.8216L14.8998 11.7497C14.9334 11.7268 15.0176 11.7757 15.0528 11.7497C15.088 11.7237 15.042 11.5967 15.0772 11.5661C15.1124 11.5355 15.1843 11.5753 15.218 11.5523C15.2517 11.5294 15.2394 11.4391 15.2731 11.4147C15.3067 11.3902 15.3511 11.3825 15.3863 11.358C15.4215 11.3335 15.4643 11.3274 15.4995 11.303C15.5347 11.2785 15.5944 11.2662 15.6295 11.2417C15.602 11.2081 15.5607 11.1668 15.5347 11.1316C15.5087 11.0964 15.4337 11.101 15.4062 11.0658C15.3786 11.0306 15.4689 10.9128 15.4414 10.873C15.4138 10.8333 15.2884 10.873 15.2685 10.8424C15.2486 10.8118 15.2593 10.7399 15.2333 10.7047C15.2073 10.6695 15.2104 10.6114 15.1828 10.5777C15.1553 10.5441 15.1415 10.4997 15.1155 10.466C15.0895 10.4324 15.0298 10.4232 15.0038 10.388C14.9778 10.3528 14.9655 10.3069 14.9395 10.2733L14.8554 10.1738C14.8279 10.1387 14.8355 10.079 14.808 10.0453C14.7804 10.0117 14.655 10.0453 14.6335 10.0178C14.6121 9.99024 14.6596 9.88619 14.6335 9.85253C14.6075 9.81887 14.505 9.85253 14.4805 9.81428C14.4561 9.77604 14.4897 9.69495 14.4622 9.66129C14.428 9.62669 14.3882 9.59826 14.3444 9.57717C14.3107 9.5634 14.245 9.61235 14.2113 9.60776C14.1776 9.60317 14.095 9.568 14.0705 9.58177C14.0461 9.59554 14.0109 9.63837 13.9757 9.65826C13.9405 9.67815 13.9313 9.74699 13.8946 9.76535C13.8579 9.78371 13.7691 9.69956 13.7324 9.71945C13.6957 9.73934 13.7018 9.83724 13.6651 9.8556L13.5565 9.91375C13.5197 9.93211 13.4417 9.87396 13.4035 9.89385C13.3652 9.91373 13.4172 10.0912 13.3805 10.1111C13.3438 10.131 13.2275 10.001 13.1862 10.0208L13.0776 10.0866C13.0439 10.1096 13.0195 10.154 12.9873 10.1784C12.9552 10.2029 12.9613 10.284 12.9292 10.31C12.8971 10.336 12.9215 10.4217 12.8909 10.4492C12.8603 10.4768 12.7471 10.4186 12.7181 10.4492C12.689 10.4798 12.6706 10.538 12.6446 10.5701C12.6706 10.6053 12.7487 10.6206 12.7747 10.6542C12.8007 10.6879 12.7548 10.7736 12.7747 10.8072C12.7946 10.8409 12.816 10.8838 12.8389 10.9189C12.8619 10.9541 12.9766 10.9296 13.0011 10.9663C13.0256 11.0031 13.0623 11.0276 13.0868 11.0628C13.1112 11.0979 13.1097 11.15 13.1357 11.1852C13.1617 11.2203 13.1755 11.2617 13.2015 11.2968C13.2275 11.332 13.2612 11.358 13.2887 11.3917C13.3163 11.4253 13.2474 11.5447 13.2749 11.5707C13.3025 11.5967 13.4754 11.5064 13.5044 11.537C13.5335 11.5676 13.4371 11.7252 13.4677 11.7543C13.4983 11.7834 13.5733 11.7696 13.6069 11.7987C13.6406 11.8277 13.7309 11.7757 13.7599 11.7987C13.789 11.8216 13.7997 11.8859 13.8349 11.9088C13.8701 11.9318 13.9405 11.892 13.9787 11.9088C14.017 11.9257 14.0369 11.9685 14.0767 11.9884C14.1164 12.0083 14.1057 12.1291 14.1455 12.1414C14.1853 12.1536 14.2602 12.2561 14.3016 12.2714ZM17.6828 9.63989C17.7225 9.62306 17.7577 9.45475 17.7944 9.43639C17.8312 9.41803 17.851 9.36603 17.8862 9.34461C17.9214 9.3232 17.9918 9.35684 18.027 9.33236C18.0622 9.30788 18.1264 9.33237 18.1616 9.30024C18.1968 9.26811 18.2198 9.23444 18.2534 9.20843L18.3513 9.12427C18.3835 9.09673 18.4768 9.12429 18.5043 9.10134C18.5319 9.07839 18.4707 8.94835 18.5043 8.91469C18.538 8.88103 18.613 8.90091 18.642 8.86878C18.6711 8.83665 18.642 8.75251 18.668 8.71579C18.694 8.67907 18.7384 8.66376 18.766 8.63163C18.7935 8.5995 18.8363 8.57964 18.8639 8.54751C18.8914 8.51538 18.9434 8.50161 18.971 8.46795C18.9985 8.43429 19.0154 8.39449 19.0429 8.36236C19.0704 8.33023 19.0521 8.25681 19.0796 8.22468C19.1071 8.19255 19.2448 8.25528 19.2724 8.22468C19.2999 8.19408 19.2295 8.08393 19.2494 8.04109C19.2693 7.99825 19.3351 7.97684 19.3473 7.934C19.3596 7.89116 19.4055 7.83912 19.407 7.79934C19.4114 7.74025 19.4036 7.68089 19.3841 7.62494C19.3626 7.58976 19.3091 7.57445 19.2877 7.53773C19.2663 7.50101 19.2663 7.45664 19.2464 7.41992C19.2265 7.3832 19.2035 7.34648 19.1821 7.30976C19.1607 7.27305 19.1821 7.21336 19.1561 7.17817C19.1301 7.14298 19.0031 7.16749 18.9863 7.13383C18.9695 7.10018 19.0215 7.00225 18.9955 6.96859C18.9694 6.93493 18.8669 6.96859 18.8425 6.9334C18.818 6.89821 18.8425 6.81101 18.8057 6.78041C18.7722 6.75033 18.737 6.72222 18.7002 6.69625C18.665 6.67483 18.5839 6.70695 18.5472 6.68859C18.512 6.71307 18.4431 6.70236 18.408 6.72684C18.3728 6.75132 18.3468 6.78958 18.3116 6.81406C18.2764 6.83854 18.2733 6.90892 18.2381 6.9334C18.2029 6.95788 18.1004 6.88748 18.0652 6.91196C18.0301 6.93644 18.0484 7.03589 18.0132 7.06496L17.9092 7.14145C17.874 7.16593 17.7883 7.12004 17.7562 7.14145C17.7241 7.16287 17.7898 7.33885 17.7562 7.36333C17.7225 7.38781 17.5864 7.26844 17.5512 7.29292C17.516 7.3174 17.4793 7.34034 17.4456 7.36635C17.4119 7.39236 17.389 7.43369 17.3538 7.45817C17.3186 7.48265 17.3232 7.56528 17.288 7.58976C17.2528 7.61424 17.2651 7.70449 17.2299 7.72897C17.1947 7.75345 17.0891 7.67696 17.0555 7.70144C17.0218 7.72592 16.9958 7.76721 16.9622 7.79169C16.9285 7.81617 16.9254 7.88961 16.8918 7.91409C16.8581 7.93857 16.774 7.8942 16.7388 7.91409C16.7036 7.93398 16.6638 7.95386 16.6286 7.97834C16.5934 8.00282 16.6408 8.08392 16.6057 8.1084C16.6317 8.139 16.6592 8.1237 16.6852 8.1543C16.7112 8.1849 16.7128 8.23845 16.7372 8.27058C16.7617 8.30271 16.7801 8.34248 16.8061 8.37461C16.8321 8.40674 16.8658 8.43123 16.8918 8.46183C16.9178 8.49243 16.8459 8.60563 16.8703 8.63776C16.8948 8.66989 17.0723 8.57963 17.0983 8.61023C17.1243 8.64083 17.0096 8.78615 17.0356 8.81828C17.0616 8.85041 17.1335 8.84431 17.1595 8.87491C17.1855 8.90551 17.2865 8.8749 17.3125 8.90856C17.3385 8.94222 17.3263 9.0019 17.3523 9.03403C17.3783 9.06616 17.4578 9.0524 17.4839 9.08453C17.5099 9.11666 17.516 9.16255 17.542 9.19468C17.568 9.22681 17.5022 9.32929 17.5282 9.36142C17.5542 9.39355 17.6644 9.36145 17.6904 9.38899C17.7164 9.41653 17.6506 9.60164 17.6828 9.63989ZM16.0304 11.1224C16.0625 11.0964 16.0717 10.9266 16.1038 10.899C16.136 10.8715 16.1452 10.8195 16.1773 10.7935C16.2094 10.7675 16.2829 10.7935 16.3135 10.7629C16.3441 10.7323 16.4098 10.7476 16.442 10.7216C16.4741 10.6956 16.4955 10.6542 16.5261 10.6282L16.6225 10.5487C16.6546 10.5211 16.7434 10.564 16.7755 10.5365C16.8076 10.5089 16.751 10.3834 16.7755 10.3528C16.8 10.3222 16.8841 10.3528 16.9147 10.3268C16.9453 10.3008 16.927 10.2121 16.9591 10.1861C16.9912 10.1601 17.034 10.1478 17.0662 10.1218C17.0983 10.0958 17.1412 10.0851 17.1733 10.0591C17.2054 10.0331 17.2559 10.03 17.288 10.004C17.3202 9.97799 17.3462 9.9367 17.3783 9.90916C17.3538 9.8755 17.2773 9.86938 17.2544 9.83572C17.2314 9.80207 17.3263 9.68273 17.3033 9.64907C17.2804 9.61542 17.1503 9.64908 17.135 9.61236C17.1197 9.57564 17.135 9.50983 17.1121 9.47617C17.0891 9.44251 17.0968 9.3844 17.0723 9.34921C17.0478 9.31402 17.0371 9.27118 17.0142 9.23753C16.9912 9.20387 16.9331 9.19162 16.9086 9.15796C16.8841 9.12431 16.878 9.07688 16.8535 9.04322C16.829 9.00956 16.8 8.97588 16.7755 8.94375C16.751 8.91162 16.7587 8.84892 16.7342 8.81679C16.7097 8.78466 16.5812 8.82441 16.5628 8.79228C16.5445 8.76015 16.5766 8.65308 16.546 8.62401C16.5154 8.59494 16.4144 8.63777 16.3808 8.61482C16.3471 8.59187 16.341 8.4924 16.3027 8.47557C16.2587 8.45614 16.2131 8.44031 16.1666 8.42817C16.1237 8.41899 16.0641 8.4771 16.0212 8.4771C15.9784 8.4771 15.9248 8.43427 15.882 8.44192C15.8379 8.45649 15.7949 8.4744 15.7535 8.49548C15.7137 8.50925 15.6953 8.57962 15.6556 8.59951C15.6158 8.6194 15.5255 8.53831 15.4873 8.5582C15.449 8.57809 15.4597 8.68062 15.423 8.70204L15.3144 8.76782C15.2792 8.78924 15.1966 8.73721 15.1614 8.75863C15.1262 8.78005 15.1843 8.95751 15.1476 8.97893C15.1109 9.00035 14.9839 8.87489 14.9472 8.89784L14.8386 8.96213C14.8034 8.98508 14.7804 9.02789 14.7437 9.04931C14.707 9.07073 14.7085 9.15336 14.6718 9.1763C14.6351 9.19925 14.6718 9.23445 14.6412 9.2574C14.6687 9.28953 14.5846 9.33848 14.6121 9.37061C14.6397 9.40274 14.6825 9.42417 14.7085 9.45783C14.7345 9.49149 14.8095 9.48535 14.837 9.51901C14.8646 9.55267 14.8279 9.63835 14.8554 9.67201C14.8829 9.70567 14.9013 9.74544 14.9288 9.77757C14.9564 9.8097 15.065 9.7776 15.0925 9.8082C15.1201 9.8388 15.1599 9.86478 15.1859 9.89691C15.2119 9.92904 15.2165 9.98259 15.244 10.0147C15.2716 10.0468 15.2884 10.0881 15.3159 10.1218C15.3435 10.1555 15.3786 10.18 15.4062 10.2121C15.4337 10.2442 15.3633 10.3574 15.3894 10.3911C15.4154 10.4247 15.5928 10.333 15.6204 10.3666C15.6479 10.4003 15.5362 10.5456 15.5638 10.5793C15.5913 10.6129 15.6647 10.6053 15.6907 10.639C15.7168 10.6726 15.8208 10.6389 15.8437 10.6741C15.8667 10.7093 15.8606 10.7705 15.8881 10.8027C15.9157 10.8348 15.9967 10.8241 16.0243 10.8577C16.0518 10.8914 15.9998 11.0826 16.0243 11.1163L16.0304 11.1224ZM12.23 13.4862C12.2652 13.4617 12.282 13.2919 12.3157 13.2674C12.3493 13.2429 12.3662 13.1894 12.3998 13.1664C12.4335 13.1435 12.5069 13.1664 12.5406 13.145C12.5742 13.1236 12.64 13.145 12.6737 13.1144C12.7073 13.0838 12.7333 13.0517 12.767 13.0272L12.8695 12.9553C12.9047 12.9308 12.9904 12.9782 13.0225 12.9553C13.0546 12.9323 13.0133 12.7947 13.047 12.7702C13.0806 12.7457 13.1556 12.7794 13.1893 12.7549C13.2229 12.7304 13.2122 12.6417 13.2474 12.6172C13.2826 12.5927 13.327 12.5835 13.3606 12.5606C13.3943 12.5376 13.4356 12.5361 13.4692 12.5116C13.4448 12.478 13.4494 12.4336 13.4249 12.3999C13.4004 12.3663 13.3667 12.3387 13.3423 12.3035C13.3178 12.2683 13.2459 12.2714 13.2214 12.2362C13.1969 12.201 13.2933 12.0832 13.2688 12.0511C13.2444 12.019 13.125 12.0511 13.1021 12.0174C13.0791 11.9838 13.1021 11.9164 13.0761 11.8828C13.05 11.8491 13.0608 11.791 13.0363 11.7574C13.0118 11.7237 13.0011 11.6809 12.9781 11.6472C12.9552 11.6135 12.897 11.6028 12.8741 11.5692C12.8511 11.5355 12.8435 11.4896 12.819 11.456C12.7945 11.4223 12.7685 11.3902 12.7456 11.3565C12.7226 11.3228 12.7333 11.2647 12.7089 11.2295C12.6844 11.1943 12.5651 11.2295 12.5406 11.1974C12.5161 11.1652 12.5773 11.0704 12.5543 11.0444C12.5314 11.0184 12.4274 11.0321 12.4013 10.9985C12.3753 10.9648 12.4228 10.8837 12.4013 10.8455C12.3799 10.8072 12.3111 10.743 12.2866 10.7093C12.2499 10.7277 12.1871 10.8118 12.1504 10.8302C12.1137 10.8486 12.054 10.8302 12.0173 10.847C11.9806 10.8638 11.9515 10.9036 11.9164 10.9235C11.8812 10.9434 11.8735 11.0138 11.8383 11.0352C11.8031 11.0566 11.7021 10.9832 11.6685 11.0061C11.6348 11.0291 11.6517 11.1301 11.6195 11.1591C11.5861 11.184 11.5539 11.2105 11.5231 11.2387C11.491 11.2647 11.4008 11.228 11.3702 11.2571C11.3396 11.2861 11.439 11.4422 11.4099 11.4728C11.3809 11.5034 11.2233 11.4177 11.1973 11.4498C11.1713 11.482 11.1407 11.5171 11.1162 11.5508C11.0917 11.5845 11.0856 11.635 11.0626 11.6701C11.0397 11.7053 11.0779 11.7772 11.0626 11.8139C11.0473 11.8507 11.1039 11.8767 11.0856 11.9149C11.1131 11.9471 11.029 12.019 11.0565 12.0511C11.084 12.0832 11.1254 12.1031 11.1529 12.1368C11.1804 12.1704 11.2539 12.1628 11.2814 12.1949C11.309 12.227 11.2722 12.3142 11.2998 12.3479C11.3273 12.3816 11.3472 12.4198 11.3747 12.4519C11.4023 12.4841 11.5109 12.452 11.5384 12.481C11.566 12.5101 11.6058 12.5361 11.6333 12.5682C11.6608 12.6003 11.6639 12.6524 11.6914 12.686C11.719 12.7197 11.7373 12.758 11.7649 12.7916C11.7924 12.8253 11.8276 12.8482 11.8552 12.8819C11.8827 12.9155 11.8154 13.0272 11.8429 13.0609C11.8704 13.0945 12.0449 13.0012 12.0724 13.0333C12.0999 13.0654 11.9913 13.2139 12.0189 13.2475C12.0464 13.2812 12.1198 13.2735 12.1474 13.3057C12.1749 13.3378 12.1948 13.4464 12.2239 13.4801L12.23 13.4862ZM34.5934 37.069C34.5597 37.0919 34.5383 37.2617 34.5046 37.2847C34.471 37.3076 34.4572 37.3597 34.4251 37.3826C34.393 37.4055 34.321 37.3826 34.2874 37.4009C34.2537 37.4193 34.1925 37.4009 34.1589 37.43C34.1252 37.4591 34.1038 37.4897 34.0701 37.5126C34.0365 37.5356 34.0043 37.56 33.9707 37.583C33.937 37.6059 33.8177 37.6182 33.7794 37.6412C33.8024 37.6779 33.9523 37.7131 33.9737 37.7482C33.9952 37.7834 33.9584 37.8569 33.9737 37.8921C33.989 37.9272 34.0854 37.9242 34.1068 37.9594C34.1283 37.9946 34.1344 38.042 34.1558 38.0772C34.1772 38.1124 34.1818 38.1598 34.2032 38.1965C34.2246 38.2332 34.2201 38.2853 34.2415 38.3204C34.2629 38.3556 34.295 38.3862 34.3164 38.4229C34.3379 38.4597 34.4128 38.4642 34.4343 38.4994C34.4557 38.5346 34.3532 38.6525 34.3761 38.6831C34.3991 38.7137 34.5199 38.6937 34.5429 38.7289C34.5658 38.7641 34.5429 38.8299 34.5628 38.8651C34.5827 38.9003 34.575 38.9585 34.598 38.9936C34.6209 39.0288 34.6331 39.0732 34.6561 39.1084C34.679 39.1436 34.7372 39.1558 34.7601 39.191C34.7831 39.2262 34.7923 39.2721 34.8167 39.3073L34.8932 39.4083C34.9192 39.4419 34.9101 39.5016 34.9361 39.5352C34.9621 39.5689 35.0891 39.5352 35.1074 39.5628C35.1258 39.5903 35.0814 39.6943 35.1074 39.7265C35.1334 39.7586 35.236 39.7265 35.2604 39.7617C35.2849 39.7968 35.2604 39.8795 35.2819 39.9146C35.3033 39.9498 35.3369 39.9805 35.366 40.0111C35.3951 40.0417 35.4716 40.0279 35.5022 40.057C35.5328 40.086 35.5282 40.1503 35.5588 40.1794C35.5894 40.2084 35.6322 40.2268 35.6643 40.2543C35.6965 40.2819 35.7638 40.2696 35.7959 40.2971C35.828 40.3247 35.7852 40.4425 35.8173 40.4685C35.8495 40.4945 35.9413 40.4517 35.9703 40.4777C35.9994 40.5037 36.0468 40.5282 36.0805 40.5527C36.1187 40.5267 36.2136 40.5695 36.2503 40.5419C36.287 40.5144 36.2228 40.3415 36.2595 40.3155C36.2962 40.2895 36.437 40.4042 36.4737 40.3782L36.5884 40.3017C36.6267 40.2727 36.6802 40.1824 36.7154 40.1579C36.6909 40.1243 36.5991 40.0753 36.5747 40.0401C36.5502 40.0049 36.4614 40.0187 36.437 39.9851C36.4125 39.9514 36.489 39.8458 36.4645 39.8106C36.44 39.7754 36.4018 39.754 36.3773 39.7204C36.3528 39.6867 36.2809 39.6852 36.2564 39.6515C36.232 39.6178 36.2763 39.5352 36.2564 39.4985C36.2365 39.4618 36.2166 39.4235 36.1922 39.3899C36.1677 39.3562 36.0575 39.3899 36.0392 39.3486C36.0208 39.3073 35.978 39.2889 35.955 39.2553C35.9321 39.2216 35.9321 39.1696 35.9076 39.1359C35.8831 39.1023 35.8709 39.0594 35.8464 39.0258C35.8219 38.9921 35.7898 38.9646 35.7653 38.9294C35.7408 38.8942 35.8204 38.7902 35.7974 38.755C35.7745 38.7198 35.5909 38.7978 35.5664 38.7642C35.5419 38.7305 35.6659 38.5928 35.6414 38.5591C35.6169 38.5255 35.545 38.5255 35.5205 38.4918C35.496 38.4582 35.3935 38.4796 35.3675 38.4459C35.3415 38.4123 35.3583 38.3495 35.3354 38.3159C35.3124 38.2822 35.2298 38.2883 35.2054 38.2547C35.1809 38.221 35.1778 38.172 35.1533 38.1384C35.1288 38.1047 35.2008 38.0037 35.1763 37.9701C35.1518 37.9364 35.0401 37.9701 35.0233 37.9303C35.0065 37.8905 35.0845 37.785 35.0615 37.7513C35.0386 37.7176 35.0371 37.6656 35.0141 37.6304C34.9912 37.5952 34.9514 37.5738 34.9269 37.5387C34.9024 37.5035 34.8183 37.5126 34.7953 37.479C34.7724 37.4453 34.8198 37.3596 34.7953 37.326C34.7708 37.2923 34.6423 37.3352 34.6133 37.3C34.5842 37.2648 34.6117 37.0965 34.5872 37.0628L34.5934 37.069ZM34.7816 41.261C34.754 41.2274 34.5872 41.1983 34.5612 41.1662C34.5352 41.1341 34.4801 41.1218 34.4526 41.0897C34.4251 41.0576 34.4526 40.981 34.422 40.9489C34.3914 40.9168 34.4052 40.851 34.3792 40.8173C34.3532 40.7837 34.3119 40.7623 34.2858 40.7301L34.2048 40.6292C34.1787 40.5955 34.2231 40.5083 34.2048 40.4762C34.1864 40.444 34.0518 40.4914 34.0196 40.4578C33.9875 40.4241 34.0196 40.3461 33.9982 40.3048C33.9768 40.2635 33.8819 40.2834 33.8559 40.2482C33.8299 40.213 33.8207 40.1686 33.7947 40.1335C33.7687 40.0983 33.7595 40.0524 33.7335 40.0172C33.7075 39.982 33.7075 39.93 33.6815 39.8948C33.6555 39.8596 33.6203 39.8336 33.5958 39.7984C33.5714 39.7632 33.4964 39.7647 33.4704 39.7295C33.4444 39.6943 33.5377 39.5765 33.5117 39.5398C33.4857 39.5031 33.3587 39.5398 33.3403 39.5046C33.322 39.4694 33.3403 39.4021 33.3097 39.3669C33.2791 39.3318 33.2898 39.2751 33.2638 39.24C33.2378 39.2048 33.2256 39.1619 33.1996 39.1267C33.1736 39.0915 33.117 39.0808 33.0909 39.0456C33.0649 39.0105 33.0573 38.9646 33.0313 38.9294C33.0053 38.8942 32.9777 38.8621 32.9533 38.8269C32.9288 38.7917 32.9364 38.732 32.9104 38.6983C32.8844 38.6647 32.7574 38.6983 32.7375 38.6647C32.7176 38.631 32.7697 38.5346 32.7375 38.4994C32.7054 38.4642 32.6029 38.4857 32.5738 38.4582C32.5447 38.4306 32.534 38.3251 32.4973 38.3052C32.4433 38.2861 32.3863 38.2772 32.329 38.2791C32.2892 38.2791 32.251 38.3663 32.2082 38.3893C32.1653 38.4122 32.1057 38.4031 32.0689 38.4352C32.0352 38.4769 32.0035 38.5203 31.9741 38.5653C31.9894 38.605 32.0598 38.6479 32.0766 38.6861C32.0934 38.7244 32.0047 38.8131 32.023 38.8513C32.0414 38.8896 32.1424 38.8896 32.1607 38.9278L32.2189 39.0395C32.2388 39.0778 32.1822 39.1558 32.202 39.1925C32.2219 39.2292 32.4009 39.1788 32.4224 39.2155C32.4438 39.2522 32.3122 39.3761 32.3336 39.4129L32.3979 39.5245C32.4193 39.5597 32.4637 39.5842 32.4866 39.6209C32.5096 39.6576 32.5891 39.6546 32.6136 39.6897C32.6381 39.7249 32.7268 39.7158 32.7498 39.7494C32.7727 39.7831 32.6978 39.8886 32.7207 39.9238C32.7437 39.959 32.7865 39.982 32.811 40.0156C32.8354 40.0493 32.9089 40.0493 32.9334 40.083C32.9579 40.1166 32.9181 40.2008 32.9425 40.236C32.967 40.2711 32.9869 40.3109 33.0129 40.343C33.0389 40.3752 33.1491 40.343 33.1751 40.3767C33.2011 40.4104 33.2394 40.4333 33.2669 40.4654C33.2944 40.4976 33.296 40.5511 33.322 40.5833C33.348 40.6154 33.3663 40.6567 33.3939 40.6888C33.4214 40.7209 33.4566 40.7454 33.4842 40.7776C33.5117 40.8097 33.4444 40.9305 33.4719 40.9566C33.4994 40.9826 33.6739 40.8923 33.7014 40.9244C33.7289 40.9566 33.631 41.1141 33.6616 41.1432C33.6922 41.1723 33.7718 41.1616 33.8054 41.1876C33.8391 41.2136 33.9263 41.1554 33.9584 41.1769C33.9906 41.1983 34.0089 41.2549 34.0502 41.2671C34.0915 41.2794 34.1359 41.2182 34.1787 41.2228C34.2216 41.2274 34.2476 41.2519 34.2935 41.2488C34.3394 41.2457 34.3929 41.3528 34.4373 41.3421C34.4817 41.3314 34.4893 41.2167 34.5322 41.2029C34.575 41.1891 34.7341 41.2733 34.7754 41.2549L34.7816 41.261ZM12.0923 13.5535C12.0525 13.5382 11.8888 13.578 11.8521 13.5611C11.8154 13.5443 11.7542 13.5504 11.719 13.529C11.6838 13.5076 11.6807 13.4281 11.6471 13.4051C11.6134 13.3822 11.6119 13.3149 11.5798 13.2888C11.5476 13.2628 11.5063 13.2475 11.4772 13.2184C11.4482 13.1894 11.4191 13.1603 11.39 13.1297C11.361 13.0991 11.4023 13.0104 11.3763 12.9767C11.3503 12.9431 11.2233 13.0012 11.1927 12.9691C11.1621 12.9369 11.1927 12.8605 11.1682 12.8283C11.1437 12.7962 11.0535 12.813 11.029 12.7794C11.0045 12.7457 10.9907 12.7044 10.9647 12.6723C10.9387 12.6401 10.928 12.5958 10.9005 12.5636C10.8729 12.5315 10.8683 12.481 10.8408 12.4504C10.8133 12.4198 10.7719 12.3999 10.7429 12.3724C10.7138 12.3449 10.6419 12.3632 10.6098 12.3372C10.5776 12.3112 10.6297 12.1674 10.5945 12.1444C10.5593 12.1215 10.4614 12.1995 10.4246 12.1812C10.3879 12.1628 10.3741 12.0924 10.3359 12.0756C10.2977 12.0587 10.2212 12.0098 10.1829 11.9991C10.1615 12.0343 10.0926 12.0939 10.0712 12.1291C10.0498 12.1643 10.062 12.2209 10.0422 12.2561C10.0223 12.2913 9.98096 12.3188 9.95954 12.354C9.93812 12.3892 9.91976 12.4275 9.89987 12.4642C9.87998 12.5009 9.8203 12.5131 9.79888 12.5483C9.77746 12.5835 9.86008 12.6815 9.83866 12.7166C9.81724 12.7518 9.70862 12.735 9.68567 12.7717C9.66272 12.8084 9.72698 12.8926 9.70556 12.9247C9.68414 12.9568 9.58163 13.0012 9.55256 13.0379C9.58163 13.067 9.6306 13.1435 9.65967 13.1726C9.68874 13.2016 9.76522 13.1863 9.79429 13.2154C9.82336 13.2445 9.81879 13.3087 9.84938 13.3378C9.87998 13.3668 9.91975 13.3852 9.95035 13.4143C9.98095 13.4433 10.0498 13.4311 10.0804 13.4571C10.111 13.4831 10.0712 13.6101 10.1033 13.63C10.1355 13.6499 10.2273 13.6101 10.2563 13.63C10.2854 13.6499 10.3252 13.682 10.3558 13.7081C10.3864 13.7341 10.3558 13.8305 10.3925 13.861C10.4292 13.8916 10.5776 13.783 10.6067 13.809C10.6358 13.835 10.5593 14.0002 10.5899 14.0247C10.6249 14.0545 10.6617 14.082 10.7 14.1074C10.7488 14.1278 10.8004 14.1407 10.853 14.1456C10.8913 14.1533 10.9479 14.0875 10.9938 14.0814C11.0397 14.0752 11.0427 13.9896 11.0871 13.9743C11.1315 13.959 11.2064 14.0584 11.2477 14.0385C11.2891 14.0186 11.3105 13.985 11.3503 13.9635C11.39 13.9421 11.3916 13.8733 11.4314 13.8503C11.4711 13.8274 11.543 13.8825 11.5844 13.8595C11.6257 13.8366 11.6608 13.8258 11.6976 13.8029C11.7343 13.7799 11.7113 13.6683 11.7496 13.6499C11.7878 13.6315 11.8108 13.5933 11.8475 13.5703C11.8842 13.5474 12.0495 13.5704 12.0862 13.5474L12.0923 13.5535ZM35.545 40.8449C35.5205 40.8097 35.3507 40.7898 35.3262 40.7546C35.3017 40.7194 35.2482 40.7057 35.2237 40.6705C35.1992 40.6353 35.2237 40.5634 35.2023 40.5282C35.1809 40.493 35.2023 40.4287 35.1702 40.3935C35.138 40.3584 35.1074 40.3339 35.083 40.2987L35.0095 40.1946C34.9835 40.1579 35.0325 40.0722 35.0095 40.0416C34.9866 40.011 34.8565 40.0493 34.8244 40.0141C34.7923 39.9789 34.8244 39.904 34.8076 39.8703C34.7907 39.8367 34.6928 39.8458 34.6683 39.8106C34.6439 39.7754 34.6347 39.7295 34.6102 39.6943C34.5857 39.6592 34.5765 39.6133 34.5521 39.5781C34.5276 39.5429 34.5291 39.4909 34.5046 39.4557C34.4801 39.4205 34.4465 39.393 34.422 39.3593C34.3975 39.3256 34.3226 39.3241 34.2981 39.2889C34.2736 39.2537 34.3685 39.1359 34.344 39.0992C34.3195 39.0625 34.1986 39.0992 34.1742 39.064C34.1497 39.0288 34.1742 38.9615 34.1466 38.9263C34.1191 38.8911 34.1298 38.8345 34.1053 38.7993C34.0808 38.7642 34.0686 38.7213 34.0441 38.6861C34.0196 38.6509 33.9615 38.6402 33.937 38.605C33.9125 38.5698 33.9049 38.5239 33.8804 38.4903C33.8559 38.4566 33.8284 38.4229 33.8039 38.3878C33.7794 38.3526 33.7901 38.2945 33.7657 38.2593C33.7412 38.2241 33.6127 38.2593 33.5943 38.2256C33.5759 38.1919 33.6203 38.0864 33.5943 38.0558C33.5683 38.0252 33.4566 38.042 33.4291 38.019C33.4015 37.9961 33.3373 37.8921 33.2944 37.9012C33.2393 37.9167 33.1875 37.9421 33.1414 37.9762C33.1108 37.9992 33.117 38.0803 33.0802 38.1155C33.0435 38.1506 32.9686 38.1736 32.9272 38.2072L33.0236 38.3449C33.0466 38.3786 33.117 38.3817 33.1414 38.4153C33.1659 38.449 33.0925 38.5499 33.117 38.5851C33.1414 38.6203 33.2394 38.6004 33.27 38.6341C33.3006 38.6678 33.3204 38.6999 33.3434 38.7351C33.3663 38.7702 33.3204 38.8529 33.3434 38.8881C33.3663 38.9232 33.5392 38.8513 33.5622 38.8881C33.5851 38.9248 33.4673 39.0564 33.4903 39.09C33.5132 39.1237 33.5362 39.1589 33.5607 39.1925C33.5851 39.2262 33.628 39.2476 33.6524 39.2813C33.6769 39.3149 33.7565 39.3088 33.7794 39.344C33.8024 39.3792 33.8942 39.3654 33.9171 39.3991C33.9401 39.4327 33.8651 39.5367 33.8881 39.5704C33.911 39.6041 33.9523 39.627 33.9768 39.6622C34.0013 39.6974 34.0732 39.6959 34.0961 39.7295C34.1191 39.7632 34.0762 39.8458 34.0961 39.8825C34.116 39.9192 34.1359 39.956 34.1589 39.9897C34.1818 40.0233 34.295 39.9896 34.3118 40.0309C34.3287 40.0722 34.3715 40.0891 34.396 40.1227C34.4205 40.1564 34.4174 40.21 34.4419 40.2436C34.4664 40.2773 34.4786 40.3186 34.5031 40.3522C34.5276 40.3859 34.5597 40.4134 34.5827 40.4471C34.6056 40.4808 34.5276 40.5878 34.5521 40.6215C34.5765 40.6552 34.7586 40.5787 34.7816 40.6123C34.8045 40.646 34.6821 40.7837 34.7066 40.8189C34.7311 40.8541 34.8045 40.851 34.8275 40.8862C34.8504 40.9214 34.956 40.8984 34.9805 40.9321C35.0049 40.9658 34.9713 41.0147 34.9958 41.0499C35.034 41.0285 35.0172 40.9489 35.0508 40.9306C35.0845 40.9122 35.138 40.9107 35.1717 40.8923C35.2054 40.874 35.3033 40.952 35.3369 40.9336C35.3706 40.9153 35.5067 40.851 35.5389 40.8387L35.545 40.8449Z" fill="#282828"/>
</svg>
