<svg xmlns="http://www.w3.org/2000/svg" width="36" height="34" viewBox="0 0 36 34">
  <g id="moisturizers_spf" data-name="moisturizers + spf" transform="translate(-6 -6.976)">
    <path id="Path_1" data-name="Path 1" d="M34.695,21.232c.027.027.045.087.073.114s.048.061.075.086.075.031.1.058.065.041.092.068.11,0,.141.027-.027.13,0,.16.017.076.04.107.073.037.092.069.114.025.133.059,0,.089.017.123.049.059.068.093,0,.085.025.119.014.08.032.114.028.072.047.106.01.083.028.117l.056.1c.02.034.11.027.13.059s-.049.116-.03.15.2-.024.219.009-.1.141-.083.179.182-.013.2.021-.08.131-.062.165.127.02.141.054-.037.106-.02.141.113.028.131.062.027.072.045.107,0,.083.021.119.088.042.1.078.031.071.047.106-.09.128-.073.162.092.042.107.078.052.061.068.1.017.078.032.113-.047.1-.031.141.041.065.056.1.131.031.141.066-.065.107-.052.141.09.049.1.086-.013.086,0,.121.1.049.113.086.033.071.044.107-.062.1-.051.141.078.058.088.1.062.066.072.1,0,.082.013.12-.082.1-.073.141.058.069.065.107.037.075.042.113-.127.1-.121.141.088.068.09.107-.034.08-.031.12.063.073.065.113.083.079.085.119-.048.079-.049.118-.035.078-.037.117-.1.068-.107.107.082.088.076.126a.858.858,0,0,0,0,.12c0,.04-.127.052-.141.09s0,.078-.008.116.087.1.076.141-.027.075-.039.113-.117.04-.131.076.093.124.079.164-.168.024-.182.062.09.12.078.159-.014.079-.025.119.01.086,0,.123-.076.062-.086.1.017.086.009.123-.042.071-.049.109.039.083.035.12-.141.069-.141.107.055.08.059.117-.082.1-.073.141.181.021.2.058-.028.093-.007.127-.049.141-.024.167.054.066.082.1.157-.048.188-.021.021.092.052.117.059.051.092.076.056.052.089.078.08.021.114.045.075.031.107.055.076.028.107.052.018.109.049.131.075.031.107.054.083.02.116.042.023.1.055.124.042.073.075.1.1-.008.141.014.1,0,.128.027l.093.072c.031.024.03.09.062.114s.075.033.106.055-.014.148.017.172.141-.055.172-.031.093.008.124.032.049.065.08.089-.01.141.021.165.107-.01.141.014.041.075.072.1l.093.072c.031.024.079.027.109.052s.056.055.087.08l.09.076c.031.025.049.062.081.087s.1,0,.133.023.07.039.1.065,0,.117.035.141.038.076.069.1.062.048.092.073.158-.066.189-.042.035.079.066.1-.041.171-.011.2l.088.078c.031.026.151-.054.181-.028s.037.076.066.1.064.048.093.073.086.023.114.048.008.1.035.131.126-.01.152.018.014.093.039.123.061.052.085.082-.013.109.01.141.141,0,.162.028.011.087.031.12.082.045.1.078.047.066.065.1-.107.141-.09.179.141.018.157.054-.086.121-.071.157.061.058.075.093.008.078.021.114.165.028.176.065,0,.083.01.121-.083.1-.075.141.076.062.085.1-.082.095-.075.133.118.058.124.1-.048.085-.042.123-.049.082-.045.12.044.072.046.11-.034.078-.032.117.02.073.02.113.01.075.008.114.141.081.141.119-.095.075-.1.113-.055.073-.058.111-.027.073-.031.111.154.1.148.141-.095.065-.1.1-.041.071-.048.109.028.085.02.121-.059.066-.069.1.021.083.011.121-.014.076-.024.114-.01.078-.021.116-.02.075-.033.111.011.088,0,.124-.014.079-.028.116-.078.054-.092.089-.025.075-.041.11-.086.045-.1.08-.079.045-.1.081.079.128.061.162-.129.017-.141.051,0,.086-.025.12.049.124.028.157-.13,0-.152.039-.111.013-.134.044,0,.093-.027.124.017.113-.008.141-.107.008-.134.038.028.131,0,.16-.176-.065-.2-.038-.034.073-.062.1.04.161.01.186-.063.048-.095.072-.114-.018-.141,0-.023.1-.055.123-.113-.024-.141,0a1.017,1.017,0,0,1-.1.054c-.033.021,0,.141-.033.168a.682.682,0,0,1-.1.058c-.034.02-.148-.1-.182-.079s.014.185-.02.2-.127-.073-.162-.055-.042.089-.078.106-.109-.049-.141-.032-.078.014-.113.03l-.106.045c-.037.016,0,.2-.038.215s-.13-.117-.167-.1-.015.178-.052.192-.078.02-.114.032-.131-.141-.168-.131-.071.03-.109.042-.071.03-.107.041-.064.058-.1.069-.083-.007-.12,0-.028.186-.066.2l-.113.028c-.037.01-.082,0-.119.011s-.114-.127-.153-.117-.035.174-.073.183-.1-.082-.141-.073-.056.1-.093.107-.073.03-.111.04-.1-.1-.141-.092-.078.01-.116.018-.062.073-.1.082-.056.1-.095.107l-.114.024c-.038.008-.092-.051-.13-.041s-.068.047-.106.056-.1-.061-.133-.052-.078.008-.116.018-.063.069-.1.079-.092-.057-.13-.048-.061.086-.1.094-.088-.041-.126-.032-.056.106-.095.114-.089-.041-.127-.034-.051.141-.089.148-.106-.141-.141-.127-.059.1-.1.11-.075.02-.113.027-.073.035-.111.042-.1-.111-.141-.106-.072.045-.11.051-.069.063-.109.069-.08-.014-.118-.008-.071.056-.11.062-.09-.1-.13-.092-.073.035-.112.041l-.116.01c-.04,0-.073.054-.111.058s-.069.089-.107.092-.089-.1-.128-.1-.08-.031-.118-.027-.065.162-.1.167-.085-.072-.123-.069S33.236,41,33.2,41s-.082-.027-.121-.026-.082-.066-.121-.065-.078.024-.117.026-.076.051-.116.052-.079.024-.118.025-.08-.109-.119-.109-.079.037-.119.037-.079.073-.118.073H32.13c-.04,0-.078-.063-.117-.065s-.076-.079-.116-.081-.085.158-.123.157-.073-.172-.111-.175-.086.161-.126.159-.072-.141-.111-.141-.08.033-.12.031-.075-.083-.114-.085-.082.059-.121.058-.085.089-.124.088-.069-.151-.109-.154H30.72c-.04,0-.088.13-.127.127s-.073-.09-.111-.093-.08.017-.12.014-.083.079-.123.076-.065-.172-.1-.175-.089.13-.127.126-.066-.141-.1-.141-.082.04-.12.037-.082.032-.12.028-.072-.056-.111-.061-.087.09-.127.086-.061-.141-.1-.151-.087.078-.127.072-.088.065-.126.059-.061-.121-.1-.127-.073-.031-.113-.037-.075-.015-.113-.023-.1.106-.141.1-.058-.121-.1-.128-.072-.032-.11-.041-.073-.023-.111-.031-.079,0-.117-.007-.082.013-.12,0-.085.018-.121.008-.1.065-.141.055-.059-.082-.1-.092-.078-.008-.116-.018-.086.014-.123,0-.078-.018-.114-.03-.042-.124-.079-.141-.1.042-.133.03-.041-.12-.078-.133-.121.107-.158.095-.059-.066-.1-.081-.023-.154-.058-.168-.085,0-.121-.011-.089.014-.124,0-.032-.117-.068-.141-.126.088-.161.071-.076-.021-.111-.04-.088,0-.121-.02.014-.195-.02-.213-.095.011-.128-.009-.106.027-.141,0-.028-.1-.061-.123-.109.021-.141,0-.016-.113-.047-.141-.078-.027-.107-.051-.09-.014-.12-.04.01-.128-.018-.154l-.082-.081c-.027-.028-.141.031-.171,0s.04-.141.014-.168-.131.007-.155-.023-.042-.068-.065-.1.044-.123.023-.155-.175.017-.195-.017.022-.1,0-.141.022-.1,0-.131-.1-.038-.12-.075-.008-.08-.021-.117-.112-.047-.123-.083.141-.123.141-.161-.109-.052-.116-.09-.058-.071-.065-.109.092-.092.087-.13-.126-.066-.128-.106.047-.082.045-.121.087-.079.087-.119v-.116c0-.04-.065-.079-.064-.119s.021-.076.024-.116.062-.072.065-.112-.023-.079-.017-.118-.056-.085-.051-.124.095-.063.1-.1.038-.07.045-.109-.165-.116-.157-.154.028-.075.038-.113.042-.072.054-.109.157-.037.168-.075-.078-.1-.066-.141.1-.048.117-.085-.086-.114-.073-.151,0-.086.01-.123.124-.035.141-.072.062-.056.078-.093-.055-.11-.039-.141.021-.079.038-.114,0-.086.021-.121.141-.018.154-.054.1-.034.119-.068-.09-.141-.071-.174.089-.04.109-.073-.042-.117-.023-.151.048-.063.069-.1.141,0,.162-.038.071-.047.092-.079.01-.088.032-.118-.025-.117,0-.148.128,0,.152-.028.049-.059.076-.087-.038-.141-.011-.172.162.051.189.023.038-.07.068-.1,0-.111.035-.141.095-.01.126-.034.041-.076.072-.1.048-.071.079-.092.1.007.133-.014.051-.068.085-.088.059-.052.095-.072.111.045.141.027.028-.117.062-.134.062-.055.1-.072.062-.055.1-.071.076-.024.113-.039.124.1.16.083.023-.158.059-.172.095.03.131.017.087.011.124,0,.061-.062.1-.075.069-.04.106-.052.065-.054.1-.066.088.018.126.007.055-.085.093-.1.087.018.124.007.085.011.123,0,.079-.007.116-.018.078-.013.116-.023.089.024.127.014.024-.119.062-.13c.007-.039.035-.055.045-.1s-.065-.1-.055-.141.171-.047.179-.087-.059-.1-.054-.141-.014-.082-.011-.123-.025-.076-.028-.117.011-.082.01-.121.113-.079.114-.119.03-.075.033-.113-.03-.079-.026-.117-.032-.082-.028-.12-.094-.1-.087-.141.055-.072.063-.11.062-.068.072-.1.038-.07.049-.109-.044-.1-.031-.141.085-.054.1-.09-.017-.093,0-.13.038-.071.056-.106.148-.01.167-.044-.107-.152-.087-.186.134-.011.154-.045.078-.041.1-.073.023-.078.045-.11-.047-.133-.023-.164.157.023.182-.009-.056-.141-.033-.178.078-.039.1-.069.089-.025.116-.055.079-.032.106-.061.023-.086.049-.116.024-.086.052-.114.083-.027.111-.055.059-.051.088-.078.044-.069.072-.1.111,0,.141-.025.08-.028.11-.055-.017-.141.013-.161.09-.018.118-.045.01-.107.04-.141.092-.017.121-.044.081-.028.11-.055,0-.124.024-.151l.09-.078c.03-.027.154.055.184.028s-.056-.184-.027-.209.106,0,.141-.027,0-.113.035-.141.092-.016.121-.042.123.017.152-.01.013-.1.042-.13.106,0,.141-.031-.015-.131.013-.158.12.01.148-.018.051-.062.078-.09-.023-.141,0-.162.181.065.209.037-.013-.121.014-.15.013-.1.04-.126.11-.007.141-.037.013-.092.038-.12.014-.09.04-.12.055-.055.079-.085.141.021.169-.008.068-.045.093-.076.021-.083.045-.113-.061-.141-.037-.178.051-.056.075-.087.1-.02.124-.051.093-.027.116-.058-.023-.113,0-.141l.066-.095c.023-.033.048-.059.071-.092s.051-.058.073-.09.083-.037.1-.069.047-.063.066-.1-.042-.117-.023-.15.027-.073.047-.106.151,0,.171-.035.011-.082.031-.116.065-.052.083-.086.025-.075.042-.11.055-.059.072-.094-.072-.12-.055-.155.123-.027.141-.062.034-.069.049-.106.072-.054.086-.089-.037-.1-.022-.141.09-.049.1-.085-.082-.111-.069-.148.027-.072.038-.109.088-.054.1-.09-.016-.085,0-.123a.9.9,0,0,0,.034-.11c.01-.037.069-.062.078-.1s.037-.072.045-.109.013-.078.021-.116-.089-.1-.082-.134.047-.069.054-.107.111-.062.117-.1-.083-.089-.079-.128.1-.066.1-.106-.095-.086-.092-.124-.025-.079-.023-.117,0-.076,0-.116.061-.075.062-.113-.021-.078-.021-.116.01-.078.01-.116-.086-.075-.087-.114S34.7,21.272,34.695,21.232ZM28.78,32.65c-.037.017-.076,0-.111.01a.9.9,0,0,0-.113.038c-.035.015-.062.058-.1.073s-.068.044-.1.061-.041.1-.078.117-.117-.066-.152-.051-.087,0-.123.017-.057.069-.092.086-.034.113-.069.13-.09-.009-.126.008-.065.048-.1.065-.086,0-.121.02-.082.013-.116.031-.073.027-.107.047-.085.01-.117.03l-.1.062c-.032.021-.02.113-.051.141s-.121-.037-.153-.014.048.2.017.219-.16-.079-.189-.055.044.175.016.2-.141-.052-.175-.027.013.127-.015.154-.113-.007-.141.02.007.114-.02.141-.058.049-.083.078-.076.034-.1.062,0,.1-.028.126-.049.056-.073.086-.155-.021-.178.01.007.1-.014.133-.024.076-.045.109-.054.055-.075.088-.11.025-.13.058-.027.075-.045.109.063.12.045.154-.123.025-.141.059.028.1.013.134-.068.054-.082.089.045.1.031.141-.018.073-.031.11-.109.042-.121.078.032.092.021.129.02.085.009.121-.037.068-.047.1-.116.049-.126.086.024.086.016.123a.6.6,0,0,0,0,.123c0,.04-.152.051-.161.09s.062.093.056.133-.054.075-.059.114.047.088.042.127.073.086.071.126-.051.076-.052.116-.031.081-.03.12-.092.092-.086.131.1.069.11.109a.946.946,0,0,0,.048.109c.013.037-.069.128-.051.164s.056.059.076.092.134,0,.155.038a.852.852,0,0,0,.062.095c.023.031-.035.12-.013.15s.151-.018.175.011-.066.153-.042.182.141-.024.171,0a.879.879,0,0,1,.085.076c.027.028.076.028.1.055s.013.095.041.12.079.022.109.048.038.069.068.093.09,0,.12.03-.02.155.011.178.095,0,.126.017.017.121.049.141.148-.109.181-.092.04.095.075.111.02.141.055.157.071.037.106.052.133-.1.168-.083.051.08.086.1l.109.047c.035.015.069.035.106.051s.085,0,.121.013.08.008.117.023.081,0,.117.018.048.1.085.111.082,0,.118.017.085-.008.123,0,.055.086.093.1.066.052.1.063.095-.048.133-.038.089-.035.127-.025.075.021.113.03.064.071.1.079a.553.553,0,0,0,.119,0c.038,0,.052.141.09.141s.1-.11.141-.1.086-.035.124-.028.073.032.112.04.059.128.1.134.089-.061.127-.055.073.044.113.048l.116.013c.038,0,.082-.017.12-.013s.078.017.116.021.078.011.117.014.076.024.116.028.082-.061.121-.058a1.066,1.066,0,0,1,.117,0c.038.007.073.093.111.095s.078.04.116.041h.118c.039,0,.083-.15.123-.141s.076.04.116.041.075.158.114.158h.117c.04,0,.08-.141.12-.141s.078.034.117.034h.117c.04,0,.078-.042.117-.042s.079.068.117.068.076-.1.116-.1.079.049.119.049.078-.016.117-.017.08.075.12.073.073-.118.113-.12.079.037.119.035.076-.049.116-.051.076-.011.116-.013.088.157.127.154.071-.121.11-.124.086.124.124.121.078-.039.116-.042.081.013.12.01.066-.154.106-.158.079.018.118.014.089.1.127.1.073-.068.111-.072.089.09.128.086.066-.116.106-.12.085.049.124.045.085.048.124.042.073-.048.113-.054.083.028.123.023.075-.028.114-.034.076-.018.116-.025.055-.158.093-.164.093.078.131.072.086.035.124.03.082.007.12,0,.049-.175.089-.182.092.069.13.062.083.014.121.007.071-.056.109-.063.086.03.124.023.069-.054.109-.062.076-.021.114-.028.075-.028.113-.037l.114-.027c.04-.007.069-.055.107-.062s.075-.031.113-.04.087.035.126.027.076-.023.114-.031.09.042.128.034.088.033.126.024.049-.141.087-.152.1.085.141.076.068-.056.106-.066.054-.121.092-.13.1.083.141.075.1.063.141.055.063-.071.1-.08.058-.1.1-.107.095.056.133.048.052-.124.09-.133.116.148.154.141.069-.047.109-.055.039-.161.078-.171.075-.015.111-.027.1.059.141.048.052-.087.089-.1.1.052.141.038.079-.018.114-.034.021-.141.056-.161.071-.027.106-.045.141.107.178.089-.013-.185.02-.2.131.068.165.047.034-.092.066-.114.117.032.15.01.078-.031.109-.055.065-.048.095-.073-.056-.19-.027-.216.164.066.192.041-.052-.171-.024-.2.059-.048.086-.076.185.066.212.038.048-.065.073-.095.048-.066.072-.1.02-.085.044-.116.072-.047.095-.079-.1-.161-.075-.193.042-.061.064-.095.056-.054.076-.088.171,0,.189-.03-.106-.141-.088-.176.127-.025.141-.061-.042-.1-.027-.141.018-.075.033-.111.141-.031.154-.068.035-.073.047-.11-.031-.092-.021-.13-.059-.095-.049-.133.021-.073.03-.111.086-.061.093-.1-.016-.08-.01-.118.092-.068.1-.106.018-.079.023-.117-.048-.083-.047-.123.079-.076.08-.114-.069-.081-.071-.12.058-.08.056-.12-.1-.073-.1-.112.051-.083.048-.123-.141-.061-.141-.1.141-.1.133-.141-.1-.061-.11-.1-.023-.073-.031-.111-.041-.069-.051-.107.1-.11.089-.141-.056-.066-.069-.1-.075-.056-.089-.093,0-.082-.018-.117-.073-.054-.089-.089.063-.117.047-.153-.061-.059-.079-.093-.035-.071-.055-.106-.078-.044-.1-.078-.109-.021-.131-.054.051-.128.028-.159-.017-.088-.041-.119-.171.037-.2,0,.011-.109-.015-.141-.092-.02-.119-.049-.03-.078-.056-.106,0-.1-.03-.13-.069-.038-.1-.063-.089-.017-.116-.042-.071-.034-.1-.059.017-.131-.013-.157-.08-.023-.109-.047-.106.008-.141-.016l-.086-.071c-.03-.024-.021-.1-.051-.119s-.013-.107-.044-.131-.155.083-.186.061.039-.182.008-.2-.157.09-.188.069.011-.153-.02-.175-.086-.014-.119-.037-.02-.109-.051-.13-.1.009-.134-.013-.117.034-.15.013.017-.165-.014-.186l-.1-.066c-.033-.023-.141.069-.172.047s-.017-.114-.049-.141-.078-.025-.11-.047-.111.027-.141,0,.028-.184,0-.2-.141.071-.172.049.007-.154-.025-.175-.092,0-.124-.025-.086-.009-.12-.03-.038-.083-.071-.1-.12.039-.153.018.01-.158-.023-.179-.113.031-.141.01-.107.021-.141,0,0-.141-.038-.157-.055-.058-.088-.079-.063-.045-.1-.066-.13.059-.162.04-.007-.134-.041-.155-.055-.058-.089-.078-.056-.048-.086-.069-.069-.03-.1-.054-.076-.025-.1-.052-.08-.03-.1-.058-.12-.016-.141-.047.011-.1,0-.141a.765.765,0,0,1-.055-.107c-.011-.035-.058-.072-.063-.11a1.127,1.127,0,0,1-.017-.124c0-.037.107-.075.11-.114s-.061-.085-.054-.124.113-.051.124-.089-.119-.114-.107-.154.061-.066.071-.106.151-.042.162-.082-.015-.087,0-.126-.025-.09-.015-.13.111-.054.121-.092-.106-.112-.1-.151.007-.08.018-.12-.015-.088,0-.126.195-.031.206-.071-.034-.092-.023-.131-.054-.1-.042-.141.089-.058.1-.1-.055-.1-.047-.134.1-.058.107-.1-.01-.083,0-.121-.033-.086-.027-.124.114-.065.118-.1.01-.08.014-.119-.119-.087-.117-.127.126-.075.127-.113-.106-.08-.106-.119v-.117c0-.038.1-.086.1-.126s-.164-.063-.168-.1.063-.086.058-.124.051-.089.045-.127-.092-.063-.1-.1a.566.566,0,0,1,0-.12c0-.038-.1-.055-.114-.092s.141-.121.141-.159-.111-.049-.123-.088-.065-.061-.076-.1.072-.107.059-.141-.141-.032-.152-.069.021-.092,0-.128.052-.107.038-.141-.027-.076-.044-.111-.093-.045-.109-.08-.017-.079-.034-.114.015-.1,0-.131-.062-.058-.081-.093-.094-.041-.111-.075.038-.109.02-.141-.014-.082-.034-.117-.2.018-.219-.016-.027-.075-.047-.109-.015-.08-.035-.116.087-.141.069-.172-.131-.018-.15-.052-.027-.141-.045-.179c-.02.035,0,.162-.014.2s-.007.085-.025.12-.128.021-.141.056-.069.054-.088.089.048.116.03.151-.024.076-.042.112,0,.086-.023.121-.141.02-.155.055-.1.038-.117.073.093.141.075.172-.086.044-.1.079.049.116.031.15-.045.068-.064.1-.141.016-.158.051-.066.054-.085.088,0,.089-.021.124.04.113.021.141-.129.02-.148.054l-.058.1c-.021.034.066.131.045.165s-.169-.011-.191.023-.02.079-.041.113.023.109,0,.141-.088.035-.11.068-.017.085-.04.117-.024.08-.048.113-.1.025-.121.056-.024.079-.048.109-.037.069-.061.1-.121,0-.141.031.02.116,0,.141-.032.075-.058.1-.031.075-.056.1-.056.052-.082.082-.155-.033-.181,0,.054.151.028.181-.1.017-.123.045-.082.03-.107.058-.023.085-.049.113-.039.068-.066.1-.03.078-.056.106-.083.027-.11.055,0,.1-.034.128-.083.027-.11.055-.079.031-.106.058-.065.045-.093.072-.061.048-.087.076-.089.02-.117.047.025.134,0,.161-.076.033-.1.061,0,.114-.024.141-.165-.059-.192-.032,0,.109-.031.141-.038.072-.066.1-.038.073-.066.1-.066.044-.094.069-.141-.031-.162,0-.076.031-.1.058-.034.078-.062.1-.03.082-.058.109.016.131-.014.157-.083.023-.111.049-.086.021-.114.048-.068.041-.095.069,0,.106-.028.134-.1.015-.123.044-.013.092-.037.121-.054.055-.078.086-.15-.018-.174.011.087.164.065.195-.133,0-.155.031-.079.042-.1.075-.021.08-.041.113.062.124.044.158-.16,0-.178.037.089.13.072.165-.062.055-.078.09-.076.051-.09.088-.062.061-.075.1.016.086,0,.124.02.085.008.123-.058.063-.066.1-.023.073-.03.112a.646.646,0,0,0,0,.117c0,.038-.089.066-.095.106s-.044.075-.047.114.1.086.1.124-.051.076-.052.114.072.079.072.117-.049.078-.048.117-.03.079-.028.119.1.069.1.109a.513.513,0,0,0,.011.114c.011.038-.134.1-.127.141s.185.047.192.086-.054.09-.044.128.1.052.107.09-.027.088-.014.124-.064.107-.049.141.092.048.107.083-.033.1-.016.141.13.023.148.058-.041.113-.021.141.049.064.071.1.141,0,.158.035-.1.168-.073.2.121,0,.141.037.093.023.119.051,0,.11.024.141.09.02.118.047.089.016.119.041.054.054.085.079-.013.141.018.169a.851.851,0,0,0,.088.088c.034.023.088.013.121.033s.134-.083.169-.065.063.038.1.055.042.092.078.107.054.083.09.1.1-.056.141-.045l.112.028c.038.01.073.021.112.028s.073.022.113.027.069.058.107.062.075.011.113.014.083-.092.121-.089.075-.01.113-.007.068.141.106.141.078-.025.114-.024.075.035.113.037.076-.009.114-.007.073.025.111.027.082-.113.12-.111.071.1.109.107a.607.607,0,0,1,.113.01c.038.01.071.051.109.054s.082-.063.12-.058.062.078.1.085.1-.1.134-.089l.113.025c.037.008.061.082.1.089s.095-.01.141,0c-.028.027-.065.068-.093.093s-.092.01-.121.034-.071.031-.1.054-.061.045-.093.066-.01.131-.044.15-.086.008-.12.025-.112-.058-.141-.044-.034.119-.069.131-.1-.062-.141-.051-.044.121-.082.131-.069.048-.107.056-.078.02-.116.025-.085-.048-.124-.044-.076.027-.114.028a1.117,1.117,0,0,1-.117-.008c-.038,0-.082.083-.121.081s-.071-.1-.109-.109-.09.08-.128.075-.058-.127-.1-.134-.078,0-.116-.008-.062-.058-.1-.068-.079,0-.116-.013-.08,0-.117-.014-.052-.075-.087-.09-.082,0-.117-.018-.087.008-.123-.008-.1.015-.131,0-.063-.047-.1-.065.01-.168-.024-.189-.131.068-.164.047,0-.141-.028-.165-.141.066-.172.044-.016-.109-.047-.133-.017-.1-.047-.124-.13.038-.159.013,0-.126-.023-.151-.1,0-.131-.025,0-.107-.031-.134-.051-.055-.079-.082-.124.016-.152-.011-.03-.078-.056-.106l-.076-.086c-.027-.028-.13.013-.155-.017s-.023-.083-.048-.113-.07-.042-.094-.073-.062-.049-.086-.08.073-.154.051-.185-.1-.02-.126-.051-.075-.042-.1-.073-.008-.089-.03-.12-.023-.078-.044-.11-.034-.069-.055-.1-.123-.014-.141-.047-.016-.082-.035-.116-.042-.065-.062-.1.014-.1,0-.131-.145-.035-.164-.069Z" transform="translate(-9.136 -7.152)" fill="#282828"/>
    <rect id="spacing" width="36" height="34" transform="translate(6 6.976)" fill="none"/>
  </g>
</svg>
