<svg width="48" height="48" viewBox="0 0 48 48" fill="none" xmlns="http://www.w3.org/2000/svg">
<path d="M22.0594 16.5195C22.0877 16.4649 22.2918 16.374 22.3201 16.3295C22.3484 16.2851 22.2312 16.1153 22.2655 16.0749C22.2999 16.0345 22.3928 16.0204 22.4353 15.984C22.4777 15.9476 22.5524 15.9416 22.5989 15.9133C22.6454 15.885 22.7606 16.0022 22.8131 15.982C22.8657 15.9618 22.8394 15.7233 22.8939 15.7092C22.9485 15.695 23.0192 15.7254 23.0738 15.7092C23.1283 15.693 23.2071 15.8324 23.2637 15.8223C23.3203 15.8122 23.3668 15.7132 23.4254 15.7051C23.484 15.6971 23.5345 15.6162 23.5931 15.6102C23.6517 15.6041 23.7123 15.5799 23.7689 15.5758C23.8255 15.5718 23.8982 15.7294 23.9568 15.7274C24.0154 15.7253 24.07 15.5819 24.1286 15.5799C24.1872 15.5778 24.2478 15.6668 24.3064 15.6668C24.365 15.6668 24.4256 15.5778 24.4842 15.5799C24.5428 15.5819 24.6074 15.5536 24.664 15.5556C24.7206 15.5576 24.7732 15.7193 24.8318 15.7233C24.8903 15.7274 24.9671 15.5415 25.0338 15.5475C25.1005 15.5536 25.1268 15.7819 25.1833 15.79C25.2399 15.7981 25.2945 15.8345 25.351 15.8446C25.4076 15.8547 25.4763 15.8082 25.5329 15.8183C25.5895 15.8284 25.6784 15.6991 25.735 15.7112C25.7916 15.7233 25.8299 15.8284 25.8865 15.8425C25.9431 15.8567 25.9936 15.8991 26.0502 15.9153C26.1068 15.9315 26.1472 15.9981 26.2038 16.0143C26.2603 16.0305 26.3715 15.8749 26.426 15.8931C26.4806 15.9112 26.4745 16.1214 26.5291 16.1396C26.5837 16.1578 26.6786 16.0729 26.7312 16.0931C26.7837 16.1133 26.8625 16.081 26.9171 16.0931C26.9716 16.1052 26.9696 16.2709 27.0242 16.2952C27.0787 16.3194 27.1131 16.376 27.1676 16.4002C27.2222 16.4245 27.2868 16.4164 27.3394 16.4427C27.3919 16.469 27.5233 16.3417 27.5758 16.3679C27.6283 16.3942 27.6586 16.4669 27.7092 16.4952C27.7597 16.5235 27.7455 16.671 27.796 16.6973C27.8466 16.7236 27.8991 16.7498 27.9496 16.7801C28.0001 16.8104 28.1517 16.6831 28.1981 16.7134C28.2446 16.7438 28.3194 16.7478 28.3679 16.7801C28.4164 16.8125 28.3861 16.966 28.4366 16.9984C28.4871 17.0307 28.6023 16.966 28.6508 16.9984C28.6993 17.0307 28.6387 17.2166 28.6851 17.2509C28.7316 17.2853 28.8246 17.2509 28.871 17.2974C28.9175 17.3439 28.8872 17.4651 28.9337 17.4995C28.9801 17.5338 29.1357 17.4449 29.1721 17.4833C29.2085 17.5217 29.3014 17.5116 29.3479 17.55C29.3944 17.5884 29.4611 17.6005 29.5055 17.6389C29.55 17.6773 29.5379 17.7824 29.5823 17.8208C29.6268 17.8592 29.7258 17.841 29.7682 17.8794C29.8106 17.9178 29.8187 18.0006 29.8632 18.041C29.9076 18.0814 29.9642 18.1138 30.0046 18.1562C30.045 18.1986 30.1218 18.2168 30.1602 18.2613C30.1986 18.3057 30.1764 18.4068 30.2128 18.4532C30.2491 18.4997 30.2026 18.6048 30.237 18.6553C30.2714 18.7058 30.334 18.7321 30.3643 18.7826C30.3946 18.8331 30.3219 18.9422 30.3501 18.9847C30.3784 19.0271 30.4209 19.0756 30.4471 19.1281C30.4734 19.1807 30.5219 19.2191 30.5482 19.2716C30.5744 19.3241 30.5724 19.3868 30.5967 19.4393C30.6209 19.4918 30.7159 19.5161 30.7381 19.5707C30.7603 19.6252 30.7502 19.6899 30.7705 19.7444C30.7907 19.799 30.8028 19.8556 30.823 19.9121C30.8432 19.9687 30.8109 20.0374 30.823 20.094C30.8351 20.1506 30.9038 20.189 30.92 20.2455C30.9361 20.3021 31.0796 20.3244 31.0938 20.3809C31.1079 20.4375 31.0048 20.5244 31.017 20.583C31.0291 20.6416 31.0048 20.7042 31.017 20.7628C31.0291 20.8214 30.9927 20.8841 31.0028 20.9427C31.0129 21.0013 31.114 21.0397 31.1241 21.0983C31.1342 21.1569 31.0816 21.2215 31.0897 21.2801C31.0978 21.3387 31.2473 21.3771 31.2554 21.4357C31.2635 21.4943 31.213 21.559 31.219 21.6176C31.2251 21.6762 31.3726 21.7206 31.3787 21.7812C31.3847 21.8419 31.1584 21.9146 31.1625 21.9833C31.1665 22.052 31.3767 22.0904 31.3787 22.149C31.3807 22.2076 31.3342 22.2703 31.3342 22.3289C31.3342 22.3875 31.3079 22.4461 31.31 22.5046C31.312 22.5632 31.1604 22.6218 31.1604 22.6804C31.1604 22.739 31.2009 22.7976 31.1968 22.8562C31.1928 22.9148 31.213 22.9734 31.2089 23.032C31.2049 23.0906 31.2089 23.1472 31.1948 23.2058C31.1806 23.2644 31.2473 23.3291 31.2413 23.3877C31.2352 23.4463 31.1907 23.5008 31.1827 23.5574C31.1746 23.614 31.1827 23.6746 31.1685 23.7332C31.1544 23.7918 31.2615 23.8706 31.2514 23.9353C31.2413 23.9999 31.1645 24.0403 31.1503 24.0989C31.1362 24.1575 31.1685 24.2262 31.1503 24.2828C31.1322 24.3394 31.1806 24.4162 31.1645 24.4728C31.1483 24.5293 31.0129 24.5516 30.9947 24.6061C30.9766 24.6607 30.823 24.6667 30.7927 24.7213C30.7624 24.7759 30.9341 24.9052 30.9119 24.9577C30.8897 25.0103 30.9119 25.0891 30.8816 25.1416C30.8513 25.1941 30.6169 25.1416 30.5906 25.1982C30.5643 25.2548 30.7098 25.3902 30.6836 25.4427C30.6573 25.4952 30.4613 25.4548 30.433 25.5053C30.4047 25.5558 30.3966 25.6185 30.3663 25.669C30.336 25.7195 30.3421 25.7902 30.3118 25.8387C30.2815 25.8872 30.3401 25.9984 30.3118 26.0408C30.2835 26.0832 30.0895 26.0266 30.0551 26.0751C30.0208 26.1236 30.1137 26.2631 30.0774 26.3095C30.041 26.356 30.0935 26.4732 30.0572 26.5116C30.0208 26.55 29.7803 26.4348 29.7419 26.4793C29.7035 26.5237 29.7904 26.6813 29.752 26.7197C29.7136 26.7581 29.5702 26.7197 29.5298 26.7521C29.4894 26.7844 29.4186 26.8026 29.3762 26.843C29.3338 26.8834 29.4651 27.1097 29.4227 27.1481C29.3802 27.1865 29.1762 27.0471 29.1317 27.0855C29.0873 27.1238 29.0933 27.2209 29.0468 27.2572C29.0004 27.2936 28.9256 27.2875 28.8791 27.3219C28.8327 27.3562 28.77 27.3684 28.7235 27.4027C28.6771 27.4371 28.6164 27.4472 28.5679 27.4795C28.5194 27.5118 28.5174 27.6149 28.4689 27.6452C28.4204 27.6755 28.4568 27.8473 28.4063 27.8857C28.3558 27.924 28.2386 27.8311 28.1881 27.8594C28.1375 27.8877 28.0325 27.8129 27.986 27.8392C27.9395 27.8655 27.986 28.1261 27.9436 28.1503C27.9011 28.1746 27.8344 28.2049 27.7819 28.2271C27.7294 28.2494 27.6081 28.1241 27.5536 28.1463C27.499 28.1685 27.4647 28.2413 27.4101 28.2615C27.3555 28.2817 27.2565 28.1807 27.208 28.2009C27.1595 28.2211 27.1009 28.2433 27.0464 28.2615C26.9918 28.2797 26.9999 28.512 26.9453 28.5282C26.8908 28.5444 26.7857 28.4009 26.7291 28.4171C26.6726 28.4333 26.6604 28.6191 26.6018 28.6353C26.5432 28.6515 26.424 28.3908 26.3674 28.405C26.3109 28.4191 26.2866 28.5828 26.23 28.5949C26.1734 28.607 26.1189 28.6495 26.0623 28.6596C26.0057 28.6697 25.931 28.5909 25.8724 28.5989C25.8138 28.607 25.7572 28.5989 25.6986 28.6151C25.64 28.6313 25.6016 28.7909 25.545 28.797C25.4885 28.803 25.4157 28.7161 25.3571 28.7222C25.2985 28.7283 25.2379 28.7081 25.1793 28.7121C25.1207 28.7161 25.0581 28.6535 24.9995 28.6575C24.9409 28.6616 24.8863 28.7141 24.8277 28.7182C24.7691 28.7222 24.7105 28.698 24.6519 28.7C24.5933 28.702 24.5347 28.6454 24.4761 28.6454C24.4175 28.6454 24.3609 28.7848 24.3023 28.7848C24.2437 28.7848 24.1851 28.7161 24.1286 28.7141H23.9528C23.8942 28.7141 23.8416 28.6293 23.783 28.6252C23.7244 28.6212 23.6537 28.7768 23.5951 28.7727C23.5365 28.7687 23.4981 28.5848 23.4395 28.5707C23.3809 28.5565 23.3102 28.6798 23.2516 28.6717C23.193 28.6636 23.1526 28.5484 23.094 28.5403C23.0354 28.5323 22.9667 28.6091 22.9081 28.5989C22.8495 28.5888 22.7909 28.5989 22.7343 28.5787C22.6777 28.5585 22.6434 28.4474 22.5868 28.4353C22.5302 28.4231 22.4635 28.4575 22.407 28.4353C22.3504 28.413 22.2574 28.5444 22.2049 28.5302C22.1524 28.5161 22.0958 28.4777 22.0412 28.4615C21.9867 28.4454 21.9543 28.3423 21.8978 28.3241C21.8412 28.3059 21.7967 28.2655 21.7401 28.2473C21.6836 28.2291 21.6492 28.1605 21.5947 28.1403L21.435 28.0756C21.3805 28.0534 21.2794 28.1524 21.233 28.1301C21.1865 28.1079 21.1683 27.9887 21.1137 27.9645C21.0592 27.9402 20.9905 27.9645 20.9379 27.9341C20.8854 27.9038 20.8046 27.9342 20.752 27.916C20.6995 27.8978 20.6369 27.8836 20.5843 27.8574C20.5318 27.8311 20.4267 27.8998 20.3823 27.8715C20.3378 27.8432 20.3398 27.7078 20.2893 27.6694C20.2388 27.631 20.1863 27.6149 20.1358 27.5846C20.0852 27.5543 20.0085 27.5623 19.96 27.532C19.9115 27.5017 19.9377 27.3542 19.8892 27.33C19.8407 27.3057 19.8225 27.2229 19.7761 27.1885L19.6366 27.0855C19.5902 27.0511 19.5599 26.9966 19.5134 26.9622C19.4669 26.9278 19.3921 26.9299 19.3477 26.8935C19.3032 26.8571 19.2062 26.8794 19.1618 26.843C19.1173 26.8066 19.1396 26.6915 19.0971 26.6531C19.0547 26.6147 18.9092 26.6874 18.8648 26.6531C18.8203 26.6187 18.8991 26.451 18.8648 26.4065C18.8304 26.3621 18.7415 26.3681 18.6991 26.3277C18.6566 26.2873 18.5637 26.2974 18.5233 26.257C18.4829 26.2166 18.5354 26.0852 18.497 26.0408C18.4586 25.9963 18.2747 26.0852 18.2363 26.0408C18.1979 25.9963 18.1131 25.9923 18.0747 25.9479C18.0363 25.9034 18.1535 25.7296 18.1151 25.6831C18.0767 25.6367 18.008 25.6225 17.9696 25.576C17.9312 25.5296 17.9817 25.4204 17.9453 25.374C17.909 25.3275 17.717 25.4023 17.6827 25.3558C17.6483 25.3093 17.6342 25.2446 17.5998 25.1962C17.5655 25.1477 17.5291 25.1032 17.4947 25.0547C17.4604 25.0062 17.424 24.9598 17.3917 24.9113C17.3594 24.8628 17.2543 24.8506 17.224 24.8021C17.1937 24.7536 17.2705 24.6364 17.2422 24.5859C17.2139 24.5354 17.1957 24.4748 17.1714 24.4222C17.1472 24.3697 17.2301 24.2727 17.2078 24.2202C17.1856 24.1676 17.1452 24.1252 17.127 24.0686C17.1088 24.0121 16.8966 24.0161 16.8805 23.9595C16.8643 23.9029 16.83 23.8443 16.8158 23.7878C16.8017 23.7312 16.7855 23.6665 16.7754 23.6099C16.7653 23.5534 16.8946 23.4705 16.8885 23.4079C16.8825 23.3452 16.8542 23.2927 16.8481 23.2341C16.8421 23.1755 16.834 23.1169 16.832 23.0583C16.8299 22.9997 16.7168 22.9411 16.7168 22.8825C16.7168 22.8239 16.7653 22.7613 16.7673 22.7027C16.7693 22.6441 16.8017 22.5835 16.8037 22.5249C16.8057 22.4663 16.8481 22.4097 16.8522 22.3511C16.8562 22.2925 16.9977 22.248 17.0037 22.1894C17.0098 22.1308 17.026 22.0763 17.032 22.0177C17.0381 21.9591 16.8562 21.8762 16.8663 21.8156C16.8764 21.755 16.929 21.7065 16.937 21.6479C16.9451 21.5893 16.9957 21.5388 17.0058 21.4802C17.0159 21.4216 17.0947 21.3771 17.1068 21.3205C17.1189 21.264 17.0684 21.1932 17.0825 21.1367C17.0967 21.0801 17.0825 21.0154 17.1048 20.9588C17.127 20.9023 17.0219 20.8073 17.0401 20.7568C17.0583 20.7063 17.2765 20.7123 17.2967 20.6557C17.3169 20.5992 17.2503 20.5123 17.2745 20.4537C17.2987 20.3951 17.2341 20.3062 17.2583 20.2516C17.2826 20.1971 17.4503 20.2112 17.4766 20.1587C17.5028 20.1061 17.4564 20.0132 17.4766 19.9566C17.4968 19.9 17.4341 19.7909 17.4644 19.7404C17.4947 19.6899 17.6665 19.7404 17.7089 19.6798C17.7514 19.6192 17.7837 19.5888 17.818 19.5403C17.8524 19.4918 17.7413 19.3383 17.7756 19.2918C17.81 19.2453 17.9777 19.2918 18.0242 19.2514C18.0706 19.211 18.0767 19.1443 18.1151 19.0978C18.1535 19.0514 18.1151 18.9503 18.1595 18.8958C18.204 18.8412 18.1858 18.7604 18.2242 18.7159C18.2626 18.6715 18.4384 18.7422 18.4788 18.6977C18.5192 18.6533 18.6061 18.6533 18.6465 18.6088C18.6869 18.5644 18.5657 18.3765 18.6041 18.334C18.6425 18.2916 18.6485 18.2108 18.689 18.1663C18.7294 18.1219 18.891 18.1986 18.9375 18.1542C18.984 18.1097 18.9638 18.0148 19.0042 17.9723C19.0446 17.9299 19.1214 17.9198 19.1618 17.8753C19.2022 17.8309 19.2608 17.8046 19.3012 17.7601C19.3416 17.7157 19.4649 17.7602 19.5033 17.7076C19.5417 17.6551 19.382 17.4348 19.4225 17.3904C19.4629 17.3459 19.675 17.4773 19.7195 17.4368C19.7639 17.3964 19.77 17.3237 19.8185 17.2893C19.867 17.255 19.8629 17.1418 19.9155 17.1115C19.968 17.0812 20.0246 17.057 20.0792 17.0307C20.1337 17.0044 20.1863 16.9681 20.2428 16.9479C20.2994 16.9276 20.356 16.8933 20.4146 16.8791C20.4732 16.865 20.5662 17.057 20.6167 17.0469C20.6672 17.0368 20.7136 16.863 20.7743 16.8589C20.8349 16.8549 20.8996 16.7821 20.9602 16.7862C21.0208 16.7902 21.0632 16.9883 21.1218 16.9883C21.1804 16.9883 21.2976 16.8973 21.3562 16.9115C21.34 16.962 21.3744 17.063 21.3562 17.1135C21.338 17.1641 21.1865 17.0812 21.1541 17.0913C21.1218 17.1014 21.14 17.3702 21.0895 17.3924C21.039 17.4146 20.9703 17.3924 20.9198 17.4247C20.8693 17.4571 20.8086 17.455 20.7581 17.4833C20.7076 17.5116 20.6894 17.5844 20.6409 17.6147C20.5924 17.645 20.5237 17.6389 20.4752 17.6733C20.4267 17.7076 20.3196 17.6531 20.2731 17.6894C20.2267 17.7258 20.1317 17.7036 20.0873 17.7399C20.0428 17.7763 20.16 17.9946 20.1175 18.035C20.0751 18.0754 20.0145 18.0875 19.9741 18.1279C19.9337 18.1683 19.8933 18.2047 19.8529 18.2471C19.8124 18.2896 19.7215 18.2815 19.6852 18.3239C19.6488 18.3663 19.6387 18.435 19.6003 18.4795C19.5619 18.524 19.4932 18.5381 19.4588 18.5846C19.4245 18.6311 19.3962 18.6816 19.3618 18.726C19.3275 18.7705 19.2568 18.7907 19.2224 18.8372C19.1881 18.8836 19.2931 19.0392 19.2588 19.0756C19.2244 19.112 18.986 19.0231 18.9517 19.0756C18.9173 19.1281 18.9516 19.2069 18.9092 19.2554C18.8668 19.3039 18.887 19.3787 18.8546 19.4272C18.8223 19.4757 18.7213 19.4757 18.689 19.5222C18.6566 19.5686 18.7273 19.6878 18.689 19.7363C18.6506 19.7848 18.5132 19.7566 18.4869 19.8051C18.4606 19.8536 18.3919 19.8758 18.3576 19.9222C18.3232 19.9687 18.3576 20.0738 18.3353 20.1243C18.3131 20.1748 18.2384 20.2072 18.2101 20.2577C18.1818 20.3082 18.1414 20.3587 18.1131 20.4092C18.0848 20.4597 18.2282 20.5971 18.202 20.6497C18.1757 20.7022 18.1353 20.7446 18.1111 20.7992C18.0868 20.8538 18.1111 20.9204 18.0888 20.975C18.0666 21.0296 17.9009 21.0316 17.8868 21.0882C17.8726 21.1447 17.9716 21.2357 17.9555 21.2902C17.9393 21.3448 17.8564 21.3832 17.8443 21.4398C17.8322 21.4963 17.7918 21.5489 17.7797 21.6075C17.7675 21.6661 17.7615 21.7226 17.7534 21.7812C17.7453 21.8398 17.614 21.8843 17.6079 21.9409C17.6019 21.9975 17.7554 22.0763 17.7514 22.1429C17.7473 22.2096 17.7271 22.2581 17.7251 22.3167C17.7231 22.3753 17.6887 22.4339 17.6887 22.4925C17.6887 22.5511 17.6241 22.6138 17.6281 22.6724C17.6322 22.731 17.8443 22.7734 17.8484 22.832C17.8524 22.8906 17.6463 22.9714 17.6463 23.0341C17.6463 23.0967 17.8484 23.123 17.8625 23.1816C17.8767 23.2402 17.7291 23.325 17.7413 23.3836C17.7534 23.4422 17.7958 23.4927 17.81 23.5513C17.8241 23.6099 17.7494 23.6908 17.7655 23.7534C17.7817 23.816 17.9171 23.8322 17.9353 23.8888C17.9534 23.9454 17.8524 24.0444 17.8746 24.0909C17.8969 24.1373 18.1211 24.1192 18.1454 24.1737C18.1696 24.2283 18.01 24.3636 18.0363 24.4162C18.0626 24.4687 18.1454 24.495 18.1717 24.5475C18.1979 24.6001 18.3475 24.5839 18.3737 24.6364C18.4 24.689 18.2363 24.8567 18.2687 24.9072C18.301 24.9577 18.3535 24.9961 18.3879 25.0446C18.4222 25.0931 18.59 25.0446 18.6223 25.0931C18.6546 25.1416 18.7476 25.1416 18.7839 25.1881C18.8203 25.2346 18.7092 25.4043 18.7476 25.4487C18.786 25.4932 18.99 25.3821 19.0325 25.4245C19.0749 25.4669 18.9132 25.7094 18.9557 25.7498C18.9981 25.7902 19.1578 25.7054 19.2002 25.7498C19.2426 25.7943 19.2002 25.9276 19.2365 25.966C19.2729 26.0044 19.374 25.9862 19.4184 26.0246C19.4629 26.063 19.5861 26.0064 19.6205 26.0428C19.6548 26.0792 19.7013 26.1236 19.7458 26.16C19.7902 26.1964 19.7316 26.3621 19.7781 26.3964C19.8246 26.4308 19.9923 26.3055 20.0388 26.3398C20.0852 26.3742 20.1357 26.3964 20.1822 26.4308C20.2287 26.4651 20.1438 26.6834 20.1822 26.7157C20.2206 26.748 20.3216 26.7157 20.3701 26.748C20.4186 26.7804 20.4206 26.8834 20.4691 26.9137C20.5176 26.944 20.5823 26.9541 20.6328 26.9824C20.6833 27.0107 20.7197 27.0673 20.7682 27.0956C20.8167 27.1239 20.8531 27.1865 20.9056 27.2128C20.9581 27.239 21.0511 27.1824 21.1077 27.2128C21.1643 27.2431 21.2006 27.2855 21.2532 27.3098C21.3057 27.334 21.3845 27.3098 21.437 27.3239C21.4896 27.338 21.5401 27.3744 21.5947 27.3946C21.6492 27.4148 21.6714 27.5199 21.726 27.5381C21.7806 27.5563 21.8675 27.4815 21.9281 27.4997C21.9887 27.5179 22.0432 27.5139 22.0978 27.53C22.1524 27.5462 22.1968 27.6048 22.2514 27.6189C22.3059 27.6331 22.3807 27.5745 22.4373 27.5866C22.4939 27.5987 22.5161 27.7725 22.5726 27.7887C22.6292 27.8048 22.7181 27.631 22.7747 27.6411C22.8313 27.6512 22.8879 27.6411 22.9444 27.6533C23.001 27.6654 23.0374 27.8553 23.096 27.8553C23.1546 27.8553 23.2112 27.8553 23.2718 27.8695C23.3324 27.8836 23.4355 27.6674 23.4961 27.6876C23.5567 27.7078 23.5628 27.9503 23.6214 27.9645C23.68 27.9786 23.7588 27.916 23.8234 27.9281C23.8881 27.9402 23.9265 28.0453 23.9871 28.0554C24.0477 28.0655 24.1387 27.8755 24.1892 27.8816C24.2397 27.8877 24.3023 28.0089 24.3629 28.0089C24.4236 28.0089 24.4822 27.9624 24.5428 27.9624C24.6034 27.9624 24.66 28.0049 24.7206 28.0028C24.7812 28.0008 24.8358 27.8978 24.8944 27.8957C24.953 27.8937 25.0136 27.9261 25.0722 27.922C25.1308 27.918 25.2035 28.0695 25.2743 28.0635C25.345 28.0574 25.3753 27.9058 25.4339 27.8978C25.4925 27.8897 25.5774 28.0089 25.636 27.9968C25.6946 27.9847 25.7653 27.9968 25.8219 27.9725C25.8785 27.9483 25.8623 27.7139 25.9168 27.6917C25.9714 27.6694 26.0664 27.7604 26.1189 27.7402C26.1714 27.72 26.2604 27.7745 26.321 27.7543C26.3816 27.7341 26.3715 27.5704 26.426 27.5522C26.4806 27.5341 26.5251 27.4896 26.5776 27.4653C26.6301 27.4411 26.7312 27.5219 26.7797 27.4977C26.8282 27.4734 26.8605 27.3966 26.915 27.3724C26.9696 27.3482 27.0908 27.4694 27.1434 27.4431C27.1959 27.4168 27.1434 27.1804 27.1959 27.1542L27.3535 27.0794C27.4061 27.0531 27.4626 27.039 27.5152 27.0127C27.5677 26.9864 27.6607 27.041 27.7173 27.0127C27.7738 26.9844 27.8728 27.0592 27.9193 27.0309C27.9658 27.0026 28.0082 26.9521 28.0608 26.9238C28.1133 26.8955 28.1214 26.7945 28.1739 26.7662L28.3254 26.6793C28.376 26.649 28.3638 26.5096 28.4144 26.4773C28.4649 26.4449 28.5073 26.4227 28.5558 26.3904C28.6043 26.358 28.6528 26.3398 28.6993 26.3055C28.7458 26.2711 28.9195 26.4005 28.964 26.3641C29.0084 26.3277 28.9175 26.1358 28.964 26.0974C29.0105 26.059 29.1519 26.1257 29.1923 26.0852C29.2327 26.0448 29.2529 25.9802 29.2893 25.9357C29.3257 25.8913 29.3722 25.8529 29.4065 25.8064C29.4409 25.7599 29.4247 25.6791 29.455 25.6306C29.4853 25.5821 29.6167 25.5902 29.647 25.5397C29.6773 25.4892 29.6853 25.4225 29.7157 25.3719C29.746 25.3214 29.7338 25.2446 29.7641 25.1941C29.7945 25.1436 29.752 25.0527 29.7783 24.9921C29.8046 24.9314 30.0228 24.9921 30.0491 24.9315C30.0753 24.8708 30.0491 24.7981 30.0794 24.7455C30.1097 24.693 30.0026 24.5778 30.0268 24.5233C30.0511 24.4687 30.1158 24.4344 30.138 24.3798C30.1602 24.3253 30.1582 24.2586 30.1784 24.204C30.1986 24.1495 30.3178 24.1293 30.338 24.0727C30.3582 24.0161 30.2916 23.9312 30.3097 23.8706C30.3279 23.81 30.2734 23.7372 30.2895 23.6807C30.3057 23.6241 30.3178 23.5695 30.332 23.5109C30.3461 23.4523 30.4977 23.4281 30.5098 23.3715C30.5219 23.3149 30.3825 23.2281 30.3926 23.1695C30.4027 23.1109 30.4633 23.0623 30.4714 23.0037C30.4795 22.9451 30.5138 22.8906 30.5199 22.832C30.526 22.7734 30.6351 22.7209 30.6371 22.6602C30.6391 22.5996 30.4956 22.539 30.4956 22.4784C30.4956 22.4178 30.534 22.3632 30.532 22.3026C30.53 22.242 30.5845 22.1813 30.5805 22.1207C30.5765 22.0601 30.5623 22.0055 30.5583 21.9469C30.5542 21.8883 30.4754 21.8398 30.4694 21.7812C30.4633 21.7226 30.3744 21.6782 30.3663 21.6196C30.3582 21.561 30.4007 21.4984 30.3926 21.4418C30.3845 21.3852 30.3097 21.3387 30.2996 21.2801C30.2895 21.2215 30.4229 21.1407 30.4128 21.0781C30.4027 21.0154 30.2996 20.9831 30.2875 20.9265C30.2754 20.8699 30.437 20.773 30.4229 20.7144C30.4087 20.6558 30.1723 20.6598 30.1582 20.6032C30.144 20.5466 30.1582 20.486 30.14 20.4315C30.1218 20.3769 30.2208 20.2839 30.2006 20.2294C30.1804 20.1748 30.1885 20.1082 30.1683 20.0536C30.1481 19.999 29.9804 20.0031 29.9662 19.9505C29.9521 19.898 30.0066 19.8071 29.9824 19.7485C29.9581 19.6899 29.9137 19.6555 29.8874 19.603C29.8612 19.5505 29.9238 19.4514 29.8874 19.4009C29.8511 19.3504 29.6854 19.4009 29.647 19.3403C29.6086 19.2797 29.7581 19.1382 29.7258 19.0837C29.6934 19.0291 29.6065 19.0231 29.5702 18.9746C29.5338 18.9261 29.5702 18.823 29.5318 18.7725C29.4934 18.722 29.4409 18.6917 29.4025 18.6472C29.3641 18.6028 29.2671 18.6109 29.2247 18.5704C29.1822 18.53 29.0226 18.6088 28.9862 18.5704C28.9498 18.532 28.9579 18.4351 28.9155 18.3946C28.8731 18.3542 28.8185 18.332 28.774 18.2916C28.7296 18.2512 28.7478 18.1501 28.7033 18.1117C28.6589 18.0734 28.5518 18.1117 28.5012 18.0754L28.3699 17.9642C28.3255 17.9279 28.3861 17.7622 28.3416 17.7238C28.2972 17.6854 28.2648 17.6328 28.2184 17.5965C28.1719 17.5601 28.0506 17.6248 28.0042 17.5965C27.9577 17.5682 28.0042 17.4126 27.9456 17.3783C27.887 17.3439 27.8122 17.3641 27.7657 17.3318C27.7193 17.2994 27.6243 17.3318 27.5758 17.3055C27.5273 17.2792 27.5132 17.1883 27.4626 17.158C27.4121 17.1277 27.3232 17.158 27.2727 17.1398C27.2222 17.1216 27.1959 17.0408 27.1454 17.0145C27.0949 16.9883 27.0423 16.962 26.9898 16.9357C26.9373 16.9095 26.8605 16.9357 26.808 16.9175C26.7554 16.8994 26.7433 16.7842 26.6907 16.7599C26.6382 16.7357 26.62 16.6245 26.5675 16.6023L26.4038 16.5377C26.3493 16.5154 26.2543 16.6043 26.2018 16.5841C26.1492 16.5639 26.0583 16.6508 25.9997 16.6326C25.9411 16.6144 25.8966 16.5841 25.8421 16.568C25.7875 16.5518 25.7895 16.3214 25.733 16.3073C25.6764 16.2931 25.5713 16.4791 25.5147 16.4649C25.4582 16.4508 25.444 16.2386 25.3874 16.2285C25.3309 16.2184 25.2621 16.2507 25.2056 16.2406C25.149 16.2305 25.0863 16.2406 25.0298 16.2285C24.9732 16.2164 24.9045 16.2871 24.8479 16.281C24.7913 16.275 24.7368 16.2143 24.6782 16.2103C24.6196 16.2063 24.561 16.2447 24.5024 16.2426C24.4438 16.2406 24.3872 16.1618 24.3286 16.1618C24.27 16.1618 24.2134 16.3214 24.1568 16.3214C24.1003 16.3214 24.0396 16.2628 23.981 16.2649C23.9224 16.2669 23.8598 16.184 23.8012 16.1881C23.7426 16.1921 23.6961 16.4124 23.6355 16.4184C23.5749 16.4245 23.5143 16.4184 23.4537 16.4184C23.393 16.4184 23.3243 16.3093 23.2516 16.3134C23.1788 16.3174 23.1425 16.4568 23.0798 16.4609C23.0172 16.4649 22.9566 16.4407 22.8959 16.4447C22.8353 16.4488 22.7646 16.3235 22.6939 16.3275C22.6232 16.3315 22.5848 16.5053 22.5242 16.5094C22.4635 16.5134 22.3847 16.2831 22.3221 16.2871C22.2594 16.2911 22.1221 16.5134 22.0594 16.5195Z" fill="#282828"/>
<path d="M21.7925 35.2288C21.7743 35.2854 21.8308 35.3541 21.8127 35.4086C21.7945 35.4632 21.7621 35.5177 21.746 35.5723C21.7298 35.6268 21.6308 35.6592 21.6126 35.7158C21.5944 35.7723 21.6268 35.8431 21.6126 35.8976C21.5985 35.9522 21.6126 36.0209 21.5944 36.0774C21.5762 36.134 21.5581 36.1886 21.5419 36.2432C21.5257 36.2977 21.4752 36.3462 21.459 36.4028C21.4429 36.4594 21.354 36.4937 21.3378 36.5503C21.3216 36.6069 21.3237 36.6675 21.3055 36.7241C21.2873 36.7807 21.3398 36.8574 21.3237 36.912C21.3075 36.9665 21.3237 37.0352 21.3034 37.0898C21.2832 37.1444 21.1681 37.1706 21.1499 37.2252C21.1317 37.2797 21.2044 37.3666 21.1883 37.4273C21.1721 37.4879 21.1256 37.5303 21.1074 37.5849C21.0893 37.6394 21.0529 37.6899 21.0327 37.7465C21.0125 37.8031 20.9236 37.8314 20.9054 37.888C20.8872 37.9445 20.9741 38.0335 20.9559 38.09C20.9377 38.1466 20.8953 38.1911 20.8771 38.2456C20.8589 38.3002 20.772 38.3325 20.7518 38.3871C20.7316 38.4416 20.7518 38.5123 20.7336 38.5669C20.7154 38.6215 20.7336 38.6881 20.7074 38.7427C20.6811 38.7973 20.675 38.8559 20.6548 38.9124C20.6346 38.969 20.5417 39.0013 20.5255 39.0579C20.5093 39.1145 20.5538 39.1913 20.5376 39.2499C20.5215 39.3085 20.4649 39.3529 20.4487 39.4115C20.4325 39.4701 20.4608 39.5368 20.4487 39.5954C20.4366 39.654 20.4366 39.7146 20.4224 39.7712C20.4083 39.8278 20.3214 39.8722 20.3073 39.9288C20.2931 39.9854 20.3719 40.0683 20.3598 40.1309C20.3477 40.1935 20.2265 40.2238 20.2123 40.2824C20.1982 40.341 20.1719 40.3956 20.1578 40.4522C20.1436 40.5087 20.1577 40.5754 20.1416 40.632C20.1254 40.6886 20.178 40.7674 20.1618 40.824C20.1456 40.8806 20.085 40.927 20.0688 40.9836C20.0527 41.0402 20.0183 41.0927 20.0001 41.1493C19.9819 41.2059 19.9355 41.2523 19.9153 41.3089C19.8951 41.3655 19.9537 41.4524 19.9314 41.511C19.9092 41.5696 19.794 41.5797 19.7678 41.6322C19.7415 41.6848 19.7677 41.7636 19.7374 41.8161C19.7071 41.8686 19.691 41.9475 19.6587 42C19.6001 42 19.5354 41.9232 19.4849 41.9131C19.4338 41.8977 19.3838 41.8788 19.3353 41.8565C19.2843 41.8449 19.2347 41.8273 19.1878 41.804C19.1393 41.7717 19.0403 41.804 19.008 41.7535C18.9784 41.7009 18.9585 41.6434 18.9494 41.5837C18.9353 41.5312 18.9959 41.4726 18.9979 41.416C19.0008 41.3632 19.0103 41.3109 19.0262 41.2604C19.0424 41.2059 18.9716 41.123 18.9898 41.0584C19.008 40.9937 19.006 40.9412 19.0221 40.8846C19.0383 40.828 19.1232 40.7937 19.1393 40.7371C19.1555 40.6805 19.1151 40.6078 19.1393 40.5532C19.1636 40.4986 19.2586 40.4643 19.2747 40.4077C19.2909 40.3511 19.2747 40.2865 19.2747 40.2299C19.2747 40.1733 19.3636 40.1329 19.3798 40.0763C19.396 40.0198 19.3333 39.943 19.3495 39.8864C19.3657 39.8298 19.3495 39.7672 19.3677 39.7106C19.3859 39.654 19.3818 39.5934 19.396 39.5368C19.4101 39.4803 19.4667 39.4358 19.4808 39.3792C19.495 39.3226 19.4808 39.256 19.4808 39.1994C19.4808 39.1428 19.5374 39.0943 19.5516 39.0377C19.5657 38.9811 19.5738 38.9225 19.5899 38.866C19.6061 38.8094 19.5899 38.7467 19.6122 38.6902C19.6344 38.6336 19.6809 38.5891 19.697 38.5325C19.7132 38.476 19.7738 38.4315 19.788 38.375C19.8021 38.3184 19.8021 38.2577 19.8183 38.2032C19.8344 38.1486 19.9072 38.1062 19.9233 38.0496C19.9395 37.993 19.9476 37.9365 19.9638 37.8799C19.9799 37.8233 19.986 37.7647 20.0022 37.7102C20.0183 37.6556 20.0486 37.601 20.0648 37.5465C20.0809 37.4919 20.0648 37.4232 20.081 37.3666C20.0971 37.31 20.1315 37.2616 20.1497 37.205C20.1678 37.1484 20.1881 37.0959 20.2083 37.0413C20.2285 36.9867 20.2689 36.9383 20.2871 36.8837C20.3053 36.8292 20.3032 36.7665 20.3234 36.7119C20.3436 36.6574 20.3032 36.5786 20.3234 36.524C20.3436 36.4695 20.4184 36.4371 20.4406 36.3826C20.4629 36.328 20.4992 36.2795 20.5215 36.227C20.5437 36.1745 20.5881 36.128 20.6104 36.0734C20.6326 36.0189 20.6104 35.9502 20.6366 35.8956C20.6629 35.8411 20.7114 35.8027 20.7357 35.7481C20.7599 35.6935 20.7195 35.6127 20.7357 35.5602C20.7518 35.5076 20.8104 35.4672 20.8367 35.4147C20.863 35.3622 20.8367 35.2672 20.867 35.2126C20.8973 35.1581 21.0266 35.1783 21.0691 35.1358C21.1115 35.0934 21.1014 34.9722 21.1519 34.9338C21.2164 34.9099 21.2856 34.9016 21.354 34.9095C21.418 34.916 21.48 34.9359 21.5358 34.9681C21.5843 34.9924 21.5884 35.0833 21.6409 35.1278C21.6934 35.1722 21.744 35.1762 21.7925 35.2288Z" fill="#282828"/>
<path d="M6.01172 29.2516C6.05504 29.2416 6.09708 29.2267 6.137 29.2071C6.19419 29.1844 6.25016 29.1588 6.3047 29.1303C6.35926 29.1061 6.40574 29.0616 6.4603 29.0353C6.51486 29.0091 6.59165 29.0354 6.64621 29.003C6.70076 28.9707 6.72904 28.8999 6.78562 28.8797C6.84059 28.8564 6.89737 28.8375 6.95537 28.8232C7.01397 28.809 7.07457 28.8454 7.13317 28.8454C7.18947 28.8374 7.24662 28.8374 7.30292 28.8454C7.35748 28.8596 7.44234 28.807 7.50499 28.8454C7.56763 28.8838 7.58582 28.9404 7.63633 28.9808C7.68685 29.0212 7.71311 29.0798 7.75959 29.1283C7.81415 29.1283 7.86869 29.0333 7.92527 29.0232C7.98185 29.0131 8.04044 29.0232 8.09702 29.0091C8.1536 28.9949 8.22231 29.0737 8.27889 29.0636C8.33547 29.0535 8.38195 28.9969 8.43853 28.9868C8.4951 28.9767 8.54561 28.9323 8.60219 28.9222L8.76992 28.8959C8.82649 28.8959 8.88913 28.9101 8.94369 28.8959C8.99825 28.8818 9.06898 28.9505 9.12555 28.9404C9.18213 28.9303 9.23466 28.9 9.28921 28.8899C9.34377 28.8798 9.39025 28.7989 9.44683 28.7888C9.50341 28.7787 9.55189 28.7363 9.60847 28.7262C9.66505 28.7161 9.73982 28.8111 9.79438 28.801C9.84893 28.7909 9.88935 28.6858 9.94593 28.6757C10.0025 28.6656 10.0631 28.6757 10.1197 28.6757C10.1763 28.6757 10.2349 28.6757 10.2895 28.6635C10.344 28.6514 10.4208 28.7161 10.4774 28.7039C10.5339 28.6918 10.5683 28.5665 10.6249 28.5544C10.6814 28.5423 10.7421 28.5544 10.7986 28.5383C10.8552 28.5221 10.93 28.5787 10.9866 28.5666C11.0431 28.5544 11.0876 28.4938 11.1442 28.4797C11.2008 28.4655 11.2492 28.415 11.3058 28.4008C11.3624 28.3867 11.417 28.3625 11.4736 28.3483C11.5301 28.3342 11.6049 28.3988 11.6615 28.3847C11.718 28.3705 11.7605 28.2917 11.8171 28.2776C11.8736 28.2634 11.9403 28.2958 11.9969 28.2776C12.0535 28.2594 12.1141 28.2069 12.1788 28.1948C12.2451 28.1771 12.3126 28.1642 12.3808 28.1564C12.4475 28.1564 12.5061 28.2372 12.5627 28.2594C12.6193 28.2816 12.7082 28.221 12.7526 28.2594C12.7971 28.2978 12.7688 28.411 12.8092 28.4473C12.8496 28.4837 12.8759 28.5302 12.9163 28.5666C12.9567 28.6029 13.0052 28.6029 13.0456 28.6373C13.0113 28.6757 13.0456 28.7423 13.0092 28.7868C12.9729 28.8313 12.9102 28.8474 12.8799 28.8899C12.8446 28.9293 12.8061 28.9658 12.7648 28.999C12.7267 29.0298 12.6802 29.0481 12.6314 29.0515C12.5728 29.0677 12.5384 29.1707 12.4798 29.1849C12.4212 29.199 12.3404 29.1182 12.2778 29.1323C12.2151 29.1465 12.1727 29.2132 12.1161 29.2273C12.0595 29.2415 12.005 29.2819 11.9464 29.296C11.8878 29.3102 11.813 29.2495 11.7443 29.2616C11.6756 29.2738 11.6231 29.2617 11.5645 29.2799C11.5059 29.298 11.4513 29.3203 11.3907 29.3324C11.3301 29.3445 11.2897 29.4375 11.229 29.4476C11.1684 29.4577 11.1078 29.4476 11.0472 29.4476C10.9866 29.4476 10.9179 29.4031 10.8593 29.4132L10.6814 29.4455C10.6249 29.4455 10.5845 29.5546 10.5279 29.5647C10.4713 29.5749 10.4167 29.5991 10.3602 29.6092C10.3036 29.6193 10.2369 29.5587 10.1803 29.5668C10.1238 29.5749 10.0773 29.6436 10.0207 29.6537C9.96411 29.6638 9.89338 29.5829 9.8368 29.591C9.78022 29.5991 9.72972 29.6476 9.67314 29.6557C9.61656 29.6638 9.54988 29.6153 9.4933 29.6234C9.43672 29.6314 9.39226 29.7203 9.33568 29.7284C9.27911 29.7365 9.2286 29.7749 9.17202 29.785C9.11545 29.7951 9.06087 29.8194 9.00429 29.8274C8.94772 29.8355 8.88508 29.8032 8.8285 29.8133C8.77192 29.8234 8.72142 29.8679 8.66484 29.878C8.60826 29.8881 8.54764 29.878 8.48904 29.878C8.43044 29.878 8.37789 29.9022 8.32131 29.9123C8.26473 29.9224 8.21019 29.9507 8.15361 29.9588C8.09703 29.9669 8.03439 29.9345 7.97781 29.9426C7.92123 29.9507 7.85859 29.9103 7.80202 29.9184C7.74544 29.9264 7.69089 29.9527 7.63431 29.9588C7.57773 29.9649 7.51307 29.9143 7.45649 29.9224C7.39991 29.9305 7.34332 29.9446 7.28674 29.9507C7.23016 29.9568 7.17561 29.977 7.11903 29.983C7.06245 29.9891 6.99375 29.983 6.93717 29.983C6.88059 29.983 6.81391 30.0295 6.75935 30.0295C6.69934 30.0244 6.63986 30.0142 6.58153 29.9992C6.52489 29.9905 6.4702 29.9721 6.41989 29.9446C6.36534 29.9184 6.34511 29.8719 6.30268 29.8254C6.25815 29.7884 6.21875 29.7455 6.18549 29.6981C6.15922 29.6516 6.07435 29.6254 6.04808 29.5647C6.02181 29.5041 6.05819 29.4354 6.03394 29.3748C6.0097 29.3142 6.03193 29.3122 6.01172 29.2516Z" fill="#282828"/>
<path d="M31.1684 14.3371C31.1139 14.3028 31.0351 14.3371 31.0007 14.3048C30.9627 14.2545 30.9358 14.1966 30.9219 14.1351C30.913 14.0759 30.9192 14.0154 30.9401 13.9593C30.9401 13.9067 30.9987 13.8684 31.027 13.8178C31.0488 13.7665 31.0752 13.7171 31.1058 13.6703C31.1401 13.6259 31.1684 13.5774 31.2048 13.5329C31.2412 13.4885 31.2492 13.4198 31.2856 13.3773C31.322 13.3349 31.3826 13.3086 31.421 13.2662C31.4594 13.2238 31.5463 13.2238 31.5826 13.1813C31.619 13.1389 31.617 13.0581 31.6534 13.0156C31.6898 12.9732 31.6918 12.8944 31.7282 12.852C31.7645 12.8095 31.8817 12.8338 31.9181 12.7914C31.9545 12.7489 31.9747 12.6883 32.013 12.6438C32.0514 12.5994 32.0838 12.5549 32.1222 12.5125C32.1606 12.4701 32.1868 12.4175 32.2232 12.3751C32.2596 12.3327 32.3323 12.3165 32.3707 12.2741C32.4091 12.2316 32.4111 12.1589 32.4495 12.1164L32.5627 11.9871C32.6011 11.9447 32.6657 11.9265 32.7041 11.8841C32.7425 11.8416 32.7728 11.7911 32.8112 11.7487C32.8496 11.7063 32.8395 11.6214 32.8779 11.579C32.9163 11.5365 32.9769 11.5143 33.0153 11.4719C33.0537 11.4294 33.1083 11.4011 33.1467 11.3587C33.185 11.3163 33.177 11.2314 33.2154 11.191C33.2537 11.1506 33.3022 11.1142 33.3406 11.0718C33.379 11.0293 33.4659 11.0334 33.5043 10.9909C33.5427 10.9485 33.5528 10.8798 33.5932 10.8394C33.6336 10.799 33.6478 10.7363 33.6882 10.6939C33.7286 10.6515 33.767 10.6131 33.8054 10.5707C33.8438 10.5282 33.9044 10.506 33.9428 10.4656C33.9812 10.4252 34.064 10.4231 34.1024 10.3827C34.1408 10.3423 34.1691 10.2878 34.2095 10.2473C34.2499 10.2069 34.2459 10.1241 34.2863 10.0837C34.3267 10.0433 34.3449 9.98263 34.3853 9.94222C34.4257 9.90181 34.5247 9.91798 34.5631 9.87757C34.6015 9.83716 34.5874 9.74218 34.6278 9.70176C34.6682 9.66135 34.7228 9.63509 34.7632 9.59467C34.8036 9.55426 34.8521 9.52395 34.8925 9.48354C34.9329 9.44313 35.0157 9.44312 35.0541 9.40271C35.0925 9.3623 35.0683 9.25723 35.1087 9.21681C35.1491 9.1764 35.1996 9.14811 35.2401 9.10568C35.2805 9.06325 35.3593 9.06324 35.3976 9.0208C35.436 8.97837 35.4623 8.90765 35.5088 8.87128C35.5553 8.83491 35.6038 8.77227 35.6563 8.75004C35.7201 8.72208 35.7887 8.70697 35.8584 8.70558C35.919 8.70558 35.9614 8.78439 36.018 8.82076C36.0746 8.85713 36.1453 8.85309 36.1857 8.91169C36.2261 8.97029 36.2039 9.03091 36.21 9.11376C36.2259 9.17525 36.2354 9.23823 36.2382 9.30168C36.2339 9.36592 36.2231 9.42956 36.2059 9.49162C36.1817 9.55628 36.0988 9.58659 36.0624 9.62297C36.0261 9.65934 36.0321 9.75835 35.9917 9.79876C35.9513 9.83918 35.8462 9.81897 35.8058 9.85938C35.7654 9.89979 35.7149 9.93415 35.6725 9.97456C35.63 10.015 35.6058 10.0715 35.5634 10.112C35.5209 10.1524 35.5209 10.2352 35.4785 10.2756C35.436 10.316 35.3694 10.3302 35.3289 10.3706C35.2885 10.411 35.238 10.4433 35.1956 10.4858C35.1531 10.5282 35.0986 10.5504 35.0562 10.5929C35.0137 10.6353 35.0218 10.7242 34.9814 10.7646C34.941 10.805 34.842 10.7909 34.8016 10.8313C34.7611 10.8717 34.749 10.9445 34.7066 10.9849C34.6642 11.0253 34.6399 11.0819 34.5975 11.1223C34.555 11.1627 34.4762 11.1627 34.4338 11.2031C34.3914 11.2435 34.3409 11.2738 34.2984 11.3163C34.256 11.3587 34.2257 11.4072 34.1833 11.4476C34.1408 11.488 34.1469 11.5769 34.1044 11.6174C34.062 11.6578 34.0074 11.684 33.965 11.7244C33.9226 11.7649 33.8458 11.7669 33.8034 11.8073L33.6801 11.9306C33.6377 11.971 33.6457 12.0639 33.6033 12.1043C33.5609 12.1447 33.5306 12.1953 33.4881 12.2357C33.4457 12.2761 33.3649 12.2761 33.3245 12.3185C33.2841 12.3609 33.2719 12.4317 33.2295 12.4721C33.1871 12.5125 33.0961 12.5024 33.0537 12.5428C33.0113 12.5832 32.991 12.6438 32.9486 12.6843C32.9062 12.7247 32.8314 12.7307 32.789 12.7711C32.7466 12.8116 32.7506 12.8964 32.7082 12.9368C32.6657 12.9772 32.6395 13.0338 32.597 13.0742C32.5546 13.1146 32.5223 13.1652 32.4819 13.2056C32.4414 13.246 32.3727 13.2622 32.3323 13.3026C32.2919 13.343 32.2697 13.4056 32.2272 13.446C32.1848 13.4865 32.1282 13.5127 32.0858 13.5531C32.0434 13.5935 32.007 13.638 31.9646 13.6784C31.9221 13.7188 31.8918 13.7734 31.8514 13.8138C31.811 13.8542 31.7443 13.8724 31.7019 13.9128C31.6595 13.9532 31.5928 13.9653 31.5503 14.0078C31.5079 14.0502 31.4756 14.0987 31.4331 14.1391C31.3907 14.1795 31.3159 14.1876 31.2735 14.228C31.2311 14.2684 31.2109 14.2967 31.1684 14.3371Z" fill="#282828"/>
<path d="M22.477 6C22.5376 6 22.5983 6.03232 22.6508 6.04445C22.7033 6.05657 22.7862 6.0303 22.8347 6.04445C22.8832 6.05859 22.9013 6.16367 22.9438 6.19802C22.9869 6.23164 23.0244 6.27187 23.0549 6.31723C23.0852 6.36371 23.0772 6.41827 23.0933 6.47485C23.1095 6.53143 23.2125 6.56578 23.2186 6.6264C23.2267 6.68536 23.2314 6.74473 23.2327 6.80422C23.2327 6.86282 23.156 6.91737 23.1539 6.97597C23.1519 7.03457 23.1539 7.09115 23.1418 7.14975C23.1297 7.20835 23.1741 7.26695 23.1721 7.32555C23.1701 7.38415 23.1034 7.4387 23.0994 7.4973C23.0953 7.5559 23.1964 7.61854 23.1944 7.67714C23.1923 7.73574 23.164 7.79231 23.162 7.84889C23.16 7.90547 23.1277 7.96609 23.1256 8.02266C23.1236 8.07924 23.0873 8.13986 23.0873 8.19846C23.0873 8.25706 23.1054 8.31567 23.1034 8.37225C23.1014 8.42882 23.1034 8.48944 23.1034 8.54804C23.1034 8.60664 23.1519 8.66322 23.1519 8.72182C23.1519 8.78041 23.1196 8.83901 23.1216 8.89761C23.1236 8.95621 23.0468 9.01886 23.0468 9.07948C23.0468 9.14009 23.1135 9.19868 23.1135 9.2593C23.1135 9.31992 23.1762 9.3765 23.1782 9.43712C23.1802 9.49774 23.065 9.56039 23.0671 9.62101C23.0691 9.68163 23.0994 9.74023 23.1014 9.80085C23.1034 9.86147 23.1014 9.92208 23.1135 9.98068C23.1257 10.0393 23.1358 10.1019 23.1378 10.1605C23.1398 10.2191 23.0933 10.2838 23.0953 10.3444C23.0973 10.405 23.1519 10.4616 23.1539 10.5222C23.156 10.5828 23.1539 10.6414 23.1539 10.7021C23.1539 10.7627 23.1176 10.8233 23.1196 10.8839C23.1216 10.9445 23.1337 11.0031 23.1378 11.0638C23.1418 11.1244 23.2146 11.181 23.2166 11.2416C23.2186 11.3022 23.1863 11.3628 23.1883 11.4234C23.1903 11.484 23.1681 11.5447 23.1701 11.6053C23.1721 11.6659 23.2429 11.7245 23.2449 11.7831C23.2416 11.8395 23.2341 11.8955 23.2226 11.9508C23.2226 12.0054 23.1317 12.0458 23.1196 12.0983C23.1075 12.1509 23.1418 12.2135 23.1196 12.264C23.0974 12.3145 23.1196 12.3994 23.1075 12.4499C23.0452 12.4665 22.9817 12.478 22.9175 12.4843C22.8595 12.4777 22.8025 12.4642 22.7478 12.4439C22.6892 12.4317 22.671 12.3529 22.6265 12.3246C22.5821 12.2964 22.5397 12.2822 22.5094 12.2378C22.479 12.1933 22.3982 12.1711 22.3821 12.1145C22.3572 12.0603 22.3389 12.0033 22.3275 11.9448C22.3275 11.8862 22.4184 11.8235 22.4164 11.7649C22.4144 11.7063 22.3255 11.6477 22.3234 11.5891C22.3214 11.5305 22.3457 11.4699 22.3436 11.4113C22.3416 11.3527 22.3578 11.2921 22.3558 11.2315C22.3538 11.1708 22.4225 11.1123 22.4225 11.0516C22.4225 10.991 22.3154 10.9364 22.3133 10.8778C22.3113 10.8193 22.3315 10.7586 22.3295 10.698C22.3275 10.6374 22.3901 10.5788 22.3901 10.5182C22.3901 10.4576 22.3436 10.401 22.3436 10.3424C22.3436 10.2838 22.3053 10.2232 22.3053 10.1646C22.3053 10.106 22.2931 10.0474 22.2911 9.98675C22.2891 9.92613 22.3618 9.86753 22.3598 9.80691C22.3578 9.74629 22.2972 9.68971 22.2952 9.63111C22.2931 9.57251 22.3315 9.51189 22.3315 9.45127C22.3315 9.39065 22.2891 9.33407 22.2871 9.27547C22.285 9.21687 22.2709 9.15625 22.2709 9.09765C22.2709 9.03906 22.3376 8.97642 22.3356 8.91783C22.3336 8.85923 22.2467 8.80062 22.2467 8.74202C22.2467 8.68342 22.3436 8.62079 22.3416 8.56219C22.3396 8.50359 22.3538 8.44297 22.3517 8.38437C22.3497 8.32577 22.3255 8.26515 22.3234 8.20655C22.3214 8.14795 22.2568 8.08935 22.2547 8.02873C22.2527 7.96811 22.2952 7.90951 22.2952 7.85091C22.2952 7.79231 22.2952 7.73169 22.2952 7.6731C22.2952 7.6145 22.3154 7.55387 22.3154 7.49325C22.3154 7.43263 22.2325 7.37606 22.2305 7.31746C22.2285 7.25886 22.3194 7.19622 22.3174 7.13762C22.3154 7.07902 22.2648 7.02043 22.2628 6.95981C22.2608 6.89919 22.2345 6.8426 22.2345 6.784C22.2345 6.7254 22.2972 6.66277 22.2952 6.60417C22.2931 6.54557 22.3093 6.48495 22.3093 6.42636C22.3093 6.36776 22.2911 6.30714 22.2891 6.24854C22.2871 6.18994 22.2588 6.14548 22.3093 6.09294C22.3598 6.04041 22.4406 6.04648 22.477 6Z" fill="#282828"/>
<path d="M8.89328 12.1529L9.03876 12.256C9.08725 12.2883 9.15594 12.2903 9.20444 12.3227C9.25294 12.355 9.28729 12.4075 9.33377 12.4399C9.38024 12.4722 9.39035 12.5631 9.43884 12.5955C9.48734 12.6278 9.56412 12.6177 9.61059 12.65C9.65707 12.6823 9.69951 12.7268 9.74801 12.7591C9.7965 12.7915 9.8652 12.7915 9.91369 12.8238C9.96219 12.8561 9.97229 12.945 10.0188 12.9774C10.0652 13.0097 10.1481 12.9935 10.1966 13.0279C10.2451 13.0622 10.2875 13.1006 10.334 13.133C10.3805 13.1653 10.4229 13.2097 10.4694 13.2421C10.5158 13.2744 10.5886 13.2744 10.6371 13.3067C10.6856 13.3391 10.6977 13.4219 10.7462 13.4563C10.7947 13.4906 10.8432 13.5169 10.8917 13.5492C10.9402 13.5815 10.9745 13.6341 11.023 13.6664C11.0715 13.6987 11.1625 13.6664 11.211 13.7008C11.2595 13.7351 11.312 13.7573 11.3585 13.7917C11.4049 13.826 11.4231 13.9028 11.4696 13.9372C11.5161 13.9715 11.5626 14.0059 11.611 14.0382C11.6595 14.0705 11.7242 14.0786 11.7727 14.1109C11.8212 14.1433 11.8374 14.2201 11.8859 14.2544C11.9343 14.2888 12.0273 14.2544 12.0738 14.2847C12.1203 14.315 12.1566 14.3696 12.2051 14.4019C12.2536 14.4343 12.286 14.4888 12.3345 14.5232C12.383 14.5575 12.4133 14.6121 12.4597 14.6444C12.5062 14.6767 12.5648 14.699 12.6113 14.7313C12.6578 14.7636 12.7123 14.7899 12.7588 14.8242C12.8053 14.8586 12.876 14.8586 12.9245 14.8929C12.973 14.9273 13.0053 14.9798 13.0518 15.0142C13.0982 15.0485 13.1104 15.1314 13.1589 15.1637C13.2074 15.196 13.2821 15.19 13.3306 15.2223C13.3791 15.2546 13.4519 15.2506 13.4983 15.2849C13.5448 15.3193 13.5388 15.4284 13.5873 15.4628C13.6362 15.4894 13.6773 15.5284 13.7065 15.5759C13.733 15.6293 13.7553 15.6847 13.7732 15.7416C13.7913 15.7982 13.8196 15.8548 13.8378 15.9134C13.856 15.972 13.8378 16.0083 13.8621 16.0609C13.8035 16.0609 13.7812 16.0973 13.7206 16.1094L13.5408 16.1437C13.4799 16.1449 13.4191 16.1409 13.3589 16.1316C13.3041 16.1387 13.2483 16.1288 13.1993 16.1033C13.1488 16.073 13.068 16.0932 13.0174 16.0629C12.9669 16.0326 12.9346 15.978 12.8841 15.9477C12.8336 15.9174 12.7931 15.8709 12.7446 15.8406C12.6961 15.8103 12.6153 15.8265 12.5648 15.7962C12.5143 15.7659 12.4698 15.7255 12.4213 15.6951C12.3728 15.6648 12.3526 15.582 12.3041 15.5517C12.2556 15.5214 12.1849 15.5214 12.1344 15.489C12.0839 15.4567 12.0212 15.4506 11.9728 15.4203L11.8232 15.3274C11.7747 15.2951 11.7363 15.2445 11.6878 15.2122C11.6393 15.1799 11.6171 15.1051 11.5686 15.0748C11.5201 15.0445 11.4595 15.0263 11.411 14.994C11.3625 14.9616 11.2837 14.9778 11.2332 14.9455C11.1827 14.9131 11.1221 14.9051 11.0715 14.8727C11.021 14.8404 11.015 14.7454 10.9665 14.7131C10.918 14.6808 10.8291 14.7131 10.7806 14.6787C10.7321 14.6444 10.6937 14.5979 10.6432 14.5656C10.5927 14.5333 10.5542 14.4908 10.5037 14.4585C10.4532 14.4262 10.4371 14.3474 10.3886 14.315C10.3401 14.2827 10.2451 14.315 10.1865 14.2888C10.1279 14.2625 10.0976 14.21 10.0491 14.1776C10.0006 14.1453 9.98039 14.0705 9.9319 14.0382C9.8834 14.0059 9.81468 13.9998 9.76619 13.9675C9.71769 13.9352 9.65507 13.9251 9.60657 13.8927C9.55808 13.8604 9.50552 13.8321 9.45702 13.7998C9.40853 13.7674 9.3944 13.6846 9.3459 13.6523C9.29741 13.6199 9.22062 13.626 9.17213 13.5937C9.12363 13.5613 9.08928 13.4946 9.04483 13.4583C8.98996 13.428 8.93667 13.395 8.88519 13.3593C8.83901 13.3163 8.79644 13.2697 8.75788 13.2198C8.72353 13.1673 8.75788 13.0865 8.73161 13.0299C8.70535 12.9733 8.63867 12.9188 8.63867 12.8561C8.63867 12.7935 8.72556 12.745 8.73768 12.6823C8.74981 12.6197 8.77406 12.5753 8.79224 12.5126C8.81043 12.45 8.81042 12.3974 8.83467 12.3368C8.85892 12.2762 8.86701 12.2136 8.89328 12.1529Z" fill="#282828"/>
<path d="M30.7849 31.8543C30.8395 31.8866 30.892 31.9109 30.9486 31.9432C31.0052 31.9755 31.0496 32.0261 31.1062 32.0584C31.1628 32.0907 31.2537 32.0584 31.3082 32.1049C31.3628 32.1513 31.3911 32.212 31.4356 32.2584C31.48 32.3049 31.5285 32.3312 31.5689 32.3736C31.6093 32.416 31.6053 32.4969 31.6457 32.5393C31.6861 32.5817 31.7872 32.5676 31.8276 32.61C31.868 32.6525 31.8983 32.703 31.9367 32.7474C31.9751 32.7919 32.0195 32.8303 32.0579 32.8747C32.0963 32.9192 32.0579 33.0222 32.1044 33.0647L32.2196 33.196C32.258 33.2405 32.3347 33.2506 32.3731 33.295C32.4115 33.3395 32.4459 33.386 32.4823 33.4304C32.5186 33.4749 32.5893 33.4951 32.6257 33.5395C32.6621 33.584 32.6803 33.6446 32.7187 33.6891C32.7571 33.7335 32.7348 33.8265 32.7712 33.8709C32.8076 33.9154 32.8864 33.9275 32.9227 33.974C32.9591 34.0204 32.9814 34.075 33.0177 34.1215C33.0541 34.168 33.1228 34.1861 33.1592 34.2326C33.1955 34.2791 33.1733 34.368 33.2077 34.4145C33.242 34.4609 33.3269 34.471 33.3612 34.5175C33.3956 34.564 33.4219 34.6165 33.4562 34.665C33.4906 34.7135 33.5128 34.7681 33.5471 34.8145C33.5815 34.861 33.6502 34.8853 33.6825 34.9318C33.7148 34.9782 33.6967 35.0651 33.729 35.1136C33.7613 35.1621 33.7997 35.2066 33.832 35.2551C33.8644 35.3036 33.8765 35.3642 33.9068 35.4127C33.9371 35.4612 34.0402 35.4652 34.0725 35.5137C34.1048 35.5622 34.1432 35.6067 34.1756 35.6572C34.2079 35.7077 34.1756 35.7865 34.216 35.837C34.2564 35.8875 34.2726 35.938 34.3029 35.9886C34.3332 36.0391 34.3898 36.0714 34.4201 36.1219C34.4504 36.1724 34.4201 36.2492 34.4585 36.2997C34.4969 36.3503 34.5918 36.3604 34.6201 36.4109C34.6484 36.4614 34.6625 36.5321 34.6908 36.5867C34.713 36.6458 34.7305 36.7067 34.7434 36.7685C34.7545 36.8286 34.7545 36.8903 34.7434 36.9504C34.7464 37.0101 34.7331 37.0694 34.705 37.1221C34.6746 37.1753 34.6349 37.2225 34.5878 37.2616C34.5433 37.2959 34.5049 37.3586 34.4524 37.3727C34.394 37.3763 34.3354 37.3708 34.2786 37.3565C34.2241 37.3565 34.1917 37.2777 34.1392 37.2575C34.0866 37.2373 34.02 37.2575 33.9735 37.2333C33.927 37.209 33.8502 37.205 33.8118 37.1646C33.7734 37.1242 33.8118 37.0211 33.7835 36.9746C33.7553 36.9282 33.7108 36.8999 33.6906 36.8473C33.6704 36.7948 33.6401 36.7402 33.6179 36.6857C33.5956 36.6311 33.5593 36.5826 33.535 36.5281C33.5108 36.4735 33.5229 36.4028 33.4987 36.3503C33.4744 36.2977 33.4077 36.2613 33.3814 36.2088C33.3552 36.1563 33.3269 36.1037 33.2986 36.0532C33.2703 36.0027 33.2744 35.932 33.2461 35.8794C33.2178 35.8269 33.1794 35.7804 33.1511 35.7299C33.1228 35.6794 33.0359 35.6612 33.0056 35.6107C32.9753 35.5602 32.9713 35.4935 32.9389 35.443C32.9066 35.3925 32.8925 35.3339 32.8621 35.2834C32.8318 35.2328 32.747 35.2187 32.7146 35.1702C32.6823 35.1217 32.658 35.0651 32.6237 35.0166C32.5893 34.9681 32.6096 34.8833 32.5752 34.8348C32.5409 34.7863 32.4762 34.762 32.4398 34.7155C32.4035 34.6691 32.3469 34.6367 32.3125 34.5903C32.2782 34.5438 32.2438 34.4953 32.2075 34.4488C32.1711 34.4023 32.1549 34.3397 32.1185 34.2932C32.0822 34.2468 32.0923 34.1659 32.0559 34.1195C32.0195 34.073 31.967 34.0386 31.9306 33.9922C31.8943 33.9457 31.8114 33.9356 31.775 33.8911C31.7387 33.8467 31.6801 33.8164 31.6417 33.7719C31.6033 33.7275 31.6295 33.6284 31.5911 33.584C31.5528 33.5395 31.4598 33.5416 31.4214 33.4971C31.383 33.4526 31.3608 33.392 31.3244 33.3476C31.2881 33.3031 31.2577 33.2485 31.2194 33.2021C31.181 33.1556 31.1971 33.0808 31.1648 33.0364C31.1325 32.9919 31.0274 32.998 30.9971 32.9515C30.9668 32.905 30.9526 32.8464 30.9243 32.8C30.8961 32.7535 30.9142 32.6767 30.888 32.6282C30.8617 32.5797 30.8031 32.5494 30.7768 32.5009C30.7505 32.4524 30.698 32.4181 30.6718 32.3696C30.6455 32.3211 30.6111 32.2766 30.5849 32.2281C30.5586 32.1796 30.5849 32.117 30.5586 32.0705C30.601 32.0321 30.599 31.9695 30.6414 31.9331C30.6839 31.8967 30.7425 31.8967 30.7849 31.8543Z" fill="#282828"/>
<path d="M35.1523 23.9071L35.2534 23.8384C35.3059 23.8 35.3282 23.7293 35.3706 23.697C35.413 23.6646 35.4797 23.6363 35.5221 23.604C35.5646 23.5717 35.6131 23.5151 35.6575 23.4888C35.7087 23.4518 35.7662 23.4244 35.8272 23.408C35.8858 23.408 35.9545 23.4929 36.0131 23.4868C36.0717 23.4807 36.1283 23.4646 36.1869 23.4585C36.2455 23.4524 36.2981 23.3898 36.3567 23.3858C36.4153 23.3817 36.4739 23.3393 36.5325 23.3352C36.5911 23.3312 36.6537 23.4423 36.7123 23.4403C36.7709 23.4383 36.8275 23.3251 36.8861 23.3251C36.9447 23.3251 37.0053 23.3858 37.0639 23.3858C37.1225 23.3858 37.1811 23.3858 37.2397 23.3858C37.2983 23.3858 37.3569 23.4221 37.4155 23.4241C37.4741 23.4262 37.5347 23.3453 37.5953 23.3474C37.6559 23.3494 37.7105 23.3959 37.7691 23.3999C37.8277 23.4039 37.8883 23.3817 37.9469 23.3858C38.0055 23.3898 38.0581 23.4646 38.1167 23.4686C38.1753 23.4727 38.2439 23.3696 38.3025 23.3736C38.3611 23.3777 38.4198 23.3979 38.4784 23.4039C38.537 23.41 38.5956 23.404 38.6542 23.4161C38.7128 23.4282 38.7572 23.5434 38.8158 23.5494L38.9896 23.5717C39.0482 23.5717 39.1149 23.5211 39.1735 23.5312C39.232 23.5413 39.2886 23.5515 39.3472 23.5616C39.4058 23.5717 39.4725 23.5313 39.5291 23.5414C39.5857 23.5515 39.6402 23.5898 39.6988 23.5999C39.7574 23.61 39.7978 23.7111 39.8564 23.7232C39.915 23.7353 39.9837 23.6767 40.0423 23.6868C40.1009 23.6969 40.1535 23.7293 40.21 23.7394C40.2666 23.7495 40.3374 23.7111 40.3939 23.7232C40.4505 23.7353 40.4909 23.8344 40.5475 23.8465C40.6041 23.8586 40.6809 23.7939 40.7374 23.8081C40.794 23.8222 40.8486 23.8465 40.9072 23.8586C40.9658 23.8707 41.0163 23.9031 41.0749 23.9172C41.1335 23.9313 41.2022 23.8909 41.2588 23.9051C41.3153 23.9192 41.3537 24.0122 41.4103 24.0263C41.4669 24.0405 41.5275 24.0485 41.5841 24.0627C41.6407 24.0768 41.6467 24.1253 41.6892 24.1799C41.7316 24.2344 41.8407 24.2183 41.873 24.2749C41.9054 24.3314 41.9397 24.3759 41.968 24.4284C41.9963 24.481 41.968 24.5658 41.9902 24.6123C41.9438 24.6386 41.9013 24.6568 41.8549 24.6851C41.8084 24.7133 41.7841 24.778 41.7397 24.8043C41.6952 24.8305 41.6124 24.8043 41.5639 24.8245C41.5154 24.8447 41.5134 24.9699 41.4628 24.9902C41.3952 24.9998 41.3264 24.995 41.2608 24.976C41.2031 24.955 41.1482 24.9271 41.0971 24.8932C41.0446 24.8689 41.0062 24.8123 40.9516 24.7901C40.8971 24.7679 40.8344 24.7659 40.7819 24.7436C40.7293 24.7214 40.6687 24.7133 40.6122 24.6951C40.5556 24.677 40.4869 24.6951 40.4323 24.6951C40.3778 24.6951 40.3313 24.6264 40.2767 24.6103C40.2222 24.5941 40.1878 24.4971 40.1312 24.483C40.0747 24.4688 39.9999 24.5173 39.9433 24.5032C39.8868 24.489 39.816 24.5355 39.7594 24.5234C39.7029 24.5113 39.6746 24.3739 39.616 24.3617C39.5574 24.3496 39.4968 24.3617 39.4382 24.3617L39.2664 24.3355C39.2078 24.3355 39.1472 24.3355 39.0906 24.3355C39.034 24.3355 38.9835 24.2648 38.9249 24.2547C38.8663 24.2446 38.8017 24.2951 38.7451 24.287L38.5713 24.2647C38.5147 24.2647 38.4622 24.2062 38.4036 24.2001C38.345 24.194 38.2864 24.2001 38.2278 24.2001C38.1692 24.2001 38.1045 24.2668 38.048 24.2607C37.9914 24.2546 37.9348 24.2122 37.8782 24.2061C37.8216 24.2001 37.7651 24.1718 37.7065 24.1678C37.6479 24.1637 37.5832 24.2324 37.5266 24.2284C37.47 24.2243 37.4114 24.2041 37.3528 24.2001C37.2942 24.1961 37.2437 24.1091 37.1872 24.1051C37.1306 24.1011 37.0679 24.1455 37.0093 24.1415C36.9507 24.1374 36.8901 24.1678 36.8335 24.1637L36.6598 24.1476C36.6012 24.1476 36.5466 24.1071 36.488 24.1031C36.4294 24.0991 36.3769 24.0223 36.3203 24.0162C36.2637 24.0101 36.2011 24.0304 36.1425 24.0162C36.0839 24.0021 36.0212 24.0768 35.9626 24.0708C35.904 24.0647 35.8434 24.095 35.7868 24.0889C35.7303 24.0829 35.6797 23.9758 35.6211 23.9697C35.5626 23.9637 35.4959 24.0506 35.4373 24.0445C35.3787 24.0384 35.3241 24.0041 35.2655 23.996C35.2069 23.9879 35.2109 23.9131 35.1523 23.9071Z" fill="#282828"/>
</svg>
