<?xml version="1.0" encoding="utf-8"?>
<!-- Generator: Adobe Illustrator 26.0.3, SVG Export Plug-In . SVG Version: 6.00 Build 0)  -->
<svg version="1.1" id="Layer_1" xmlns="http://www.w3.org/2000/svg" xmlns:xlink="http://www.w3.org/1999/xlink" x="0px" y="0px"
	 viewBox="0 0 360 360" style="enable-background:new 0 0 360 360;" xml:space="preserve">
<style type="text/css">
	.st0{fill:#231F20;}
</style>
<path id="path244" class="st0" d="M237.13,207.02l1.29,0.76l-0.7,0.72l-0.02,0.73l0.09,0.75l-0.27,0.73l-0.01,0.73l0.67,0.76
	L237,212.9l0.85,0.77l-0.74,0.72l0.66,0.76l-0.54,0.72l-0.15,0.73l0.9,0.76l-0.4,0.73l-0.13,0.73l0.09,0.73l-0.51,0.75l0.95,0.73
	l-0.67,0.75l-0.21,0.75l0.1,0.73l0.35,0.72l-0.26,0.76l0.47,0.71l-0.31,0.77l0.4,0.71l0.35,0.71l-0.96,0.56l0.84,0.89l-1.17,0.39
	l0.45,0.84l-0.56,0.55l0.15,0.95l-0.97-0.08l-0.75-0.2l-0.69-0.36l-0.23-1.16l-0.72-0.2l-0.74-0.23l-0.79-0.24l-0.39-0.68
	l-0.49-0.59l-0.45-0.6l-0.57-0.57l-0.08-0.8l0.05-0.8l-0.73-0.59l0.48-0.85l0.07-0.73l0.07-0.73l-0.08-0.72l0-0.73l-0.25-0.75
	l0.35-0.73l-1.08-0.76l1.13-0.72l-0.49-0.75l0.46-0.73l-0.36-0.75l-0.44-0.75l0.07-0.73l0.42-0.73l-0.24-0.75l0.48-0.73l0.07-0.73
	l-0.73-0.76l0.24-0.73l0.71-0.72l-0.54-0.75l0.41-0.73l-0.13-0.75l0.15-0.73l-0.01-0.75l-0.94-0.76l1.01-0.71l-0.47-0.76l-0.51-0.73
	l0.85-0.69l-0.05-0.72l-0.05-0.73l-0.2-0.72l0.19-0.72l-0.47-0.73l1.07-0.69l-0.65-0.73l-0.53-0.75l0.03-0.72l0.08-0.72l1.11-0.69
	l-0.9-0.73l0.6-0.71l0.37-0.72l-1.12-0.75l0.54-0.71l0.69-0.71l-0.09-0.72l-0.72-0.75l0.66-0.71l-0.99-0.75l0.31-0.71l0.98-0.69
	l-0.6-0.75l-0.5-0.73l0.07-0.72l0.78-0.69l0.37-0.72l-0.87-0.73l0.68-0.71l-0.13-0.73l-0.21-0.72l0.33-0.72l-0.05-0.72l-0.12-0.72
	l-0.65-0.73l0.39-0.72l-0.05-0.72l-0.49-0.73l1.11-0.71l-0.93-0.73l1.07-0.71l-0.01-0.72l-0.1-0.75l-0.54-0.73l0.35-0.76l-0.75-0.69
	l0.91-0.81l-0.49-0.69l0.45-0.8l-0.38-0.71l-0.93-0.63l-0.21-0.71l0.35-0.8l0.24-0.79l-0.22-0.71l-0.53-0.71l-0.19-0.77l0.87-0.69
	l-0.6-0.81l0.85-0.61l0.2-0.69l-0.46-0.88l0.03-0.77l1.03-0.44l-0.19-0.84l-0.05-0.81l0.18-0.73l1.17-0.2l-0.15-0.95l0.41-0.63
	l1.05,0.09l0.35-0.67l0.71-0.12l0.36-1.04l0.75-0.16l0.84,0.03l0.66,0.61l0.5,0.61l0.8,0.64l-0.73,0.91l0.29,0.76l-0.1,0.73
	l-0.17,0.73l-0.11,0.73l0.33,0.72l0.6,0.73l-0.52,0.73l0.34,0.73l-0.64,0.72l0.08,0.73l-0.14,0.73l0.92,0.72l-0.64,0.73l-0.02,0.73
	l-0.44,0.73l0.75,0.72l0.14,0.73l-0.03,0.73l-0.91,0.72l0.19,0.73l-0.15,0.73l0.96,0.73l-0.22,0.72l-0.3,0.73l0.12,0.73l-0.47,0.72
	l-0.16,0.73l0.16,0.73l0.15,0.73l0.1,0.72l0.05,0.73l0.45,0.73l-0.96,0.72l0.69,0.73l-0.53,0.73l0.35,0.73l0.18,0.72l0.05,0.73
	l-0.74,0.73l0.25,0.73l0.77,0.72l-0.62,0.73l0.1,0.73l0.47,0.72l-0.93,0.73l1.16,0.73l-0.64,0.73l-0.13,0.72l-0.12,0.73l0.8,0.73
	l-1.01,0.72l0.25,0.73l-0.02,0.73l0.47,0.73l-0.63,0.72l0.45,0.73l-0.47,0.73l0.75,0.73l-0.38,0.72l-0.09,0.73l-0.27,0.72l0.71,0.75
	l-0.5,0.72l-0.42,0.73l0.73,0.73l-0.39,0.72l0.77,0.73l-0.04,0.73l-1.05,0.72l-0.09,0.73l0.5,0.73l0.14,0.73l0.19,0.72l-0.36,0.73
	l-0.49,0.72L237.13,207.02z M232.91,242.17l0.49,1.41l-1,0.09l-0.49,0.55l-0.41,0.63l-0.68,0.37l-0.49,0.55l-0.01,1.03l-1.33-0.31
	l0.08,1.15l-1.02-0.04l-0.11,1l-0.9,0.07l-0.66,0.32l-0.08,1.17l-0.84,0.08l-0.7,0.28l-0.6,0.43l-0.88-0.13l-0.85,1.08l0.57-1.13
	l0.34-0.69l0.05-0.73l-0.16-0.77l0.45-0.65l-0.23-0.8l0.55-0.61l-0.11-0.8l-0.1-0.8l1.07-0.41l-0.7-1.05l1.22-0.31l-0.32-0.92
	l0.67-0.51l-0.09-0.85l0.19-0.75l0.29-0.69l0.41-0.63l1.17-0.13l0.23-0.72l0.22-0.73l0.17-0.79l0.66-0.49l0.8,0.03l0.74,0.12
	l0.8,0.07l0.54,0.6l0.34,0.71l0.9,0.23l-0.16,0.95l0.14,0.69l0.11,0.68l0.19,0.61l0.02,0.65l0.15,0.69L232.91,242.17z
	 M214.91,251.54l0.36,1.28l-0.92-0.31l-0.63-0.28l-0.47-0.56l0.21-0.73l0.04-0.73l-0.67-0.76l1.19-0.69l-0.85-0.77l0.75-0.71
	l-0.65-0.76l0.55-0.72l0.17-0.72l-0.88-0.79l0.42-0.72l0.15-0.73l-0.06-0.73l0.54-0.72l-0.91-0.79l0.72-0.69l0.27-0.72l-0.03-0.75
	l-0.27-0.75l0.34-0.72l-0.37-0.76l0.41-0.72l-0.29-0.76l-0.3-0.75l0.92-0.69l-0.97-0.8l1.07-0.67l-0.61-0.77l0.45-0.72l-0.41-0.76
	l-0.15-0.73l-0.06-0.73l0.07-0.72l0.94-0.69l-0.18-0.73l-0.23-0.73l-0.31-0.73l0.23-0.72l0.02-0.72l-0.01-0.73l-0.2-0.73l0.27-0.71
	l0.33-0.72l-0.54-0.75l0.65-0.71l0.17-0.72l0.13-0.72l-0.05-0.72l0.01-0.73l-0.24-0.73l0.36-0.71l-1.07-0.76l1.14-0.69l-0.48-0.75
	l0.46-0.71l-0.35-0.73l-0.44-0.73l0.07-0.73l0.42-0.71l-0.23-0.73l0.48-0.71l0.08-0.73l-0.73-0.75l0.25-0.72l0.71-0.69l-0.54-0.75
	l0.42-0.71l-0.13-0.73l0.16-0.72l0-0.73l-0.93-0.75l1.01-0.69l-0.46-0.75l-0.51-0.73l0.86-0.71l-0.05-0.72l-0.04-0.73l-0.19-0.73
	l0.19-0.72l-0.46-0.73l1.08-0.69l-0.65-0.75l-0.52-0.75l0.04-0.72l0.09-0.73l1.12-0.68l-0.89-0.76l0.61-0.69l0.38-0.72l-1.1-0.79
	l0.56-0.71l0.71-0.69l-0.06-0.75l-0.67-0.8l0.71-0.67l-0.93-0.85l0.38-0.69l1.05-0.61l-0.51-0.81l-0.4-0.81l0.17-0.72l0.88-0.6
	l0.48-0.65l-0.74-0.89l0.8-0.59l0.01-0.76l-0.06-0.76l0.47-0.65l0.11-0.72l0.05-0.76l-0.46-0.88l0.56-0.61l0.14-0.73l-0.27-0.85
	l1.26-0.39l-0.69-0.99l1.22-0.43l0.14-0.73l0.04-0.75l-0.4-0.8l0.49-0.67l-0.58-0.83l1.08-0.55l-0.26-0.79l0.72-0.52l0.08-0.72
	l0.02-1.15l0.81-0.51l0.93,0.32l0.65,0.33l0.24,0.52l0.67,0.55l0.38,0.65l-0.6,0.93l0.86,0.52l-0.54,0.88l0.12,0.72l0.81,0.56
	l0.33,0.68l-0.7,0.88l0.56,0.64l0.43,0.67l0.21,0.72l-0.86,0.83l0.72,0.65l0.14,0.72l-0.73,0.77l0.36,0.71l-0.21,0.73l0.85,0.72
	l-0.05,0.73l-0.15,0.72l-0.23,0.72l-0.07,0.73l0.47,0.77l-0.9,0.64l0.19,0.75l-0.19,0.71l-0.26,0.69l-0.19,0.71l0.26,0.75l0.52,0.77
	l-0.58,0.67l0.28,0.75l-0.7,0.67l0.03,0.73l-0.19,0.71l0.88,0.77l-0.68,0.68l-0.05,0.72l-0.47,0.71l0.71,0.75l0.11,0.72l-0.05,0.72
	l-0.93,0.69l0.17,0.72l-0.16,0.72l0.94,0.75l-0.24,0.71l-0.31,0.72l0.11,0.72l-0.49,0.71l-0.17,0.72l0.14,0.72l0.13,0.72l0.08,0.72
	l0.03,0.72l0.43,0.73l-0.98,0.69l0.67,0.75l-0.55,0.69l0.32,0.73l0.15,0.73l0.02,0.72l-0.77,0.68l0.21,0.73l0.73,0.76l-0.67,0.68
	l0.06,0.75l0.44,0.75l-0.96,0.71l1.14,0.77l-0.65,0.72l-0.13,0.73l-0.12,0.73l0.81,0.73l-1,0.75l0.27,0.73V216l0.49,0.72l-0.61,0.75
	l0.48,0.73l-0.45,0.75l0.77,0.72l-0.35,0.75l-0.07,0.73l-0.25,0.75l0.73,0.72l-0.48,0.75l-0.41,0.73l0.74,0.73l-0.39,0.73l0.77,0.73
	l-0.03,0.73l-1.05,0.73l-0.11,0.71l0.45,0.76l0.05,0.75l0.03,0.77l-0.56,0.6l-0.72,0.51l0.07,0.83l-0.5,0.6l0.11,0.83l-0.51,0.6
	l-0.45,0.6l0.56,1.03l-1.2,0.31l0.08,0.83l0.03,0.81l-0.43,0.63l-0.46,0.6l-0.31,0.67l-0.47,0.61l0.37,0.95l-0.59,0.55l-0.6,0.56
	l-0.12,0.75l0.47,1l-0.32,0.65l-0.3,0.68l-0.51,0.59l-0.11,0.75l-0.18,0.73l-0.42,0.61l-0.54,0.57l-0.54,0.57l0.3,0.93l-0.83,0.44
	L214.91,251.54z M211.78,171.06l1.18,0.91l-0.79,0.63l-0.1,0.72l0.02,0.73l-0.34,0.68l-0.07,0.72l0.61,0.8l-1.23,0.6l0.8,0.81
	l-0.78,0.64l0.61,0.8l-0.59,0.67l-0.2,0.71l0.85,0.81l-0.45,0.68l-0.17,0.72l0.04,0.72l-0.56,0.69l0.89,0.79l-0.73,0.68l-0.28,0.71
	l0.03,0.73l0.27,0.73l-0.34,0.71l0.37,0.75l-0.41,0.71l0.29,0.75l0.31,0.73l-0.91,0.68l0.99,0.77l-1.05,0.68l0.63,0.75l-0.43,0.72
	l0.43,0.73l0.15,0.73l0.06,0.72l-0.07,0.72l-0.94,0.71l0.18,0.72l0.23,0.73l0.31,0.73l-0.22,0.72l-0.02,0.72l0.01,0.73l0.21,0.72
	l-0.27,0.72l-0.33,0.72l0.55,0.73l-0.64,0.72l-0.16,0.72l-0.12,0.73l0.06,0.75l-0.01,0.73l0.25,0.75l-0.35,0.73l1.09,0.76
	l-1.13,0.72l0.49,0.75l-0.45,0.73l0.36,0.75l0.45,0.75l-0.06,0.73l-0.41,0.73l0.24,0.75l-0.47,0.73l-0.07,0.73l0.73,0.76l-0.24,0.73
	l-0.71,0.72l0.54,0.76l-0.42,0.72l0.12,0.75l-0.16,0.73l0,0.73l0.92,0.79l-1.02,0.69l0.44,0.76l0.48,0.77l-0.88,0.68l0.02,0.73v0.75
	l0.15,0.75l-0.24,0.72l0.41,0.79l-1.13,0.63l0.59,0.81l0.46,0.79l-0.09,0.73l-0.15,0.73l-1.17,0.6l0.83,0.84l-0.66,0.67l-0.43,0.69
	l1.04,0.87l-0.6,0.65l-0.74,0.63l0.03,0.73l0.65,0.79l-0.72,0.64l0.92,0.83l-0.38,0.67l-1.04,0.6l0.53,0.79l0.43,0.76l-0.14,0.71
	l-0.85,0.63l-0.44,0.65l0.8,0.81l-0.75,0.64l0.06,0.72l0.13,0.73l-0.4,0.68l-0.03,0.72l0.05,0.73l0.57,0.79l-0.46,0.67l-0.07,0.83
	l-0.76,0.63l-0.84-1.01l-0.61,1.03l-0.84-0.97l-0.71,0.09l-0.7,0.16l-0.68,0.56l-0.73-0.36l-0.74,0.71l-0.72-0.97l-0.75,0.39
	l-0.71-0.56l-0.75,0.25l-0.8,0.8l-0.75,0.04l-0.7-0.55l-0.69-0.44l-0.74,0.03l-0.8,0.37l-0.76,0.08l-0.6-0.95l-0.84,0.57l-0.6-0.87
	l-0.71-0.17l-0.86,0.51l-0.76,0.03l-0.54-0.99l-0.82,0.28l-0.8,0.13l-0.75-0.07l-0.47-1.11l-0.88,0.44l-0.74-0.12l-0.5-0.95
	l-0.8,0.12l-0.66-0.41l-0.92,0.64l-0.7-0.23l-0.69-0.29l-0.68-0.35l-0.72-0.17l-0.83,0.37l-0.56-0.96l-0.78,0.15l-0.71-0.23
	l-0.7-0.29l-0.71-0.23l-0.78,0.21l-0.81,0.48l-0.66-0.61l-0.77,0.25l-0.65-0.73h-0.75l-0.72-0.21l-0.83,0.84l-0.67-0.69l-0.73-0.08
	l-0.71-0.49l-0.79,0.69l-0.74,0.09l-0.73-0.08l-0.69-0.95l-0.75,0.15l-0.72-0.2l-0.81,0.91l-0.72-0.29l-0.71-0.36l-0.75,0.05
	l-0.69-0.55l-0.71-0.23l-0.75,0.08l-0.75,0.05l-0.74,0.01l-0.74-0.04l-0.79,0.36l-0.61-1.04l-0.82,0.59l-0.66-0.61l-0.78,0.24
	l-0.76,0.08l-0.74-0.05l-0.63-0.83l-0.76,0.13l-0.84,0.67l-0.65-0.72h-0.74l-0.79,0.37l-0.61-1.03l-0.89,1.05l-0.63-0.77l-0.67-0.32
	l-0.65-0.35l-0.97,0.48l-0.32-1.2l-0.78-0.03l-0.7-0.24l-0.84,0.24l-0.52-0.81l-0.83,0.24l-0.58-0.65l-0.9,0.53l-0.62-0.53
	l-0.7-0.24l-0.68-0.4l-0.85,0.57l-0.62-0.63l-0.6-0.57l-0.9,0.51l-0.56-0.61l-0.98,0.43l-0.68-0.39l-0.05-1.27l-0.46-0.49
	l-0.83-0.15l-0.54-0.52l-0.51-0.57l0.07-0.81l0.29-0.79l-0.47-0.63l0.17-0.73l-0.45-0.69l0.25-0.73l0.22-0.71l-0.87-0.77l1.03-0.68
	l-0.35-0.75l-0.3-0.75l0.19-0.72l0.23-0.71l0.06-0.73l0.24-0.72l-0.67-0.76l0.37-0.71l0.37-0.71l-0.14-0.75l-0.78-0.76l0.07-0.73
	l0.05-0.72l0.28-0.72l-0.16-0.73l-0.09-0.73l0.18-0.72l0.31-0.71l0.31-0.72l-0.61-0.76l0.63-0.69l0.18-0.72l-0.55-0.76l0.73-0.69
	l-0.68-0.76l-0.17-0.73l0.1-0.73l0.89-0.68l-0.03-0.73l0.4-0.71l-0.92-0.77l0.06-0.73l1.04-0.67l0.04-0.73l-0.03-0.73l0.05-0.72
	v-0.73l-0.08-0.73l-0.14-0.73l-0.59-0.76l0.57-0.69l-0.43-0.76l0.52-0.69l0.21-0.72l-0.39-0.75l0.07-0.73l0.63-0.69l-0.14-0.73
	l-0.02-0.73l-0.44-0.75l0.67-0.71l0.21-0.71l-0.67-0.77l-0.3-0.73l-0.02-0.73l0.77-0.69l-0.11-0.73l-0.75-0.76l0.07-0.73l0.11-0.72
	l1.23-0.67l-0.91-0.77l0.41-0.71l0.46-0.71l-0.36-0.75l0.06-0.75l-0.43-0.76l0.84-0.69l0.18-0.73l-0.92-0.79l1.06-0.68l-1.08-0.8
	l0.96-0.68l-0.12-0.75l-0.38-0.76l0.59-0.71l-0.19-0.76l-0.37-0.76l0.49-0.71l-0.21-0.75l0.19-0.73l-0.14-0.75l-0.57-0.76l1.14-0.69
	l-0.22-0.75l0.31-0.73l0.14-0.73l-0.25-0.75l-0.04-0.75l-0.02-0.73l-0.65-0.76l0.22-0.73l-0.29-0.75l0.18-0.73l0.38-0.73l-0.16-0.73
	l0.02-0.73l0.49-0.75l-0.02-0.73l-0.8-0.73l1.09-0.75l-0.38-0.75l0.02-0.73l0.19-0.75l-0.37-0.73l0.21-0.73l-0.63-0.73l0.85-0.75
	l-0.67-0.71l0.25-0.71l0.42-0.71l-0.56-0.72l0.54-0.63l-0.48-0.84l0.25-0.69l1.08-0.23l-0.53-1.2l0.52-0.56l0.97,0.12l0.59-0.21
	l0.79-0.52l0.68,0.37l0.53,0.73l0.54,0.52l0.67,0.16l0.73,0.05l0.74,0.08l0.62,0.33l0.78,0.03l0.16,1.2l1.02-0.43l0.61,0.39
	l0.53,0.53l0.75,0.12l0.59,0.4l0.78-0.29l0.6,1.08l0.7-1.04l0.76,0.95l0.73-0.4l0.73,0.55l0.74-0.45l0.75-0.35l0.74-0.01l0.74,0.08
	l0.7,0.48l0.73,0.13l0.76-0.24l0.75-0.07l0.76-0.16l0.6,1.09l0.86-0.84l0.69,0.41l0.77-0.12l0.63,0.71l0.77-0.16l0.63,0.63
	l0.83-0.43l0.7,0.27l0.67,0.41l0.82-0.35l0.73,0.09l0.78-0.13l0.66,0.44l0.51,1.13l0.92-0.8l0.69,0.27l0.77-0.08l0.54,1l0.73,0.09
	l0.82-0.32l0.82-0.33l0.5,1.23l0.91-0.79l0.57,0.91l0.7,0.27l0.93-0.95l0.67,0.39l0.6,0.81l0.84-0.55l0.74,0.01l0.65,0.63l0.83-0.53
	l0.72,0.16l0.69,0.33l0.76-0.11l0.58,1.15l0.85-0.73l0.77-0.23l0.61,1l0.74,0.03l0.72,0.19l0.74,0.04l0.74,0.07l0.75-0.01l0.76-0.15
	l0.75-0.05l0.74-0.01l0.61,1.07l0.88-1.08l0.59,1.23l0.85-0.87l0.67,0.57l0.8-0.49l0.62,1.03l0.82-0.6l0.65,0.79l0.72,0.24
	l0.83-0.67l0.71,0.25l0.75-0.07l0.7,0.37l0.75-0.07l0.79-0.4l0.68,0.57l0.73,0.11l0.71,0.31l0.7,0.4l0.83-0.81l0.64,1l0.83-0.87
	l0.65,0.85l0.76-0.19l0.69,0.48l0.78-0.32l0.75-0.11l0.72,0.17l0.77-0.03l0.5,0.81l0.79-0.04l0.44,0.76l0.6,0.36l0.97-0.19
	l0.35,0.76l0.92,0.01l0.79,0.24l-0.1,1.01l0.36,0.63l0.28,0.73l-0.35,0.75l-0.05,0.75l-0.33,0.73l1.06,0.76l-0.76,0.71
	L211.78,171.06z M180.96,151.72l-0.07,1.27l-0.91-0.51l-0.75,0.12l-0.74,0.17l-0.75-0.23l-0.74-0.03l-0.84,0.61l-0.54-1.27
	l-0.92,0.69l-0.53-0.89l-0.93,0.41l-0.53-0.75l-0.46-0.25l-0.84-0.51l0.41-0.73l0.16-0.72l-0.03-0.73l0.59-0.65l-0.81-0.88
	l0.83-0.57l0.41-0.63l0.16-0.69l-0.02-0.79l0.58-0.51l0-0.84l0.71-0.39l0.19-0.77l0.25-0.77l1.13,0.12l-0.1-1.24l1.2,0.37l0.24-0.95
	h0.7l0.71,0.21l0.6,0.49l0.51,0.57l0.37,0.67l-0.44,1.09l0.5,0.56l0.51,0.59l0.56,0.6l0.01,0.77l0.17,0.73l0.16,0.73l0.32,0.72
	l-0.19,0.76l-0.28,0.76l0.56,0.73l-0.65,0.72l-0.2,0.72l-0.19,0.72L180.96,151.72z M135.7,139.69l-0.01-1.49l0.99,0.23l0.64-0.36
	l0.58-0.47l0.76-0.16l0.63-0.37l0.29-0.99l1.21,0.64l0.2-1.13l0.99,0.25l0.3-0.96l0.9,0.08l0.71-0.24l0.19-1.17l0.83-0.03l0.7-0.25
	l0.59-0.45l0.89,0.08l0.18-1.19l0.98,0.24l0.76-0.16l0.61-0.43l0.49-0.63l0.79-0.09l0.45-0.72l0.83-0.04l0.49-0.64l0.48-0.65
	l1.06,0.44l0.23-1.24l1.08,0.65l0.45-0.88l0.83,0.15l0.59-0.64l0.69-0.33l0.73-0.24l0.75-0.08l0.84,0.83l0.71-0.25l0.72-0.29
	l0.74-0.33l0.74,0.21l0.74,0.04l0.74,0.03l0.76-0.15l0.71,0.35l0.68,0.41l0.82-0.43l0.63,0.73l0.71,0.27l0.71,0.21l0.74,0.04
	l0.73,0.09l0.77-0.15l0.68,0.44l0.89-0.97l0.57,1.21l0.8-0.4l0.67,0.55l0.78-0.27l0.79-0.36l0.72,0.15l0.67,0.51l0.76-0.16
	l0.67,0.56l0.72,0.16l0.83-0.64l0.7,0.32l0.63,0.79l0.81-0.45l0.67,0.49l0.75-0.05l0.71,0.24l0.73,0.08l0.87-0.83l0.57,1.09
	l0.81-0.36l0.83-0.39l0.56,0.97l0.73,0.08l0.73,0.11l0.75-0.03l0.66,0.35l0.82-0.31l0.44,1.2l0.87-0.48l0.83-0.35l0.7,0.19
	l0.69,0.24l0.43,1.24l0.93-0.72l0.56,0.75l0.61,0.52l0.98-0.92l0.57,0.68l0.54,0.83l0.73,0.07l0.88-0.53l0.54,0.79l0.95-0.8
	l0.63,0.47l0.46,1.12l0.85-0.43l0.83-0.32l0.69,0.23l0.51,0.93l0.61,0.52l0.92-0.69l0.54,0.83l0.74,0.04l0.76-0.04l0.62,0.49
	l0.72,0.12l0.74,0.04l0.87-0.45l0.61,0.53l0.72,0.12l0.83-0.29l0.43,1.24l0.93-0.73l0.44,1.21l0.71,0.16l0.73,0.08l0.83-0.32
	l0.61,0.55l0.88-0.51l0.46,1.12l0.81-0.23l0.57,0.69l0.77-0.11l0.91-0.63l0.73,0.08l0.58,0.64l0.61,0.55l0.65,0.11l0.83-0.12
	l0.7,0.21l0.11,1.07l0.95-0.19l0.17,0.99l0.38,0.09l0.14,0.73l-0.3,0.73l-1.14,0.13l-0.14,0.87l-0.39,0.77l-0.53,0.53l-1.15-0.35
	l-0.23,0.96l-0.56,0.49l-1.05-0.21l-0.42,0.68l-0.74,0.24l-0.13,1.11l-0.63,0.39l-0.68,0.31l-0.71,0.27l-0.62,0.4l-0.3,0.85
	l-1.08-0.25l-0.44,0.65l-0.66,0.35l-0.7,0.29l-0.66,0.35l-0.4,0.71l-0.23,0.92h-0.92l-0.47,0.68l-0.95-0.24l-0.64,0.35l-0.73,0.08
	l-0.54,1.05l-0.84-0.53l-0.74,0.01l-0.7-0.47l-0.79,0.69l-0.75,0.08l-0.74-0.08l-0.67-0.97l-0.76,0.13l-0.73-0.2l-0.82,0.89
	l-0.72-0.28l-0.72-0.36l-0.75,0.07l-0.7-0.53l-0.73-0.23l-0.75,0.09l-0.75,0.08l-0.75,0.04l-0.74-0.01l-0.78,0.37l-0.65-1.01
	l-0.8,0.63l-0.69-0.6l-0.77,0.28l-0.75,0.12l-0.74-0.01l-0.67-0.8l-0.76,0.17l-0.8,0.71l-0.68-0.68l-0.74,0.04l-0.89,0.37
	l-0.03-1.25l-1.35,0.28l-0.01-0.99l-0.33-0.67l-0.28-0.68l-1.06-0.27l0.61-1.09l-0.5-0.57l-0.23-0.69l-0.68-0.56l0.38-0.88
	l-0.66-0.57l0.23-0.84l-0.94-0.49l0.14-0.81l-0.14-0.73l0.04-0.79l-0.91-0.48l0.24-0.85l0.16-0.84l-0.94-0.45l0.12-0.83l-0.98-0.43
	l-0.22-0.71l0.7-1.07l-0.2-0.72l-0.77-0.49l-0.49-0.57l-0.57-0.49l-0.21-0.77l-0.26-0.89l-0.87-0.15l-0.62-0.55l-0.86,0.2
	l-0.75-0.31l-0.81-0.13l-0.53,1.04l-1.04-0.67l-0.53,0.69l-0.46,0.68l-0.69,0.31l-0.7,0.32l-0.58,0.47l-0.69,0.37l-0.02,1.03
	l-0.74,0.32l-0.74,0.35l-0.33,0.69l0.23,1.08l-0.43,0.57l-0.38,0.6l-0.57,0.51l-0.15,0.73l-0.18,0.71l-0.4,0.61l-0.5,0.59
	l-0.48,0.59l0.4,0.87l-0.79,0.49l-0.39,0.6l0.23,0.91l-0.96,0.27l0.17,1.01l-0.35,0.71l-0.62,0.48l-1.02-0.29l-0.66,0.01l-0.71-0.43
	l-0.81,0.91l-0.73-0.08l-0.64-1.08l-0.73-0.07l-0.73-0.01l-0.73-0.09l-0.73-0.04l-0.74,0.01l-0.75,0.08l-0.82,0.52l-0.65-0.64
	l-0.8,0.36l-0.65-0.6l-0.69-0.29l-0.8,0.29l-0.72-0.16l-0.61-0.72l-0.75,0.04l-0.73-0.09l-0.82,0.31l-0.58-0.77l-0.68-0.33
	l-0.87,0.52l-0.79,0.16l-0.73-0.12l-0.54-0.89l-0.75-0.04l-0.91,0.59l-0.71-0.23l-0.69-0.27l-0.39-1.35l-0.97,0.71l-0.6-0.57
	l-0.58-0.61l-0.82,0.16l-0.69-0.24l-0.85,0.23l-0.45-0.99l-0.65-0.37l-1,0.68l-0.36-1.21l-1.28,0.65l0.8-1.03l-0.02-0.69l0.01-0.85
	l0.92-0.15l0.49-0.6L135.7,139.69z M193.85,111.08l-1.09-1.01l0.88-0.53l0.25-0.69l0.17-0.72l0.53-0.56l0.32-0.67l-0.24-0.99
	l1.37-0.03l-0.33-1.09l1-0.19l-0.11-1l0.86-0.27l0.56-0.39l0.18-1.17l0.91,0.16l0.75,0.16l0.74,0.17l0.24,0.83l1.2,0.07l-0.32,0.99
	l-0.01,0.77l0.28,0.68l0.5,0.63l-0.09,0.79l0.59,0.61l-0.17,0.8l0.5,0.64l0.51,0.64l-0.69,0.92l1.16,0.49l-0.84,0.93l0.8,0.59
	l-0.25,0.8l0.58,0.64l0.3,0.71l0.21,0.72l0.07,0.73l-0.8,0.87l0.3,0.69l0.34,0.71l0.41,0.69l-0.13,0.76l0.07,0.73l0.09,0.73
	l0.27,0.73l-0.21,0.75l-0.28,0.75l0.53,0.79l-0.76,0.6l-0.41,0.56l-0.47,0.43l-0.44,0.44l-0.58,0.27l-0.62,0.37l-0.68-0.33
	l-0.91,0.96l-0.42-1.25l-0.8,0.31l-0.56-0.61l-0.77,0.17l-0.8,0.24l-0.66-0.25l-0.55-0.59l-0.74,0.04l-0.53-0.65l-0.65-0.27
	l-0.89,0.52l-0.7-0.48l0.52-0.92l-0.66-0.64l0.3-0.77l-0.23-0.71l0.07-0.73l-0.08-0.73l-0.99-0.69l0.97-0.76l-0.49-0.73l-0.52-0.75
	l0.86-0.71l-0.03-0.73l0-0.73l-0.14-0.76l0.26-0.71l-0.37-0.8l1.16-0.55l-0.52-0.84L193.85,111.08z M243.57,232.12l-1.32-0.69
	l0.67-0.75l-0.02-0.72l-0.13-0.72l0.23-0.73l-0.04-0.72l-0.72-0.69l1.13-0.76l-0.9-0.69l0.69-0.75l-0.71-0.71l0.5-0.73l0.11-0.73
	l-0.93-0.69l0.37-0.73l0.1-0.73l-0.11-0.72l0.49-0.72l-0.95-0.72l0.68-0.73l0.23-0.72l-0.08-0.72l-0.31-0.72l0.3-0.73l-0.41-0.72
	l0.37-0.72l-0.32-0.72l-0.33-0.73l0.89-0.71l-1.01-0.75l1.04-0.71l-0.65-0.73l0.42-0.71l-0.43-0.73l-0.15-0.73l-0.06-0.73l0.07-0.72
	l0.95-0.68l-0.17-0.73l-0.21-0.73l-0.29-0.75l0.25-0.71l0.04-0.72l0.02-0.72l-0.17-0.75l0.31-0.71l0.37-0.69l-0.5-0.77l0.68-0.69
	l0.2-0.73l0.16-0.73l-0.03-0.75l0.03-0.73l-0.23-0.76l0.36-0.72l-1.07-0.77l1.14-0.72l-0.49-0.75l0.45-0.73l-0.37-0.75l-0.46-0.73
	l0.04-0.73l0.39-0.75l-0.27-0.73l0.44-0.75l0.03-0.75l-0.78-0.71l0.19-0.75l0.65-0.77l-0.61-0.71l0.34-0.77l-0.21-0.72l0.07-0.75
	l-0.1-0.75l-1.02-0.61l0.92-0.81l-0.55-0.68l-0.59-0.68l0.78-0.79l-0.12-0.71l-0.1-0.72l-0.25-0.71l0.14-0.73l-0.52-0.71l1.03-0.75
	l-0.69-0.71l-0.56-0.71l0-0.73l0.06-0.72l1.1-0.72l-0.92-0.73l0.59-0.71l0.37-0.72l-1.12-0.75l0.54-0.71l0.69-0.69l-0.08-0.73
	l-0.7-0.75l0.68-0.69l-0.97-0.77l0.34-0.71l1.01-0.65l-0.56-0.76l-0.45-0.76l0.12-0.72l0.83-0.65l0.42-0.68l-0.82-0.8l0.74-0.65
	l-0.07-0.73l-0.14-0.73l0.4-0.68l0.03-0.72l-0.05-0.73l-0.57-0.8l0.46-0.67l0-0.71l-0.45-0.73l1.11-0.68l-0.95-0.71l1.03-0.76
	l-0.07-0.72l-0.17-0.72l-0.62-0.64l0.25-0.77l-0.84-0.55l0.76-0.92l-0.63-0.64l-0.6-0.79l-0.83,0.04l-0.97,0.6l-0.78-0.13
	l-0.57-0.73l-0.49-0.68l-0.62-0.36l-0.85-0.19l-0.65-0.29l-0.14-1.09l-0.97,0.28l-0.39-0.97l-0.71-0.27l-0.88,0.45l-0.74,0.03
	l-0.55-0.97l-0.8,0.31l-0.79,0.17l-0.75-0.04l-0.54-1.08l-0.85,0.49l-0.74-0.05l-0.58-0.91l-0.79,0.17l-0.68-0.37l-0.89,0.68
	l-0.72-0.19l-0.7-0.28l-0.69-0.35l-0.72-0.19l-0.85,0.36l-0.53-0.99l-0.79,0.09l-0.69-0.28l-0.67-0.37l-0.67-0.31l-0.81,0.09
	l-0.9,0.33l-0.53-0.75l-0.82,0.07l-0.45-0.88l-0.71-0.21l-0.62-0.43l-1.07,0.52l-0.39-0.92l-0.14-0.73l0.27-0.81l-0.88-0.57
	l-0.29-0.69l-0.13-0.73l0.74-0.92l-0.34-0.68l-0.01-0.76l-1.09-0.52l0.07-0.77l0.15-0.79l-0.26-0.69l0.33-0.81l0.02-0.76l-0.28-0.69
	l-0.27-0.71l-0.22-0.71l-0.17-0.72l-0.57-0.65l0.83-0.89l-0.81-0.61l0.4-0.81l-0.47-0.68l-0.31-0.69l-0.17-0.72l0.6-0.85l-0.38-0.69
	l-0.9-0.59l0.47-0.84l-0.25-0.71l-0.61-0.61l0.75-0.93l-1.3-0.45l0.44-0.87l-0.07-0.75l-0.09-0.75l-0.99-0.45l0.71-1.03l-0.51-0.6
	l-0.28-0.69l-0.75-0.45l0.15-0.96l-0.81-0.33l-0.16-0.88l-1.05,0.08l-0.39-0.72l-0.63-0.4l-0.65-0.49l-0.85,0.57l-0.71-0.52
	l-0.82-0.33l-0.59,0.88l-0.83-0.13l-0.35,1l-0.63,0.29l-1.19-0.47l-0.67,0.4l-0.25,0.87l-0.43,0.61l-0.37,0.65l-0.75,0.32
	l-0.85,0.28l-0.16,0.81l-0.63,0.47l-0.07,0.85l-0.61,0.51l-0.55,0.55l0.44,1.08l-1.22,0.21l0.03,0.84l0.02,0.81l-0.42,0.63
	l-0.43,0.63l-0.25,0.71l-0.41,0.65l0.5,0.91l-0.49,0.64l-0.48,0.65l0.05,0.77l0.69,0.87l-0.15,0.73l-0.13,0.73l-0.37,0.71l0.06,0.77
	l-0.02,0.76l-0.3,0.72l-0.44,0.67l-0.46,0.65l0.39,0.91l-0.81,0.52l-0.41,0.64l0.22,0.93l-0.96,0.36l0.12,1.15l-0.91,0.37h-0.76
	l-0.79-0.81l-0.73,0.08l-0.72-0.36l-0.76,0.93l-0.74-0.07l-0.64-1.07l-0.71-0.09l-0.72-0.03l-0.71-0.12l-0.72-0.11l-0.73-0.03h-0.75
	l-0.86,0.45l-0.6-0.68l-0.82,0.31l-0.62-0.64l-0.69-0.32l-0.81,0.27l-0.71-0.17l-0.6-0.73l-0.76,0.03l-0.73-0.09l-0.82,0.32
	l-0.59-0.77l-0.68-0.33l-0.87,0.53l-0.79,0.17l-0.73-0.12l-0.55-0.88l-0.76-0.01l-0.83,0.68l-0.69-0.09l-0.69-0.08l-0.81-1.16
	l-0.62,1.04l-0.79-0.23l-0.84-0.2l-0.58,0.63l-0.69,0.28l-0.43,0.75l-1.05-0.32l-0.72,0.31l-0.05,1.21l-1.2-0.41l0.04,1.35
	l-1.13-0.35l-0.53,0.52l-0.39,0.73l-0.9-0.09l-0.49,0.57l-0.4,0.73l-0.85-0.01l-0.48,0.59l-0.69,0.25l-0.52,0.53l-0.29,0.89
	l-1.19-0.56l-0.48,0.6l-0.76,0.13l-0.67,0.29l-0.46,0.61l-0.58,0.44l-0.59,0.41l-0.27,0.96l-0.72,0.2l-0.46,0.64l-0.71,0.23
	l-0.8,0.04l-0.54,0.51l-0.64,0.33l-0.86-0.08l-0.62,0.36l-0.27,1.03l-1.14-0.65l-0.47,0.65l-0.66,0.29l-0.73,0.13l-0.5,0.61
	l-0.75,0.09l-0.41,0.85l-1-0.52l-0.41,0.88l-0.77,0.03l-0.81-0.13l-0.47,0.81l-0.83-0.2l-0.47,0.87l-0.67,0.27l-1.04-0.45
	l-0.11,1.33l-0.61,0.36l-1.06-0.16l-0.38,0.71l-0.03,0.95l-0.59,0.43l-0.85,0.37l-0.59,0.61l-0.1,0.81l0.16,0.81l0.3,0.73l0.15,0.73
	l0.57,0.55l-0.6,1.07l1.07,0.36l0.21,0.72l0.03,0.77l0.44,0.65l0.05,0.75l0.65,0.63l-0.89,0.92l1.11,0.59l-0.86,0.84l0.45,0.69
	l-0.49,0.77l0.51,0.71l0.4,0.73l0.06,0.73l-0.03,0.75l-0.44,0.73l-0.08,0.73l0.3,0.75l0.14,0.75l0.22,0.75l-1.03,0.71l0.93,0.76
	l-0.33,0.72l0.22,0.73l-0.62,0.71l0.26,0.73l-0.53,0.71l0.55,0.75l-0.15,0.72l-0.31,0.72l0.47,0.73l0.03,0.73l0.25,0.73l-0.32,0.72
	l-1.03,0.68l0.95,0.77l-0.15,0.72l0.22,0.73l-0.9,0.69l0.03,0.72l0.45,0.75l0.46,0.75l-1.13,0.68l0.93,0.76l-0.81,0.69l-0.17,0.72
	l1.07,0.77l-0.29,0.72l-0.73,0.69l0.66,0.75l0.07,0.73l-0.56,0.71l0.63,0.75l-0.09,0.73l-0.27,0.71l0.19,0.73l-1.09,0.68l0.8,0.76
	l0.3,0.75l-0.95,0.68l0.04,0.73l-0.13,0.72l0.02,0.72l0,0.73l0.07,0.73l0.19,0.73l0.12,0.73l0.06,0.72l-1.02,0.68l1.14,0.79
	l-1.18,0.67l0.93,0.77l-0.53,0.71l0.55,0.75l-0.98,0.68l0.67,0.76l-0.74,0.69l-0.19,0.72l0.73,0.76l-0.2,0.72l0.13,0.73l-0.33,0.71
	l0.13,0.73l0.47,0.75l-0.53,0.71l-0.04,0.72l-0.25,0.72l-0.35,0.72l0.88,0.75l-0.96,0.71l0.93,0.75l-0.8,0.71l0.25,0.73l-0.43,0.72
	l0.38,0.73l0.17,0.73l-0.05,0.73l0.19,0.73l-0.65,0.69l0.3,0.75l-0.53,0.71l-0.06,0.72l0.64,0.76l-0.46,0.69l0.53,0.76l0.3,0.75
	l-0.86,0.68l0.34,0.75l0.21,0.73l-0.42,0.71l-0.12,0.72l-0.39,0.71l1.01,0.8l-0.77,0.67l-0.03,0.73l0.51,0.77l-0.77,0.65l-0.43,0.69
	l0.41,0.76l-0.37,0.69l0.53,0.8l-0.88,0.61l0.1,0.75l0.13,0.75l0.26,0.77l0.21,0.77l-0.68,0.63l0.14,0.76l-0.12,0.72l-0.61,0.63
	l-0.17,0.71l0.08,0.76l-0.12,0.71l-0.37,0.67l-0.54,0.63l0.75,0.91l-0.92,0.53l0.48,0.84l0.42,0.71l-0.74,0.84l1.09,0.44l0.26,0.59
	l0.44,0.47l-0.23,1.32l1.18-0.53l0.57,0.33l0.65,0.17l0.71,0.48l0.7-0.41l0.71-0.12l0.87,0.68l0.74-0.08l0.59-0.76l0.72-0.13
	l0.71-0.2l0.71-0.03l0.03,1l1.11,0.08l0.57,0.57l0.68,0.32l0.88-0.71l0.54,0.99l0.79-0.23l0.62,0.63l0.92-0.97l0.64,0.52l0.8-0.37
	l0.57,0.89l0.65,0.49l0.81-0.4l0.75-0.08l0.72,0.05l0.61,0.8l0.77-0.08l0.67-0.63l0.74,0.31l0.72,0.25l0.7-0.45l0.69,0.75l0.75-0.99
	l0.67,0.61l0.77-0.61l0.59,1.11l0.67,0.29l0.89-1.11l0.7,0.17l0.52,1.07l0.94-0.91l0.67,0.4l0.63,0.59l0.65,0.49l0.91-0.77
	l0.66,0.45l0.71,0.19l0.65,0.55l0.79-0.23l0.7,0.28l0.67,0.48l0.84-0.63l0.62,0.93l0.85-0.92l0.67,0.65l0.69,0.61l0.78-0.55
	l0.75-0.51l0.68,0.63l0.7,0.24l0.71,0.15l0.69,0.29l0.82-0.95l0.63,0.85l0.77-0.37l0.78-0.4l0.68,0.37l0.63,0.64l0.7,0.19l0.81-0.52
	l0.74-0.07l0.51,1.27l0.69,0.19l0.71,0.12l0.76-0.16l0.8-0.32l0.74-0.05l0.58,0.72l0.7,0.16l0.64,0.44l0.89-0.72l0.49,1.11
	l0.96-0.99l0.59,0.64l0.68,0.24l0.81-0.29l0.75-0.05l0.55,0.81l0.56,0.73l0.93-0.79l0.53,0.89l0.89-0.67l0.44,1.24l0.82-0.23
	l0.78-0.11l0.76-0.01l0.69,0.28l0.72,0.15l0.79-0.24l0.62,0.71l0.63,0.71l0.77-0.11l0.77-0.12l0.77-0.17l0.77-0.28l0.67,0.59
	l0.73,0.15l0.78-0.52l0.69,0.75l0.78-0.85l0.72,0.28l0.72,0.64l0.74-0.28l0.76,0.56l0.74-0.08l0.73-0.51l0.76-0.52l0.73,0.43
	l0.82-0.25l0.45,1.19l0.82-0.16l0.73,0.08l0.67,0.32l0.8-0.32l0.65,0.55l0.73,0.01l0.73-0.6l0.75,0.97l0.63-1.08l0.89,1l0.64-0.59
	l0.46-0.96l0.69-0.12l1.01,0.51l0.26-1.07l0.95,0.2l0.15-1.07l1.02,0.17l0.27-0.8l1.18,0.23l-0.32-1.37l0.54-0.59l0.88-0.12
	l0.42-0.76l1.18,0.57l0.25-1.09l0.68-0.31l0.72-0.2l0.71-0.21l0.4-0.83l0.68-0.24l1,0.24l0.3-0.84l1.05,0.16l-0.1-1.35l0.58-0.44
	l0.97,0.04l0.45-0.63l0.39-0.71l0.72-0.27l0.47-0.61l0.64-0.39l0.56-0.49l0.98,0.12l0.56-0.48l0.78-0.13l0.7-0.24l0.39-0.84
	l0.88,0.13l0.32-1.12l0.79-0.04l0.88,0.29l0.53-0.8l0.71-0.28l0.8,0.19l0.8,0.08l0.86-0.07l-0.01-1.25l1.18,0.07l-0.54-1.12
	l0.87-0.45l-0.38-0.79l0.15-0.69l-0.36-0.69l0.6-0.8l-0.31-0.71l-0.32-0.69l-0.02-0.75l0.21-0.77l-0.45-0.68l-0.25-0.72l0.86-0.87
	l-0.34-0.69l0.12-0.75l-0.84-0.67l0.57-0.77L243.57,232.12"/>
</svg>
