<svg width="48" height="48" viewBox="0 0 48 48" fill="none" xmlns="http://www.w3.org/2000/svg">
<path d="M36.9304 6.33683C36.8998 6.30912 36.8853 6.26243 36.8532 6.2391C36.8211 6.21577 36.7919 6.17934 36.7584 6.15747C36.7248 6.13559 36.6957 6.0933 36.6607 6.0758C36.6207 6.06051 36.5798 6.04784 36.5382 6.03788C36.498 6.02588 36.4571 6.01663 36.4157 6.01018C36.3749 6.00143 36.3297 6.02328 36.2888 6.0189C36.2483 6.01255 36.2073 6.00916 36.1663 6.00872C36.1253 6.00877 36.0844 6.01166 36.0438 6.01744C36.0045 6.02619 35.9505 5.98976 35.9097 6.00288C35.8715 6.02258 35.8345 6.04448 35.7988 6.0685C35.7609 6.08454 35.7347 6.12537 35.6968 6.14141C35.6588 6.15745 35.6093 6.1414 35.5728 6.16473C35.5364 6.18806 35.5349 6.2785 35.497 6.29599C35.4591 6.31349 35.3847 6.24934 35.3512 6.26684C35.3176 6.28434 35.287 6.32371 35.2505 6.34121C35.2141 6.35871 35.163 6.3412 35.1266 6.36745C35.0901 6.3937 35.0712 6.44034 35.0347 6.4593C34.9983 6.47826 34.9647 6.50161 34.9283 6.52057C34.8918 6.53953 34.8758 6.59493 34.8393 6.61388C34.8029 6.63284 34.7635 6.64452 34.7285 6.66494C34.6935 6.68535 34.6672 6.72035 34.6322 6.74077C34.5972 6.76119 34.5097 6.697 34.4747 6.71887C34.4397 6.74075 34.4529 6.83554 34.4179 6.8647C34.3829 6.89387 34.3114 6.85158 34.272 6.87346C34.2327 6.89533 34.2269 6.95366 34.1933 6.97699C34.1598 7.00032 34.135 7.03387 34.1029 7.05866C34.0708 7.08345 34.0562 7.1301 34.0241 7.15635C33.9921 7.1826 33.9512 7.19426 33.9192 7.22051C33.8871 7.24675 33.8273 7.23801 33.7967 7.26572C33.766 7.29343 33.7179 7.30217 33.6873 7.32988C33.6567 7.35758 33.6975 7.45675 33.6683 7.48592C33.6392 7.51508 33.5998 7.53259 33.5706 7.56175C33.5415 7.59092 33.4788 7.58364 33.4496 7.61134C33.4204 7.63905 33.4219 7.69885 33.3927 7.72655C33.3635 7.75426 33.295 7.74256 33.2658 7.77027C33.2367 7.79798 33.2177 7.83737 33.1886 7.86508C33.1594 7.89279 33.1623 7.95692 33.1332 7.98463C33.104 8.01234 33.0457 8.00798 33.015 8.03568C32.9844 8.06339 32.9436 8.07651 32.913 8.10276C32.8823 8.12901 32.894 8.20485 32.8634 8.2311C32.8328 8.25735 32.7584 8.2311 32.7278 8.26172C32.6971 8.29234 32.7059 8.36086 32.6753 8.38711C32.6446 8.41336 32.5892 8.409 32.5571 8.43525C32.5251 8.46149 32.528 8.52712 32.4959 8.55191C32.4638 8.5767 32.4157 8.58106 32.3851 8.60585C32.3544 8.63064 32.2874 8.61463 32.2567 8.63942C32.2261 8.66421 32.2086 8.7094 32.1765 8.73419C32.1444 8.75899 32.0876 8.75024 32.0555 8.77503C32.0234 8.79982 31.9986 8.83191 31.9651 8.85524C31.9316 8.87857 31.9403 8.96022 31.9082 8.98209C31.8761 9.00397 31.8076 8.98211 31.7755 9.00253C31.7434 9.02294 31.6953 9.02875 31.6618 9.05063C31.6282 9.0725 31.6311 9.14834 31.5961 9.17021C31.5611 9.19209 31.4926 9.15564 31.4591 9.17751C31.4255 9.19938 31.3949 9.22271 31.3614 9.24167C31.3278 9.26062 31.3205 9.33645 31.2855 9.35395C31.2505 9.37145 31.2199 9.4152 31.1835 9.42687C31.147 9.43853 31.0828 9.3729 31.0376 9.38165C30.9924 9.3904 30.9662 9.42541 30.9283 9.42979C30.8904 9.43416 30.8495 9.40789 30.8116 9.40643C30.7355 9.40062 30.6599 9.38892 30.5856 9.37143C30.5491 9.35831 30.4864 9.39769 30.4514 9.37873C30.413 9.36183 30.3755 9.34286 30.3391 9.32188C30.3085 9.3 30.2735 9.27229 30.2414 9.24604C30.2093 9.2198 30.2312 9.12209 30.1962 9.10022C30.1612 9.07834 30.1189 9.05648 30.0839 9.03168C30.0489 9.00689 30.011 8.98356 29.976 8.95877C29.941 8.93398 29.8681 8.95875 29.8302 8.93834C29.7923 8.91792 29.8185 8.8246 29.7894 8.80419C29.7602 8.78377 29.7048 8.8042 29.6756 8.77941C29.6465 8.75462 29.6552 8.80273 29.6319 8.80127C29.6085 8.79981 29.6115 8.76482 29.5925 8.77503C29.5735 8.78524 29.5181 8.81001 29.4831 8.83189C29.4481 8.85376 29.4292 8.89752 29.3942 8.9194C29.3592 8.94127 29.314 8.94274 29.2804 8.96607C29.2469 8.9894 29.2206 9.02292 29.1886 9.04771C29.1565 9.0725 29.0894 9.04773 29.0573 9.07544C29.0252 9.10315 29.0427 9.18918 29.0107 9.22127C28.9786 9.25335 28.9611 9.28687 28.9305 9.31312C28.8998 9.33937 28.843 9.33354 28.8123 9.35979C28.7817 9.38604 28.7701 9.43416 28.7394 9.46186C28.7088 9.48957 28.6257 9.46185 28.5936 9.48518C28.5615 9.50851 28.5936 9.6033 28.5644 9.63101C28.5353 9.65872 28.458 9.6383 28.4288 9.66746C28.3997 9.69663 28.3632 9.71559 28.3355 9.74476C28.3078 9.77392 28.2903 9.81474 28.2626 9.84391C28.2349 9.87307 28.1911 9.88766 28.1634 9.91682C28.1357 9.94599 28.1007 9.97079 28.073 9.99995C28.0453 10.0291 28.0511 10.0904 28.0234 10.1195C27.9957 10.1487 28.0045 10.2129 27.9768 10.242C27.9491 10.2712 27.8557 10.242 27.8309 10.2697C27.8061 10.2974 27.8207 10.366 27.7945 10.3937C27.7682 10.4214 27.7595 10.4652 27.7332 10.4929C27.707 10.5206 27.6661 10.5366 27.6399 10.5658C27.6137 10.5949 27.602 10.6358 27.5743 10.6635C27.5466 10.6912 27.4766 10.6766 27.4503 10.7043C27.4241 10.732 27.3891 10.7539 27.3614 10.7816C27.3337 10.8093 27.3162 10.8443 27.2899 10.872C27.2637 10.8997 27.2535 10.9522 27.2287 10.9814C27.2039 11.0105 27.1966 11.0572 27.1747 11.0893C27.1528 11.1213 27.1047 11.1389 27.0872 11.1739C27.0697 11.2089 27.0872 11.2584 27.0872 11.2964C27.0872 11.3343 27.0099 11.3576 27.0056 11.397C27.0019 11.4377 27.0019 11.4787 27.0056 11.5195C27.0056 11.5589 26.9851 11.6084 26.9953 11.6478C27.0056 11.6872 27.1091 11.6945 27.1237 11.7324C27.1383 11.7703 27.1091 11.8228 27.1237 11.8592C27.1358 11.8983 27.15 11.9368 27.166 11.9744C27.1864 12.008 27.2141 12.0386 27.2374 12.0736C27.2608 12.1086 27.3118 12.1188 27.3366 12.1523C27.3614 12.1859 27.4051 12.199 27.4299 12.2311C27.4547 12.2632 27.4299 12.3346 27.4532 12.3667C27.4766 12.3988 27.5072 12.4265 27.5334 12.4586C27.5597 12.4907 27.5641 12.5111 27.583 12.5359C27.602 12.5607 27.6574 12.5811 27.6764 12.6059C27.6589 12.6423 27.5976 12.5956 27.5684 12.6234C27.5393 12.6511 27.5685 12.7473 27.5407 12.7765C27.513 12.8056 27.4474 12.8027 27.4168 12.8319C27.3862 12.8611 27.3366 12.8727 27.306 12.9019C27.2753 12.9311 27.2739 12.9937 27.2433 13.0229C27.2126 13.0521 27.1514 13.0521 27.1208 13.0813C27.0901 13.1104 27.0814 13.1658 27.0508 13.1965L26.9574 13.2854C26.9254 13.3146 26.9079 13.3583 26.8772 13.3875C26.8466 13.4166 26.7737 13.4035 26.7431 13.4342C26.7124 13.4648 26.6774 13.4837 26.6483 13.5129C26.6191 13.5421 26.5798 13.5596 26.5506 13.5887C26.5214 13.6179 26.5302 13.6864 26.4996 13.7141C26.4689 13.7418 26.4573 13.7885 26.4281 13.8177C26.3989 13.8468 26.3187 13.8177 26.2823 13.8498C26.2458 13.8819 26.2458 13.93 26.2152 13.9591C26.1846 13.9883 26.1918 14.0524 26.1627 14.0816C26.1335 14.1108 26.0883 14.1224 26.0592 14.1516C26.03 14.1808 25.9921 14.2026 25.9629 14.2304C25.9337 14.2581 25.925 14.3091 25.8958 14.3383C25.8667 14.3674 25.8287 14.3879 25.7996 14.417C25.7704 14.4462 25.6829 14.417 25.6538 14.4476C25.6246 14.4783 25.6538 14.5599 25.6217 14.5935C25.5896 14.627 25.5371 14.627 25.5094 14.6576C25.4817 14.6882 25.454 14.7189 25.4263 14.7495C25.3986 14.7801 25.3723 14.8122 25.3446 14.8414C25.3169 14.8705 25.2819 14.8939 25.2557 14.923C25.2294 14.9522 25.2411 15.0193 25.2148 15.0485C25.1886 15.0776 25.1098 15.0601 25.0821 15.0907C25.0544 15.1214 25.0325 15.1534 25.0063 15.1826C24.98 15.2118 24.948 15.238 24.9217 15.2686C24.8955 15.2993 24.8605 15.3211 24.8342 15.3503L24.7525 15.4393C24.7263 15.4684 24.7132 15.5107 24.6855 15.5413C24.6578 15.5719 24.6359 15.604 24.6096 15.6332C24.5834 15.6624 24.5659 15.7017 24.5382 15.7309C24.5105 15.7601 24.5032 15.8067 24.4769 15.8374C24.4507 15.868 24.3851 15.8622 24.3588 15.8928C24.3326 15.9234 24.3588 16.0036 24.3355 16.0386C24.3122 16.0736 24.2072 16.0386 24.1809 16.0619C24.1547 16.0853 24.1561 16.148 24.1299 16.1771C24.1036 16.2063 24.0832 16.2442 24.0555 16.2734C24.0278 16.3025 23.9666 16.3011 23.9403 16.3317C23.9141 16.3623 23.9549 16.4513 23.9286 16.4775C23.9024 16.5038 23.8266 16.495 23.8003 16.5256C23.7741 16.5563 23.8003 16.6307 23.7711 16.6598C23.742 16.689 23.7114 16.7138 23.6851 16.7444C23.6589 16.775 23.5787 16.7575 23.5524 16.7881C23.5262 16.8188 23.4882 16.8377 23.4605 16.8669C23.4328 16.8961 23.481 16.9909 23.4533 17.0215C23.4255 17.0521 23.3541 17.0404 23.3278 17.0696C23.3016 17.0987 23.3191 17.1702 23.2928 17.1994C23.2666 17.2285 23.2433 17.2621 23.217 17.2927C23.1908 17.3233 23.1412 17.3321 23.1149 17.3627C23.0887 17.3933 23.0799 17.4385 23.0537 17.4691C23.0274 17.4998 22.9881 17.5158 22.9618 17.5464C22.9356 17.5771 22.8568 17.5596 22.8306 17.5887C22.8043 17.6179 22.7839 17.6573 22.7577 17.6879C22.7314 17.7185 22.7679 17.806 22.7416 17.8337C22.7154 17.8614 22.6512 17.8629 22.625 17.8935C22.5987 17.9241 22.5491 17.9358 22.5229 17.9664C22.4966 17.997 22.485 18.0408 22.4573 18.0714C22.4295 18.102 22.4223 18.1487 22.396 18.1793C22.3698 18.2099 22.3027 18.2056 22.2764 18.2362C22.2502 18.2668 22.2108 18.2872 22.1831 18.3179C22.1554 18.3485 22.1991 18.4389 22.1714 18.4637C22.1437 18.4885 22.1014 18.5103 22.0752 18.541C22.0489 18.5716 21.9775 18.5643 21.9512 18.5934C21.925 18.6226 21.9133 18.6708 21.8871 18.7014C21.8608 18.732 21.82 18.7495 21.7923 18.7801C21.7646 18.8107 21.7267 18.8297 21.699 18.8603L21.6188 18.9522C21.591 18.9828 21.6304 19.0718 21.6027 19.098C21.575 19.1243 21.4875 19.098 21.4569 19.1316C21.4263 19.1651 21.4569 19.2395 21.4307 19.2686C21.4044 19.2978 21.3446 19.3007 21.3184 19.3299C21.2921 19.359 21.3023 19.4232 21.2746 19.4524C21.2469 19.4815 21.1784 19.4743 21.1521 19.5034C21.1259 19.5326 21.1346 19.5953 21.1069 19.6244C21.0792 19.6536 21.0165 19.6507 20.9903 19.6813C20.964 19.712 20.9523 19.7557 20.9261 19.7849C20.8998 19.814 20.9013 19.8709 20.875 19.9001C20.8488 19.9292 20.8051 19.9453 20.7774 19.9744C20.7496 20.0036 20.7088 20.0211 20.6826 20.0503C20.6563 20.0794 20.6621 20.1407 20.6344 20.1698C20.6067 20.199 20.5192 20.1698 20.4886 20.2034C20.458 20.2369 20.4638 20.2894 20.4376 20.3186C20.4113 20.3477 20.3574 20.3536 20.3297 20.3842C20.302 20.4148 20.3297 20.4965 20.3092 20.53C20.2888 20.5636 20.2393 20.5752 20.213 20.6044C20.1868 20.6336 20.1401 20.6467 20.1138 20.6758C20.0876 20.705 20.0482 20.724 20.0205 20.7531C19.9928 20.7823 19.9826 20.826 19.9549 20.8552C19.9272 20.8844 19.9228 20.9339 19.8966 20.9631C19.8703 20.9923 19.8441 21.0244 19.8178 21.0535C19.7916 21.0827 19.707 21.0623 19.6807 21.0915L19.602 21.1819C19.5743 21.211 19.602 21.2883 19.5743 21.319C19.5466 21.3496 19.4693 21.3321 19.443 21.3612C19.4168 21.3904 19.4066 21.4356 19.3789 21.4662C19.3512 21.4969 19.3789 21.5698 19.3483 21.5989C19.3176 21.6281 19.217 21.5887 19.1908 21.6193C19.1645 21.65 19.1631 21.7025 19.1368 21.7316C19.1106 21.7608 19.112 21.8177 19.0843 21.8468C19.0566 21.876 19.0099 21.8877 18.9837 21.9183C18.9574 21.9489 18.9195 21.9679 18.8933 21.9985C18.867 22.0291 18.8189 22.0393 18.7912 22.0699C18.7635 22.1006 18.7795 22.1662 18.7533 22.1968C18.727 22.2274 18.6643 22.2245 18.6381 22.2551C18.6118 22.2858 18.5812 22.312 18.555 22.3427C18.5287 22.3733 18.5725 22.4637 18.5462 22.4885C18.52 22.5133 18.485 22.5409 18.4587 22.5716C18.4325 22.6022 18.3887 22.6168 18.3625 22.6474C18.3362 22.678 18.2633 22.6678 18.2371 22.697C18.2108 22.7262 18.2064 22.7772 18.1802 22.8078C18.1539 22.8385 18.1583 22.8939 18.1335 22.9245C18.1087 22.9551 18.0387 22.9493 18.0125 22.9799C17.9862 23.0105 18.0125 23.0907 17.9921 23.1257C17.9717 23.1607 17.8929 23.1476 17.8667 23.1768C17.8404 23.2059 17.8667 23.2818 17.8404 23.3124C17.8142 23.343 17.7529 23.343 17.7267 23.3736C17.7004 23.4042 17.6406 23.4057 17.6144 23.4349C17.5881 23.464 17.6319 23.5559 17.6056 23.5807C17.5794 23.6055 17.5298 23.6201 17.5036 23.6507C17.4773 23.6813 17.4277 23.6915 17.4015 23.7207C17.3752 23.7499 17.3446 23.7775 17.3198 23.8082C17.295 23.8388 17.26 23.8636 17.2338 23.8928C17.2075 23.9219 17.1959 23.9671 17.1696 23.9963C17.1434 24.0255 17.1113 24.0517 17.085 24.0823C17.0588 24.113 17.0515 24.1582 17.0252 24.1888C16.999 24.2194 16.945 24.2252 16.9188 24.2544C16.8925 24.2836 16.9188 24.3609 16.8926 24.3915L16.8153 24.4834C16.789 24.5125 16.7234 24.5081 16.6971 24.5388C16.6709 24.5694 16.6519 24.6059 16.6257 24.6365C16.5994 24.6671 16.5367 24.6627 16.509 24.6933C16.4813 24.724 16.509 24.7969 16.4799 24.8261C16.4507 24.8552 16.4172 24.8771 16.3909 24.9077C16.3647 24.9383 16.2947 24.9296 16.2684 24.9588C16.2422 24.9879 16.2859 25.0827 16.2582 25.1119C16.2305 25.141 16.1941 25.1615 16.1663 25.1906C16.1386 25.2198 16.1299 25.265 16.1036 25.2942C16.0774 25.3233 16.0103 25.3189 15.9841 25.3481C15.9578 25.3773 15.952 25.4268 15.9243 25.456C15.8966 25.4852 15.8878 25.5318 15.8616 25.561C15.8353 25.5902 15.7391 25.561 15.7157 25.5873C15.6924 25.6135 15.6982 25.6791 15.6705 25.7097C15.6428 25.7404 15.5787 25.7316 15.551 25.7608L15.4678 25.8468C15.4416 25.876 15.4153 25.9066 15.3876 25.9358C15.3599 25.9649 15.3351 25.9956 15.3074 26.0247C15.2797 26.0539 15.2608 26.0904 15.2331 26.1181C15.2054 26.1458 15.2156 26.2129 15.1893 26.242C15.1631 26.2712 15.1164 26.2829 15.0887 26.312C15.061 26.3412 14.9968 26.3339 14.9691 26.363C14.9414 26.3922 14.9429 26.4476 14.9152 26.4768C14.8874 26.506 14.8364 26.5118 14.8072 26.5395C14.7781 26.5672 14.8072 26.6562 14.7839 26.6853C14.7606 26.7145 14.7241 26.7393 14.6964 26.767L14.6118 26.853C14.5841 26.8807 14.5098 26.8632 14.4806 26.8909C14.4514 26.9187 14.4325 26.9551 14.4048 26.9843L14.3187 27.0674L14.2342 27.1505C14.205 27.1797 14.2079 27.2395 14.1787 27.2672C14.1496 27.2949 14.0883 27.289 14.0606 27.3167C14.0329 27.3445 14.0431 27.4159 14.014 27.4451C13.9848 27.4743 13.9469 27.4932 13.9192 27.5238C13.8915 27.5545 13.8142 27.5457 13.7894 27.5763C13.7646 27.6069 13.7398 27.6463 13.715 27.6784C13.6902 27.7105 13.6698 27.7513 13.6465 27.7848C13.6231 27.8184 13.6815 27.903 13.6611 27.938C13.6406 27.973 13.6188 28.0065 13.5998 28.043C13.5808 28.0794 13.489 28.0823 13.4729 28.1188C13.4569 28.1552 13.4438 28.199 13.4307 28.2369C13.4175 28.2748 13.4496 28.3317 13.4307 28.3711C13.4117 28.4104 13.3563 28.4367 13.3475 28.4775C13.3388 28.5183 13.384 28.5694 13.3767 28.6102C13.3694 28.6511 13.2979 28.6832 13.2936 28.724C13.2892 28.7648 13.3198 28.81 13.3184 28.8523C13.3169 28.8946 13.3286 28.9354 13.33 28.9763C13.3315 29.0171 13.3111 29.0535 13.3096 29.0929C13.3082 29.1323 13.3286 29.1716 13.3227 29.2096C13.3169 29.2475 13.3417 29.2927 13.3344 29.3321C13.3271 29.3714 13.2804 29.4006 13.2702 29.4385C13.26 29.4764 13.3052 29.5318 13.2921 29.5683C13.279 29.6047 13.225 29.6281 13.2105 29.6646C13.1959 29.701 13.1696 29.7316 13.1521 29.7666C13.1346 29.8016 13.1069 29.8308 13.0865 29.8643C13.0661 29.8979 13.0646 29.9416 13.0428 29.9751C13.0209 30.0087 12.9553 30.0087 12.9319 30.0408C12.9086 30.0728 12.9319 30.1312 12.8999 30.1618C12.8678 30.1924 12.8138 30.1983 12.789 30.2318C12.7642 30.2653 12.789 30.3397 12.7701 30.3776C12.7511 30.4155 12.7249 30.4462 12.7001 30.4782C12.6753 30.5103 12.5878 30.4972 12.563 30.5293C12.5382 30.5614 12.528 30.6066 12.5032 30.6401C12.4784 30.6737 12.4784 30.7247 12.4536 30.7568C12.4288 30.7889 12.4361 30.8472 12.4128 30.8793C12.3894 30.9113 12.3136 30.9099 12.2903 30.9434C12.267 30.977 12.2684 31.028 12.2451 31.0615C12.2218 31.0951 12.1911 31.1243 12.1693 31.1563C12.1474 31.1884 12.1168 31.2205 12.0934 31.254C12.0701 31.2876 12.0934 31.3488 12.0628 31.3809C12.0322 31.413 12.0001 31.4363 11.9811 31.4699C11.9569 31.5021 11.9346 31.5358 11.9141 31.5705C11.8966 31.6113 11.8353 31.6361 11.8266 31.674C11.8208 31.7176 11.8208 31.7617 11.8266 31.8053C11.8282 31.8448 11.8321 31.8843 11.8382 31.9234C11.8382 31.9613 11.8907 31.9934 11.9009 32.0298C11.9112 32.0663 11.9564 32.0911 11.9695 32.1261C11.9826 32.1611 11.9782 32.2034 11.9957 32.2369C12.0132 32.2704 11.9811 32.339 12.003 32.3696C12.0249 32.4002 12.1095 32.3856 12.1343 32.4148C12.1591 32.444 12.1445 32.514 12.1736 32.5388C12.2028 32.5636 12.2509 32.5665 12.283 32.5884C12.3151 32.6102 12.372 32.5883 12.4055 32.6029C12.4365 32.6205 12.4687 32.6361 12.5017 32.6496C12.5367 32.6627 12.5513 32.7429 12.5878 32.7517C12.6242 32.7604 12.668 32.7385 12.7044 32.7429C12.7409 32.7473 12.7788 32.6992 12.8167 32.6992C12.8546 32.6992 12.8969 32.7546 12.9363 32.7487C12.9757 32.7429 13.0078 32.7065 13.0457 32.6977C13.0824 32.6855 13.1184 32.6714 13.1536 32.6554C13.1886 32.6405 13.2227 32.6234 13.2557 32.6044C13.2907 32.5869 13.365 32.6394 13.4015 32.619C13.4379 32.5986 13.4204 32.4965 13.4554 32.4732C13.4904 32.4498 13.559 32.4731 13.5925 32.4542L13.6946 32.3827C13.7267 32.3579 13.7792 32.3565 13.8113 32.3302C13.8433 32.304 13.8346 32.2252 13.8667 32.199C13.8988 32.1727 13.9775 32.199 14.0125 32.1771L14.1087 32.0955C14.1408 32.0692 14.1656 32.0342 14.1977 32.008C14.2298 31.9817 14.2531 31.9467 14.2852 31.9205C14.3173 31.8942 14.2852 31.8403 14.326 31.8067C14.3668 31.7732 14.4091 31.7761 14.4412 31.7499C14.4733 31.7236 14.5185 31.7134 14.552 31.6886C14.5856 31.6638 14.5929 31.604 14.6264 31.5792C14.66 31.5544 14.7183 31.5676 14.7533 31.5457C14.7883 31.5238 14.7985 31.4597 14.8335 31.4378C14.8685 31.4159 14.937 31.4524 14.9793 31.4378C15.0216 31.4232 15.0464 31.3897 15.0843 31.3722C15.1222 31.3547 15.166 31.3561 15.2039 31.3401C15.2418 31.324 15.2476 31.2292 15.287 31.2147C15.3264 31.2001 15.3949 31.2701 15.4328 31.2555C15.4708 31.2409 15.497 31.187 15.5364 31.1753C15.5757 31.1636 15.6137 31.1461 15.6545 31.1344C15.6953 31.1228 15.7216 31.1345 15.7828 31.1199C15.8207 31.1097 15.8601 31.1039 15.8995 31.0936C15.9388 31.0834 15.9695 31.0513 16.0074 31.0397C16.0453 31.028 16.0745 30.9872 16.1124 30.977C16.1503 30.9668 16.1897 30.9653 16.2276 30.9536C16.2655 30.942 16.3107 30.9536 16.3472 30.9391C16.3836 30.9245 16.4419 30.9668 16.4784 30.9536C16.5149 30.9405 16.5397 30.888 16.5761 30.8735C16.6126 30.8589 16.6592 30.8734 16.6957 30.8501C16.7321 30.8268 16.7715 30.8238 16.808 30.8063C16.8444 30.7888 16.8342 30.6897 16.8692 30.6707C16.9042 30.6518 16.98 30.7028 17.015 30.6824C17.05 30.662 17.0836 30.6401 17.1157 30.6168C17.1477 30.5935 17.1317 30.5074 17.1623 30.4826C17.193 30.4578 17.2294 30.4432 17.2586 30.417C17.2877 30.3907 17.3563 30.4053 17.3854 30.3776C17.4146 30.3499 17.3957 30.2814 17.4219 30.2508C17.4482 30.2201 17.4831 30.1997 17.5094 30.1706C17.5356 30.1414 17.5808 30.1283 17.6071 30.0976C17.6333 30.067 17.664 30.0422 17.6888 30.0116C17.7135 29.981 17.7106 29.9256 17.7369 29.8964C17.7631 29.8672 17.8083 29.8541 17.8346 29.8249C17.8608 29.7958 17.925 29.7987 17.9513 29.7695C17.9775 29.7404 17.9673 29.6777 17.9935 29.647L18.0737 29.5596C18.1 29.5289 18.1058 29.4823 18.1321 29.4531C18.1583 29.4239 18.2021 29.4094 18.2283 29.3787C18.2546 29.3481 18.275 29.3146 18.3012 29.2839C18.3275 29.2533 18.3902 29.2592 18.4164 29.23C18.4427 29.2008 18.4325 29.1367 18.4602 29.1075C18.4879 29.0783 18.4835 29.0229 18.5098 28.9937C18.536 28.9646 18.6031 28.9704 18.6293 28.9413C18.6556 28.9121 18.6891 28.8888 18.7154 28.8596C18.7416 28.8304 18.7402 28.7779 18.7664 28.7488C18.7927 28.7196 18.8612 28.7488 18.8991 28.7123C18.937 28.6758 18.8802 28.6175 18.9181 28.5665C18.956 28.5154 18.9502 28.5183 18.9895 28.4746C19.0289 28.4308 19.0916 28.4906 19.1354 28.4469C19.1791 28.4031 19.1456 28.3463 19.1733 28.3171C19.201 28.288 19.2564 28.2836 19.2841 28.253L19.3643 28.1611C19.3905 28.1305 19.4358 28.1159 19.462 28.0852C19.4883 28.0546 19.4489 27.9642 19.4751 27.9394C19.5014 27.9146 19.5787 27.9219 19.6049 27.8927C19.6312 27.8636 19.6049 27.7863 19.6341 27.7557C19.6632 27.7251 19.758 27.7557 19.7799 27.7265C19.8018 27.6974 19.758 27.6026 19.7799 27.5734C19.8018 27.5442 19.8645 27.5428 19.8893 27.5136C19.9141 27.4845 19.917 27.432 19.9432 27.4028C19.9695 27.3736 20.0322 27.378 20.0584 27.3488C20.0847 27.3197 20.0657 27.2497 20.092 27.2205C20.1182 27.1913 20.2013 27.2118 20.2276 27.1826C20.2538 27.1534 20.2874 27.1315 20.3136 27.1024C20.3399 27.0732 20.3574 27.0353 20.3836 27.0062C20.4099 26.977 20.4332 26.9449 20.4594 26.9157C20.4857 26.8866 20.5207 26.8647 20.5469 26.8355C20.5732 26.8063 20.5907 26.7684 20.6169 26.7393C20.6432 26.7101 20.6417 26.6547 20.668 26.6255C20.6942 26.5964 20.7307 26.5759 20.7569 26.5468C20.7832 26.5176 20.789 26.4695 20.8153 26.4403C20.8415 26.4112 20.9232 26.4301 20.9494 26.401C20.9757 26.3718 20.9363 26.2828 20.9625 26.2551C20.9888 26.2274 21.0325 26.2114 21.0588 26.1822C21.085 26.1531 21.1696 26.1749 21.1959 26.1458C21.2221 26.1166 21.2236 26.0656 21.2513 26.0364C21.279 26.0072 21.3198 25.9912 21.3461 25.962C21.3723 25.9329 21.4117 25.9154 21.4379 25.8862C21.4642 25.857 21.4817 25.8191 21.5079 25.79C21.5342 25.7608 21.54 25.7127 21.5663 25.6835C21.5925 25.6543 21.6538 25.6529 21.6815 25.6223C21.7092 25.5916 21.7063 25.5333 21.734 25.5041C21.7617 25.475 21.7879 25.4414 21.8171 25.4123C21.8463 25.3831 21.836 25.3175 21.8652 25.2883C21.8944 25.2592 21.9425 25.249 21.9702 25.2183L22.0562 25.1294C22.0839 25.0987 22.1539 25.109 22.1831 25.0798C22.2123 25.0506 22.1831 24.9602 22.205 24.934C22.2268 24.9077 22.2998 24.9106 22.3275 24.8815C22.3552 24.8523 22.3873 24.8246 22.4164 24.7954C22.4456 24.7662 22.4383 24.7021 22.4675 24.6729C22.4966 24.6438 22.5171 24.6058 22.5462 24.5767C22.5754 24.5475 22.6643 24.5767 22.692 24.5475C22.7198 24.5184 22.7066 24.4484 22.7358 24.4177C22.7649 24.3871 22.7868 24.3536 22.8145 24.3229C22.8422 24.2923 22.8947 24.2865 22.9239 24.2573C22.9531 24.2282 22.9604 24.1786 22.9881 24.1494C23.0158 24.1203 23.0814 24.1261 23.1091 24.0969C23.1368 24.0678 23.1645 24.0371 23.1922 24.008C23.2199 23.9788 23.1922 23.9001 23.2243 23.8709C23.2564 23.8417 23.3526 23.8826 23.3803 23.8534C23.408 23.8242 23.4197 23.7776 23.4474 23.7484C23.4751 23.7192 23.5174 23.7032 23.5451 23.674C23.5728 23.6449 23.5874 23.6026 23.6151 23.5734C23.6428 23.5442 23.6428 23.4888 23.6705 23.4597C23.6982 23.4305 23.758 23.4305 23.7857 23.4013C23.8134 23.3722 23.8382 23.3401 23.8659 23.3109C23.8936 23.2818 23.9199 23.2555 23.9461 23.2263C23.9724 23.1972 24.0059 23.1782 24.0322 23.1491C24.0584 23.1199 24.0322 23.0484 24.0643 23.0207C24.0963 22.993 24.1241 22.9711 24.1503 22.942C24.1766 22.9128 24.1926 22.8764 24.2188 22.8487C24.2451 22.821 24.2859 22.8064 24.3122 22.7772C24.3384 22.748 24.3442 22.7028 24.3705 22.6751C24.3967 22.6474 24.4551 22.6401 24.4828 22.6109C24.5105 22.5818 24.5236 22.5366 24.5513 22.506C24.579 22.4753 24.6461 22.4826 24.6738 22.452C24.7015 22.4214 24.7409 22.4024 24.7701 22.3733C24.7992 22.3441 24.7599 22.2493 24.7876 22.2201C24.8153 22.191 24.8663 22.1793 24.894 22.1502C24.9217 22.121 24.9961 22.1341 25.0253 22.1035C25.0544 22.0729 25.0354 21.9985 25.0632 21.9693C25.0909 21.9402 25.1594 21.9474 25.1886 21.9168C25.2177 21.8862 25.244 21.8556 25.2732 21.8264C25.3023 21.7973 25.3417 21.7783 25.3709 21.7491C25.4 21.72 25.4219 21.6849 25.4511 21.6558C25.4802 21.6266 25.4511 21.5406 25.4846 21.51C25.5181 21.4793 25.5706 21.4837 25.5998 21.456C25.629 21.4283 25.6975 21.44 25.7267 21.4123C25.7558 21.3846 25.715 21.2854 25.7442 21.2577C25.7733 21.23 25.8113 21.2096 25.8404 21.1819C25.8696 21.1541 25.9031 21.1323 25.9323 21.1031C25.9615 21.074 26.0198 21.0769 26.0489 21.0492C26.0781 21.0215 26.1 20.9865 26.1291 20.9588C26.1583 20.9311 26.1758 20.8902 26.205 20.8625C26.2341 20.8348 26.2968 20.8406 26.326 20.8115L26.4135 20.7284C26.4427 20.7006 26.4645 20.6642 26.4937 20.6365C26.5229 20.6088 26.5331 20.5606 26.5608 20.5329C26.5885 20.5052 26.5958 20.4527 26.625 20.425C26.6541 20.3973 26.676 20.3609 26.7052 20.3332C26.7343 20.3055 26.7897 20.304 26.8189 20.2763C26.8481 20.2486 26.9137 20.2588 26.9428 20.2311C26.972 20.2034 26.9516 20.1246 26.9808 20.0969C27.0099 20.0692 27.0755 20.0794 27.1047 20.0517C27.1339 20.024 27.1047 19.9365 27.1339 19.9059C27.1631 19.8753 27.2345 19.8928 27.2622 19.8651C27.2899 19.8374 27.2739 19.7601 27.3031 19.7324C27.3322 19.7046 27.3745 19.6915 27.4037 19.6638C27.4328 19.6361 27.5087 19.6638 27.5378 19.6288C27.567 19.5938 27.6034 19.5807 27.6326 19.553L27.7201 19.4699C27.7493 19.4407 27.7624 19.397 27.7916 19.3692C27.8207 19.3415 27.8601 19.324 27.8893 19.2963C27.9184 19.2686 27.933 19.2263 27.9607 19.1986C27.9884 19.1709 27.9709 19.0922 28.0001 19.0645C28.0292 19.0368 28.1036 19.0645 28.1328 19.0295L28.2217 18.9493C28.2509 18.9216 28.2407 18.853 28.2699 18.8253C28.299 18.7976 28.3413 18.783 28.3705 18.7553C28.3997 18.7276 28.4449 18.7174 28.474 18.6897C28.5032 18.662 28.5644 18.6693 28.5936 18.6416C28.6228 18.6139 28.6286 18.5628 28.6578 18.5351C28.6869 18.5074 28.6796 18.4418 28.7088 18.4141C28.738 18.3864 28.7628 18.3558 28.7919 18.3281C28.8211 18.3004 28.8459 18.2697 28.875 18.242C28.9042 18.2143 28.9727 18.2304 29.0019 18.2041C29.0311 18.1779 29.0442 18.1327 29.0719 18.1064C29.0996 18.0802 29.1638 18.0889 29.1929 18.0612C29.2221 18.0335 29.2557 18.0131 29.2848 17.9868C29.314 17.9606 29.3242 17.9139 29.3534 17.8877C29.3825 17.8614 29.4146 17.8366 29.4438 17.8089C29.4729 17.7812 29.454 17.7039 29.4831 17.6777C29.5123 17.6514 29.5838 17.6777 29.6129 17.6456C29.6421 17.6135 29.6698 17.5902 29.699 17.5625C29.7281 17.5348 29.7427 17.4939 29.7719 17.4662C29.801 17.4385 29.8171 17.3977 29.8462 17.3714C29.8754 17.3452 29.9089 17.3233 29.9381 17.2971C29.9673 17.2708 29.9819 17.2271 30.0125 17.2008C30.0431 17.1746 30.1014 17.1819 30.1306 17.1556C30.1598 17.1294 30.1802 17.0914 30.2093 17.0652C30.2385 17.0389 30.2823 17.0287 30.3114 17.0025C30.3406 16.9763 30.3887 16.9704 30.4179 16.9442C30.447 16.9179 30.4354 16.845 30.4645 16.8202C30.4937 16.7954 30.5112 16.7532 30.5404 16.7269L30.6264 16.6467C30.6556 16.6219 30.6993 16.6102 30.7285 16.5855C30.7577 16.5607 30.797 16.5446 30.8276 16.5183C30.8583 16.4921 30.9181 16.5038 30.9472 16.4775C30.9764 16.4513 30.9837 16.4002 31.0128 16.374C31.042 16.3477 31.1003 16.3551 31.1295 16.3303C31.1587 16.3055 31.1412 16.2938 31.1703 16.269C31.2257 16.2894 31.2199 16.2778 31.2666 16.3142C31.3132 16.3507 31.3205 16.3434 31.3687 16.3798C31.4168 16.4163 31.4226 16.4075 31.4707 16.444C31.5189 16.4804 31.5568 16.4615 31.5888 16.4863C31.6209 16.5111 31.6122 16.5854 31.6428 16.6102C31.6734 16.635 31.7143 16.6481 31.7449 16.6729C31.7755 16.6977 31.7988 16.7327 31.8295 16.7561C31.8601 16.7794 31.914 16.7779 31.9447 16.8013C31.9753 16.8246 31.9884 16.8742 32.019 16.899C32.0497 16.9238 32.089 16.9369 32.1197 16.9617C32.1503 16.9865 32.1984 16.9879 32.229 17.0113C32.2621 17.0358 32.2966 17.0582 32.3326 17.0783C32.3705 17.1002 32.3982 17.1367 32.4346 17.1498C32.4711 17.1629 32.5148 17.2023 32.5542 17.2052C32.5936 17.2081 32.6315 17.1396 32.6709 17.1294C32.7103 17.1192 32.7628 17.1454 32.7992 17.1294C32.8357 17.1133 32.8415 17.055 32.8721 17.0244C32.9027 16.9938 32.9217 16.9558 32.9523 16.9267C32.983 16.8975 33.0369 16.8946 33.0661 16.8654C33.0952 16.8363 33.1113 16.7925 33.1419 16.7634C33.1725 16.7342 33.2061 16.7109 33.2367 16.6817C33.2673 16.6525 33.3081 16.6365 33.3388 16.6073C33.3694 16.5782 33.4379 16.5913 33.4685 16.5636C33.4992 16.5359 33.4686 16.4396 33.4963 16.4104C33.524 16.3813 33.5925 16.3988 33.6217 16.3711C33.6508 16.3434 33.6902 16.3288 33.7179 16.3011C33.7456 16.2734 33.7383 16.2078 33.7675 16.1801C33.7967 16.1524 33.8302 16.1334 33.8594 16.1057C33.8885 16.078 33.9206 16.0561 33.9498 16.0284C33.9789 16.0007 34.0314 15.9992 34.0591 15.9715C34.0869 15.9438 34.1204 15.9205 34.1496 15.8928C34.1787 15.8651 34.2181 15.8505 34.2458 15.8228C34.2735 15.7951 34.2546 15.7178 34.2837 15.6901C34.3129 15.6624 34.3668 15.6624 34.396 15.6347C34.4252 15.607 34.4616 15.588 34.4893 15.5603C34.517 15.5326 34.5535 15.5122 34.5827 15.4845C34.6118 15.4568 34.6045 15.394 34.6322 15.3663C34.6599 15.3386 34.7139 15.3357 34.7431 15.3066C34.7722 15.2774 34.7693 15.222 34.797 15.1943C34.8247 15.1666 34.8189 15.1053 34.8466 15.0761C34.8743 15.047 34.972 15.0863 34.9924 15.0572C35.0128 15.028 35.0406 14.993 35.0683 14.9639C35.096 14.9347 35.0901 14.8764 35.1164 14.8472C35.1426 14.818 35.1703 14.7874 35.1966 14.7583C35.2228 14.7291 35.2812 14.7305 35.3045 14.7028C35.3278 14.6751 35.287 14.5891 35.3045 14.557C35.322 14.5249 35.4182 14.5453 35.4386 14.5162C35.4591 14.487 35.4926 14.452 35.5086 14.4214C35.5197 14.3824 35.5261 14.3423 35.5276 14.3018C35.5342 14.2637 35.5342 14.2247 35.5276 14.1866C35.5276 14.1472 35.4751 14.1268 35.4547 14.0889C35.4342 14.0581 35.4096 14.0301 35.3818 14.0058C35.357 13.9766 35.3716 13.9096 35.338 13.8804C35.3045 13.8512 35.2418 13.8804 35.2083 13.8498L35.112 13.7769C35.0814 13.755 35.077 13.6908 35.042 13.666C35.0065 13.6444 34.9724 13.6205 34.9399 13.5946C34.9079 13.5683 34.8451 13.5712 34.816 13.5421C34.7868 13.5129 34.816 13.4327 34.7824 13.3962C34.7489 13.3598 34.6877 13.3642 34.6629 13.3306C34.6381 13.2971 34.606 13.2665 34.5841 13.2315C34.5622 13.1965 34.5477 13.1527 34.5287 13.1148C34.5097 13.0769 34.5389 13.0185 34.5287 12.9806C34.5185 12.9427 34.5068 12.9019 34.4937 12.8625C34.4881 12.8219 34.4847 12.781 34.4835 12.74C34.4748 12.6992 34.4062 12.6715 34.4004 12.6307C34.3899 12.5894 34.3821 12.5475 34.377 12.5052C34.3864 12.4211 34.402 12.3377 34.4237 12.2559C34.4339 12.215 34.4091 12.1582 34.4237 12.1217C34.4465 12.0836 34.4718 12.047 34.4995 12.0124C34.5214 11.9803 34.5929 11.9788 34.6147 11.9467C34.6366 11.9147 34.6468 11.8724 34.6687 11.8403C34.6906 11.8082 34.7474 11.798 34.7693 11.7645C34.7912 11.7309 34.7576 11.6609 34.781 11.6274C34.8043 11.5938 34.8524 11.5807 34.8743 11.5486C34.8962 11.5166 34.9253 11.4874 34.9487 11.4553C34.972 11.4232 34.972 11.3751 34.9954 11.343C35.0187 11.3109 35.0683 11.2978 35.0916 11.2657C35.1149 11.2336 35.0814 11.1593 35.1062 11.1286C35.131 11.098 35.1499 11.0616 35.1733 11.0295L35.2447 10.9333C35.268 10.9026 35.3103 10.8837 35.3337 10.8516C35.357 10.8195 35.3657 10.7772 35.3905 10.7451C35.4153 10.7131 35.4518 10.6912 35.4751 10.6591C35.4984 10.627 35.5786 10.6387 35.602 10.6066C35.6253 10.5745 35.6414 10.5366 35.6647 10.5045C35.688 10.4724 35.6501 10.3937 35.6749 10.3587C35.6997 10.3237 35.7347 10.3047 35.758 10.2727C35.7813 10.2406 35.8732 10.261 35.9038 10.2304C35.9345 10.1997 35.9359 10.1545 35.9593 10.1239C35.9826 10.0933 35.9592 10.0204 35.9811 9.98973C36.003 9.95911 36.0847 9.96934 36.108 9.93872C36.1313 9.90809 36.108 9.87602 36.1474 9.83373C36.1867 9.79144 36.178 9.78851 36.2101 9.74622C36.2422 9.70393 36.2567 9.71413 36.2888 9.67038C36.3209 9.62664 36.3005 9.61206 36.334 9.56977C36.3676 9.52748 36.4026 9.51872 36.4303 9.48664C36.458 9.45456 36.4624 9.40498 36.4901 9.37289C36.5178 9.34081 36.5936 9.35542 36.6228 9.3248C36.6519 9.29417 36.6403 9.22853 36.6694 9.19791C36.6986 9.16729 36.7686 9.17898 36.7978 9.14835C36.8269 9.11773 36.8488 9.09001 36.875 9.06084C36.9013 9.03168 36.875 8.95294 36.9013 8.92378C36.9275 8.89461 36.9407 8.85521 36.9669 8.82605C36.9931 8.79688 37.0282 8.7765 37.0529 8.74733C37.0777 8.71817 37.1171 8.6992 37.1419 8.66858C37.1667 8.63796 37.1608 8.58399 37.1842 8.55191C37.2075 8.51983 37.2571 8.5067 37.279 8.47316C37.3008 8.43962 37.3183 8.40317 37.3373 8.36963C37.3563 8.33609 37.4044 8.31274 37.4204 8.27774C37.4365 8.24274 37.4788 8.21213 37.4933 8.17567C37.5079 8.13921 37.4438 8.07213 37.4554 8.02985C37.4671 7.98756 37.5488 7.97299 37.559 7.93507C37.5692 7.89716 37.559 7.85048 37.559 7.81111C37.559 7.77173 37.5969 7.73381 37.5998 7.69298C37.6027 7.65215 37.5881 7.61134 37.5881 7.57051C37.5881 7.52968 37.5881 7.49029 37.5794 7.44946C37.5706 7.40863 37.5152 7.37947 37.5079 7.34009C37.5006 7.30072 37.5079 7.2628 37.4904 7.22343C37.4729 7.18405 37.5021 7.13741 37.4904 7.0995C37.4788 7.06158 37.4554 7.02804 37.4394 6.99159C37.4274 6.9529 37.4133 6.91492 37.3971 6.87784C37.3796 6.84284 37.3883 6.78887 37.3665 6.75533C37.3446 6.72179 37.3227 6.68388 37.2994 6.6518C37.2761 6.61972 37.209 6.61973 37.1827 6.58911C37.1565 6.55848 37.1157 6.54244 37.0879 6.51327C37.0602 6.48411 37.0573 6.43307 37.0267 6.40536C36.9961 6.37766 36.9625 6.36454 36.9304 6.33683ZM30.8058 15.8155C30.7722 15.8447 30.7154 15.8782 30.6818 15.9073C30.6483 15.9365 30.6074 15.9555 30.5739 15.9846C30.5404 16.0138 30.4922 16.024 30.4587 16.0532C30.4252 16.0823 30.4004 16.1217 30.3683 16.1494C30.3362 16.1771 30.3071 16.2136 30.275 16.2428C30.2429 16.2719 30.2312 16.3186 30.2006 16.3448C30.17 16.3711 30.1335 16.3915 30.1029 16.4177C30.0723 16.444 30.0373 16.4659 30.0066 16.4936C29.976 16.5213 29.9133 16.5096 29.8842 16.5359C29.855 16.5621 29.836 16.6058 29.8054 16.6321C29.7748 16.6583 29.7617 16.705 29.731 16.7313C29.7004 16.7575 29.6508 16.7619 29.6202 16.7881C29.5896 16.8144 29.6202 16.9077 29.5881 16.934C29.556 16.9602 29.4686 16.9209 29.4423 16.9486C29.4161 16.9763 29.3986 17.02 29.3694 17.0477C29.3402 17.0754 29.2877 17.0783 29.2586 17.106C29.2294 17.1337 29.2265 17.1892 29.1973 17.2169C29.1682 17.2446 29.1419 17.2767 29.1127 17.3044C29.0836 17.3321 29.0807 17.389 29.0515 17.4167C29.0223 17.4444 28.9844 17.4648 28.9552 17.4925C28.9261 17.5202 28.9086 17.561 28.878 17.5887C28.8473 17.6164 28.7511 17.5727 28.7205 17.6004C28.6898 17.6281 28.7205 17.7185 28.6913 17.7462C28.6621 17.7739 28.5849 17.7462 28.5542 17.7783C28.5236 17.8104 28.5236 17.8643 28.4944 17.8921C28.4653 17.9198 28.4434 17.9562 28.4128 17.9839C28.3822 18.0116 28.3734 18.0612 28.3442 18.0889C28.3151 18.1166 28.2742 18.1341 28.2451 18.1618C28.2159 18.1895 28.1532 18.1837 28.1241 18.2129C28.0949 18.242 28.0467 18.2508 28.0176 18.2785C27.9884 18.3062 28.0263 18.4054 27.9972 18.4345C27.968 18.4637 27.9257 18.4797 27.8966 18.5074C27.8674 18.5351 27.8047 18.5278 27.7755 18.557C27.7464 18.5862 27.7464 18.643 27.7172 18.6722C27.688 18.7014 27.6195 18.6882 27.5903 18.7174C27.5612 18.7466 27.5422 18.7845 27.513 18.8136C27.4839 18.8428 27.4882 18.9055 27.4591 18.9332C27.4299 18.9609 27.3701 18.961 27.3409 18.9887C27.3118 19.0164 27.271 19.0339 27.2403 19.0616C27.2097 19.0893 27.2257 19.1636 27.1966 19.1928C27.1674 19.222 27.0916 19.203 27.0624 19.2322C27.0333 19.2613 27.0478 19.3328 27.0187 19.3619C26.9895 19.3911 26.9326 19.3911 26.9035 19.4203C26.8743 19.4495 26.8801 19.5151 26.851 19.5442C26.8218 19.5734 26.7737 19.5822 26.7445 19.6099C26.7154 19.6376 26.6468 19.6303 26.6177 19.6594C26.5885 19.6886 26.5783 19.7367 26.5477 19.7673C26.4952 19.8198 26.466 19.7907 26.4135 19.8432C26.361 19.8957 26.3683 19.9044 26.3158 19.9569C26.2866 19.9846 26.3085 20.0619 26.2808 20.0896C26.2531 20.1173 26.1831 20.1042 26.1539 20.1319C26.1248 20.1596 26.081 20.1698 26.0533 20.199C26.0256 20.2282 26.0416 20.2996 26.0139 20.3273C25.9862 20.355 25.909 20.3273 25.8813 20.3609C25.8535 20.3944 25.8287 20.4207 25.801 20.4498C25.7733 20.479 25.7908 20.5504 25.7631 20.5781C25.7354 20.6059 25.7267 20.6554 25.699 20.6831C25.6713 20.7108 25.5838 20.6831 25.5531 20.7079C25.5225 20.7327 25.5167 20.7838 25.489 20.8115C25.4613 20.8392 25.4131 20.8479 25.3854 20.8756L25.3009 20.9602C25.2731 20.9879 25.2527 21.0244 25.225 21.0521C25.1973 21.0798 25.2119 21.1513 25.1842 21.179C25.1565 21.2067 25.1346 21.2431 25.1069 21.2708L25.0223 21.354C24.9946 21.3831 24.9028 21.3466 24.8765 21.3758C24.8503 21.405 24.8284 21.44 24.8007 21.4677C24.773 21.4954 24.7467 21.526 24.7175 21.5537C24.6884 21.5814 24.7073 21.6558 24.6796 21.6835C24.6519 21.7112 24.5615 21.6835 24.5338 21.7068C24.5061 21.7302 24.5105 21.7943 24.4813 21.822C24.4521 21.8498 24.4609 21.9139 24.4332 21.9416C24.4055 21.9693 24.3428 21.9635 24.3151 21.9926C24.2874 22.0218 24.2538 22.0437 24.2261 22.0729C24.1984 22.102 24.1897 22.1487 24.162 22.1764C24.1343 22.2041 24.089 22.2158 24.0613 22.2449C24.0336 22.2741 24.0161 22.3106 23.9884 22.3397C23.9607 22.3689 23.8922 22.3572 23.8645 22.3864C23.8368 22.4155 23.8645 22.5001 23.8411 22.5322C23.8178 22.5643 23.8003 22.6037 23.7726 22.6314C23.7449 22.6591 23.688 22.6605 23.6603 22.6882C23.6326 22.7159 23.6253 22.7655 23.5991 22.7947C23.5728 22.8239 23.4853 22.7947 23.4533 22.8253C23.4212 22.8559 23.4532 22.9405 23.4328 22.9711C23.4124 23.0018 23.3293 22.9813 23.3016 23.0105C23.2739 23.0397 23.2374 23.0601 23.2112 23.0878C23.1849 23.1155 23.1689 23.1578 23.1412 23.187C23.1135 23.2161 23.0726 23.2307 23.0449 23.2599C23.0172 23.289 22.9851 23.3109 22.9574 23.3401C22.9297 23.3692 22.9356 23.429 22.9093 23.4582C22.8831 23.4874 22.8904 23.5486 22.8627 23.5778C22.8349 23.607 22.7431 23.5778 22.7168 23.604C22.6906 23.6303 22.7037 23.7003 22.676 23.7295C22.6483 23.7586 22.6395 23.8038 22.6118 23.833C22.5841 23.8622 22.5433 23.8782 22.517 23.9059C22.4908 23.9336 22.4777 23.9788 22.45 24.008C22.4223 24.0371 22.3508 24.024 22.3231 24.0532C22.2954 24.0823 22.2619 24.1042 22.2342 24.1334C22.2064 24.1626 22.1904 24.2005 22.1627 24.2296C22.135 24.2588 22.1306 24.3084 22.1044 24.3375C22.0781 24.3667 22.0679 24.4119 22.0402 24.4411C22.0125 24.4702 21.9644 24.479 21.9367 24.5081C21.909 24.5373 21.9148 24.5956 21.8871 24.6233C21.8594 24.6511 21.7894 24.6423 21.7631 24.67C21.7369 24.6977 21.7048 24.7254 21.6771 24.7546C21.6494 24.7837 21.6013 24.7911 21.5736 24.8202C21.5458 24.8494 21.591 24.9442 21.5633 24.9661C21.5356 24.9879 21.4744 24.9908 21.4467 25.02C21.419 25.0492 21.3796 25.0637 21.3519 25.0929C21.3242 25.1221 21.3038 25.1542 21.2761 25.1833C21.2484 25.2125 21.2484 25.265 21.2207 25.2942C21.1929 25.3233 21.1871 25.3714 21.1594 25.4006C21.1317 25.4298 21.0588 25.4152 21.0311 25.4444C21.0034 25.4735 20.9815 25.5071 20.9538 25.5362C20.9261 25.5654 20.894 25.5887 20.8663 25.6179C20.8386 25.6471 20.8444 25.7054 20.8167 25.7346C20.789 25.7637 20.7146 25.7491 20.6884 25.7783C20.6621 25.8074 20.6971 25.8964 20.6709 25.9241C20.6446 25.9518 20.5819 25.9504 20.5542 25.9795C20.5265 26.0087 20.4813 26.0204 20.4536 26.0495C20.4259 26.0787 20.4317 26.1385 20.404 26.1677C20.3763 26.1968 20.3194 26.1983 20.2917 26.2274C20.264 26.2566 20.2626 26.3091 20.2349 26.3397L20.1532 26.4272C20.127 26.4564 20.1138 26.5001 20.0861 26.5293C20.0584 26.5585 19.9884 26.5482 19.9622 26.5774C19.9359 26.6066 19.9009 26.6314 19.8747 26.6605C19.8484 26.6897 19.8105 26.7101 19.7843 26.7393C19.758 26.7684 19.7711 26.837 19.7434 26.8662C19.7157 26.8953 19.707 26.942 19.6793 26.9712C19.6516 27.0003 19.5714 26.9799 19.5437 27.0091C19.516 27.0382 19.5116 27.0907 19.4839 27.1199C19.4562 27.1491 19.4664 27.2147 19.4372 27.2438C19.408 27.273 19.3658 27.2876 19.3381 27.3167C19.3103 27.3459 19.2753 27.3692 19.2476 27.3984C19.2199 27.4276 19.2126 27.4772 19.1849 27.5063C19.1572 27.5355 19.1193 27.5574 19.0916 27.5865C19.0639 27.6157 18.9764 27.5865 18.9458 27.6172C18.9152 27.6478 18.9458 27.7294 18.9166 27.763C18.8875 27.7965 18.8335 27.795 18.8058 27.8242C18.7781 27.8534 18.7518 27.8855 18.7227 27.9146C18.6935 27.9438 18.6687 27.9759 18.641 28.005C18.6133 28.0342 18.5768 28.0561 18.5477 28.0852C18.5185 28.1144 18.5302 28.1815 18.5025 28.2107C18.4748 28.2398 18.396 28.2209 18.3683 28.25C18.3406 28.2792 18.3158 28.3127 18.2866 28.3419C18.2575 28.3711 18.2269 28.3973 18.1991 28.4265C18.1714 28.4557 18.135 28.4775 18.1073 28.5067L18.0212 28.5942C17.9935 28.6233 17.979 28.6656 17.9498 28.6948C17.9206 28.724 17.8973 28.7561 17.8696 28.7852C17.8419 28.8144 17.8215 28.8523 17.7937 28.8815C17.766 28.9106 17.7544 28.9558 17.7252 28.985C17.6961 29.0141 17.6334 29.0083 17.6042 29.0375C17.575 29.0667 17.6042 29.1483 17.575 29.1833C17.5458 29.2183 17.4467 29.1717 17.419 29.2008C17.3913 29.23 17.3898 29.2854 17.3621 29.3145C17.3344 29.3437 17.3227 29.3685 17.2761 29.4152C17.2294 29.4619 17.1944 29.4298 17.1478 29.4779C17.1011 29.526 17.1667 29.5902 17.12 29.6383C17.0734 29.6864 17.0267 29.6383 16.9742 29.6893C16.9217 29.7404 16.9655 29.7943 16.9378 29.8206C16.91 29.8468 16.8707 29.8687 16.8415 29.8935C16.8123 29.9183 16.7365 29.8935 16.7059 29.9139C16.6753 29.9343 16.6344 29.946 16.6024 29.9678C16.5703 29.9897 16.5892 30.0933 16.5557 30.1137C16.5222 30.1341 16.4565 30.0991 16.4215 30.1137C16.3865 30.1283 16.3749 30.2027 16.3384 30.2187C16.3023 30.2361 16.2653 30.2516 16.2276 30.2653C16.1911 30.2785 16.1416 30.2653 16.1036 30.2726C16.0657 30.2799 16.0322 30.3164 15.9928 30.3251C15.9534 30.3339 15.9112 30.3251 15.8718 30.3251C15.8324 30.3251 15.7872 30.2653 15.7478 30.2697C15.7066 30.2757 15.6657 30.284 15.6253 30.2945C15.5845 30.2945 15.5626 30.3937 15.5233 30.4024C15.4839 30.4112 15.4328 30.3762 15.3949 30.3878C15.357 30.3995 15.3074 30.3879 15.271 30.4024C15.2345 30.417 15.2024 30.452 15.166 30.4695C15.1295 30.487 15.1033 30.5264 15.0683 30.5453C15.0333 30.5643 14.9706 30.5453 14.937 30.5599C14.9035 30.5745 14.8568 30.5905 14.8233 30.6124C14.7897 30.6343 14.8072 30.7335 14.7752 30.7582C14.7431 30.783 14.6964 30.7874 14.6643 30.8122C14.6323 30.837 14.5637 30.8122 14.5331 30.8399C14.5025 30.8676 14.4835 30.9084 14.4514 30.9347C14.4194 30.9609 14.3771 30.9711 14.345 30.9974C14.3129 31.0236 14.2721 31.0367 14.2414 31.063L14.1671 31.1243C14.1423 31.1447 14.1671 31.2336 14.1496 31.254C14.1321 31.2745 14.03 31.2424 14.0037 31.2701C13.9775 31.2978 13.9862 31.3795 13.9527 31.4072C13.9192 31.4349 13.8608 31.4276 13.8288 31.4553C13.7967 31.483 13.7952 31.5471 13.7631 31.5748C13.731 31.6026 13.6611 31.5851 13.629 31.6113C13.5969 31.6376 13.594 31.7032 13.5604 31.7294C13.5269 31.7557 13.4642 31.7455 13.4307 31.7717C13.3971 31.798 13.3767 31.8417 13.3431 31.868C13.3096 31.8942 13.3009 31.9511 13.2659 31.9773C13.2309 32.0036 13.1842 32.0109 13.1492 32.0357C13.1142 32.0605 13.0778 32.0502 13.0384 32.059C12.999 32.0677 12.964 32.1159 12.929 32.1159C12.894 32.1159 12.8692 32.0298 12.8474 32.0152C12.8255 32.0007 12.773 31.9963 12.7526 31.9569C12.7321 31.9176 12.7526 31.8767 12.7526 31.8388C12.7526 31.8009 12.6592 31.7615 12.6636 31.7265C12.6757 31.6857 12.6919 31.6461 12.7117 31.6084C12.7234 31.5719 12.7628 31.5442 12.7803 31.5078C12.7978 31.4713 12.8298 31.4465 12.8503 31.4115C12.8707 31.3765 12.8736 31.3328 12.8955 31.2993C12.8955 31.2993 12.8765 31.2774 12.8809 31.2701L12.9407 31.1724C12.9611 31.1403 13.0457 31.1505 13.0661 31.1184L13.1273 31.0237C13.1492 30.9916 13.1127 30.9186 13.1273 30.888C13.1419 30.8574 13.2279 30.8676 13.2513 30.8385C13.2746 30.8093 13.2804 30.7655 13.3052 30.7363C13.33 30.7072 13.3052 30.6343 13.3329 30.6066C13.3607 30.5789 13.4656 30.6168 13.4919 30.5862C13.5181 30.5556 13.5196 30.5001 13.5444 30.4681C13.5692 30.436 13.5634 30.382 13.5881 30.3485C13.6129 30.3149 13.6581 30.2989 13.68 30.2639C13.7019 30.2289 13.7369 30.2041 13.7588 30.1691C13.7806 30.1341 13.8244 30.1108 13.8433 30.0743C13.8623 30.0379 13.8317 29.9766 13.8433 29.9401C13.855 29.9037 13.9221 29.8862 13.9381 29.8483C13.9542 29.8104 13.9746 29.7739 13.9892 29.736C14.0037 29.6981 13.9308 29.6281 13.9439 29.5902C13.9571 29.5523 13.9819 29.5187 13.9935 29.4793C14.0052 29.44 14.0388 29.4108 14.0504 29.37C14.0621 29.3291 14.1306 29.3073 14.1408 29.2679C14.151 29.2285 14.1321 29.1819 14.1408 29.141C14.1496 29.1002 14.1189 29.0535 14.1277 29.0127C14.1364 28.9719 14.1977 28.9442 14.205 28.9033C14.2123 28.8625 14.1437 28.81 14.1496 28.7692C14.1554 28.7283 14.2254 28.7006 14.2342 28.6613C14.2429 28.6219 14.1889 28.5636 14.2006 28.5242C14.2123 28.4848 14.2692 28.46 14.2837 28.4207C14.2983 28.3813 14.3523 28.3609 14.3683 28.323C14.3843 28.285 14.3173 28.2107 14.3348 28.1771C14.3523 28.1436 14.3975 28.1173 14.4179 28.0794C14.4383 28.0415 14.4821 28.0226 14.5039 27.9876C14.5258 27.9526 14.5491 27.9205 14.571 27.8855C14.5929 27.8505 14.622 27.8213 14.6454 27.7878C14.6687 27.7542 14.6745 27.709 14.6993 27.6755C14.7241 27.6419 14.7548 27.6157 14.781 27.5836C14.8073 27.5515 14.8116 27.5034 14.8393 27.4728C14.867 27.4422 14.9181 27.4349 14.9443 27.4043C14.9706 27.3736 14.9443 27.2993 14.9691 27.2686C14.9939 27.238 15.0187 27.2059 15.0449 27.1753C15.0712 27.1447 15.1354 27.1491 15.1616 27.1199C15.1879 27.0907 15.2054 27.0513 15.2316 27.0222C15.2578 26.993 15.322 26.993 15.3468 26.9639C15.3716 26.9347 15.3468 26.8589 15.376 26.8297C15.4051 26.8005 15.4387 26.7787 15.4649 26.748C15.4912 26.7174 15.5597 26.7261 15.5859 26.6955C15.6122 26.6649 15.5685 26.573 15.5947 26.5424C15.621 26.5118 15.6589 26.4929 15.6851 26.4637C15.7114 26.4345 15.7216 26.3878 15.7478 26.3587C15.7741 26.3295 15.8397 26.3339 15.8674 26.3033C15.8951 26.2726 15.898 26.2245 15.9243 26.1954C15.9505 26.1662 15.9607 26.1195 15.987 26.0889C16.0132 26.0583 16.1095 26.0889 16.1328 26.0612C16.1561 26.0335 16.1488 25.9679 16.1751 25.9387C16.2013 25.9095 16.2684 25.9139 16.2947 25.8847C16.3209 25.8556 16.3501 25.8264 16.3763 25.7958C16.4026 25.7652 16.4288 25.736 16.4565 25.7068C16.4842 25.6777 16.5076 25.6456 16.5338 25.6164C16.5601 25.5873 16.5805 25.5493 16.6067 25.5202C16.633 25.491 16.6213 25.4254 16.6476 25.3962C16.6738 25.3671 16.719 25.3525 16.7453 25.3233C16.7715 25.2942 16.8371 25.2985 16.8634 25.2693C16.8896 25.2402 16.8882 25.1833 16.9144 25.1542C16.9407 25.125 16.9917 25.1177 17.018 25.0871C17.0442 25.0564 17.018 24.9719 17.0369 24.9412C17.0559 24.9106 17.0938 24.8858 17.1215 24.8552C17.1492 24.8246 17.1755 24.7969 17.2017 24.7663C17.228 24.7356 17.3038 24.7517 17.3315 24.7225C17.3592 24.6933 17.3767 24.6554 17.4029 24.6263L17.4846 24.5373C17.5108 24.5081 17.5386 24.479 17.5648 24.4484C17.5911 24.4177 17.5852 24.3594 17.6115 24.3302C17.6377 24.3011 17.7004 24.3025 17.7281 24.2734C17.7558 24.2442 17.7383 24.1742 17.7646 24.145C17.7908 24.1159 17.8302 24.0969 17.8579 24.0677C17.8856 24.0386 17.96 24.0517 17.9862 24.0226C18.0125 23.9934 18.0373 23.9598 18.065 23.9307C18.0927 23.9015 18.1146 23.868 18.1408 23.8388C18.1671 23.8097 18.1262 23.7178 18.1525 23.693L18.2371 23.6069C18.2633 23.5763 18.3523 23.607 18.3829 23.572C18.4135 23.537 18.4325 23.5092 18.4602 23.4786C18.4879 23.448 18.4762 23.3868 18.5039 23.3561C18.5316 23.3255 18.5973 23.3313 18.6235 23.3022C18.6498 23.273 18.6366 23.2059 18.6629 23.1753C18.6891 23.1447 18.7664 23.1607 18.7927 23.1301C18.8189 23.0995 18.8218 23.0484 18.8481 23.0178C18.8743 22.9872 18.8918 22.9493 18.9181 22.9201C18.9443 22.891 18.9866 22.872 19.0128 22.8428C19.0391 22.8137 19.0479 22.7655 19.0756 22.7364C19.1033 22.7072 19.1062 22.6562 19.1324 22.627C19.1587 22.5978 19.2141 22.5906 19.2403 22.5614C19.2666 22.5322 19.2491 22.4622 19.2768 22.4316C19.3045 22.401 19.3614 22.3995 19.3876 22.3689C19.4139 22.3383 19.4489 22.3164 19.4751 22.2858C19.5014 22.2551 19.5364 22.2333 19.5626 22.2026C19.5889 22.172 19.6005 22.1297 19.6268 22.0991C19.653 22.0685 19.7216 22.0743 19.7478 22.0452C19.7741 22.016 19.7653 21.9518 19.7916 21.9227C19.8178 21.8935 19.8791 21.892 19.9053 21.8629C19.9316 21.8337 19.9053 21.7535 19.9301 21.7171C19.9549 21.6806 19.9811 21.6529 20.0074 21.6222C20.0336 21.5916 20.1197 21.6135 20.1532 21.5829C20.1868 21.5522 20.194 21.51 20.2203 21.4793C20.2465 21.4487 20.2509 21.3991 20.2786 21.3685C20.3063 21.3379 20.3034 21.2825 20.3311 21.2519C20.3588 21.2213 20.4303 21.2314 20.458 21.2008C20.4857 21.1702 20.4886 21.1192 20.5149 21.0885C20.5411 21.0579 20.5746 21.0331 20.6009 21.0025C20.6271 20.9719 20.6592 20.9456 20.6869 20.915C20.7146 20.8844 20.7044 20.8217 20.7321 20.791C20.7598 20.7604 20.8021 20.7444 20.8284 20.7138C20.8546 20.6831 20.894 20.6642 20.9217 20.6336C20.9494 20.603 21.0136 20.6059 21.0398 20.5752C21.0661 20.5446 21.0894 20.5096 21.1171 20.479L21.1973 20.3886C21.225 20.3579 21.2236 20.3011 21.2513 20.2704C21.279 20.2398 21.2775 20.1859 21.3052 20.1553C21.3329 20.1246 21.3767 20.1101 21.4044 20.0794C21.4321 20.0488 21.505 20.0605 21.5327 20.0298C21.5604 19.9992 21.5327 19.9176 21.5561 19.884C21.5794 19.8505 21.6567 19.8636 21.6829 19.833C21.7092 19.8023 21.7165 19.7528 21.7427 19.7222C21.769 19.6915 21.7587 19.6274 21.7865 19.5967C21.8142 19.5661 21.8448 19.5369 21.871 19.5078C21.8973 19.4786 21.9804 19.4947 22.0081 19.4641C22.0358 19.4334 22.0402 19.3839 22.0679 19.3532C22.0956 19.3226 22.0854 19.2584 22.1116 19.2278C22.1379 19.1972 22.2094 19.2059 22.2356 19.1753C22.2619 19.1447 22.2677 19.0937 22.2954 19.063C22.3231 19.0324 22.3421 18.9959 22.3683 18.9653C22.3945 18.9347 22.4179 18.8997 22.4456 18.8705C22.4733 18.8414 22.5608 18.8705 22.5914 18.8355C22.622 18.8005 22.5768 18.713 22.6045 18.6897C22.6322 18.6664 22.7052 18.6722 22.7314 18.6416L22.8131 18.5541C22.8408 18.5235 22.8904 18.5147 22.9166 18.4841C22.9429 18.4535 22.9166 18.3776 22.9458 18.3485C22.9749 18.3193 23.0537 18.3368 23.0799 18.3076L23.1601 18.2172C23.1878 18.1881 23.2068 18.1516 23.2331 18.121C23.2593 18.0903 23.2797 18.0554 23.3074 18.0247C23.3351 17.9941 23.3162 17.9256 23.3439 17.8964C23.3716 17.8673 23.4197 17.857 23.4474 17.8279C23.4751 17.7987 23.5145 17.7798 23.5407 17.7506C23.567 17.7214 23.5626 17.6616 23.5903 17.631C23.618 17.6004 23.6749 17.6004 23.7026 17.5698C23.7303 17.5392 23.7201 17.4779 23.7464 17.4473C23.7726 17.4167 23.8484 17.4312 23.8747 17.4006C23.9009 17.37 23.9214 17.3335 23.9476 17.3044C23.9739 17.2752 24.0176 17.2592 24.0453 17.23C24.073 17.2008 24.0365 17.1133 24.0643 17.0842C24.092 17.055 24.1853 17.0842 24.2101 17.055C24.2349 17.0258 24.2305 16.966 24.2582 16.9354C24.2859 16.9048 24.3063 16.8727 24.334 16.8421C24.3617 16.8115 24.4011 16.7954 24.4288 16.7663C24.4565 16.7371 24.4857 16.7094 24.5134 16.6802C24.5411 16.6511 24.5484 16.6044 24.5761 16.5752C24.6038 16.5461 24.6053 16.4936 24.6315 16.463C24.6578 16.4323 24.6942 16.4119 24.7205 16.3813C24.7467 16.3507 24.7919 16.339 24.8196 16.3084C24.8473 16.2777 24.9144 16.288 24.9407 16.2588C24.9669 16.2296 24.9655 16.1713 24.9917 16.1421C25.0179 16.113 25.0646 16.0999 25.0923 16.0692C25.12 16.0386 25.1521 16.0167 25.1784 15.9861C25.2046 15.9555 25.1652 15.8651 25.1915 15.8403C25.2177 15.8155 25.3067 15.8403 25.3373 15.8082L25.419 15.7207C25.4467 15.6901 25.419 15.6069 25.4423 15.5749C25.4656 15.5428 25.505 15.5253 25.5327 15.4961C25.5604 15.4669 25.629 15.4757 25.6567 15.4466C25.6844 15.4174 25.6669 15.3488 25.6946 15.3182C25.7223 15.2876 25.7588 15.2686 25.785 15.2395C25.8112 15.2103 25.8594 15.1986 25.8856 15.1695C25.9119 15.1403 25.944 15.1141 25.9717 15.0849C25.9994 15.0557 25.995 14.9989 26.0212 14.9682C26.0475 14.9376 26.0956 14.9289 26.1218 14.8997C26.1481 14.8705 26.2137 14.8764 26.2414 14.8472C26.2691 14.818 26.2589 14.7539 26.2852 14.7247C26.3114 14.6956 26.3406 14.6678 26.3668 14.6387C26.3931 14.6095 26.4018 14.5614 26.4281 14.5322C26.4543 14.5031 26.4995 14.4899 26.5258 14.4608C26.552 14.4316 26.5725 14.398 26.6002 14.3689C26.6279 14.3397 26.6906 14.3456 26.7183 14.3164C26.746 14.2872 26.7372 14.2245 26.7649 14.1968C26.7927 14.1691 26.7941 14.1122 26.8233 14.0845C26.8524 14.0568 26.9181 14.0685 26.9472 14.0408C26.9764 14.0131 27.0099 13.9941 27.0391 13.9664C27.0683 13.9387 27.0726 13.8847 27.1018 13.8585C27.131 13.8322 27.2112 13.8585 27.2476 13.8337C27.2841 13.8089 27.2476 13.7229 27.2826 13.6879C27.3176 13.6529 27.3366 13.6281 27.3657 13.6018C27.3949 13.5756 27.4839 13.6135 27.5116 13.5873C27.5393 13.561 27.532 13.4896 27.5626 13.4633C27.5932 13.4371 27.6487 13.44 27.6793 13.4123L27.7697 13.3306C27.8003 13.3029 27.8455 13.2927 27.8761 13.2665C27.9068 13.2402 27.8761 13.144 27.9068 13.1206C27.9374 13.0973 27.9826 13.1206 28.0132 13.09C28.0672 13.1162 28.0978 13.0798 28.1415 13.1221C28.1853 13.1644 28.1182 13.2315 28.1619 13.2679C28.2057 13.3044 28.2742 13.2431 28.3165 13.2854C28.3588 13.3277 28.3311 13.3583 28.3734 13.4021C28.4157 13.4458 28.4405 13.421 28.4842 13.4633C28.528 13.5056 28.4842 13.5421 28.5353 13.5844C28.5863 13.6266 28.6199 13.5844 28.6636 13.6281C28.7073 13.6719 28.6534 13.7258 28.6957 13.7739C28.738 13.8221 28.7321 13.825 28.7744 13.8672C28.8167 13.9095 28.8269 13.9023 28.8692 13.946C28.9115 13.9897 28.9159 13.9854 28.9582 14.0291C29.0005 14.0729 28.9932 14.0802 29.0369 14.1224C29.0806 14.1647 29.0879 14.1574 29.1302 14.1997C29.1725 14.242 29.2002 14.2158 29.2425 14.2595C29.2848 14.3033 29.2761 14.312 29.3198 14.3543C29.3636 14.3966 29.3825 14.3776 29.4248 14.4199C29.4671 14.4622 29.4161 14.5147 29.4598 14.5585C29.5035 14.6022 29.5663 14.5381 29.6056 14.5818C29.645 14.6256 29.6333 14.6401 29.6756 14.6839C29.7179 14.7276 29.6654 14.7816 29.7077 14.8297C29.75 14.8778 29.7748 14.8501 29.8185 14.8924C29.8623 14.9347 29.8462 14.9507 29.89 14.9945C29.9337 15.0382 29.9221 15.0485 29.9658 15.0922C30.0096 15.136 30.0183 15.1257 30.0606 15.1695C30.1029 15.2132 30.1262 15.1914 30.17 15.2351C30.2137 15.2789 30.1831 15.308 30.2254 15.3503C30.2677 15.3926 30.2983 15.3649 30.3421 15.4072C30.3858 15.4495 30.3873 15.4495 30.431 15.4918C30.4748 15.5341 30.5097 15.5005 30.5535 15.5442C30.5972 15.588 30.5754 15.6084 30.6191 15.6522C30.6629 15.6959 30.6527 15.7047 30.7052 15.7382C30.7577 15.7717 30.7795 15.7557 30.8058 15.8111V15.8155ZM33.8798 12.0794C33.8652 12.1144 33.8258 12.1378 33.8112 12.1742C33.7967 12.2107 33.769 12.2384 33.7529 12.2748C33.7369 12.3113 33.7529 12.3142 33.7442 12.3492C33.6887 12.323 33.7019 12.3244 33.6581 12.2807C33.6144 12.2369 33.6085 12.2442 33.5648 12.2005C33.521 12.1567 33.5021 12.1786 33.4583 12.1349C33.4146 12.0911 33.4219 12.0853 33.3781 12.0415C33.3344 11.9978 33.3388 11.9949 33.295 11.9511C33.2513 11.9074 33.2863 11.8738 33.2425 11.8301C33.1988 11.7863 33.1842 11.8024 33.1419 11.7586C33.0996 11.7149 33.0807 11.7338 33.0369 11.6915C32.9932 11.6493 33.0165 11.6259 32.9728 11.5836C32.929 11.5413 32.8678 11.6026 32.8269 11.5588C32.7861 11.5151 32.8473 11.4524 32.8036 11.413C32.7598 11.3736 32.7438 11.3853 32.7 11.343C32.6563 11.3007 32.6782 11.2774 32.6344 11.2336C32.5907 11.1899 32.563 11.2191 32.5207 11.1753C32.4784 11.1316 32.4726 11.1359 32.4288 11.0936C32.3851 11.0514 32.3574 11.0776 32.3136 11.0353C32.2699 10.993 32.2772 10.9843 32.2334 10.9405C32.1897 10.8968 32.178 10.9099 32.1343 10.8661C32.0905 10.8224 32.1619 10.751 32.1182 10.7072C32.0744 10.6635 32.0132 10.7262 31.9724 10.6824C31.9315 10.6387 31.9724 10.5891 31.9359 10.5453C31.8995 10.5016 31.8645 10.5308 31.8207 10.487C31.777 10.4433 31.7682 10.452 31.7259 10.4083C31.6836 10.3645 31.6618 10.3835 31.618 10.3397C31.5743 10.296 31.5859 10.2858 31.5422 10.242C31.4984 10.1983 31.532 10.1647 31.4868 10.1195C31.4416 10.0743 31.4547 10.0802 31.4255 10.0248C31.4561 10.0029 31.4153 9.96059 31.4445 9.93872C31.4736 9.91684 31.5145 9.90954 31.5437 9.88912C31.5728 9.86871 31.6312 9.88914 31.6603 9.86726C31.6895 9.84539 31.7012 9.78561 31.7332 9.76373C31.7653 9.74186 31.8309 9.76371 31.863 9.73892C31.8951 9.71413 31.9184 9.68061 31.952 9.65728C31.9855 9.63395 31.987 9.57125 32.019 9.54791C32.0511 9.52458 32.1065 9.53479 32.1386 9.51146C32.1707 9.48812 32.213 9.4779 32.2451 9.45311C32.2771 9.42831 32.2684 9.35688 32.299 9.33209C32.3296 9.3073 32.4026 9.33207 32.4346 9.3102C32.4667 9.28833 32.4594 9.21248 32.4915 9.18769C32.5236 9.1629 32.579 9.17022 32.6111 9.14543C32.6432 9.12064 32.6432 9.05648 32.6753 9.03168C32.7073 9.00689 32.7584 9.00396 32.7905 8.97917C32.8226 8.95438 32.8896 8.97043 32.9217 8.94563C32.9538 8.92084 32.9713 8.87273 33.0034 8.84794C33.0355 8.82315 33.0938 8.82752 33.1273 8.80273C33.1609 8.77794 33.1856 8.74147 33.2177 8.71522C33.2498 8.68897 33.2381 8.60878 33.2702 8.58253C33.3023 8.55628 33.3723 8.58253 33.4044 8.54753C33.4365 8.51254 33.4831 8.51109 33.5138 8.48484C33.5444 8.45859 33.5356 8.38128 33.5663 8.35357C33.5969 8.32587 33.6742 8.35358 33.7121 8.32004C33.75 8.2865 33.7689 8.25735 33.7996 8.22818C33.8302 8.19902 33.8127 8.12462 33.8419 8.094C33.871 8.06338 33.8783 8.01526 33.906 7.98755C33.9337 7.95984 34.0212 7.98756 34.0518 7.96569C34.0825 7.94382 34.0927 7.89133 34.1218 7.86508C34.151 7.83883 34.1991 7.83298 34.2298 7.80819L34.3216 7.73236C34.3523 7.70611 34.377 7.67405 34.4077 7.64926C34.4383 7.62447 34.4354 7.55155 34.4675 7.52821C34.4995 7.50488 34.5258 7.47134 34.5593 7.44946L34.6585 7.38093C34.692 7.3576 34.7751 7.41009 34.8043 7.38093C34.8335 7.35176 34.8641 7.32843 34.8976 7.30802C34.9312 7.2876 34.9647 7.26282 34.9983 7.2424C35.0318 7.22199 35.0347 7.14761 35.0697 7.12719C35.1047 7.10678 35.182 7.16367 35.2155 7.14471C35.2491 7.12575 35.2637 7.0674 35.2987 7.04844C35.3337 7.02948 35.3468 6.96679 35.3818 6.94783C35.4168 6.92887 35.4751 6.94782 35.5101 6.93615C35.5451 6.92449 35.5859 6.90701 35.6209 6.88806C35.6559 6.8691 35.6807 6.82826 35.7157 6.81076C35.7507 6.79326 35.7988 6.79907 35.8353 6.78157C35.8717 6.76407 35.9009 6.73638 35.9359 6.72033C35.9709 6.70429 36.0307 6.7393 36.0672 6.72763C36.1036 6.71597 36.1269 6.62556 36.1649 6.61972C36.2082 6.60817 36.2527 6.6013 36.2976 6.59929C36.3369 6.59929 36.3734 6.65616 36.4113 6.67366C36.4492 6.69116 36.5017 6.68825 36.5353 6.7145C36.5688 6.74074 36.5353 6.82386 36.5732 6.86032C36.6111 6.89678 36.6898 6.86032 36.719 6.89678C36.7482 6.93323 36.719 7.0018 36.735 7.03242C36.7511 7.06304 36.7671 7.10387 36.7875 7.13595C36.808 7.16803 36.8415 7.19572 36.859 7.22926C36.8765 7.2628 36.8721 7.30801 36.8867 7.34301C36.898 7.37941 36.9072 7.41641 36.9144 7.45384C36.9246 7.49176 36.9771 7.51946 36.9815 7.55737C36.9859 7.59529 37.0398 7.63467 37.0413 7.67404C37.0427 7.71341 36.9509 7.74841 36.9465 7.78779C36.9421 7.82716 36.9917 7.8738 36.9815 7.91172C36.9795 7.95284 36.9746 7.99379 36.9669 8.03422C36.9471 8.06955 36.9252 8.10363 36.9013 8.1363C36.8838 8.17129 36.8809 8.21796 36.8604 8.2515C36.84 8.28504 36.7657 8.28212 36.7423 8.3142C36.719 8.34628 36.6884 8.36817 36.6621 8.39879C36.6359 8.42941 36.6198 8.46443 36.5921 8.49214C36.5644 8.51984 36.5586 8.56942 36.5294 8.59713C36.5003 8.62483 36.4871 8.66857 36.4565 8.69482C36.4259 8.72107 36.3748 8.72397 36.3457 8.75022C36.3165 8.77646 36.3151 8.83626 36.2844 8.86396C36.2538 8.89167 36.1853 8.87563 36.1561 8.90334C36.127 8.93105 36.0934 8.95585 36.0657 8.98501C36.038 9.01418 35.9855 9.02146 35.9578 9.04917C35.9301 9.07687 35.9709 9.17458 35.9432 9.20375C35.9155 9.23291 35.8528 9.22998 35.8251 9.26061C35.7974 9.29123 35.7565 9.30727 35.7288 9.3379C35.7011 9.36852 35.6807 9.40208 35.6545 9.43271C35.6282 9.46333 35.6282 9.51729 35.602 9.54791C35.5757 9.57854 35.5713 9.62812 35.5466 9.65874C35.5218 9.68937 35.4459 9.68206 35.4212 9.71268C35.3964 9.7433 35.3745 9.77975 35.3497 9.81183C35.3249 9.84391 35.2928 9.87164 35.268 9.90372C35.2433 9.9358 35.2535 9.99411 35.2301 10.0262C35.2068 10.0583 35.1295 10.0525 35.1047 10.0845C35.0799 10.1166 35.1281 10.2012 35.1047 10.2304C35.0814 10.2595 35.0201 10.2683 34.9954 10.3004C34.9706 10.3324 34.9268 10.3514 34.9035 10.3835C34.8801 10.4156 34.8933 10.4753 34.8699 10.5089C34.8466 10.5424 34.7883 10.5497 34.7649 10.5833C34.7416 10.6168 34.7474 10.6693 34.7241 10.7028C34.7008 10.7364 34.6789 10.7685 34.6556 10.802C34.6322 10.8355 34.622 10.8837 34.5972 10.9187C34.5724 10.9537 34.501 10.9566 34.4762 10.9916C34.4514 11.0266 34.4193 11.0586 34.3946 11.0936C34.3698 11.1286 34.3362 11.1564 34.3114 11.1914C34.2866 11.2264 34.3114 11.2949 34.2823 11.3299C34.2531 11.3649 34.2516 11.4159 34.2254 11.4509C34.1991 11.4859 34.1204 11.4757 34.0985 11.5093C34.0766 11.5428 34.0868 11.5953 34.0679 11.6303C34.0489 11.6653 34.0781 11.7236 34.0679 11.7601C34.0577 11.7965 34.0154 11.8213 33.9979 11.8578C33.9804 11.8942 33.9585 11.9263 33.9425 11.9642C33.9264 12.0021 33.8958 12.0371 33.8798 12.075V12.0794ZM34.8043 14.2231C34.8276 14.2508 34.8335 14.296 34.8656 14.3339C34.8408 14.366 34.8058 14.3864 34.7795 14.4185C34.7533 14.4506 34.7095 14.4681 34.6833 14.4987C34.657 14.5293 34.641 14.5701 34.6133 14.6022C34.5856 14.6343 34.5652 14.6693 34.5375 14.6999C34.5098 14.7305 34.5039 14.7801 34.4747 14.8107C34.4456 14.8414 34.412 14.8647 34.3829 14.8953C34.3537 14.926 34.3216 14.9508 34.2925 14.9799C34.2633 15.0091 34.2006 15.0032 34.1714 15.0324C34.1423 15.0616 34.1277 15.1053 34.0971 15.1345C34.0664 15.1636 34.0562 15.2103 34.0256 15.238C33.995 15.2657 33.9454 15.2716 33.9148 15.3007C33.8842 15.3299 33.9148 15.4218 33.8827 15.4466C33.8506 15.4713 33.7617 15.4363 33.7369 15.464C33.7121 15.4917 33.6917 15.537 33.661 15.5632C33.6304 15.5895 33.5794 15.5953 33.5473 15.623C33.5152 15.6507 33.5123 15.7076 33.4817 15.7353C33.4511 15.763 33.4248 15.7936 33.3942 15.8213C33.3635 15.849 33.3592 15.9059 33.3286 15.9321C33.2979 15.9584 33.2615 15.9788 33.2308 16.0065C33.2002 16.0342 33.1827 16.0736 33.1521 16.0998C33.1215 16.1261 33.0238 16.0809 32.9932 16.1071C32.9625 16.1334 32.9932 16.2267 32.9611 16.253C32.929 16.2792 32.8532 16.253 32.8152 16.285C32.7773 16.3171 32.7832 16.3696 32.7526 16.3988C32.7219 16.428 32.6927 16.4673 32.6636 16.495C32.6315 16.4746 32.5717 16.4731 32.5367 16.4498C32.5017 16.4265 32.4813 16.3901 32.4478 16.3667C32.4142 16.3434 32.4128 16.2821 32.3807 16.2574C32.3486 16.2326 32.334 16.1888 32.3019 16.164C32.2699 16.1392 32.1794 16.1917 32.1561 16.164C32.1328 16.1363 32.1051 16.1013 32.073 16.0765C32.0409 16.0517 32.0438 15.9876 32.0132 15.9628C31.9826 15.938 31.9243 15.9438 31.8936 15.9176C31.863 15.8913 31.8703 15.8242 31.8397 15.798C31.8091 15.7717 31.7697 15.7586 31.7391 15.7324C31.7084 15.7061 31.6472 15.7178 31.6166 15.6915C31.5859 15.6653 31.5859 15.6069 31.5553 15.5807C31.5247 15.5545 31.5087 15.5136 31.478 15.4874C31.4474 15.4611 31.3774 15.4874 31.3468 15.4539C31.3162 15.4203 31.3322 15.3518 31.303 15.3255C31.2739 15.2993 31.2024 15.3168 31.1732 15.2905C31.1441 15.2643 31.1412 15.2074 31.1106 15.1797C31.0799 15.152 31.0172 15.1636 30.988 15.1374C30.9589 15.1111 30.9487 15.063 30.9195 15.0353C30.8903 15.0076 30.8991 14.942 30.8699 14.9143C30.8408 14.8866 30.7941 14.8807 30.7649 14.853C30.7358 14.8253 30.7343 14.7685 30.7066 14.7407C30.6789 14.713 30.641 14.6955 30.6118 14.6678C30.5827 14.6401 30.5054 14.6678 30.4762 14.6358C30.447 14.6037 30.4602 14.5366 30.431 14.5089C30.4018 14.4812 30.3902 14.4374 30.3625 14.4097C30.3348 14.382 30.2604 14.3995 30.2312 14.3703C30.2021 14.3412 30.2312 14.2654 30.1948 14.2377C30.1583 14.2099 30.1335 14.1866 30.1058 14.1574C30.0781 14.1283 30.0037 14.1472 29.9746 14.1195C29.9454 14.0918 29.8973 14.0831 29.8681 14.0554C29.839 14.0277 29.8681 13.9387 29.8433 13.9095C29.8185 13.8804 29.766 13.8716 29.7383 13.8425C29.7106 13.8133 29.7019 13.7666 29.6727 13.7389L29.5881 13.6514C29.5604 13.6237 29.5254 13.6018 29.4963 13.5727C29.4671 13.5435 29.3971 13.5581 29.3694 13.5289C29.3417 13.4998 29.3052 13.4779 29.2775 13.4502L29.1959 13.3612C29.1682 13.3321 29.2061 13.2417 29.1784 13.2154C29.1507 13.1892 29.1142 13.1644 29.0865 13.1352L29.0019 13.0492C28.9742 13.0186 28.9013 13.0331 28.8736 13.004C28.8459 12.9748 28.8838 12.8844 28.8561 12.8581C28.8284 12.8319 28.7686 12.829 28.7423 12.7998C28.7161 12.7706 28.6519 12.7721 28.6242 12.7429C28.5965 12.7138 28.6067 12.6496 28.5805 12.6204C28.5542 12.5913 28.5324 12.5563 28.5061 12.5257C28.4799 12.495 28.4317 12.4834 28.4055 12.4542C28.3792 12.425 28.3719 12.3769 28.3457 12.3478C28.3194 12.3186 28.283 12.2953 28.2567 12.2661C28.2305 12.2369 28.248 12.1684 28.2217 12.1392C28.1955 12.1101 28.108 12.1305 28.0759 12.0999C28.0438 12.0692 28.0088 12.0517 27.9826 12.0211C27.9563 11.9905 27.9636 11.9321 27.9388 11.9015C27.9141 11.8709 27.8674 11.8578 27.8426 11.8272C27.8178 11.7965 27.8557 11.7149 27.8324 11.6813C27.8091 11.6478 27.7157 11.6697 27.6866 11.639C27.6574 11.6084 27.6939 11.534 27.672 11.5034C27.672 11.5034 27.6807 11.5355 27.6807 11.534C27.707 11.502 27.7201 11.4597 27.7463 11.4276C27.7726 11.3955 27.8149 11.3751 27.8411 11.343C27.8674 11.3109 27.8995 11.2832 27.9257 11.2497C27.952 11.2161 27.9418 11.1563 27.968 11.1243C27.9943 11.0922 27.9811 11.0295 28.0059 10.996C28.0307 10.9624 28.127 10.9887 28.1517 10.958C28.1765 10.9274 28.1517 10.8589 28.1809 10.8268C28.2101 10.7947 28.2144 10.7495 28.2392 10.7189C28.264 10.6882 28.3049 10.6678 28.3311 10.6372C28.3574 10.6066 28.3661 10.5614 28.3924 10.5308C28.4186 10.5002 28.4915 10.5089 28.5178 10.4783C28.544 10.4476 28.5776 10.4243 28.6038 10.3937C28.6301 10.363 28.6476 10.3251 28.6753 10.2945C28.703 10.2639 28.7073 10.2158 28.7351 10.1866C28.7628 10.1574 28.7744 10.1108 28.8021 10.0816C28.8298 10.0525 28.8823 10.0466 28.9115 10.0189C28.9407 9.99122 28.9407 9.93143 28.9698 9.90372C28.999 9.87601 29.0705 9.89497 29.1011 9.86872C29.1317 9.84247 29.1652 9.8206 29.1973 9.79435C29.2294 9.7681 29.279 9.76955 29.3111 9.74622C29.3431 9.72288 29.3111 9.61935 29.3519 9.60039C29.3927 9.58143 29.4438 9.6004 29.4802 9.57707C29.5179 9.56429 29.5564 9.55406 29.5954 9.54645C29.6305 9.53014 29.6671 9.51743 29.7048 9.50854C29.7442 9.50854 29.7835 9.46625 29.8229 9.47062C29.8673 9.46719 29.9119 9.46965 29.9556 9.47792C29.9892 9.49396 29.9921 9.57122 30.0241 9.59893C30.0541 9.62389 30.081 9.65229 30.1044 9.68352C30.1277 9.7156 30.1452 9.75351 30.17 9.78559C30.1948 9.81767 30.2531 9.8235 30.2779 9.85559C30.3027 9.88767 30.2779 9.96057 30.3041 9.99119C30.3304 10.0218 30.4223 9.99119 30.45 10.0276C30.4777 10.0641 30.4675 10.1195 30.4952 10.1487C30.5229 10.1779 30.5302 10.2274 30.5579 10.2566C30.5856 10.2858 30.6454 10.2858 30.6731 10.315C30.7008 10.3441 30.6979 10.4024 30.727 10.4316C30.7562 10.4608 30.8087 10.4652 30.8364 10.4929L30.9239 10.5774C30.9531 10.6066 30.9953 10.6197 31.0245 10.6474C31.0537 10.6751 31.0435 10.7451 31.0726 10.7728C31.1018 10.8005 31.1266 10.8341 31.1572 10.8618C31.1878 10.8895 31.2083 10.9259 31.2374 10.9522C31.2666 10.9784 31.3366 10.9653 31.3657 10.993C31.3949 11.0207 31.4416 11.028 31.4722 11.0557C31.5028 11.0834 31.4824 11.1637 31.513 11.1914C31.5437 11.2191 31.5947 11.222 31.6253 11.2497C31.6559 11.2774 31.7186 11.2687 31.7493 11.2964C31.7799 11.3241 31.7945 11.3678 31.8236 11.3955C31.8528 11.4232 31.8761 11.4597 31.9068 11.4874C31.9374 11.5151 31.9855 11.5238 32.0147 11.5516C32.0438 11.5793 32.0657 11.6186 32.0949 11.6478C32.124 11.677 32.0949 11.763 32.1226 11.7936C32.1503 11.8242 32.232 11.7936 32.2597 11.8242C32.2874 11.8549 32.2888 11.9059 32.3165 11.9336L32.4026 12.0153C32.4303 12.043 32.4609 12.0678 32.4886 12.0955C32.5163 12.1232 32.5367 12.1596 32.5659 12.1873C32.5951 12.215 32.6592 12.2019 32.6884 12.2296C32.7175 12.2573 32.6971 12.3346 32.7263 12.3609C32.7555 12.3871 32.7861 12.4119 32.8152 12.4396C32.8444 12.4673 32.8692 12.4965 32.8984 12.5242C32.9275 12.5519 32.9494 12.5855 32.9786 12.6117L33.0646 12.6933C33.0938 12.7196 33.1346 12.7327 33.1638 12.7604C33.1929 12.7881 33.225 12.81 33.2542 12.8377C33.2833 12.8654 33.3213 12.8815 33.3504 12.9077C33.3796 12.934 33.4248 12.9427 33.454 12.9704C33.4831 12.9981 33.4788 13.0609 33.5079 13.0871C33.5371 13.1134 33.6173 13.0871 33.6537 13.1104C33.6902 13.1338 33.645 13.2373 33.6742 13.2635C33.7033 13.2898 33.7587 13.2883 33.7879 13.3146C33.8171 13.3408 33.8521 13.3598 33.8812 13.386C33.9104 13.4123 33.906 13.475 33.9352 13.5012C33.9644 13.5275 34.0562 13.4867 34.081 13.5144C34.1058 13.5421 34.0956 13.615 34.1248 13.6412C34.1539 13.6675 34.2298 13.6412 34.2589 13.6704C34.2881 13.6996 34.3114 13.7316 34.3406 13.7579C34.3697 13.7841 34.3508 13.8629 34.38 13.8891C34.4091 13.9154 34.4281 13.9547 34.4572 13.981C34.4864 14.0072 34.5797 13.9635 34.6031 13.9912C34.6264 14.0189 34.6191 14.0904 34.6483 14.1166C34.6775 14.1429 34.7518 14.156 34.8043 14.2187V14.2231Z" fill="#282828"/>
<path d="M14.7494 38.9173C14.7406 38.8793 14.7494 38.8356 14.7407 38.7977C14.7319 38.7598 14.71 38.7248 14.6998 38.6868C14.6896 38.6489 14.6619 38.6169 14.6502 38.5789C14.6386 38.541 14.6313 38.5031 14.6211 38.4652C14.6109 38.4273 14.6109 38.3865 14.5992 38.3486C14.5875 38.3106 14.5788 38.2727 14.5671 38.2348C14.5554 38.1969 14.5248 38.1648 14.5117 38.1284C14.4986 38.0919 14.5 38.0481 14.4855 38.0117C14.4709 37.9752 14.4519 37.9402 14.4373 37.9038C14.4227 37.8673 14.4169 37.8265 14.4009 37.79C14.3848 37.7536 14.3776 37.7142 14.3601 37.6777C14.3426 37.6413 14.3148 37.6121 14.2973 37.5757C14.2798 37.5392 14.2682 37.5013 14.2507 37.4648C14.2332 37.4284 14.2069 37.3978 14.1894 37.3628C14.1719 37.3278 14.1413 37.2971 14.1224 37.2621C14.1034 37.2271 14.1078 37.1805 14.0903 37.144C14.0728 37.1076 14.0378 37.0813 14.0203 37.0463C14.0028 37.0113 13.9955 36.9676 13.978 36.9311C13.9605 36.8946 13.9357 36.8611 13.9182 36.8246C13.9007 36.7882 13.889 36.7488 13.8715 36.7124C13.854 36.6759 13.8336 36.6394 13.8161 36.603C13.7986 36.5665 13.7797 36.5301 13.7622 36.4936C13.7447 36.4572 13.7359 36.4164 13.7184 36.3799C13.7009 36.3435 13.6747 36.3114 13.6572 36.2735C13.6397 36.2355 13.628 36.1976 13.6105 36.1612C13.593 36.1247 13.5668 36.0926 13.5507 36.0547C13.5347 36.0168 13.5303 35.9745 13.5143 35.9381L13.4661 35.8258C13.4501 35.7879 13.437 35.7499 13.4209 35.712C13.4049 35.6741 13.3845 35.6391 13.3699 35.6012C13.3553 35.5633 13.3247 35.5312 13.3101 35.4933L13.2707 35.3781C13.2576 35.3402 13.243 35.3022 13.2299 35.2629C13.2168 35.2235 13.2299 35.1798 13.2124 35.1404C13.1949 35.101 13.1876 35.0631 13.1759 35.0252C13.1643 34.9873 13.1351 34.9508 13.1249 34.9114C13.1147 34.8721 13.1249 34.8283 13.1147 34.7889C13.1045 34.7496 13.0841 34.7131 13.0753 34.6723C13.0666 34.6314 13.0651 34.5921 13.0578 34.5527C13.0505 34.5133 13.036 34.474 13.0287 34.4331C13.0214 34.3923 13.0287 34.3514 13.0199 34.3106C13.011 34.2521 12.9846 34.1977 12.9441 34.1546C12.9295 34.14 12.9062 34.1313 12.8901 34.1138C12.8611 34.0747 12.8289 34.0382 12.7939 34.0044C12.7754 33.9891 12.7539 33.9778 12.7308 33.9713C12.7077 33.9647 12.6835 33.9631 12.6597 33.9665C12.6252 33.9719 12.5915 33.9811 12.5591 33.9942C12.523 33.9995 12.4874 34.0078 12.4526 34.019C12.4204 34.0371 12.3906 34.0592 12.3637 34.0846C12.3398 34.1128 12.322 34.1455 12.3112 34.1808C12.2952 34.2188 12.2747 34.2552 12.2587 34.2946C12.2427 34.334 12.2339 34.3733 12.2193 34.4113C12.2047 34.4492 12.196 34.4914 12.1799 34.5294C12.1639 34.5673 12.1304 34.5994 12.1143 34.6373C12.0983 34.6752 12.1012 34.7219 12.0866 34.7598C12.072 34.7977 12.0589 34.8385 12.0443 34.8764C12.0298 34.9144 12.0108 34.9537 11.9962 34.9916L11.9525 35.1083C11.9379 35.1477 11.9102 35.1812 11.8971 35.2191C11.8839 35.257 11.8723 35.3037 11.8562 35.3445C11.8402 35.3854 11.8198 35.4247 11.8037 35.4656C11.7877 35.5064 11.7775 35.5487 11.7614 35.5895C11.7454 35.6303 11.7366 35.6741 11.7206 35.7164C11.7046 35.7587 11.6944 35.7995 11.6783 35.8403C11.6623 35.8812 11.6331 35.9001 11.62 35.9351L11.5806 36.0357C11.5675 36.0693 11.5806 36.1116 11.5646 36.1466C11.5485 36.1816 11.5135 36.2151 11.499 36.2545C11.4844 36.2939 11.4727 36.3332 11.4581 36.3726C11.4435 36.412 11.426 36.4499 11.4114 36.4893C11.3969 36.5287 11.3925 36.5709 11.3764 36.6103C11.3604 36.6497 11.3356 36.6847 11.3196 36.7226C11.3035 36.7605 11.305 36.8072 11.289 36.8465C11.2729 36.8859 11.2423 36.9165 11.2248 36.9559C11.2073 36.9953 11.2029 37.0376 11.1854 37.0755C11.1679 37.1134 11.1388 37.1455 11.1213 37.1834C11.1038 37.2213 11.0775 37.2505 11.06 37.2855C11.0425 37.3205 11.0381 37.3642 11.0206 37.3992C11.0031 37.4342 10.9856 37.4707 10.9681 37.5071C10.9506 37.5436 10.9492 37.5859 10.9332 37.6223C10.9171 37.6588 10.885 37.688 10.869 37.7244C10.8529 37.7609 10.8442 37.8003 10.8296 37.8367C10.815 37.8732 10.7931 37.9082 10.7786 37.9461C10.764 37.984 10.7523 38.0204 10.7377 38.0584C10.7231 38.0963 10.7042 38.1313 10.6911 38.1677C10.678 38.2042 10.6561 38.2406 10.6429 38.2786C10.6298 38.3165 10.6429 38.3617 10.6269 38.3996C10.6109 38.4375 10.5817 38.4681 10.57 38.506C10.5584 38.5439 10.57 38.5892 10.5584 38.6271C10.5467 38.665 10.535 38.7044 10.5263 38.7423C10.5175 38.7802 10.5015 38.8181 10.4928 38.8575C10.484 38.8969 10.4811 38.9362 10.4738 38.9756C10.4665 39.015 10.4651 39.0543 10.4592 39.0937C10.4534 39.1331 10.4359 39.171 10.4315 39.2104C10.4271 39.2497 10.4315 39.2906 10.4315 39.33C10.4315 39.3693 10.414 39.4087 10.4125 39.4481C10.4111 39.4874 10.4242 39.5283 10.4228 39.5676C10.4213 39.607 10.4023 39.6464 10.4023 39.6872C10.4023 39.7281 10.4023 39.766 10.4111 39.8068C10.4198 39.8476 10.4198 39.8855 10.4228 39.9249C10.4257 39.9643 10.4228 40.0051 10.4228 40.046C10.4228 40.0868 10.4461 40.1218 10.4519 40.1626C10.4578 40.2034 10.4519 40.2428 10.4519 40.2822C10.4519 40.3216 10.4519 40.3624 10.465 40.4003C10.4782 40.4382 10.484 40.4776 10.4942 40.514C10.5044 40.5505 10.5263 40.587 10.538 40.6249C10.5496 40.6628 10.5657 40.6978 10.5802 40.7342C10.5948 40.7707 10.624 40.8013 10.64 40.8363C10.6561 40.8713 10.6677 40.9092 10.6852 40.9428L10.7421 41.0449C10.7625 41.0784 10.7655 41.1236 10.7873 41.1557C10.8092 41.1878 10.834 41.2198 10.8573 41.2505C10.8807 41.2811 10.904 41.3132 10.9302 41.3423C10.9565 41.3715 11.0031 41.3817 11.0308 41.4094C11.0585 41.4371 11.0673 41.4838 11.095 41.51C11.1227 41.5363 11.1533 41.5655 11.1825 41.5903L11.2773 41.6602C11.3094 41.6821 11.3444 41.7011 11.3779 41.7215C11.4104 41.7431 11.444 41.7631 11.4785 41.7813C11.5121 41.7988 11.5485 41.8148 11.585 41.8294C11.6214 41.844 11.6623 41.8425 11.7002 41.8556C11.7381 41.8688 11.7702 41.8863 11.8081 41.8979C11.846 41.9096 11.8839 41.9125 11.9218 41.9213C11.9597 41.93 11.9947 41.9563 12.0327 41.9621L12.1479 41.9825C12.1858 41.9825 12.2266 41.9825 12.2645 41.9913C12.3025 42 12.3433 41.9723 12.3826 41.9738C12.422 41.9752 12.4599 42 12.4993 42C12.5387 42 12.5824 42 12.6233 42C12.6641 42 12.7064 42 12.7487 42C12.791 42 12.8303 41.9825 12.8712 41.9767C12.912 41.9708 12.9557 41.9767 12.9966 41.9665C13.0374 41.9563 13.0768 41.9446 13.1176 41.9358C13.1584 41.9271 13.1978 41.9125 13.2372 41.9008C13.2766 41.8892 13.3159 41.8746 13.3553 41.8629C13.3947 41.8513 13.4384 41.8469 13.4763 41.8323C13.5143 41.8177 13.5449 41.7813 13.5828 41.7652C13.6207 41.7492 13.6601 41.7331 13.6965 41.7142C13.733 41.6952 13.7797 41.6952 13.8161 41.6748C13.8526 41.6544 13.8861 41.6311 13.9211 41.6077C13.9561 41.5844 13.9838 41.5538 14.0173 41.529C14.0509 41.5042 14.0976 41.4955 14.1282 41.4692C14.1556 41.439 14.1814 41.4074 14.2055 41.3744C14.2346 41.3467 14.274 41.3292 14.3003 41.3001C14.3265 41.2709 14.3469 41.2344 14.3717 41.2023C14.3965 41.1703 14.4009 41.1265 14.4227 41.093C14.4446 41.0594 14.484 41.0376 14.503 41.0026C14.5219 40.9676 14.5438 40.934 14.5613 40.8976C14.5788 40.8611 14.5817 40.8203 14.5963 40.7824C14.6109 40.7445 14.6415 40.7153 14.6546 40.6774C14.6677 40.6395 14.6648 40.5972 14.675 40.5578C14.6852 40.5184 14.6882 40.479 14.6969 40.4411C14.7057 40.4032 14.7421 40.3697 14.7494 40.3303C14.7567 40.2909 14.7494 40.2515 14.764 40.2122C14.7786 40.1728 14.764 40.1305 14.764 40.0912C14.764 40.0518 14.7917 40.0153 14.7975 39.9745C14.8034 39.9337 14.8179 39.8987 14.8238 39.8578C14.8296 39.817 14.8238 39.7776 14.8238 39.7382C14.8238 39.6989 14.8311 39.6581 14.8369 39.6187C14.8427 39.5793 14.8646 39.5414 14.869 39.5006C14.8734 39.4597 14.8777 39.4203 14.8836 39.381C14.8836 39.3722 14.8748 39.3708 14.8733 39.3635C14.8719 39.3562 14.8588 39.3635 14.8558 39.3518C14.8456 39.3183 14.8558 39.2789 14.8383 39.2424C14.8208 39.206 14.8296 39.1695 14.8194 39.1331L14.7932 39.0252C14.7844 38.9902 14.7596 38.9537 14.7494 38.9173ZM14.0509 40.3755C14.0422 40.4163 14.0115 40.4484 13.9999 40.4863C13.9911 40.5249 13.9799 40.5629 13.9663 40.6001C13.9556 40.6393 13.9425 40.6778 13.9269 40.7153C13.9051 40.7493 13.8813 40.7819 13.8555 40.813C13.8266 40.8417 13.7959 40.8685 13.7636 40.8932C13.7338 40.9196 13.7026 40.9444 13.6703 40.9676C13.6412 40.9961 13.61 41.0225 13.577 41.0463C13.5395 41.0616 13.501 41.0742 13.4618 41.0842C13.4258 41.1017 13.3888 41.1168 13.3509 41.1294C13.2853 41.1498 13.2824 41.1397 13.2168 41.1586C13.1818 41.1688 13.1424 41.1703 13.1059 41.1805C13.0695 41.1907 13.0374 41.2126 13.0009 41.2228C12.9645 41.233 12.9266 41.2359 12.8901 41.2446C12.8537 41.2534 12.8187 41.2709 12.7822 41.2782C12.7458 41.2855 12.7093 41.3059 12.6714 41.3102C12.6333 41.3085 12.5953 41.3047 12.5576 41.2986C12.5153 41.2986 12.476 41.3205 12.4366 41.3205C12.3972 41.3205 12.3549 41.3059 12.3141 41.3044C12.2733 41.303 12.2324 41.3044 12.1931 41.3044C12.1537 41.3044 12.1143 41.284 12.075 41.2767C12.0356 41.2694 11.9962 41.2607 11.9568 41.249C11.9175 41.2373 11.8796 41.2257 11.8431 41.2111C11.8066 41.1965 11.7731 41.1703 11.7366 41.1513C11.7002 41.1324 11.6608 41.1221 11.6273 41.1003C11.5944 41.0772 11.5627 41.0524 11.5325 41.0259C11.4992 41.0037 11.4671 40.9799 11.4362 40.9544C11.4071 40.9253 11.391 40.8859 11.3648 40.8553C11.3385 40.8247 11.3167 40.7926 11.2933 40.759C11.27 40.7255 11.2525 40.6919 11.2335 40.6555C11.2146 40.619 11.1912 40.587 11.1752 40.5505C11.1592 40.514 11.1286 40.482 11.1154 40.4426C11.1023 40.4032 11.0906 40.3668 11.0804 40.3259C11.0702 40.2851 11.0586 40.2487 11.0513 40.2078C11.044 40.167 11.0513 40.1262 11.0513 40.0853C11.0513 40.0445 11.0396 40.0066 11.0352 39.9672C11.0308 39.9278 11.009 39.8884 11.0061 39.8491C11.0031 39.8097 11.0236 39.7689 11.0221 39.7295C11.0206 39.6901 11.0104 39.6493 11.0104 39.6099C11.0104 39.5706 11.0206 39.5312 11.0236 39.4903C11.0265 39.4495 11.0236 39.4116 11.0236 39.3723C11.0236 39.3329 11.0425 39.295 11.0483 39.2541C11.0542 39.2133 11.0484 39.1754 11.06 39.136C11.0717 39.0966 11.06 39.0558 11.0746 39.0164C11.0892 38.977 11.1052 38.942 11.1169 38.9041C11.1285 38.8662 11.1285 38.8239 11.1417 38.786C11.1548 38.7481 11.1635 38.7102 11.1781 38.6723C11.1927 38.6344 11.2277 38.6067 11.2423 38.5688C11.2569 38.5308 11.2744 38.4973 11.289 38.4608C11.3035 38.4244 11.3065 38.3821 11.321 38.3456C11.3356 38.3092 11.356 38.2756 11.3706 38.2392C11.3852 38.2027 11.3954 38.1634 11.41 38.1284C11.4246 38.0934 11.4333 38.0525 11.4494 38.0161C11.4654 37.9796 11.499 37.9505 11.515 37.914C11.531 37.8775 11.5281 37.8352 11.5442 37.7988C11.5602 37.7623 11.5719 37.7244 11.5879 37.688C11.6039 37.6515 11.6229 37.618 11.6375 37.5815C11.6521 37.5451 11.6666 37.5086 11.6827 37.4721C11.6987 37.4357 11.7264 37.4036 11.741 37.3672C11.7556 37.3307 11.7658 37.2928 11.7818 37.2563C11.7979 37.2199 11.8183 37.1848 11.8329 37.1498C11.8475 37.1148 11.8606 37.0755 11.8752 37.039C11.8898 37.0026 11.9 36.9632 11.916 36.9268C11.9321 36.8903 11.9408 36.8524 11.9568 36.8159C11.9729 36.7795 12.0064 36.7517 12.021 36.7153C12.0356 36.6788 12.0531 36.6424 12.0677 36.6059C12.0822 36.5695 12.0764 36.5243 12.0925 36.4878C12.1085 36.4514 12.1435 36.4236 12.1595 36.3886C12.1756 36.3536 12.1872 36.3143 12.2018 36.2778C12.2164 36.2413 12.2339 36.2078 12.2485 36.1714C12.2631 36.1349 12.2704 36.0883 12.2879 36.0489C12.3054 36.0095 12.3302 35.973 12.3477 35.9337C12.3652 35.8943 12.3637 35.8491 12.3797 35.8097C12.3958 35.7703 12.4264 35.7368 12.4439 35.6974C12.4614 35.658 12.4658 35.6129 12.4818 35.5749C12.4979 35.537 12.5256 35.5006 12.5416 35.4612C12.5576 35.4218 12.5853 35.3868 12.6014 35.3475C12.6174 35.3081 12.6218 35.2629 12.6393 35.2235C12.6393 35.2235 12.6393 35.2235 12.6495 35.2235C12.6612 35.2643 12.6889 35.2993 12.7006 35.3402C12.7122 35.381 12.7093 35.4262 12.7224 35.4656C12.7355 35.505 12.753 35.5443 12.7662 35.5851C12.7793 35.626 12.7837 35.6668 12.7968 35.7076C12.8099 35.7485 12.8245 35.7879 12.8376 35.8272C12.8507 35.8666 12.8566 35.9103 12.8697 35.9497C12.8828 35.9891 12.8887 36.0328 12.9018 36.0722C12.9149 36.1116 12.9484 36.1451 12.963 36.186C12.9776 36.2268 12.9703 36.272 12.9849 36.3128C12.9995 36.3536 13.0345 36.3843 13.0505 36.4236C13.0666 36.463 13.0797 36.5024 13.0957 36.5403C13.1118 36.5782 13.122 36.6161 13.138 36.6526C13.1541 36.689 13.173 36.7226 13.1891 36.759C13.2051 36.7955 13.2284 36.829 13.2445 36.8655C13.2605 36.9019 13.2678 36.9413 13.2853 36.9778C13.3028 37.0142 13.3261 37.0463 13.3436 37.0813C13.3611 37.1163 13.3684 37.1571 13.3859 37.1921C13.4034 37.2271 13.437 37.2563 13.4545 37.2913C13.472 37.3263 13.4734 37.3715 13.4909 37.4065C13.5084 37.4415 13.5347 37.4736 13.5536 37.5071C13.5726 37.5407 13.5945 37.5757 13.6134 37.6107C13.6324 37.6457 13.6426 37.685 13.6615 37.7186C13.6805 37.7521 13.7126 37.7813 13.733 37.8148C13.7534 37.8484 13.7592 37.8921 13.7782 37.9256C13.7971 37.9592 13.8103 37.9986 13.8307 38.0321C13.8511 38.0656 13.873 38.1021 13.8919 38.1371C13.9109 38.1721 13.9386 38.2042 13.9547 38.2406C13.9707 38.2771 13.9911 38.3136 14.0057 38.35C14.0203 38.3865 14.0509 38.4215 14.064 38.4594C14.0771 38.4973 14.0844 38.5381 14.0961 38.5775C14.1078 38.6168 14.118 38.6548 14.1267 38.6941C14.1355 38.7335 14.1267 38.7787 14.1267 38.8181C14.1267 38.8575 14.1428 38.8968 14.1471 38.9377C14.1515 38.9785 14.1471 39.0179 14.1574 39.0572C14.1676 39.0966 14.1909 39.1375 14.1923 39.1768C14.1938 39.2162 14.1676 39.2585 14.1676 39.2993C14.1676 39.3402 14.1676 39.3795 14.1676 39.4204C14.1676 39.4612 14.1676 39.5006 14.1676 39.5414C14.1676 39.5822 14.1676 39.6216 14.1676 39.6624C14.1676 39.7033 14.1559 39.7412 14.1501 39.782C14.1442 39.8228 14.1413 39.8622 14.1355 39.9016C14.1296 39.941 14.1355 39.9847 14.1355 40.0256C14.1355 40.0664 14.1151 40.1028 14.1078 40.1436C14.1005 40.1845 14.099 40.2239 14.0903 40.2632C14.0815 40.3026 14.0597 40.3347 14.0509 40.3741V40.3755Z" fill="#282828"/>
<path d="M32.79 14.4915C32.752 14.5177 32.7127 14.5396 32.6762 14.5644C32.6398 14.5892 32.5975 14.6096 32.5595 14.6315C32.5209 14.655 32.4804 14.6755 32.4385 14.6927C32.4035 14.6767 32.37 14.6548 32.3364 14.6373C32.3029 14.6198 32.2679 14.6023 32.2358 14.5819C32.2037 14.5615 32.176 14.5309 32.1454 14.5075C32.1148 14.4842 32.0812 14.4652 32.0521 14.4404C32.0229 14.4156 31.9952 14.388 31.9675 14.3603C31.9398 14.3325 31.9092 14.3107 31.8814 14.283C31.8537 14.2553 31.8275 14.2275 31.8013 14.1998C31.775 14.1721 31.7546 14.1386 31.7283 14.1094C31.7021 14.0802 31.6685 14.0598 31.6423 14.0307C31.616 14.0015 31.5956 13.968 31.5694 13.9388C31.5431 13.9096 31.5081 13.8907 31.4804 13.8615C31.4527 13.8323 31.4352 13.7988 31.4075 13.7711C31.3798 13.7434 31.3477 13.7201 31.32 13.6938L31.2325 13.6151C31.2034 13.5888 31.1727 13.5655 31.1421 13.5407C31.1115 13.5159 31.0882 13.4838 31.0575 13.4605C31.0269 13.4371 30.9875 13.4255 30.954 13.4036C30.9205 13.3818 30.8913 13.3584 30.8578 13.338C30.8242 13.3176 30.7921 13.2972 30.7571 13.2797C30.7221 13.2622 30.6857 13.2476 30.6492 13.2316C30.6128 13.2155 30.5778 13.2024 30.5399 13.1893C30.5019 13.1761 30.4772 13.1134 30.4305 13.1514C30.3838 13.1893 30.4305 13.2082 30.4421 13.2666C30.4538 13.3249 30.4567 13.3395 30.4596 13.373C30.4626 13.4065 30.4596 13.4488 30.4596 13.4809C30.4596 13.5363 30.4596 13.5874 30.4596 13.6267C30.469 13.6755 30.4929 13.7202 30.5282 13.7551C30.5559 13.7842 30.5763 13.8207 30.604 13.8499L30.6901 13.933C30.7178 13.9621 30.7484 13.9884 30.7776 14.0161C30.8067 14.0438 30.83 14.0773 30.8592 14.1051C30.8884 14.1328 30.9176 14.159 30.9467 14.1882C30.9759 14.2173 31.008 14.2407 31.0357 14.2684C31.0634 14.2961 31.0853 14.334 31.113 14.3617C31.1407 14.3894 31.1771 14.4113 31.2063 14.439C31.2354 14.4667 31.2588 14.5002 31.2865 14.5294C31.3142 14.5586 31.3477 14.5819 31.3769 14.6096L31.4629 14.6942C31.4921 14.7219 31.5184 14.754 31.5461 14.7817C31.5738 14.8094 31.6029 14.84 31.6321 14.8677L31.7196 14.9508L31.8056 15.0339C31.8348 15.0617 31.8698 15.085 31.8989 15.1127L31.9865 15.1958L32.0739 15.2789C32.1016 15.3061 32.1331 15.3292 32.1673 15.3475C32.2022 15.365 32.2388 15.3786 32.2766 15.3883C32.3147 15.3984 32.3539 15.4038 32.3933 15.4043C32.4349 15.4066 32.4762 15.3959 32.5114 15.3737C32.542 15.3519 32.5712 15.3271 32.6033 15.3052C32.6354 15.2833 32.6645 15.26 32.6966 15.2395C32.7287 15.2191 32.7579 15.1929 32.79 15.1725C32.822 15.1521 32.8643 15.1331 32.8993 15.1112C32.9343 15.0894 32.9693 15.066 33.0043 15.0412C33.0393 15.0165 33.0699 14.9902 33.1049 14.9654C33.1399 14.9406 33.1691 14.9129 33.2026 14.8867C33.2362 14.8604 33.2653 14.8342 33.2974 14.805C33.3295 14.7758 33.3645 14.7554 33.3937 14.7248C33.4228 14.6942 33.4476 14.6606 33.4739 14.6285C33.5001 14.5965 33.5307 14.5673 33.557 14.5338C33.5832 14.5002 33.608 14.4682 33.6314 14.4317C33.6547 14.3952 33.6693 14.3573 33.6897 14.3194C33.7101 14.2815 33.7611 14.2757 33.7393 14.2304C33.7174 14.1852 33.6882 14.2232 33.6387 14.2144C33.5891 14.2057 33.5599 14.1969 33.5234 14.194C33.4846 14.191 33.4456 14.191 33.4068 14.194C33.3679 14.1994 33.3295 14.2072 33.2916 14.2173C33.254 14.2256 33.217 14.2363 33.1808 14.2494C33.1443 14.264 33.1078 14.2786 33.0743 14.2961C33.0389 14.3118 33.0044 14.3293 32.9708 14.3486C32.9372 14.369 32.911 14.3996 32.8789 14.4215C32.8468 14.4434 32.8206 14.4696 32.79 14.4915Z" fill="#282828"/>
<path d="M12.8842 40.0824C12.8637 40.043 12.8448 40.0051 12.8244 39.973C12.8005 39.9394 12.7709 39.9102 12.7369 39.8869C12.7048 39.8607 12.6727 39.8359 12.6435 39.8097L12.5561 39.7265C12.5283 39.6959 12.505 39.6624 12.4817 39.6317C12.458 39.5994 12.436 39.5659 12.416 39.5311C12.3942 39.4961 12.3767 39.4597 12.3592 39.4247C12.3417 39.3897 12.3213 39.3518 12.3081 39.3153C12.295 39.2789 12.2906 39.2366 12.2804 39.1972C12.2702 39.1578 12.2542 39.1214 12.2483 39.0806C12.2425 39.0397 12.2483 39.0003 12.2483 38.9595C12.2483 38.9187 12.2483 38.8807 12.2483 38.8399C12.2462 38.7996 12.2462 38.7592 12.2483 38.7189C12.2483 38.6795 12.26 38.6402 12.2658 38.6008C12.2709 38.5605 12.2782 38.5206 12.2877 38.4812C12.2877 38.4418 12.2994 38.4024 12.3081 38.3631C12.3169 38.3237 12.3271 38.2843 12.3373 38.2464C12.3475 38.2085 12.3548 38.2027 12.3621 38.1808C12.3742 38.1455 12.384 38.1095 12.3913 38.0729C12.4 38.0369 12.4 37.9994 12.3913 37.9635C12.3785 37.9249 12.3582 37.8892 12.3315 37.8585C12.3081 37.8308 12.2775 37.8045 12.2469 37.7725L12.1842 37.7054C12.1638 37.6835 12.1448 37.6602 12.1229 37.6354C12.0806 37.5873 12.1025 37.5363 12.0398 37.5421C11.9771 37.5479 12.0223 37.5931 12.0048 37.6456C11.9873 37.6981 11.9902 37.6981 11.9713 37.7506C11.9523 37.8031 11.9523 37.8031 11.9334 37.8556C11.9144 37.9081 11.9115 37.9066 11.894 37.9591C11.8765 38.0116 11.8721 38.032 11.8605 38.0641C11.8488 38.0962 11.8386 38.137 11.8269 38.1706C11.8153 38.2041 11.8007 38.2406 11.789 38.2741C11.7773 38.3077 11.7628 38.3427 11.7511 38.3777C11.7394 38.4127 11.7263 38.455 11.7161 38.4943C11.7059 38.5337 11.6942 38.573 11.6869 38.6139C11.6796 38.6547 11.6723 38.6941 11.668 38.7349C11.6636 38.7758 11.668 38.8166 11.668 38.8574C11.6658 38.8982 11.6658 38.9391 11.668 38.9799C11.668 39.0207 11.668 39.0616 11.668 39.1024C11.668 39.1432 11.6782 39.1841 11.6855 39.2235C11.6927 39.2628 11.7059 39.3036 11.7161 39.343C11.7263 39.3824 11.7365 39.4218 11.7496 39.4611C11.7628 39.5005 11.7773 39.5384 11.7934 39.5763C11.8094 39.6143 11.8255 39.6507 11.8444 39.6872C11.8634 39.7236 11.8852 39.7586 11.9057 39.7936C11.9261 39.8286 11.948 39.8636 11.9713 39.8972C11.9946 39.9307 12.0238 39.9599 12.0486 39.992C12.0734 40.024 12.0981 40.0576 12.1259 40.0867C12.1536 40.1159 12.1827 40.1465 12.2133 40.1742L12.3067 40.2544C12.3388 40.2792 12.3738 40.3011 12.4073 40.323C12.4408 40.3448 12.4788 40.3638 12.5138 40.3842C12.54 40.3995 12.5695 40.408 12.5998 40.409C12.66 40.405 12.7194 40.3928 12.7762 40.3725C12.8242 40.3591 12.8729 40.3484 12.9221 40.3405C12.9746 40.3303 13.0052 40.3638 13.0271 40.3157C13.0489 40.2676 12.995 40.2705 12.9673 40.2253C12.9396 40.1801 12.9075 40.1232 12.8842 40.0824Z" fill="#282828"/>
</svg>
